<svg width="186" height="20" viewBox="0 0 186 20" fill="none" xmlns="http://www.w3.org/2000/svg">
<path d="M29.472 10.432L29.104 11.712H31.776L31.408 10.432C31.2373 9.87733 31.072 9.30667 30.912 8.72C30.7627 8.13333 30.6133 7.552 30.464 6.976H30.4C30.2613 7.56267 30.112 8.14933 29.952 8.736C29.8027 9.312 29.6427 9.87733 29.472 10.432ZM25.968 16L29.376 5.536H31.552L34.96 16H33.008L32.192 13.168H28.672L27.856 16H25.968ZM36.0899 16V8.144H37.6099L37.7379 9.2H37.8019C38.1539 8.85867 38.5379 8.56533 38.9539 8.32C39.3699 8.07467 39.8445 7.952 40.3779 7.952C41.2205 7.952 41.8339 8.224 42.2179 8.768C42.6019 9.312 42.7939 10.08 42.7939 11.072V16H40.9539V11.312C40.9539 10.6613 40.8579 10.2027 40.6659 9.936C40.4739 9.66933 40.1592 9.536 39.7219 9.536C39.3805 9.536 39.0765 9.62133 38.8099 9.792C38.5539 9.952 38.2605 10.192 37.9299 10.512V16H36.0899ZM46.947 16.192C46.2643 16.192 45.7043 15.9787 45.267 15.552C44.8403 15.1253 44.627 14.5707 44.627 13.888C44.627 13.0453 44.995 12.3947 45.731 11.936C46.467 11.4667 47.6403 11.1467 49.251 10.976C49.2403 10.56 49.1283 10.2027 48.915 9.904C48.7123 9.59467 48.3443 9.44 47.811 9.44C47.427 9.44 47.0483 9.51467 46.675 9.664C46.3123 9.81333 45.955 9.99467 45.603 10.208L44.931 8.976C45.3683 8.69867 45.859 8.45867 46.403 8.256C46.9577 8.05333 47.5443 7.952 48.163 7.952C49.1443 7.952 49.875 8.24533 50.355 8.832C50.8457 9.408 51.091 10.2453 51.091 11.344V16H49.571L49.443 15.136H49.379C49.027 15.4347 48.6483 15.6853 48.243 15.888C47.8483 16.0907 47.4163 16.192 46.947 16.192ZM47.539 14.752C47.859 14.752 48.147 14.6773 48.403 14.528C48.6697 14.368 48.9523 14.1547 49.251 13.888V12.128C48.1843 12.2667 47.443 12.4747 47.027 12.752C46.611 13.0187 46.403 13.3493 46.403 13.744C46.403 14.096 46.5097 14.352 46.723 14.512C46.9363 14.672 47.2083 14.752 47.539 14.752ZM55.085 16.192C54.4343 16.192 53.9703 15.9947 53.693 15.6C53.4263 15.2053 53.293 14.6667 53.293 13.984V4.704H55.133V14.08C55.133 14.304 55.1757 14.464 55.261 14.56C55.3463 14.6453 55.437 14.688 55.533 14.688C55.5757 14.688 55.613 14.688 55.645 14.688C55.6877 14.6773 55.7463 14.6667 55.821 14.656L56.061 16.032C55.9543 16.0747 55.8157 16.112 55.645 16.144C55.485 16.176 55.2983 16.192 55.085 16.192ZM58.1648 19.232C57.9514 19.232 57.7648 19.216 57.6048 19.184C57.4448 19.152 57.2901 19.1147 57.1408 19.072L57.4768 17.632C57.5514 17.6533 57.6368 17.6747 57.7328 17.696C57.8394 17.728 57.9408 17.744 58.0368 17.744C58.4528 17.744 58.7834 17.616 59.0288 17.36C59.2848 17.1147 59.4768 16.7947 59.6048 16.4L59.7488 15.904L56.6608 8.144H58.5328L59.8928 12C60.0101 12.3413 60.1221 12.704 60.2288 13.088C60.3461 13.4613 60.4634 13.8347 60.5807 14.208H60.6448C60.7408 13.8453 60.8368 13.4773 60.9328 13.104C61.0394 12.72 61.1408 12.352 61.2368 12L62.4208 8.144H64.1968L61.3488 16.352C61.0181 17.2373 60.6181 17.936 60.1488 18.448C59.6794 18.9707 59.0181 19.232 58.1648 19.232ZM68.3266 16.192C67.42 16.192 66.7746 15.9307 66.3906 15.408C66.0173 14.8747 65.8306 14.1867 65.8306 13.344V9.6H64.7106V8.224L65.9266 8.144L66.1506 6H67.6866V8.144H69.6866V9.6H67.6866V13.344C67.6866 14.2613 68.0546 14.72 68.7906 14.72C68.9293 14.72 69.0733 14.704 69.2226 14.672C69.372 14.6293 69.5 14.5867 69.6066 14.544L69.9266 15.904C69.7133 15.9787 69.468 16.0427 69.1906 16.096C68.924 16.16 68.636 16.192 68.3266 16.192ZM71.3399 16V8.144H73.1799V16H71.3399ZM72.2679 6.768C71.9372 6.768 71.6705 6.672 71.4679 6.48C71.2652 6.288 71.1639 6.032 71.1639 5.712C71.1639 5.40267 71.2652 5.152 71.4679 4.96C71.6705 4.768 71.9372 4.672 72.2679 4.672C72.5985 4.672 72.8652 4.768 73.0679 4.96C73.2705 5.152 73.3719 5.40267 73.3719 5.712C73.3719 6.032 73.2705 6.288 73.0679 6.48C72.8652 6.672 72.5985 6.768 72.2679 6.768ZM78.8074 16.192C78.0927 16.192 77.4474 16.032 76.8714 15.712C76.306 15.3813 75.8527 14.912 75.5114 14.304C75.1807 13.6853 75.0154 12.944 75.0154 12.08C75.0154 11.2053 75.1967 10.464 75.5594 9.856C75.922 9.23733 76.402 8.768 76.9994 8.448C77.6074 8.11733 78.258 7.952 78.9514 7.952C79.4527 7.952 79.89 8.03733 80.2634 8.208C80.6367 8.37867 80.9674 8.58667 81.2554 8.832L80.3594 10.032C80.1567 9.85067 79.9487 9.712 79.7354 9.616C79.522 9.50933 79.2927 9.456 79.0474 9.456C78.418 9.456 77.9007 9.696 77.4954 10.176C77.1007 10.656 76.9034 11.2907 76.9034 12.08C76.9034 12.8587 77.0954 13.488 77.4794 13.968C77.874 14.448 78.3807 14.688 78.9994 14.688C79.3087 14.688 79.5967 14.624 79.8634 14.496C80.1407 14.3573 80.3914 14.1973 80.6154 14.016L81.3674 15.232C81.0047 15.552 80.5994 15.792 80.1514 15.952C79.7034 16.112 79.2554 16.192 78.8074 16.192ZM85.11 16.192C84.5767 16.192 84.0433 16.0907 83.51 15.888C82.9767 15.6747 82.518 15.4133 82.134 15.104L82.998 13.92C83.35 14.1867 83.702 14.4 84.054 14.56C84.406 14.72 84.7793 14.8 85.174 14.8C85.6007 14.8 85.9153 14.7093 86.118 14.528C86.3207 14.3467 86.422 14.1227 86.422 13.856C86.422 13.632 86.3367 13.4507 86.166 13.312C86.006 13.1627 85.798 13.0347 85.542 12.928C85.286 12.8107 85.0193 12.6987 84.742 12.592C84.4007 12.464 84.0593 12.3093 83.718 12.128C83.3873 11.936 83.1153 11.696 82.902 11.408C82.6887 11.1093 82.582 10.7413 82.582 10.304C82.582 9.61067 82.838 9.04533 83.35 8.608C83.862 8.17067 84.5553 7.952 85.43 7.952C85.9847 7.952 86.4807 8.048 86.918 8.24C87.3553 8.432 87.734 8.65067 88.054 8.896L87.206 10.016C86.9287 9.81333 86.646 9.65333 86.358 9.536C86.0807 9.408 85.7873 9.344 85.478 9.344C85.0833 9.344 84.79 9.42933 84.598 9.6C84.406 9.76 84.31 9.96267 84.31 10.208C84.31 10.5173 84.47 10.752 84.79 10.912C85.11 11.072 85.4833 11.2267 85.91 11.376C86.2727 11.504 86.6247 11.664 86.966 11.856C87.3073 12.0373 87.59 12.2773 87.814 12.576C88.0487 12.8747 88.166 13.2693 88.166 13.76C88.166 14.432 87.9047 15.008 87.382 15.488C86.8593 15.9573 86.102 16.192 85.11 16.192ZM93.1718 16V5.536H95.9718C97.5718 5.536 98.8198 5.968 99.7158 6.832C100.612 7.696 101.06 8.992 101.06 10.72C101.06 12.4587 100.617 13.776 99.7318 14.672C98.8464 15.5573 97.6251 16 96.0677 16H93.1718ZM95.0278 14.496H95.8438C96.8998 14.496 97.7158 14.192 98.2918 13.584C98.8678 12.9653 99.1558 12.0107 99.1558 10.72C99.1558 9.44 98.8678 8.50667 98.2918 7.92C97.7158 7.33333 96.8998 7.04 95.8438 7.04H95.0278V14.496ZM104.916 16.192C104.233 16.192 103.673 15.9787 103.236 15.552C102.809 15.1253 102.596 14.5707 102.596 13.888C102.596 13.0453 102.964 12.3947 103.7 11.936C104.436 11.4667 105.609 11.1467 107.22 10.976C107.209 10.56 107.097 10.2027 106.884 9.904C106.681 9.59467 106.313 9.44 105.78 9.44C105.396 9.44 105.017 9.51467 104.644 9.664C104.281 9.81333 103.924 9.99467 103.572 10.208L102.9 8.976C103.337 8.69867 103.828 8.45867 104.372 8.256C104.926 8.05333 105.513 7.952 106.132 7.952C107.113 7.952 107.844 8.24533 108.324 8.832C108.814 9.408 109.06 10.2453 109.06 11.344V16H107.54L107.412 15.136H107.348C106.996 15.4347 106.617 15.6853 106.212 15.888C105.817 16.0907 105.385 16.192 104.916 16.192ZM105.508 14.752C105.828 14.752 106.116 14.6773 106.372 14.528C106.638 14.368 106.921 14.1547 107.22 13.888V12.128C106.153 12.2667 105.412 12.4747 104.996 12.752C104.58 13.0187 104.372 13.3493 104.372 13.744C104.372 14.096 104.478 14.352 104.692 14.512C104.905 14.672 105.177 14.752 105.508 14.752ZM113.454 16.192C112.92 16.192 112.387 16.0907 111.854 15.888C111.32 15.6747 110.862 15.4133 110.478 15.104L111.342 13.92C111.694 14.1867 112.046 14.4 112.398 14.56C112.75 14.72 113.123 14.8 113.518 14.8C113.944 14.8 114.259 14.7093 114.462 14.528C114.664 14.3467 114.766 14.1227 114.766 13.856C114.766 13.632 114.68 13.4507 114.51 13.312C114.35 13.1627 114.142 13.0347 113.886 12.928C113.63 12.8107 113.363 12.6987 113.086 12.592C112.744 12.464 112.403 12.3093 112.062 12.128C111.731 11.936 111.459 11.696 111.246 11.408C111.032 11.1093 110.926 10.7413 110.926 10.304C110.926 9.61067 111.182 9.04533 111.694 8.608C112.206 8.17067 112.899 7.952 113.774 7.952C114.328 7.952 114.824 8.048 115.262 8.24C115.699 8.432 116.078 8.65067 116.398 8.896L115.55 10.016C115.272 9.81333 114.99 9.65333 114.702 9.536C114.424 9.408 114.131 9.344 113.822 9.344C113.427 9.344 113.134 9.42933 112.942 9.6C112.75 9.76 112.654 9.96267 112.654 10.208C112.654 10.5173 112.814 10.752 113.134 10.912C113.454 11.072 113.827 11.2267 114.254 11.376C114.616 11.504 114.968 11.664 115.31 11.856C115.651 12.0373 115.934 12.2773 116.158 12.576C116.392 12.8747 116.51 13.2693 116.51 13.76C116.51 14.432 116.248 15.008 115.726 15.488C115.203 15.9573 114.446 16.192 113.454 16.192ZM118.152 16V4.704H119.992V7.616L119.928 9.136C120.259 8.82667 120.627 8.55467 121.032 8.32C121.438 8.07467 121.907 7.952 122.44 7.952C123.283 7.952 123.896 8.224 124.28 8.768C124.664 9.312 124.856 10.08 124.856 11.072V16H123.016V11.312C123.016 10.6613 122.92 10.2027 122.728 9.936C122.536 9.66933 122.222 9.536 121.784 9.536C121.443 9.536 121.139 9.62133 120.872 9.792C120.616 9.952 120.323 10.192 119.992 10.512V16H118.152ZM130.882 16.192C130.136 16.192 129.421 15.8507 128.738 15.168H128.69L128.53 16H127.074V4.704H128.914V7.616L128.866 8.928C129.197 8.64 129.56 8.40533 129.954 8.224C130.349 8.04267 130.744 7.952 131.138 7.952C132.12 7.952 132.882 8.31467 133.426 9.04C133.97 9.76533 134.242 10.7307 134.242 11.936C134.242 12.832 134.082 13.6 133.762 14.24C133.442 14.8693 133.026 15.3547 132.514 15.696C132.013 16.0267 131.469 16.192 130.882 16.192ZM130.498 14.672C131.021 14.672 131.458 14.4427 131.81 13.984C132.162 13.5253 132.338 12.8533 132.338 11.968C132.338 11.1787 132.205 10.5653 131.938 10.128C131.672 9.69067 131.24 9.472 130.642 9.472C130.088 9.472 129.512 9.76533 128.914 10.352V14.016C129.192 14.2507 129.464 14.4213 129.73 14.528C130.008 14.624 130.264 14.672 130.498 14.672ZM139.306 16.192C138.655 16.192 138.047 16.032 137.482 15.712C136.917 15.3813 136.458 14.912 136.106 14.304C135.754 13.6853 135.578 12.944 135.578 12.08C135.578 11.2053 135.754 10.464 136.106 9.856C136.458 9.23733 136.917 8.768 137.482 8.448C138.047 8.11733 138.655 7.952 139.306 7.952C139.967 7.952 140.581 8.11733 141.146 8.448C141.711 8.768 142.17 9.23733 142.522 9.856C142.874 10.464 143.05 11.2053 143.05 12.08C143.05 12.944 142.874 13.6853 142.522 14.304C142.17 14.912 141.711 15.3813 141.146 15.712C140.581 16.032 139.967 16.192 139.306 16.192ZM139.306 14.688C139.882 14.688 140.335 14.448 140.666 13.968C140.997 13.488 141.162 12.8587 141.162 12.08C141.162 11.2907 140.997 10.656 140.666 10.176C140.335 9.696 139.882 9.456 139.306 9.456C138.73 9.456 138.277 9.696 137.946 10.176C137.626 10.656 137.466 11.2907 137.466 12.08C137.466 12.8587 137.626 13.488 137.946 13.968C138.277 14.448 138.73 14.688 139.306 14.688ZM146.588 16.192C145.905 16.192 145.345 15.9787 144.908 15.552C144.481 15.1253 144.268 14.5707 144.268 13.888C144.268 13.0453 144.636 12.3947 145.372 11.936C146.108 11.4667 147.281 11.1467 148.892 10.976C148.881 10.56 148.769 10.2027 148.556 9.904C148.353 9.59467 147.985 9.44 147.452 9.44C147.068 9.44 146.689 9.51467 146.316 9.664C145.953 9.81333 145.596 9.99467 145.244 10.208L144.572 8.976C145.009 8.69867 145.5 8.45867 146.044 8.256C146.598 8.05333 147.185 7.952 147.804 7.952C148.785 7.952 149.516 8.24533 149.996 8.832C150.486 9.408 150.732 10.2453 150.732 11.344V16H149.212L149.084 15.136H149.02C148.668 15.4347 148.289 15.6853 147.884 15.888C147.489 16.0907 147.057 16.192 146.588 16.192ZM147.18 14.752C147.5 14.752 147.788 14.6773 148.044 14.528C148.31 14.368 148.593 14.1547 148.892 13.888V12.128C147.825 12.2667 147.084 12.4747 146.668 12.752C146.252 13.0187 146.044 13.3493 146.044 13.744C146.044 14.096 146.15 14.352 146.364 14.512C146.577 14.672 146.849 14.752 147.18 14.752ZM152.934 16V8.144H154.454L154.582 9.536H154.646C154.923 9.024 155.259 8.63467 155.654 8.368C156.048 8.09067 156.454 7.952 156.87 7.952C157.243 7.952 157.542 8.00533 157.766 8.112L157.446 9.712C157.307 9.66933 157.179 9.63733 157.062 9.616C156.944 9.59467 156.8 9.584 156.63 9.584C156.32 9.584 155.995 9.70667 155.654 9.952C155.312 10.1867 155.019 10.6027 154.774 11.2V16H152.934ZM161.498 16.192C160.517 16.192 159.733 15.8293 159.146 15.104C158.559 14.3787 158.266 13.3707 158.266 12.08C158.266 11.2267 158.421 10.4907 158.73 9.872C159.05 9.25333 159.466 8.77867 159.978 8.448C160.49 8.11733 161.029 7.952 161.594 7.952C162.042 7.952 162.421 8.032 162.73 8.192C163.05 8.34133 163.359 8.54933 163.658 8.816L163.594 7.552V4.704H165.434V16H163.914L163.786 15.152H163.722C163.434 15.44 163.098 15.6853 162.714 15.888C162.33 16.0907 161.925 16.192 161.498 16.192ZM161.946 14.672C162.533 14.672 163.082 14.3787 163.594 13.792V10.128C163.327 9.88267 163.061 9.712 162.794 9.616C162.527 9.52 162.261 9.472 161.994 9.472C161.493 9.472 161.061 9.70133 160.698 10.16C160.346 10.608 160.17 11.2427 160.17 12.064C160.17 12.9067 160.325 13.552 160.634 14C160.943 14.448 161.381 14.672 161.946 14.672Z" fill="#5C5C5C"/>
<path fill-rule="evenodd" clip-rule="evenodd" d="M12.4444 3H1.55556C0.7 3 0 3.7 0 4.55556V15.4444C0 16.3 0.7 17 1.55556 17H12.4444C13.3 17 14 16.3 14 15.4444V4.55556C14 3.7 13.3 3 12.4444 3ZM4.66667 13.8889H3.11111V8.44444H4.66667V13.8889ZM7.77778 13.8889H6.22222V6.11111H7.77778V13.8889ZM10.8889 13.8889H9.33333V10.7778H10.8889V13.8889Z" fill="#5C5C5C"/>
<path fill-rule="evenodd" clip-rule="evenodd" d="M176 8L181 13L186 8L176 8Z" fill="black"/>
</svg>
