<svg width="216" height="47" viewBox="0 0 216 47" fill="none" xmlns="http://www.w3.org/2000/svg">
<rect x="1.5" y="1.5" width="213" height="44" fill="white"/>
<rect x="1.5" y="1.5" width="213" height="44" stroke="#2491FF" stroke-width="3"/>
<rect x="3.5" y="3.5" width="209" height="40" stroke="#565C65"/>
<path d="M173.58 11.5V35.5" stroke="#DFE1E2" stroke-linecap="square"/>
<path fill-rule="evenodd" clip-rule="evenodd" d="M189.117 17.38L195.224 23.5L189.117 29.62L190.997 31.5L198.997 23.5L190.997 15.5L189.117 17.38Z" fill="#565C65"/>
<path d="M54.408 29.2706C53.5333 29.2706 52.7493 29.0573 52.056 28.6306C51.3733 28.1933 50.8293 27.5693 50.424 26.7586C50.0293 25.9479 49.832 24.9719 49.832 23.8306C49.832 22.6999 50.0347 21.7293 50.44 20.9186C50.8453 20.1079 51.4 19.4839 52.104 19.0466C52.808 18.6093 53.6027 18.3906 54.488 18.3906C55.128 18.3906 55.6933 18.5239 56.184 18.7906C56.6747 19.0466 57.0693 19.3453 57.368 19.6866L56.648 20.5506C56.3707 20.2519 56.056 20.0119 55.704 19.8306C55.352 19.6493 54.952 19.5586 54.504 19.5586C53.8427 19.5586 53.2613 19.7346 52.76 20.0866C52.2693 20.4279 51.8853 20.9133 51.608 21.5426C51.3413 22.1719 51.208 22.9239 51.208 23.7986C51.208 24.6733 51.3413 25.4359 51.608 26.0866C51.8747 26.7266 52.248 27.2226 52.728 27.5746C53.2187 27.9266 53.7947 28.1026 54.456 28.1026C54.9573 28.1026 55.4053 27.9959 55.8 27.7826C56.1947 27.5693 56.5573 27.2813 56.888 26.9186L57.624 27.7506C57.208 28.2306 56.7387 28.6039 56.216 28.8706C55.6933 29.1373 55.0907 29.2706 54.408 29.2706ZM59.4526 29.0786V21.3026H60.5406L60.6526 22.7106H60.7006C60.9673 22.2199 61.2926 21.8306 61.6766 21.5426C62.0606 21.2546 62.4713 21.1106 62.9086 21.1106C63.218 21.1106 63.4953 21.1639 63.7406 21.2706L63.4846 22.4226C63.3566 22.3799 63.2393 22.3479 63.1326 22.3266C63.026 22.3053 62.8926 22.2946 62.7326 22.2946C62.402 22.2946 62.0553 22.4279 61.6926 22.6946C61.3406 22.9613 61.0313 23.4253 60.7646 24.0866V29.0786H59.4526ZM67.9953 29.2706C67.3019 29.2706 66.6726 29.1106 66.1073 28.7906C65.5419 28.4599 65.0939 27.9906 64.7633 27.3826C64.4326 26.7746 64.2673 26.0493 64.2673 25.2066C64.2673 24.3533 64.4326 23.6226 64.7633 23.0146C65.1046 22.4066 65.5419 21.9373 66.0753 21.6066C66.6086 21.2759 67.1686 21.1106 67.7552 21.1106C68.7473 21.1106 69.5099 21.4413 70.0433 22.1026C70.5873 22.7639 70.8593 23.6493 70.8593 24.7586C70.8593 24.8973 70.8539 25.0359 70.8433 25.1746C70.8433 25.3026 70.8326 25.4146 70.8113 25.5106H65.5633C65.6166 26.3319 65.8726 26.9879 66.3313 27.4786C66.8006 27.9693 67.4086 28.2146 68.1553 28.2146C68.5286 28.2146 68.8699 28.1613 69.1793 28.0546C69.4993 27.9373 69.8033 27.7879 70.0913 27.6066L70.5553 28.4706C70.2246 28.6839 69.8459 28.8706 69.4193 29.0306C69.0033 29.1906 68.5286 29.2706 67.9953 29.2706ZM65.5473 24.5666H69.7073C69.7073 23.7773 69.5366 23.1799 69.1953 22.7746C68.8646 22.3586 68.3953 22.1506 67.7873 22.1506C67.2433 22.1506 66.7526 22.3639 66.3153 22.7906C65.8886 23.2066 65.6326 23.7986 65.5473 24.5666ZM74.354 29.2706C73.7033 29.2706 73.1593 29.0786 72.722 28.6946C72.2953 28.2999 72.082 27.7559 72.082 27.0626C72.082 26.2093 72.4607 25.5586 73.218 25.1106C73.986 24.6519 75.1967 24.3319 76.85 24.1506C76.85 23.8199 76.802 23.5053 76.706 23.2066C76.6207 22.9079 76.4607 22.6679 76.226 22.4866C76.002 22.2946 75.6767 22.1986 75.25 22.1986C74.802 22.1986 74.3807 22.2839 73.986 22.4546C73.5913 22.6253 73.2393 22.8173 72.93 23.0306L72.418 22.1186C72.7807 21.8839 73.2233 21.6599 73.746 21.4466C74.2793 21.2226 74.8553 21.1106 75.474 21.1106C76.4233 21.1106 77.1113 21.4039 77.538 21.9906C77.9647 22.5666 78.178 23.3399 78.178 24.3106V29.0786H77.09L76.978 28.1506H76.93C76.5673 28.4493 76.1673 28.7106 75.73 28.9346C75.3033 29.1586 74.8447 29.2706 74.354 29.2706ZM74.738 28.2146C75.1113 28.2146 75.4633 28.1239 75.794 27.9426C76.1247 27.7613 76.4767 27.5053 76.85 27.1746V25.0146C75.5593 25.1746 74.6527 25.4146 74.13 25.7346C73.618 26.0546 73.362 26.4653 73.362 26.9666C73.362 27.4039 73.4953 27.7239 73.762 27.9266C74.0287 28.1186 74.354 28.2146 74.738 28.2146ZM82.8538 29.2706C82.0218 29.2706 81.4404 29.0306 81.1098 28.5506C80.7898 28.0706 80.6298 27.4466 80.6298 26.6786V22.3746H79.4778V21.3826L80.6938 21.3026L80.8538 19.1266H81.9578V21.3026H84.0538V22.3746H81.9578V26.6946C81.9578 27.1746 82.0431 27.5479 82.2138 27.8146C82.3951 28.0706 82.7098 28.1986 83.1578 28.1986C83.2964 28.1986 83.4458 28.1773 83.6058 28.1346C83.7658 28.0813 83.9098 28.0333 84.0378 27.9906L84.2938 28.9826C84.0804 29.0573 83.8458 29.1213 83.5898 29.1746C83.3444 29.2386 83.0991 29.2706 82.8538 29.2706ZM88.6173 29.2706C87.9879 29.2706 87.3959 29.1106 86.8413 28.7906C86.2973 28.4706 85.8546 28.0066 85.5133 27.3986C85.1826 26.7906 85.0173 26.0599 85.0173 25.2066C85.0173 24.3319 85.1826 23.5906 85.5133 22.9826C85.8546 22.3746 86.2973 21.9106 86.8413 21.5906C87.3959 21.2706 87.9879 21.1106 88.6173 21.1106C89.2573 21.1106 89.8493 21.2706 90.3933 21.5906C90.9373 21.9106 91.3746 22.3746 91.7053 22.9826C92.0466 23.5906 92.2173 24.3319 92.2173 25.2066C92.2173 26.0599 92.0466 26.7906 91.7053 27.3986C91.3746 28.0066 90.9373 28.4706 90.3933 28.7906C89.8493 29.1106 89.2573 29.2706 88.6173 29.2706ZM88.6173 28.1826C89.2893 28.1826 89.8279 27.9106 90.2333 27.3666C90.6493 26.8119 90.8573 26.0919 90.8573 25.2066C90.8573 24.3106 90.6493 23.5853 90.2333 23.0306C89.8279 22.4759 89.2893 22.1986 88.6173 22.1986C87.9559 22.1986 87.4173 22.4759 87.0013 23.0306C86.5853 23.5853 86.3773 24.3106 86.3773 25.2066C86.3773 26.0919 86.5853 26.8119 87.0013 27.3666C87.4173 27.9106 87.9559 28.1826 88.6173 28.1826ZM94.2651 29.0786V21.3026H95.3531L95.4651 22.7106H95.5131C95.7798 22.2199 96.1051 21.8306 96.4891 21.5426C96.8731 21.2546 97.2838 21.1106 97.7211 21.1106C98.0305 21.1106 98.3078 21.1639 98.5531 21.2706L98.2971 22.4226C98.1691 22.3799 98.0518 22.3479 97.9451 22.3266C97.8385 22.3053 97.7051 22.2946 97.5451 22.2946C97.2145 22.2946 96.8678 22.4279 96.5051 22.6946C96.1531 22.9613 95.8438 23.4253 95.5771 24.0866V29.0786H94.2651Z" fill="#1B1B1B"/>
<path d="M30.475 27.7117L38.85 19.3367L37.55 18.0367L29.175 26.4117L30.475 27.7117ZM23.95 29.8867C22.2833 29.8034 21.0417 29.4534 20.225 28.8367C19.4083 28.2201 19 27.3284 19 26.1617C19 25.0784 19.4458 24.1992 20.3375 23.5242C21.2292 22.8492 22.4667 22.4451 24.05 22.3117C24.7 22.2617 25.1875 22.1576 25.5125 21.9992C25.8375 21.8409 26 21.6201 26 21.3367C26 20.9034 25.7542 20.5784 25.2625 20.3617C24.7708 20.1451 23.9583 19.9867 22.825 19.8867L23 17.8867C24.7167 18.0201 25.9792 18.3659 26.7875 18.9242C27.5958 19.4826 28 20.2867 28 21.3367C28 22.2201 27.6792 22.9117 27.0375 23.4117C26.3958 23.9117 25.45 24.2117 24.2 24.3117C23.1333 24.3951 22.3333 24.5909 21.8 24.8992C21.2667 25.2076 21 25.6284 21 26.1617C21 26.7451 21.2333 27.1659 21.7 27.4242C22.1667 27.6826 22.95 27.8367 24.05 27.8867L23.95 29.8867ZM30.95 30.0617L26.825 25.9367L36.375 16.3867C36.7083 16.0534 37.1042 15.8867 37.5625 15.8867C38.0208 15.8867 38.4167 16.0534 38.75 16.3867L40.5 18.1367C40.8333 18.4701 41 18.8659 41 19.3242C41 19.7826 40.8333 20.1784 40.5 20.5117L30.95 30.0617ZM26.975 30.8867C26.6917 30.9534 26.4417 30.8784 26.225 30.6617C26.0083 30.4451 25.9333 30.1951 26 29.9117L26.825 25.9367L30.95 30.0617L26.975 30.8867Z" fill="#383838"/>
</svg>
