<svg width="1516" height="890" viewBox="0 0 1516 890" fill="none" xmlns="http://www.w3.org/2000/svg">
<rect width="1516" height="890" fill="#A5A5A5" fill-opacity="0.5"/>
<g filter="url(#filter0_d_182_13977)">
<rect x="506" y="168" width="504" height="456" rx="8" fill="white"/>
<path d="M586.705 258.54C584.245 258.54 581.98 257.97 579.91 256.83C577.84 255.69 576.175 254.01 574.915 251.79C573.685 249.54 573.07 246.78 573.07 243.51C573.07 240.27 573.7 237.51 574.96 235.23C576.25 232.92 577.945 231.165 580.045 229.965C582.175 228.735 584.47 228.12 586.93 228.12C588.82 228.12 590.515 228.51 592.015 229.29C593.515 230.04 594.76 230.925 595.75 231.945L592.24 236.175C591.49 235.485 590.695 234.93 589.855 234.51C589.045 234.06 588.115 233.835 587.065 233.835C585.745 233.835 584.53 234.21 583.42 234.96C582.34 235.71 581.47 236.79 580.81 238.2C580.18 239.61 579.865 241.305 579.865 243.285C579.865 246.285 580.51 248.625 581.8 250.305C583.09 251.985 584.815 252.825 586.975 252.825C588.175 252.825 589.24 252.555 590.17 252.015C591.13 251.475 591.97 250.83 592.69 250.08L596.2 254.22C593.74 257.1 590.575 258.54 586.705 258.54ZM609.701 258.54C607.811 258.54 606.026 258.09 604.346 257.19C602.696 256.26 601.361 254.925 600.341 253.185C599.321 251.415 598.811 249.3 598.811 246.84C598.811 244.35 599.321 242.235 600.341 240.495C601.361 238.755 602.696 237.435 604.346 236.535C606.026 235.605 607.811 235.14 609.701 235.14C611.591 235.14 613.361 235.605 615.011 236.535C616.661 237.435 617.996 238.755 619.016 240.495C620.036 242.235 620.546 244.35 620.546 246.84C620.546 249.3 620.036 251.415 619.016 253.185C617.996 254.925 616.661 256.26 615.011 257.19C613.361 258.09 611.591 258.54 609.701 258.54ZM609.701 253.185C611.051 253.185 612.071 252.615 612.761 251.475C613.451 250.305 613.796 248.76 613.796 246.84C613.796 244.89 613.451 243.345 612.761 242.205C612.071 241.065 611.051 240.495 609.701 240.495C608.321 240.495 607.286 241.065 606.596 242.205C605.936 243.345 605.606 244.89 605.606 246.84C605.606 248.76 605.936 250.305 606.596 251.475C607.286 252.615 608.321 253.185 609.701 253.185ZM625.077 258V235.68H630.477L630.927 238.515H631.107C632.067 237.615 633.117 236.835 634.257 236.175C635.427 235.485 636.762 235.14 638.262 235.14C640.692 235.14 642.447 235.95 643.527 237.57C644.637 239.16 645.192 241.35 645.192 244.14V258H638.577V244.995C638.577 243.375 638.352 242.265 637.902 241.665C637.482 241.065 636.792 240.765 635.832 240.765C634.992 240.765 634.272 240.96 633.672 241.35C633.072 241.71 632.412 242.235 631.692 242.925V258H625.077ZM659.424 258.54C656.664 258.54 654.684 257.745 653.484 256.155C652.314 254.565 651.729 252.48 651.729 249.9V240.855H648.669V235.95L652.089 235.68L652.854 229.74H658.344V235.68H663.699V240.855H658.344V249.81C658.344 251.07 658.599 251.985 659.109 252.555C659.649 253.095 660.354 253.365 661.224 253.365C661.584 253.365 661.944 253.32 662.304 253.23C662.694 253.14 663.039 253.035 663.339 252.915L664.374 257.73C663.804 257.91 663.099 258.09 662.259 258.27C661.449 258.45 660.504 258.54 659.424 258.54ZM677.255 258.54C675.125 258.54 673.205 258.075 671.495 257.145C669.785 256.215 668.435 254.88 667.445 253.14C666.455 251.4 665.96 249.3 665.96 246.84C665.96 244.41 666.455 242.325 667.445 240.585C668.465 238.845 669.785 237.51 671.405 236.58C673.025 235.62 674.72 235.14 676.49 235.14C678.62 235.14 680.375 235.62 681.755 236.58C683.165 237.51 684.215 238.785 684.905 240.405C685.625 241.995 685.985 243.81 685.985 245.85C685.985 246.42 685.955 246.99 685.895 247.56C685.835 248.1 685.775 248.505 685.715 248.775H672.35C672.65 250.395 673.325 251.595 674.375 252.375C675.425 253.125 676.685 253.5 678.155 253.5C679.745 253.5 681.35 253.005 682.97 252.015L685.175 256.02C684.035 256.8 682.76 257.415 681.35 257.865C679.94 258.315 678.575 258.54 677.255 258.54ZM672.305 244.41H680.36C680.36 243.18 680.06 242.175 679.46 241.395C678.89 240.585 677.945 240.18 676.625 240.18C675.605 240.18 674.69 240.54 673.88 241.26C673.07 241.95 672.545 243 672.305 244.41ZM690.556 258V235.68H695.956L696.406 238.515H696.586C697.546 237.615 698.596 236.835 699.736 236.175C700.906 235.485 702.241 235.14 703.741 235.14C706.171 235.14 707.926 235.95 709.006 237.57C710.116 239.16 710.671 241.35 710.671 244.14V258H704.056V244.995C704.056 243.375 703.831 242.265 703.381 241.665C702.961 241.065 702.271 240.765 701.311 240.765C700.471 240.765 699.751 240.96 699.151 241.35C698.551 241.71 697.891 242.235 697.171 242.925V258H690.556ZM724.903 258.54C722.143 258.54 720.163 257.745 718.963 256.155C717.793 254.565 717.208 252.48 717.208 249.9V240.855H714.148V235.95L717.568 235.68L718.333 229.74H723.823V235.68H729.178V240.855H723.823V249.81C723.823 251.07 724.078 251.985 724.588 252.555C725.128 253.095 725.833 253.365 726.703 253.365C727.063 253.365 727.423 253.32 727.783 253.23C728.173 253.14 728.518 253.035 728.818 252.915L729.853 257.73C729.283 257.91 728.578 258.09 727.738 258.27C726.928 258.45 725.983 258.54 724.903 258.54ZM754.648 258.54C750.838 258.54 747.928 257.415 745.918 255.165C743.908 252.915 742.903 249.33 742.903 244.41V228.66H749.563V245.085C749.563 247.965 749.998 249.975 750.868 251.115C751.738 252.255 752.998 252.825 754.648 252.825C756.298 252.825 757.573 252.255 758.473 251.115C759.373 249.975 759.823 247.965 759.823 245.085V228.66H766.213V244.41C766.213 249.33 765.223 252.915 763.243 255.165C761.293 257.415 758.428 258.54 754.648 258.54ZM772.47 266.28V235.68H777.87L778.32 237.885H778.5C779.37 237.105 780.345 236.46 781.425 235.95C782.535 235.41 783.675 235.14 784.845 235.14C787.545 235.14 789.675 236.175 791.235 238.245C792.795 240.285 793.575 243.03 793.575 246.48C793.575 249.03 793.125 251.205 792.225 253.005C791.325 254.805 790.155 256.185 788.715 257.145C787.305 258.075 785.79 258.54 784.17 258.54C783.21 258.54 782.28 258.345 781.38 257.955C780.48 257.535 779.64 256.95 778.86 256.2L779.085 259.755V266.28H772.47ZM782.64 253.14C783.78 253.14 784.755 252.615 785.565 251.565C786.375 250.515 786.78 248.85 786.78 246.57C786.78 242.55 785.49 240.54 782.91 240.54C781.62 240.54 780.345 241.215 779.085 242.565V251.7C779.685 252.24 780.285 252.615 780.885 252.825C781.485 253.035 782.07 253.14 782.64 253.14ZM804.341 258.54C802.061 258.54 800.471 257.865 799.571 256.515C798.701 255.135 798.266 253.32 798.266 251.07V226.455H804.881V251.34C804.881 252.03 805.001 252.51 805.241 252.78C805.511 253.05 805.781 253.185 806.051 253.185C806.201 253.185 806.321 253.185 806.411 253.185C806.531 253.155 806.681 253.125 806.861 253.095L807.671 258C807.311 258.15 806.846 258.27 806.276 258.36C805.736 258.48 805.091 258.54 804.341 258.54ZM820.727 258.54C818.837 258.54 817.052 258.09 815.372 257.19C813.722 256.26 812.387 254.925 811.367 253.185C810.347 251.415 809.837 249.3 809.837 246.84C809.837 244.35 810.347 242.235 811.367 240.495C812.387 238.755 813.722 237.435 815.372 236.535C817.052 235.605 818.837 235.14 820.727 235.14C822.617 235.14 824.387 235.605 826.037 236.535C827.687 237.435 829.022 238.755 830.042 240.495C831.062 242.235 831.572 244.35 831.572 246.84C831.572 249.3 831.062 251.415 830.042 253.185C829.022 254.925 827.687 256.26 826.037 257.19C824.387 258.09 822.617 258.54 820.727 258.54ZM820.727 253.185C822.077 253.185 823.097 252.615 823.787 251.475C824.477 250.305 824.822 248.76 824.822 246.84C824.822 244.89 824.477 243.345 823.787 242.205C823.097 241.065 822.077 240.495 820.727 240.495C819.347 240.495 818.312 241.065 817.622 242.205C816.962 243.345 816.632 244.89 816.632 246.84C816.632 248.76 816.962 250.305 817.622 251.475C818.312 252.615 819.347 253.185 820.727 253.185ZM841.244 258.54C839.204 258.54 837.584 257.895 836.384 256.605C835.184 255.285 834.584 253.68 834.584 251.79C834.584 249.45 835.574 247.62 837.554 246.3C839.534 244.98 842.729 244.095 847.139 243.645C847.079 242.655 846.779 241.875 846.239 241.305C845.729 240.705 844.859 240.405 843.629 240.405C842.699 240.405 841.754 240.585 840.794 240.945C839.834 241.305 838.814 241.8 837.734 242.43L835.349 238.065C836.759 237.195 838.259 236.49 839.849 235.95C841.469 235.41 843.149 235.14 844.889 235.14C847.739 235.14 849.929 235.965 851.459 237.615C852.989 239.265 853.754 241.8 853.754 245.22V258H848.354L847.904 255.705H847.724C846.794 256.545 845.789 257.235 844.709 257.775C843.659 258.285 842.504 258.54 841.244 258.54ZM843.494 253.41C844.244 253.41 844.889 253.245 845.429 252.915C845.999 252.555 846.569 252.09 847.139 251.52V247.605C844.799 247.905 843.179 248.385 842.279 249.045C841.379 249.675 840.929 250.425 840.929 251.295C840.929 252.015 841.154 252.555 841.604 252.915C842.084 253.245 842.714 253.41 843.494 253.41ZM867.315 258.54C864.555 258.54 862.335 257.505 860.655 255.435C859.005 253.335 858.18 250.47 858.18 246.84C858.18 244.41 858.615 242.325 859.485 240.585C860.385 238.815 861.54 237.465 862.95 236.535C864.39 235.605 865.89 235.14 867.45 235.14C868.68 235.14 869.715 235.35 870.555 235.77C871.395 236.19 872.19 236.76 872.94 237.48L872.67 234.06V226.455H879.285V258H873.885L873.435 255.795H873.255C872.475 256.575 871.56 257.235 870.51 257.775C869.46 258.285 868.395 258.54 867.315 258.54ZM869.025 253.14C869.745 253.14 870.39 252.99 870.96 252.69C871.56 252.39 872.13 251.865 872.67 251.115V241.98C872.1 241.44 871.485 241.065 870.825 240.855C870.195 240.645 869.58 240.54 868.98 240.54C867.93 240.54 867 241.05 866.19 242.07C865.38 243.06 864.975 244.62 864.975 246.75C864.975 248.94 865.32 250.56 866.01 251.61C866.73 252.63 867.735 253.14 869.025 253.14ZM885.146 258V235.68H891.761V258H885.146ZM888.431 232.395C887.321 232.395 886.421 232.08 885.731 231.45C885.041 230.82 884.696 229.98 884.696 228.93C884.696 227.88 885.041 227.04 885.731 226.41C886.421 225.78 887.321 225.465 888.431 225.465C889.541 225.465 890.441 225.78 891.131 226.41C891.821 227.04 892.166 227.88 892.166 228.93C892.166 229.98 891.821 230.82 891.131 231.45C890.441 232.08 889.541 232.395 888.431 232.395ZM897.582 258V235.68H902.982L903.432 238.515H903.612C904.572 237.615 905.622 236.835 906.762 236.175C907.932 235.485 909.267 235.14 910.767 235.14C913.197 235.14 914.952 235.95 916.032 237.57C917.142 239.16 917.697 241.35 917.697 244.14V258H911.082V244.995C911.082 243.375 910.857 242.265 910.407 241.665C909.987 241.065 909.297 240.765 908.337 240.765C907.497 240.765 906.777 240.96 906.177 241.35C905.577 241.71 904.917 242.235 904.197 242.925V258H897.582ZM931.299 267.495C929.559 267.495 927.984 267.3 926.574 266.91C925.164 266.52 924.039 265.905 923.199 265.065C922.359 264.225 921.939 263.145 921.939 261.825C921.939 260.025 923.004 258.525 925.134 257.325V257.145C924.564 256.755 924.069 256.26 923.649 255.66C923.259 255.06 923.064 254.295 923.064 253.365C923.064 252.555 923.304 251.775 923.784 251.025C924.264 250.275 924.864 249.66 925.584 249.18V249C924.804 248.46 924.099 247.68 923.469 246.66C922.869 245.64 922.569 244.485 922.569 243.195C922.569 241.395 923.004 239.91 923.874 238.74C924.744 237.54 925.884 236.64 927.294 236.04C928.704 235.44 930.204 235.14 931.794 235.14C933.114 235.14 934.269 235.32 935.259 235.68H943.404V240.495H939.849C940.059 240.825 940.224 241.245 940.344 241.755C940.494 242.265 940.569 242.82 940.569 243.42C940.569 245.13 940.179 246.54 939.399 247.65C938.619 248.76 937.569 249.585 936.249 250.125C934.929 250.665 933.444 250.935 931.794 250.935C930.924 250.935 930.024 250.785 929.094 250.485C928.554 250.935 928.284 251.49 928.284 252.15C928.284 252.72 928.539 253.14 929.049 253.41C929.559 253.68 930.429 253.815 931.659 253.815H935.259C938.019 253.815 940.119 254.265 941.559 255.165C943.029 256.035 943.764 257.475 943.764 259.485C943.764 261.015 943.254 262.38 942.234 263.58C941.214 264.81 939.774 265.77 937.914 266.46C936.054 267.15 933.849 267.495 931.299 267.495ZM931.794 246.93C932.664 246.93 933.384 246.615 933.954 245.985C934.554 245.355 934.854 244.425 934.854 243.195C934.854 242.025 934.554 241.14 933.954 240.54C933.384 239.91 932.664 239.595 931.794 239.595C930.924 239.595 930.189 239.895 929.589 240.495C929.019 241.095 928.734 241.995 928.734 243.195C928.734 244.425 929.019 245.355 929.589 245.985C930.189 246.615 930.924 246.93 931.794 246.93ZM932.334 263.355C933.834 263.355 935.064 263.085 936.024 262.545C936.984 262.005 937.464 261.36 937.464 260.61C937.464 259.92 937.164 259.455 936.564 259.215C935.994 258.975 935.154 258.855 934.044 258.855H931.749C930.999 258.855 930.369 258.825 929.859 258.765C929.379 258.735 928.959 258.675 928.599 258.585C927.789 259.305 927.384 260.04 927.384 260.79C927.384 261.63 927.834 262.26 928.734 262.68C929.664 263.13 930.864 263.355 932.334 263.355Z" fill="#1B1B1B"/>
<rect x="678" y="506" width="160.418" height="49.96" rx="4.54182" fill="#005EA2"/>
<path d="M707.388 537.698C706.395 537.698 705.481 537.468 704.645 537.008C703.809 536.547 703.137 535.869 702.628 534.973C702.132 534.065 701.884 532.95 701.884 531.63C701.884 530.322 702.138 529.208 702.647 528.287C703.167 527.355 703.852 526.646 704.699 526.162C705.559 525.665 706.486 525.417 707.479 525.417C708.242 525.417 708.926 525.574 709.532 525.889C710.138 526.192 710.64 526.549 711.04 526.961L709.623 528.669C709.32 528.39 708.999 528.166 708.66 527.997C708.333 527.815 707.957 527.724 707.534 527.724C707.001 527.724 706.51 527.876 706.062 528.178C705.626 528.481 705.275 528.917 705.008 529.486C704.754 530.056 704.627 530.74 704.627 531.539C704.627 532.75 704.887 533.695 705.408 534.373C705.929 535.052 706.625 535.391 707.497 535.391C707.982 535.391 708.412 535.282 708.787 535.064C709.175 534.846 709.514 534.585 709.804 534.283L711.222 535.954C710.228 537.117 708.951 537.698 707.388 537.698ZM715.074 537.698C714.25 537.698 713.596 537.438 713.112 536.917C712.627 536.384 712.385 535.736 712.385 534.973C712.385 534.028 712.784 533.289 713.584 532.756C714.383 532.224 715.673 531.866 717.453 531.685C717.429 531.285 717.308 530.97 717.09 530.74C716.884 530.498 716.533 530.377 716.036 530.377C715.661 530.377 715.279 530.449 714.892 530.595C714.504 530.74 714.093 530.94 713.657 531.194L712.694 529.432C713.263 529.081 713.868 528.796 714.51 528.578C715.164 528.36 715.843 528.251 716.545 528.251C717.696 528.251 718.58 528.584 719.198 529.25C719.815 529.916 720.124 530.94 720.124 532.32V537.48H717.944L717.762 536.553H717.69C717.314 536.893 716.908 537.171 716.472 537.389C716.049 537.595 715.582 537.698 715.074 537.698ZM715.982 535.627C716.285 535.627 716.545 535.56 716.763 535.427C716.993 535.282 717.223 535.094 717.453 534.864V533.283C716.509 533.404 715.855 533.598 715.491 533.865C715.128 534.119 714.946 534.422 714.946 534.773C714.946 535.064 715.037 535.282 715.219 535.427C715.413 535.56 715.667 535.627 715.982 535.627ZM722.383 537.48V528.469H724.563L724.745 529.614H724.817C725.205 529.25 725.629 528.935 726.089 528.669C726.562 528.39 727.101 528.251 727.706 528.251C728.687 528.251 729.396 528.578 729.832 529.232C730.28 529.874 730.504 530.758 730.504 531.884V537.48H727.833V532.23C727.833 531.576 727.742 531.127 727.561 530.885C727.391 530.643 727.113 530.522 726.725 530.522C726.386 530.522 726.095 530.601 725.853 530.758C725.611 530.903 725.344 531.115 725.054 531.394V537.48H722.383ZM736.704 537.698C735.868 537.698 735.111 537.516 734.433 537.153C733.767 536.778 733.234 536.239 732.834 535.536C732.447 534.822 732.253 533.968 732.253 532.974C732.253 531.969 732.471 531.115 732.907 530.413C733.343 529.71 733.918 529.178 734.633 528.814C735.347 528.439 736.116 528.251 736.94 528.251C737.497 528.251 737.988 528.342 738.411 528.524C738.847 528.705 739.235 528.935 739.574 529.214L738.321 530.94C737.897 530.589 737.491 530.413 737.103 530.413C736.461 530.413 735.947 530.643 735.559 531.103C735.184 531.564 734.996 532.187 734.996 532.974C734.996 533.75 735.184 534.373 735.559 534.846C735.947 535.306 736.431 535.536 737.013 535.536C737.303 535.536 737.588 535.476 737.866 535.354C738.145 535.221 738.399 535.064 738.629 534.882L739.683 536.626C739.235 537.014 738.751 537.292 738.23 537.462C737.709 537.619 737.2 537.698 736.704 537.698ZM744.779 537.698C743.919 537.698 743.144 537.51 742.453 537.135C741.763 536.759 741.218 536.22 740.818 535.518C740.418 534.815 740.219 533.968 740.219 532.974C740.219 531.993 740.418 531.152 740.818 530.449C741.23 529.747 741.763 529.208 742.417 528.832C743.071 528.445 743.755 528.251 744.47 528.251C745.33 528.251 746.038 528.445 746.595 528.832C747.165 529.208 747.589 529.723 747.867 530.377C748.158 531.018 748.303 531.751 748.303 532.575C748.303 532.805 748.291 533.035 748.267 533.265C748.243 533.483 748.218 533.647 748.194 533.756H742.798C742.92 534.41 743.192 534.894 743.616 535.209C744.04 535.512 744.549 535.663 745.142 535.663C745.784 535.663 746.432 535.463 747.086 535.064L747.976 536.681C747.516 536.996 747.001 537.244 746.432 537.425C745.863 537.607 745.312 537.698 744.779 537.698ZM742.78 531.993H746.032C746.032 531.497 745.911 531.091 745.669 530.776C745.439 530.449 745.057 530.286 744.524 530.286C744.113 530.286 743.743 530.431 743.416 530.722C743.089 531 742.877 531.424 742.78 531.993ZM752.601 537.698C751.681 537.698 751.039 537.425 750.675 536.88C750.324 536.323 750.148 535.591 750.148 534.682V524.745H752.819V534.791C752.819 535.07 752.868 535.264 752.964 535.373C753.073 535.482 753.182 535.536 753.291 535.536C753.352 535.536 753.4 535.536 753.437 535.536C753.485 535.524 753.546 535.512 753.618 535.5L753.945 537.48C753.8 537.541 753.612 537.589 753.382 537.625C753.164 537.674 752.904 537.698 752.601 537.698ZM763.871 537.698C762.333 537.698 761.158 537.244 760.346 536.335C759.535 535.427 759.129 533.98 759.129 531.993V525.635H761.818V532.266C761.818 533.429 761.993 534.24 762.345 534.7C762.696 535.161 763.205 535.391 763.871 535.391C764.537 535.391 765.052 535.161 765.415 534.7C765.778 534.24 765.96 533.429 765.96 532.266V525.635H768.54V531.993C768.54 533.98 768.14 535.427 767.341 536.335C766.553 537.244 765.397 537.698 763.871 537.698ZM771.066 540.823V528.469H773.246L773.427 529.359H773.5C773.851 529.044 774.245 528.784 774.681 528.578C775.129 528.36 775.589 528.251 776.062 528.251C777.152 528.251 778.012 528.669 778.641 529.505C779.271 530.328 779.586 531.436 779.586 532.829C779.586 533.859 779.404 534.737 779.041 535.463C778.678 536.19 778.205 536.747 777.624 537.135C777.055 537.51 776.443 537.698 775.789 537.698C775.402 537.698 775.026 537.619 774.663 537.462C774.299 537.292 773.96 537.056 773.645 536.753L773.736 538.189V540.823H771.066ZM775.172 535.518C775.632 535.518 776.025 535.306 776.352 534.882C776.679 534.458 776.843 533.786 776.843 532.865C776.843 531.243 776.322 530.431 775.281 530.431C774.76 530.431 774.245 530.704 773.736 531.249V534.937C773.979 535.155 774.221 535.306 774.463 535.391C774.705 535.476 774.941 535.518 775.172 535.518ZM783.933 537.698C783.012 537.698 782.37 537.425 782.007 536.88C781.656 536.323 781.48 535.591 781.48 534.682V524.745H784.151V534.791C784.151 535.07 784.199 535.264 784.296 535.373C784.405 535.482 784.514 535.536 784.623 535.536C784.683 535.536 784.732 535.536 784.768 535.536C784.817 535.524 784.877 535.512 784.95 535.5L785.277 537.48C785.132 537.541 784.944 537.589 784.714 537.625C784.496 537.674 784.235 537.698 783.933 537.698ZM790.548 537.698C789.785 537.698 789.064 537.516 788.386 537.153C787.72 536.778 787.181 536.239 786.769 535.536C786.357 534.822 786.151 533.968 786.151 532.974C786.151 531.969 786.357 531.115 786.769 530.413C787.181 529.71 787.72 529.178 788.386 528.814C789.064 528.439 789.785 528.251 790.548 528.251C791.311 528.251 792.025 528.439 792.692 528.814C793.358 529.178 793.897 529.71 794.308 530.413C794.72 531.115 794.926 531.969 794.926 532.974C794.926 533.968 794.72 534.822 794.308 535.536C793.897 536.239 793.358 536.778 792.692 537.153C792.025 537.516 791.311 537.698 790.548 537.698ZM790.548 535.536C791.093 535.536 791.505 535.306 791.783 534.846C792.062 534.373 792.201 533.75 792.201 532.974C792.201 532.187 792.062 531.564 791.783 531.103C791.505 530.643 791.093 530.413 790.548 530.413C789.991 530.413 789.573 530.643 789.294 531.103C789.028 531.564 788.895 532.187 788.895 532.974C788.895 533.75 789.028 534.373 789.294 534.846C789.573 535.306 789.991 535.536 790.548 535.536ZM798.831 537.698C798.008 537.698 797.354 537.438 796.869 536.917C796.385 536.384 796.142 535.736 796.142 534.973C796.142 534.028 796.542 533.289 797.341 532.756C798.141 532.224 799.431 531.866 801.211 531.685C801.187 531.285 801.066 530.97 800.848 530.74C800.642 530.498 800.291 530.377 799.794 530.377C799.419 530.377 799.037 530.449 798.649 530.595C798.262 530.74 797.85 530.94 797.414 531.194L796.451 529.432C797.02 529.081 797.626 528.796 798.268 528.578C798.922 528.36 799.6 528.251 800.303 528.251C801.453 528.251 802.337 528.584 802.955 529.25C803.573 529.916 803.882 530.94 803.882 532.32V537.48H801.702L801.52 536.553H801.447C801.072 536.893 800.666 537.171 800.23 537.389C799.806 537.595 799.34 537.698 798.831 537.698ZM799.739 535.627C800.042 535.627 800.303 535.56 800.521 535.427C800.751 535.282 800.981 535.094 801.211 534.864V533.283C800.266 533.404 799.612 533.598 799.249 533.865C798.886 534.119 798.704 534.422 798.704 534.773C798.704 535.064 798.795 535.282 798.976 535.427C799.17 535.56 799.425 535.627 799.739 535.627ZM809.356 537.698C808.242 537.698 807.346 537.28 806.667 536.444C806.001 535.597 805.668 534.44 805.668 532.974C805.668 531.993 805.844 531.152 806.195 530.449C806.558 529.735 807.025 529.19 807.594 528.814C808.175 528.439 808.781 528.251 809.411 528.251C809.907 528.251 810.325 528.336 810.664 528.505C811.003 528.675 811.324 528.905 811.627 529.196L811.518 527.815V524.745H814.189V537.48H812.009L811.827 536.59H811.754C811.439 536.905 811.07 537.171 810.646 537.389C810.222 537.595 809.792 537.698 809.356 537.698ZM810.047 535.518C810.337 535.518 810.598 535.457 810.828 535.336C811.07 535.215 811.3 535.003 811.518 534.7V531.012C811.288 530.794 811.04 530.643 810.773 530.558C810.519 530.473 810.271 530.431 810.028 530.431C809.605 530.431 809.229 530.637 808.902 531.049C808.575 531.448 808.412 532.078 808.412 532.938C808.412 533.822 808.551 534.476 808.829 534.9C809.12 535.312 809.526 535.518 810.047 535.518Z" fill="white"/>
<path d="M731.927 450L734.023 439.504H735.271L733.383 448.944H737.799L737.591 450H731.927ZM741.931 450.192C741.088 450.192 740.416 449.915 739.915 449.36C739.414 448.805 739.163 448.043 739.163 447.072C739.163 446.336 739.28 445.664 739.515 445.056C739.75 444.437 740.064 443.904 740.459 443.456C740.854 442.997 741.302 442.645 741.803 442.4C742.304 442.155 742.822 442.032 743.355 442.032C744.198 442.032 744.87 442.309 745.371 442.864C745.883 443.419 746.139 444.181 746.139 445.152C746.139 445.888 746.022 446.565 745.787 447.184C745.552 447.792 745.232 448.325 744.827 448.784C744.432 449.232 743.984 449.579 743.483 449.824C742.982 450.069 742.464 450.192 741.931 450.192ZM742.059 449.168C742.539 449.168 742.992 448.992 743.419 448.64C743.856 448.288 744.208 447.813 744.475 447.216C744.752 446.619 744.891 445.957 744.891 445.232C744.891 444.528 744.747 443.989 744.459 443.616C744.171 443.232 743.76 443.04 743.227 443.04C742.747 443.04 742.288 443.221 741.851 443.584C741.424 443.936 741.072 444.411 740.795 445.008C740.528 445.605 740.395 446.267 740.395 446.992C740.395 447.696 740.539 448.235 740.827 448.608C741.115 448.981 741.526 449.168 742.059 449.168ZM749.637 450.192C748.955 450.192 748.411 449.952 748.005 449.472C747.6 448.981 747.397 448.283 747.397 447.376C747.397 446.629 747.515 445.936 747.749 445.296C747.984 444.645 748.299 444.075 748.693 443.584C749.088 443.093 749.536 442.715 750.037 442.448C750.539 442.171 751.061 442.032 751.605 442.032C752.021 442.032 752.389 442.139 752.709 442.352C753.04 442.565 753.296 442.848 753.477 443.2H753.541L753.845 442.224H754.837L753.285 450H752.277L752.405 448.848H752.341C751.968 449.243 751.547 449.568 751.077 449.824C750.608 450.069 750.128 450.192 749.637 450.192ZM750.085 449.168C750.491 449.168 750.901 449.045 751.317 448.8C751.744 448.555 752.149 448.181 752.533 447.68L753.237 444.208C753.013 443.803 752.768 443.509 752.501 443.328C752.235 443.147 751.952 443.056 751.653 443.056C751.269 443.056 750.896 443.168 750.533 443.392C750.181 443.616 749.861 443.925 749.573 444.32C749.296 444.704 749.072 445.147 748.901 445.648C748.741 446.139 748.661 446.651 748.661 447.184C748.661 447.856 748.789 448.357 749.045 448.688C749.312 449.008 749.659 449.168 750.085 449.168ZM758.231 450.192C757.549 450.192 757.005 449.952 756.599 449.472C756.194 448.981 755.991 448.283 755.991 447.376C755.991 446.629 756.109 445.936 756.343 445.296C756.578 444.645 756.893 444.075 757.287 443.584C757.682 443.093 758.13 442.715 758.631 442.448C759.133 442.171 759.655 442.032 760.199 442.032C760.615 442.032 760.978 442.139 761.287 442.352C761.597 442.555 761.847 442.827 762.039 443.168H762.087L762.343 441.648L762.951 438.608H764.183L761.879 450H760.871L760.999 448.848H760.935C760.562 449.243 760.141 449.568 759.671 449.824C759.202 450.069 758.722 450.192 758.231 450.192ZM758.679 449.168C759.085 449.168 759.495 449.045 759.911 448.8C760.327 448.555 760.733 448.181 761.127 447.68L761.831 444.208C761.607 443.803 761.362 443.509 761.095 443.328C760.829 443.147 760.546 443.056 760.247 443.056C759.863 443.056 759.49 443.168 759.127 443.392C758.775 443.616 758.455 443.925 758.167 444.32C757.89 444.704 757.666 445.147 757.495 445.648C757.335 446.139 757.255 446.651 757.255 447.184C757.255 447.856 757.383 448.357 757.639 448.688C757.906 449.008 758.253 449.168 758.679 449.168ZM764.426 450L765.978 442.224H767.21L765.642 450H764.426ZM767.002 440.608C766.799 440.608 766.618 440.549 766.458 440.432C766.298 440.304 766.218 440.123 766.218 439.888C766.218 439.621 766.308 439.403 766.49 439.232C766.682 439.051 766.9 438.96 767.146 438.96C767.359 438.96 767.54 439.024 767.69 439.152C767.85 439.28 767.93 439.461 767.93 439.696C767.93 439.963 767.834 440.181 767.642 440.352C767.46 440.523 767.247 440.608 767.002 440.608ZM768.223 450L769.775 442.224H770.783L770.671 443.392H770.735C771.172 443.008 771.609 442.688 772.047 442.432C772.484 442.165 772.948 442.032 773.439 442.032C774.1 442.032 774.569 442.208 774.847 442.56C775.135 442.901 775.279 443.371 775.279 443.968C775.279 444.299 775.236 444.656 775.151 445.04L774.159 450H772.943L773.903 445.2C773.945 444.987 773.977 444.816 773.999 444.688C774.02 444.56 774.031 444.427 774.031 444.288C774.031 443.488 773.647 443.088 772.879 443.088C772.58 443.088 772.239 443.2 771.855 443.424C771.471 443.648 771.033 444.005 770.543 444.496L769.439 450H768.223ZM778.869 453.52C778.346 453.52 777.855 453.419 777.397 453.216C776.938 453.013 776.522 452.757 776.149 452.448L776.725 451.6C777.023 451.845 777.354 452.059 777.717 452.24C778.09 452.421 778.49 452.512 778.917 452.512C779.578 452.512 780.106 452.309 780.501 451.904C780.895 451.499 781.167 450.955 781.317 450.272L781.717 448.608C781.311 449.013 780.885 449.333 780.437 449.568C779.989 449.803 779.514 449.92 779.013 449.92C778.362 449.92 777.823 449.691 777.397 449.232C776.97 448.773 776.757 448.091 776.757 447.184C776.757 446.469 776.869 445.803 777.093 445.184C777.327 444.565 777.637 444.021 778.021 443.552C778.415 443.072 778.858 442.699 779.349 442.432C779.839 442.165 780.346 442.032 780.869 442.032C781.274 442.032 781.642 442.139 781.973 442.352C782.303 442.565 782.559 442.848 782.741 443.2H782.789L783.093 442.224H784.101L782.469 450.368C782.266 451.381 781.855 452.16 781.237 452.704C780.629 453.248 779.839 453.52 778.869 453.52ZM779.413 448.896C779.786 448.896 780.186 448.784 780.613 448.56C781.05 448.325 781.45 447.984 781.813 447.536L782.501 444.208C782.266 443.803 782.015 443.509 781.749 443.328C781.493 443.147 781.215 443.056 780.917 443.056C780.543 443.056 780.181 443.168 779.829 443.392C779.487 443.605 779.178 443.899 778.901 444.272C778.634 444.645 778.421 445.067 778.261 445.536C778.101 446.005 778.021 446.496 778.021 447.008C778.021 447.637 778.143 448.112 778.389 448.432C778.645 448.741 778.986 448.896 779.413 448.896Z" fill="#1B1B1B"/>
</g>
<defs>
<filter id="filter0_d_182_13977" x="481.5" y="143.5" width="553" height="505" filterUnits="userSpaceOnUse" color-interpolation-filters="sRGB">
<feFlood flood-opacity="0" result="BackgroundImageFix"/>
<feColorMatrix in="SourceAlpha" type="matrix" values="0 0 0 0 0 0 0 0 0 0 0 0 0 0 0 0 0 0 127 0" result="hardAlpha"/>
<feOffset/>
<feGaussianBlur stdDeviation="12.25"/>
<feComposite in2="hardAlpha" operator="out"/>
<feColorMatrix type="matrix" values="0 0 0 0 0 0 0 0 0 0 0 0 0 0 0 0 0 0 0.75 0"/>
<feBlend mode="normal" in2="BackgroundImageFix" result="effect1_dropShadow_182_13977"/>
<feBlend mode="normal" in="SourceGraphic" in2="effect1_dropShadow_182_13977" result="shape"/>
</filter>
</defs>
</svg>
