<svg width="1920" height="3886" viewBox="0 0 1920 3886" fill="none" xmlns="http://www.w3.org/2000/svg">
<rect width="1920" height="3886" fill="#232323" fill-opacity="0.5"/>
<rect x="663" y="310" width="594" height="459.377" rx="8" fill="white"/>
<path d="M882.248 526.576C880.2 526.576 878.152 526.192 876.104 525.424C874.088 524.656 872.28 523.536 870.68 522.064L874.712 517.216C875.832 518.176 877.08 518.96 878.456 519.568C879.832 520.176 881.16 520.48 882.44 520.48C883.912 520.48 885 520.208 885.704 519.664C886.44 519.12 886.808 518.384 886.808 517.456C886.808 516.464 886.392 515.744 885.56 515.296C884.76 514.816 883.672 514.288 882.296 513.712L878.216 511.984C877.16 511.536 876.152 510.944 875.192 510.208C874.232 509.44 873.448 508.496 872.84 507.376C872.232 506.256 871.928 504.944 871.928 503.44C871.928 501.712 872.392 500.144 873.32 498.736C874.28 497.328 875.592 496.208 877.256 495.376C878.952 494.544 880.888 494.128 883.064 494.128C884.856 494.128 886.648 494.48 888.44 495.184C890.232 495.888 891.8 496.912 893.144 498.256L889.544 502.72C888.52 501.92 887.496 501.312 886.472 500.896C885.448 500.448 884.312 500.224 883.064 500.224C881.848 500.224 880.872 500.48 880.136 500.992C879.432 501.472 879.08 502.16 879.08 503.056C879.08 504.016 879.528 504.736 880.424 505.216C881.352 505.696 882.488 506.208 883.832 506.752L887.864 508.384C889.752 509.152 891.256 510.208 892.376 511.552C893.496 512.896 894.056 514.672 894.056 516.88C894.056 518.608 893.592 520.208 892.664 521.68C891.736 523.152 890.392 524.336 888.632 525.232C886.872 526.128 884.744 526.576 882.248 526.576ZM905.944 526.576C903.352 526.576 901.464 525.728 900.28 524.032C899.128 522.304 898.552 519.952 898.552 516.976V502.192H905.608V516.064C905.608 517.76 905.848 518.944 906.328 519.616C906.808 520.256 907.56 520.576 908.584 520.576C909.48 520.576 910.232 520.368 910.84 519.952C911.448 519.536 912.104 518.864 912.808 517.936V502.192H919.864V526H914.104L913.576 522.688H913.432C912.44 523.872 911.352 524.816 910.168 525.52C908.984 526.224 907.576 526.576 905.944 526.576ZM936.441 526.576C934.233 526.576 932.233 526.096 930.441 525.136C928.681 524.144 927.273 522.72 926.217 520.864C925.193 518.976 924.681 516.72 924.681 514.096C924.681 511.44 925.257 509.184 926.409 507.328C927.561 505.472 929.081 504.064 930.969 503.104C932.857 502.112 934.889 501.616 937.065 501.616C938.537 501.616 939.833 501.856 940.953 502.336C942.105 502.816 943.129 503.424 944.025 504.16L940.713 508.72C939.593 507.792 938.521 507.328 937.497 507.328C935.801 507.328 934.441 507.936 933.417 509.152C932.425 510.368 931.929 512.016 931.929 514.096C931.929 516.144 932.425 517.792 933.417 519.04C934.441 520.256 935.721 520.864 937.257 520.864C938.025 520.864 938.777 520.704 939.513 520.384C940.249 520.032 940.921 519.616 941.529 519.136L944.313 523.744C943.129 524.768 941.849 525.504 940.473 525.952C939.097 526.368 937.753 526.576 936.441 526.576ZM957.488 526.576C955.28 526.576 953.28 526.096 951.488 525.136C949.728 524.144 948.32 522.72 947.264 520.864C946.24 518.976 945.728 516.72 945.728 514.096C945.728 511.44 946.304 509.184 947.456 507.328C948.608 505.472 950.128 504.064 952.016 503.104C953.904 502.112 955.936 501.616 958.112 501.616C959.584 501.616 960.88 501.856 962 502.336C963.152 502.816 964.176 503.424 965.072 504.16L961.76 508.72C960.64 507.792 959.568 507.328 958.544 507.328C956.848 507.328 955.488 507.936 954.464 509.152C953.472 510.368 952.976 512.016 952.976 514.096C952.976 516.144 953.472 517.792 954.464 519.04C955.488 520.256 956.768 520.864 958.304 520.864C959.072 520.864 959.824 520.704 960.56 520.384C961.296 520.032 961.968 519.616 962.576 519.136L965.36 523.744C964.176 524.768 962.896 525.504 961.52 525.952C960.144 526.368 958.8 526.576 957.488 526.576ZM978.823 526.576C976.551 526.576 974.503 526.08 972.679 525.088C970.855 524.096 969.415 522.672 968.359 520.816C967.303 518.96 966.775 516.72 966.775 514.096C966.775 511.504 967.303 509.28 968.359 507.424C969.447 505.568 970.855 504.144 972.583 503.152C974.311 502.128 976.119 501.616 978.007 501.616C980.279 501.616 982.151 502.128 983.623 503.152C985.127 504.144 986.247 505.504 986.983 507.232C987.751 508.928 988.135 510.864 988.135 513.04C988.135 513.648 988.103 514.256 988.039 514.864C987.975 515.44 987.911 515.872 987.847 516.16H973.591C973.911 517.888 974.631 519.168 975.751 520C976.871 520.8 978.215 521.2 979.783 521.2C981.479 521.2 983.191 520.672 984.919 519.616L987.271 523.888C986.055 524.72 984.695 525.376 983.191 525.856C981.687 526.336 980.231 526.576 978.823 526.576ZM973.543 511.504H982.135C982.135 510.192 981.815 509.12 981.175 508.288C980.567 507.424 979.559 506.992 978.151 506.992C977.063 506.992 976.087 507.376 975.223 508.144C974.359 508.88 973.799 510 973.543 511.504ZM1000.02 526.576C998.451 526.576 996.835 526.272 995.171 525.664C993.539 525.056 992.115 524.256 990.899 523.264L994.067 518.848C995.155 519.648 996.195 520.272 997.187 520.72C998.211 521.136 999.219 521.344 1000.21 521.344C1001.27 521.344 1002.03 521.168 1002.51 520.816C1002.99 520.432 1003.23 519.936 1003.23 519.328C1003.23 518.784 1002.99 518.336 1002.51 517.984C1002.07 517.632 1001.47 517.312 1000.74 517.024C1000 516.704 999.219 516.384 998.387 516.064C997.427 515.68 996.467 515.2 995.507 514.624C994.579 514.048 993.795 513.312 993.155 512.416C992.515 511.488 992.195 510.368 992.195 509.056C992.195 506.848 993.027 505.056 994.691 503.68C996.387 502.304 998.595 501.616 1001.31 501.616C1003.14 501.616 1004.74 501.936 1006.11 502.576C1007.52 503.184 1008.72 503.872 1009.71 504.64L1006.55 508.864C1005.71 508.224 1004.88 507.728 1004.05 507.376C1003.22 507.024 1002.39 506.848 1001.55 506.848C999.731 506.848 998.819 507.472 998.819 508.72C998.819 509.488 999.267 510.08 1000.16 510.496C1001.09 510.88 1002.16 511.296 1003.38 511.744C1004.4 512.096 1005.39 512.56 1006.35 513.136C1007.35 513.68 1008.16 514.416 1008.8 515.344C1009.47 516.24 1009.81 517.424 1009.81 518.896C1009.81 521.04 1008.98 522.864 1007.31 524.368C1005.65 525.84 1003.22 526.576 1000.02 526.576ZM1021.3 526.576C1019.73 526.576 1018.12 526.272 1016.45 525.664C1014.82 525.056 1013.4 524.256 1012.18 523.264L1015.35 518.848C1016.44 519.648 1017.48 520.272 1018.47 520.72C1019.49 521.136 1020.5 521.344 1021.49 521.344C1022.55 521.344 1023.32 521.168 1023.8 520.816C1024.28 520.432 1024.52 519.936 1024.52 519.328C1024.52 518.784 1024.28 518.336 1023.8 517.984C1023.35 517.632 1022.76 517.312 1022.02 517.024C1021.28 516.704 1020.5 516.384 1019.67 516.064C1018.71 515.68 1017.75 515.2 1016.79 514.624C1015.86 514.048 1015.08 513.312 1014.44 512.416C1013.8 511.488 1013.48 510.368 1013.48 509.056C1013.48 506.848 1014.31 505.056 1015.97 503.68C1017.67 502.304 1019.88 501.616 1022.6 501.616C1024.42 501.616 1026.02 501.936 1027.4 502.576C1028.8 503.184 1030 503.872 1031 504.64L1027.83 508.864C1027 508.224 1026.16 507.728 1025.33 507.376C1024.5 507.024 1023.67 506.848 1022.84 506.848C1021.01 506.848 1020.1 507.472 1020.1 508.72C1020.1 509.488 1020.55 510.08 1021.44 510.496C1022.37 510.88 1023.44 511.296 1024.66 511.744C1025.68 512.096 1026.68 512.56 1027.64 513.136C1028.63 513.68 1029.44 514.416 1030.08 515.344C1030.76 516.24 1031.09 517.424 1031.09 518.896C1031.09 521.04 1030.26 522.864 1028.6 524.368C1026.93 525.84 1024.5 526.576 1021.3 526.576ZM1038.31 514.912L1037.3 500.224L1037.06 493.84H1044.17L1043.93 500.224L1042.92 514.912H1038.31ZM1040.61 526.576C1039.4 526.576 1038.37 526.16 1037.54 525.328C1036.74 524.464 1036.34 523.408 1036.34 522.16C1036.34 520.88 1036.74 519.824 1037.54 518.992C1038.37 518.128 1039.4 517.696 1040.61 517.696C1041.83 517.696 1042.84 518.128 1043.64 518.992C1044.47 519.824 1044.89 520.88 1044.89 522.16C1044.89 523.408 1044.47 524.464 1043.64 525.328C1042.84 526.16 1041.83 526.576 1040.61 526.576Z" fill="#1B1B1B"/>
<path d="M761.92 569V563.92L757.98 555.88H759.76L761.46 559.58C761.673 560.06 761.88 560.533 762.08 561C762.293 561.467 762.507 561.947 762.72 562.44H762.8C763.027 561.947 763.253 561.467 763.48 561C763.707 560.533 763.92 560.06 764.12 559.58L765.8 555.88H767.54L763.6 563.92V569H761.92ZM772.111 569.24C771.325 569.24 770.585 569.04 769.891 568.64C769.211 568.24 768.658 567.66 768.231 566.9C767.818 566.14 767.611 565.227 767.611 564.16C767.611 563.067 767.818 562.14 768.231 561.38C768.658 560.62 769.211 560.04 769.891 559.64C770.585 559.24 771.325 559.04 772.111 559.04C772.911 559.04 773.651 559.24 774.331 559.64C775.011 560.04 775.558 560.62 775.971 561.38C776.398 562.14 776.611 563.067 776.611 564.16C776.611 565.227 776.398 566.14 775.971 566.9C775.558 567.66 775.011 568.24 774.331 568.64C773.651 569.04 772.911 569.24 772.111 569.24ZM772.111 567.88C772.951 567.88 773.625 567.54 774.131 566.86C774.651 566.167 774.911 565.267 774.911 564.16C774.911 563.04 774.651 562.133 774.131 561.44C773.625 560.747 772.951 560.4 772.111 560.4C771.285 560.4 770.611 560.747 770.091 561.44C769.571 562.133 769.311 563.04 769.311 564.16C769.311 565.267 769.571 566.167 770.091 566.86C770.611 567.54 771.285 567.88 772.111 567.88ZM782.011 569.24C780.985 569.24 780.231 568.92 779.751 568.28C779.271 567.627 779.031 566.68 779.031 565.44V559.28H780.691V565.22C780.691 566.127 780.831 566.787 781.111 567.2C781.405 567.613 781.871 567.82 782.511 567.82C783.018 567.82 783.465 567.693 783.851 567.44C784.251 567.173 784.678 566.753 785.131 566.18V559.28H786.771V569H785.411L785.271 567.48H785.211C784.758 568.013 784.278 568.44 783.771 568.76C783.265 569.08 782.678 569.24 782.011 569.24ZM790.05 569V559.28H791.41L791.55 561.04H791.61C791.943 560.427 792.35 559.94 792.83 559.58C793.31 559.22 793.823 559.04 794.37 559.04C794.757 559.04 795.103 559.107 795.41 559.24L795.09 560.68C794.93 560.627 794.783 560.587 794.65 560.56C794.517 560.533 794.35 560.52 794.15 560.52C793.737 560.52 793.303 560.687 792.85 561.02C792.41 561.353 792.023 561.933 791.69 562.76V569H790.05ZM804.828 569.24C803.974 569.24 803.201 569.04 802.508 568.64C801.814 568.24 801.268 567.66 800.868 566.9C800.468 566.14 800.268 565.227 800.268 564.16C800.268 563.067 800.481 562.14 800.908 561.38C801.348 560.62 801.921 560.04 802.628 559.64C803.348 559.24 804.121 559.04 804.948 559.04C805.588 559.04 806.134 559.153 806.588 559.38C807.054 559.607 807.454 559.873 807.788 560.18L806.948 561.26C806.668 561.007 806.368 560.8 806.048 560.64C805.741 560.48 805.394 560.4 805.008 560.4C804.421 560.4 803.894 560.56 803.428 560.88C802.974 561.187 802.614 561.627 802.348 562.2C802.094 562.76 801.968 563.413 801.968 564.16C801.968 565.267 802.241 566.167 802.788 566.86C803.348 567.54 804.074 567.88 804.968 567.88C805.421 567.88 805.841 567.787 806.228 567.6C806.614 567.4 806.954 567.167 807.248 566.9L807.968 568C807.528 568.387 807.041 568.693 806.508 568.92C805.974 569.133 805.414 569.24 804.828 569.24ZM813.459 569.24C812.672 569.24 811.932 569.04 811.239 568.64C810.559 568.24 810.006 567.66 809.579 566.9C809.166 566.14 808.959 565.227 808.959 564.16C808.959 563.067 809.166 562.14 809.579 561.38C810.006 560.62 810.559 560.04 811.239 559.64C811.932 559.24 812.672 559.04 813.459 559.04C814.259 559.04 814.999 559.24 815.679 559.64C816.359 560.04 816.906 560.62 817.319 561.38C817.746 562.14 817.959 563.067 817.959 564.16C817.959 565.227 817.746 566.14 817.319 566.9C816.906 567.66 816.359 568.24 815.679 568.64C814.999 569.04 814.259 569.24 813.459 569.24ZM813.459 567.88C814.299 567.88 814.972 567.54 815.479 566.86C815.999 566.167 816.259 565.267 816.259 564.16C816.259 563.04 815.999 562.133 815.479 561.44C814.972 560.747 814.299 560.4 813.459 560.4C812.632 560.4 811.959 560.747 811.439 561.44C810.919 562.133 810.659 563.04 810.659 564.16C810.659 565.267 810.919 566.167 811.439 566.86C811.959 567.54 812.632 567.88 813.459 567.88ZM820.519 569V559.28H821.879L822.019 560.68H822.079C822.546 560.213 823.039 559.827 823.559 559.52C824.079 559.2 824.672 559.04 825.339 559.04C826.366 559.04 827.112 559.367 827.579 560.02C828.059 560.66 828.299 561.6 828.299 562.84V569H826.659V563.06C826.659 562.153 826.512 561.493 826.219 561.08C825.926 560.667 825.459 560.46 824.819 560.46C824.326 560.46 823.879 560.587 823.479 560.84C823.092 561.093 822.652 561.467 822.159 561.96V569H820.519ZM834.516 569.24C833.476 569.24 832.75 568.94 832.336 568.34C831.936 567.74 831.736 566.96 831.736 566V560.62H830.296V559.38L831.816 559.28L832.016 556.56H833.396V559.28H836.016V560.62H833.396V566.02C833.396 566.62 833.503 567.087 833.716 567.42C833.943 567.74 834.336 567.9 834.896 567.9C835.07 567.9 835.256 567.873 835.456 567.82C835.656 567.753 835.836 567.693 835.996 567.64L836.316 568.88C836.05 568.973 835.756 569.053 835.436 569.12C835.13 569.2 834.823 569.24 834.516 569.24ZM841.881 569.24C841.014 569.24 840.227 569.04 839.521 568.64C838.814 568.227 838.254 567.64 837.841 566.88C837.427 566.12 837.221 565.213 837.221 564.16C837.221 563.093 837.427 562.18 837.841 561.42C838.267 560.66 838.814 560.073 839.481 559.66C840.147 559.247 840.847 559.04 841.581 559.04C842.821 559.04 843.774 559.453 844.441 560.28C845.121 561.107 845.461 562.213 845.461 563.6C845.461 563.773 845.454 563.947 845.441 564.12C845.441 564.28 845.427 564.42 845.401 564.54H838.841C838.907 565.567 839.227 566.387 839.801 567C840.387 567.613 841.147 567.92 842.081 567.92C842.547 567.92 842.974 567.853 843.361 567.72C843.761 567.573 844.141 567.387 844.501 567.16L845.081 568.24C844.667 568.507 844.194 568.74 843.661 568.94C843.141 569.14 842.547 569.24 841.881 569.24ZM838.821 563.36H844.021C844.021 562.373 843.807 561.627 843.381 561.12C842.967 560.6 842.381 560.34 841.621 560.34C840.941 560.34 840.327 560.607 839.781 561.14C839.247 561.66 838.927 562.4 838.821 563.36ZM847.863 569V559.28H849.223L849.363 560.68H849.423C849.889 560.213 850.383 559.827 850.903 559.52C851.423 559.2 852.016 559.04 852.683 559.04C853.709 559.04 854.456 559.367 854.923 560.02C855.403 560.66 855.643 561.6 855.643 562.84V569H854.003V563.06C854.003 562.153 853.856 561.493 853.563 561.08C853.269 560.667 852.803 560.46 852.163 560.46C851.669 560.46 851.223 560.587 850.823 560.84C850.436 561.093 849.996 561.467 849.503 561.96V569H847.863ZM861.86 569.24C860.82 569.24 860.093 568.94 859.68 568.34C859.28 567.74 859.08 566.96 859.08 566V560.62H857.64V559.38L859.16 559.28L859.36 556.56H860.74V559.28H863.36V560.62H860.74V566.02C860.74 566.62 860.847 567.087 861.06 567.42C861.287 567.74 861.68 567.9 862.24 567.9C862.413 567.9 862.6 567.873 862.8 567.82C863 567.753 863.18 567.693 863.34 567.64L863.66 568.88C863.393 568.973 863.1 569.053 862.78 569.12C862.473 569.2 862.167 569.24 861.86 569.24ZM869.562 569V554.76H871.202V558.64L871.142 560.64C871.609 560.2 872.095 559.827 872.602 559.52C873.122 559.2 873.715 559.04 874.382 559.04C875.409 559.04 876.155 559.367 876.622 560.02C877.102 560.66 877.342 561.6 877.342 562.84V569H875.702V563.06C875.702 562.153 875.555 561.493 875.262 561.08C874.969 560.667 874.502 560.46 873.862 560.46C873.369 560.46 872.922 560.587 872.522 560.84C872.135 561.093 871.695 561.467 871.202 561.96V569H869.562ZM882.681 569.24C881.867 569.24 881.187 569 880.641 568.52C880.107 568.027 879.841 567.347 879.841 566.48C879.841 565.413 880.314 564.6 881.261 564.04C882.221 563.467 883.734 563.067 885.801 562.84C885.801 562.427 885.741 562.033 885.621 561.66C885.514 561.287 885.314 560.987 885.021 560.76C884.741 560.52 884.334 560.4 883.801 560.4C883.241 560.4 882.714 560.507 882.221 560.72C881.727 560.933 881.287 561.173 880.901 561.44L880.261 560.3C880.714 560.007 881.267 559.727 881.921 559.46C882.587 559.18 883.307 559.04 884.081 559.04C885.267 559.04 886.127 559.407 886.661 560.14C887.194 560.86 887.461 561.827 887.461 563.04V569H886.101L885.961 567.84H885.901C885.447 568.213 884.947 568.54 884.401 568.82C883.867 569.1 883.294 569.24 882.681 569.24ZM883.161 567.92C883.627 567.92 884.067 567.807 884.481 567.58C884.894 567.353 885.334 567.033 885.801 566.62V563.92C884.187 564.12 883.054 564.42 882.401 564.82C881.761 565.22 881.441 565.733 881.441 566.36C881.441 566.907 881.607 567.307 881.941 567.56C882.274 567.8 882.681 567.92 883.161 567.92ZM893.059 569.24C892.366 569.24 891.706 569.113 891.079 568.86C890.452 568.593 889.906 568.273 889.439 567.9L890.259 566.8C890.686 567.133 891.126 567.413 891.579 567.64C892.032 567.853 892.546 567.96 893.119 567.96C893.759 567.96 894.239 567.813 894.559 567.52C894.879 567.213 895.039 566.853 895.039 566.44C895.039 566.107 894.926 565.827 894.699 565.6C894.486 565.373 894.206 565.187 893.859 565.04C893.526 564.88 893.179 564.733 892.819 564.6C892.366 564.427 891.919 564.233 891.479 564.02C891.039 563.793 890.679 563.507 890.399 563.16C890.119 562.8 889.979 562.347 889.979 561.8C889.979 561.013 890.272 560.36 890.859 559.84C891.459 559.307 892.286 559.04 893.339 559.04C893.939 559.04 894.499 559.147 895.019 559.36C895.539 559.573 895.986 559.833 896.359 560.14L895.559 561.18C895.226 560.927 894.879 560.72 894.519 560.56C894.159 560.4 893.766 560.32 893.339 560.32C892.726 560.32 892.272 560.46 891.979 560.74C891.699 561.02 891.559 561.347 891.559 561.72C891.559 562.027 891.659 562.28 891.859 562.48C892.059 562.667 892.319 562.833 892.639 562.98C892.959 563.113 893.299 563.253 893.659 563.4C894.126 563.573 894.586 563.773 895.039 564C895.492 564.213 895.866 564.507 896.159 564.88C896.466 565.24 896.619 565.727 896.619 566.34C896.619 566.86 896.479 567.34 896.199 567.78C895.932 568.22 895.532 568.573 894.999 568.84C894.479 569.107 893.832 569.24 893.059 569.24ZM907.202 569.24C906.748 569.24 906.275 569.133 905.782 568.92C905.302 568.693 904.848 568.387 904.422 568H904.362L904.222 569H902.902V554.76H904.542V558.64L904.502 560.4C904.942 560.013 905.422 559.693 905.942 559.44C906.475 559.173 907.008 559.04 907.542 559.04C908.808 559.04 909.768 559.487 910.422 560.38C911.075 561.273 911.402 562.473 911.402 563.98C911.402 565.087 911.202 566.033 910.802 566.82C910.415 567.607 909.902 568.207 909.262 568.62C908.635 569.033 907.948 569.24 907.202 569.24ZM906.922 567.86C907.722 567.86 908.382 567.52 908.902 566.84C909.435 566.147 909.702 565.2 909.702 564C909.702 562.933 909.502 562.073 909.102 561.42C908.715 560.753 908.062 560.42 907.142 560.42C906.728 560.42 906.308 560.533 905.882 560.76C905.455 560.987 905.008 561.313 904.542 561.74V566.84C904.968 567.213 905.388 567.48 905.802 567.64C906.228 567.787 906.602 567.86 906.922 567.86ZM917.896 569.24C917.03 569.24 916.243 569.04 915.536 568.64C914.83 568.227 914.27 567.64 913.856 566.88C913.443 566.12 913.236 565.213 913.236 564.16C913.236 563.093 913.443 562.18 913.856 561.42C914.283 560.66 914.83 560.073 915.496 559.66C916.163 559.247 916.863 559.04 917.596 559.04C918.836 559.04 919.79 559.453 920.456 560.28C921.136 561.107 921.476 562.213 921.476 563.6C921.476 563.773 921.47 563.947 921.456 564.12C921.456 564.28 921.443 564.42 921.416 564.54H914.856C914.923 565.567 915.243 566.387 915.816 567C916.403 567.613 917.163 567.92 918.096 567.92C918.563 567.92 918.99 567.853 919.376 567.72C919.776 567.573 920.156 567.387 920.516 567.16L921.096 568.24C920.683 568.507 920.21 568.74 919.676 568.94C919.156 569.14 918.563 569.24 917.896 569.24ZM914.836 563.36H920.036C920.036 562.373 919.823 561.627 919.396 561.12C918.983 560.6 918.396 560.34 917.636 560.34C916.956 560.34 916.343 560.607 915.796 561.14C915.263 561.66 914.943 562.4 914.836 563.36ZM927.818 569.24C926.952 569.24 926.165 569.04 925.458 568.64C924.752 568.227 924.192 567.64 923.778 566.88C923.365 566.12 923.158 565.213 923.158 564.16C923.158 563.093 923.365 562.18 923.778 561.42C924.205 560.66 924.752 560.073 925.418 559.66C926.085 559.247 926.785 559.04 927.518 559.04C928.758 559.04 929.712 559.453 930.378 560.28C931.058 561.107 931.398 562.213 931.398 563.6C931.398 563.773 931.392 563.947 931.378 564.12C931.378 564.28 931.365 564.42 931.338 564.54H924.778C924.845 565.567 925.165 566.387 925.738 567C926.325 567.613 927.085 567.92 928.018 567.92C928.485 567.92 928.912 567.853 929.298 567.72C929.698 567.573 930.078 567.387 930.438 567.16L931.018 568.24C930.605 568.507 930.132 568.74 929.598 568.94C929.078 569.14 928.485 569.24 927.818 569.24ZM924.758 563.36H929.958C929.958 562.373 929.745 561.627 929.318 561.12C928.905 560.6 928.318 560.34 927.558 560.34C926.878 560.34 926.265 560.607 925.718 561.14C925.185 561.66 924.865 562.4 924.758 563.36ZM933.8 569V559.28H935.16L935.3 560.68H935.36C935.827 560.213 936.32 559.827 936.84 559.52C937.36 559.2 937.953 559.04 938.62 559.04C939.647 559.04 940.393 559.367 940.86 560.02C941.34 560.66 941.58 561.6 941.58 562.84V569H939.94V563.06C939.94 562.153 939.793 561.493 939.5 561.08C939.207 560.667 938.74 560.46 938.1 560.46C937.607 560.46 937.16 560.587 936.76 560.84C936.373 561.093 935.933 561.467 935.44 561.96V569H933.8ZM951.282 569.24C950.588 569.24 949.928 569.113 949.302 568.86C948.675 568.593 948.128 568.273 947.662 567.9L948.482 566.8C948.908 567.133 949.348 567.413 949.802 567.64C950.255 567.853 950.768 567.96 951.342 567.96C951.982 567.96 952.462 567.813 952.782 567.52C953.102 567.213 953.262 566.853 953.262 566.44C953.262 566.107 953.148 565.827 952.922 565.6C952.708 565.373 952.428 565.187 952.082 565.04C951.748 564.88 951.402 564.733 951.042 564.6C950.588 564.427 950.142 564.233 949.702 564.02C949.262 563.793 948.902 563.507 948.622 563.16C948.342 562.8 948.202 562.347 948.202 561.8C948.202 561.013 948.495 560.36 949.082 559.84C949.682 559.307 950.508 559.04 951.562 559.04C952.162 559.04 952.722 559.147 953.242 559.36C953.762 559.573 954.208 559.833 954.582 560.14L953.782 561.18C953.448 560.927 953.102 560.72 952.742 560.56C952.382 560.4 951.988 560.32 951.562 560.32C950.948 560.32 950.495 560.46 950.202 560.74C949.922 561.02 949.782 561.347 949.782 561.72C949.782 562.027 949.882 562.28 950.082 562.48C950.282 562.667 950.542 562.833 950.862 562.98C951.182 563.113 951.522 563.253 951.882 563.4C952.348 563.573 952.808 563.773 953.262 564C953.715 564.213 954.088 564.507 954.382 564.88C954.688 565.24 954.842 565.727 954.842 566.34C954.842 566.86 954.702 567.34 954.422 567.78C954.155 568.22 953.755 568.573 953.222 568.84C952.702 569.107 952.055 569.24 951.282 569.24ZM959.96 569.24C958.934 569.24 958.18 568.92 957.7 568.28C957.22 567.627 956.98 566.68 956.98 565.44V559.28H958.64V565.22C958.64 566.127 958.78 566.787 959.06 567.2C959.354 567.613 959.82 567.82 960.46 567.82C960.967 567.82 961.414 567.693 961.8 567.44C962.2 567.173 962.627 566.753 963.08 566.18V559.28H964.72V569H963.36L963.22 567.48H963.16C962.707 568.013 962.227 568.44 961.72 568.76C961.214 569.08 960.627 569.24 959.96 569.24ZM971.839 569.24C970.986 569.24 970.213 569.04 969.519 568.64C968.826 568.24 968.279 567.66 967.879 566.9C967.479 566.14 967.279 565.227 967.279 564.16C967.279 563.067 967.493 562.14 967.919 561.38C968.359 560.62 968.933 560.04 969.639 559.64C970.359 559.24 971.133 559.04 971.959 559.04C972.599 559.04 973.146 559.153 973.599 559.38C974.066 559.607 974.466 559.873 974.799 560.18L973.959 561.26C973.679 561.007 973.379 560.8 973.059 560.64C972.753 560.48 972.406 560.4 972.019 560.4C971.433 560.4 970.906 560.56 970.439 560.88C969.986 561.187 969.626 561.627 969.359 562.2C969.106 562.76 968.979 563.413 968.979 564.16C968.979 565.267 969.253 566.167 969.799 566.86C970.359 567.54 971.086 567.88 971.979 567.88C972.433 567.88 972.853 567.787 973.239 567.6C973.626 567.4 973.966 567.167 974.259 566.9L974.979 568C974.539 568.387 974.053 568.693 973.519 568.92C972.986 569.133 972.426 569.24 971.839 569.24ZM980.531 569.24C979.677 569.24 978.904 569.04 978.211 568.64C977.517 568.24 976.971 567.66 976.571 566.9C976.171 566.14 975.971 565.227 975.971 564.16C975.971 563.067 976.184 562.14 976.611 561.38C977.051 560.62 977.624 560.04 978.331 559.64C979.051 559.24 979.824 559.04 980.651 559.04C981.291 559.04 981.837 559.153 982.291 559.38C982.757 559.607 983.157 559.873 983.491 560.18L982.651 561.26C982.371 561.007 982.071 560.8 981.751 560.64C981.444 560.48 981.097 560.4 980.711 560.4C980.124 560.4 979.597 560.56 979.131 560.88C978.677 561.187 978.317 561.627 978.051 562.2C977.797 562.76 977.671 563.413 977.671 564.16C977.671 565.267 977.944 566.167 978.491 566.86C979.051 567.54 979.777 567.88 980.671 567.88C981.124 567.88 981.544 567.787 981.931 567.6C982.317 567.4 982.657 567.167 982.951 566.9L983.671 568C983.231 568.387 982.744 568.693 982.211 568.92C981.677 569.133 981.117 569.24 980.531 569.24ZM989.322 569.24C988.456 569.24 987.669 569.04 986.962 568.64C986.256 568.227 985.696 567.64 985.282 566.88C984.869 566.12 984.662 565.213 984.662 564.16C984.662 563.093 984.869 562.18 985.282 561.42C985.709 560.66 986.256 560.073 986.922 559.66C987.589 559.247 988.289 559.04 989.022 559.04C990.262 559.04 991.216 559.453 991.882 560.28C992.562 561.107 992.902 562.213 992.902 563.6C992.902 563.773 992.896 563.947 992.882 564.12C992.882 564.28 992.869 564.42 992.842 564.54H986.282C986.349 565.567 986.669 566.387 987.242 567C987.829 567.613 988.589 567.92 989.522 567.92C989.989 567.92 990.416 567.853 990.802 567.72C991.202 567.573 991.582 567.387 991.942 567.16L992.522 568.24C992.109 568.507 991.636 568.74 991.102 568.94C990.582 569.14 989.989 569.24 989.322 569.24ZM986.262 563.36H991.462C991.462 562.373 991.249 561.627 990.822 561.12C990.409 560.6 989.822 560.34 989.062 560.34C988.382 560.34 987.769 560.607 987.222 561.14C986.689 561.66 986.369 562.4 986.262 563.36ZM997.844 569.24C997.151 569.24 996.491 569.113 995.864 568.86C995.237 568.593 994.691 568.273 994.224 567.9L995.044 566.8C995.471 567.133 995.911 567.413 996.364 567.64C996.817 567.853 997.331 567.96 997.904 567.96C998.544 567.96 999.024 567.813 999.344 567.52C999.664 567.213 999.824 566.853 999.824 566.44C999.824 566.107 999.711 565.827 999.484 565.6C999.271 565.373 998.991 565.187 998.644 565.04C998.311 564.88 997.964 564.733 997.604 564.6C997.151 564.427 996.704 564.233 996.264 564.02C995.824 563.793 995.464 563.507 995.184 563.16C994.904 562.8 994.764 562.347 994.764 561.8C994.764 561.013 995.057 560.36 995.644 559.84C996.244 559.307 997.071 559.04 998.124 559.04C998.724 559.04 999.284 559.147 999.804 559.36C1000.32 559.573 1000.77 559.833 1001.14 560.14L1000.34 561.18C1000.01 560.927 999.664 560.72 999.304 560.56C998.944 560.4 998.551 560.32 998.124 560.32C997.511 560.32 997.057 560.46 996.764 560.74C996.484 561.02 996.344 561.347 996.344 561.72C996.344 562.027 996.444 562.28 996.644 562.48C996.844 562.667 997.104 562.833 997.424 562.98C997.744 563.113 998.084 563.253 998.444 563.4C998.911 563.573 999.371 563.773 999.824 564C1000.28 564.213 1000.65 564.507 1000.94 564.88C1001.25 565.24 1001.4 565.727 1001.4 566.34C1001.4 566.86 1001.26 567.34 1000.98 567.78C1000.72 568.22 1000.32 568.573 999.784 568.84C999.264 569.107 998.617 569.24 997.844 569.24ZM1006.22 569.24C1005.53 569.24 1004.87 569.113 1004.24 568.86C1003.62 568.593 1003.07 568.273 1002.6 567.9L1003.42 566.8C1003.85 567.133 1004.29 567.413 1004.74 567.64C1005.2 567.853 1005.71 567.96 1006.28 567.96C1006.92 567.96 1007.4 567.813 1007.72 567.52C1008.04 567.213 1008.2 566.853 1008.2 566.44C1008.2 566.107 1008.09 565.827 1007.86 565.6C1007.65 565.373 1007.37 565.187 1007.02 565.04C1006.69 564.88 1006.34 564.733 1005.98 564.6C1005.53 564.427 1005.08 564.233 1004.64 564.02C1004.2 563.793 1003.84 563.507 1003.56 563.16C1003.28 562.8 1003.14 562.347 1003.14 561.8C1003.14 561.013 1003.44 560.36 1004.02 559.84C1004.62 559.307 1005.45 559.04 1006.5 559.04C1007.1 559.04 1007.66 559.147 1008.18 559.36C1008.7 559.573 1009.15 559.833 1009.52 560.14L1008.72 561.18C1008.39 560.927 1008.04 560.72 1007.68 560.56C1007.32 560.4 1006.93 560.32 1006.5 560.32C1005.89 560.32 1005.44 560.46 1005.14 560.74C1004.86 561.02 1004.72 561.347 1004.72 561.72C1004.72 562.027 1004.82 562.28 1005.02 562.48C1005.22 562.667 1005.48 562.833 1005.8 562.98C1006.12 563.113 1006.46 563.253 1006.82 563.4C1007.29 563.573 1007.75 563.773 1008.2 564C1008.66 564.213 1009.03 564.507 1009.32 564.88C1009.63 565.24 1009.78 565.727 1009.78 566.34C1009.78 566.86 1009.64 567.34 1009.36 567.78C1009.1 568.22 1008.7 568.573 1008.16 568.84C1007.64 569.107 1007 569.24 1006.22 569.24ZM1012.34 569V560.62H1011.02V559.38L1012.34 559.28V557.74C1012.34 556.753 1012.57 555.973 1013.02 555.4C1013.49 554.813 1014.21 554.52 1015.18 554.52C1015.49 554.52 1015.78 554.553 1016.06 554.62C1016.34 554.673 1016.59 554.747 1016.8 554.84L1016.44 556.1C1016.08 555.94 1015.72 555.86 1015.34 555.86C1014.44 555.86 1013.98 556.487 1013.98 557.74V559.28H1016.04V560.62H1013.98V569H1012.34ZM1020.74 569.24C1019.72 569.24 1018.96 568.92 1018.48 568.28C1018 567.627 1017.76 566.68 1017.76 565.44V559.28H1019.42V565.22C1019.42 566.127 1019.56 566.787 1019.84 567.2C1020.14 567.613 1020.6 567.82 1021.24 567.82C1021.75 567.82 1022.2 567.693 1022.58 567.44C1022.98 567.173 1023.41 566.753 1023.86 566.18V559.28H1025.5V569H1024.14L1024 567.48H1023.94C1023.49 568.013 1023.01 568.44 1022.5 568.76C1022 569.08 1021.41 569.24 1020.74 569.24ZM1030.52 569.24C1029.91 569.24 1029.46 569.053 1029.18 568.68C1028.91 568.293 1028.78 567.747 1028.78 567.04V554.76H1030.42V567.16C1030.42 567.413 1030.47 567.6 1030.56 567.72C1030.65 567.827 1030.76 567.88 1030.88 567.88C1030.93 567.88 1030.98 567.88 1031.02 567.88C1031.07 567.867 1031.15 567.853 1031.24 567.84L1031.46 569.08C1031.35 569.133 1031.23 569.173 1031.08 569.2C1030.93 569.227 1030.75 569.24 1030.52 569.24ZM1035.62 569.24C1035 569.24 1034.56 569.053 1034.28 568.68C1034.01 568.293 1033.88 567.747 1033.88 567.04V554.76H1035.52V567.16C1035.52 567.413 1035.56 567.6 1035.66 567.72C1035.75 567.827 1035.86 567.88 1035.98 567.88C1036.03 567.88 1036.08 567.88 1036.12 567.88C1036.17 567.867 1036.24 567.853 1036.34 567.84L1036.56 569.08C1036.45 569.133 1036.32 569.173 1036.18 569.2C1036.03 569.227 1035.84 569.24 1035.62 569.24ZM1039.14 573.18C1038.92 573.18 1038.72 573.16 1038.52 573.12C1038.33 573.08 1038.16 573.033 1038 572.98L1038.32 571.68C1038.42 571.707 1038.54 571.733 1038.68 571.76C1038.81 571.8 1038.94 571.82 1039.06 571.82C1039.6 571.82 1040.06 571.62 1040.42 571.22C1040.78 570.833 1041.06 570.34 1041.26 569.74L1041.48 569.02L1037.58 559.28H1039.28L1041.26 564.66C1041.4 565.073 1041.56 565.52 1041.72 566C1041.89 566.48 1042.05 566.947 1042.2 567.4H1042.28C1042.42 566.96 1042.56 566.5 1042.7 566.02C1042.83 565.54 1042.96 565.087 1043.1 564.66L1044.84 559.28H1046.44L1042.78 569.8C1042.55 570.44 1042.28 571.013 1041.96 571.52C1041.65 572.027 1041.26 572.427 1040.8 572.72C1040.34 573.027 1039.79 573.18 1039.14 573.18ZM1055.16 569.24C1054.13 569.24 1053.38 568.92 1052.9 568.28C1052.42 567.627 1052.18 566.68 1052.18 565.44V559.28H1053.84V565.22C1053.84 566.127 1053.98 566.787 1054.26 567.2C1054.55 567.613 1055.02 567.82 1055.66 567.82C1056.16 567.82 1056.61 567.693 1057 567.44C1057.4 567.173 1057.82 566.753 1058.28 566.18V559.28H1059.92V569H1058.56L1058.42 567.48H1058.36C1057.9 568.013 1057.42 568.44 1056.92 568.76C1056.41 569.08 1055.82 569.24 1055.16 569.24ZM1063.19 573.1V559.28H1064.55L1064.69 560.4H1064.75C1065.19 560.027 1065.67 559.707 1066.19 559.44C1066.73 559.173 1067.28 559.04 1067.85 559.04C1069.11 559.04 1070.06 559.493 1070.71 560.4C1071.37 561.293 1071.69 562.493 1071.69 564C1071.69 565.093 1071.49 566.033 1071.09 566.82C1070.71 567.607 1070.19 568.207 1069.55 568.62C1068.93 569.033 1068.24 569.24 1067.49 569.24C1067.04 569.24 1066.59 569.14 1066.13 568.94C1065.69 568.74 1065.25 568.467 1064.79 568.12L1064.83 569.82V573.1H1063.19ZM1067.21 567.86C1068.01 567.86 1068.67 567.52 1069.19 566.84C1069.73 566.147 1069.99 565.2 1069.99 564C1069.99 562.933 1069.79 562.073 1069.39 561.42C1069.01 560.753 1068.35 560.42 1067.43 560.42C1067.02 560.42 1066.6 560.533 1066.17 560.76C1065.76 560.987 1065.31 561.313 1064.83 561.74V566.84C1065.27 567.213 1065.7 567.48 1066.11 567.64C1066.53 567.787 1066.89 567.86 1067.21 567.86ZM1076.03 569.24C1075.42 569.24 1074.97 569.053 1074.69 568.68C1074.42 568.293 1074.29 567.747 1074.29 567.04V554.76H1075.93V567.16C1075.93 567.413 1075.98 567.6 1076.07 567.72C1076.16 567.827 1076.27 567.88 1076.39 567.88C1076.44 567.88 1076.49 567.88 1076.53 567.88C1076.58 567.867 1076.66 567.853 1076.75 567.84L1076.97 569.08C1076.86 569.133 1076.74 569.173 1076.59 569.2C1076.44 569.227 1076.26 569.24 1076.03 569.24ZM1083.17 569.24C1082.38 569.24 1081.64 569.04 1080.95 568.64C1080.27 568.24 1079.71 567.66 1079.29 566.9C1078.87 566.14 1078.67 565.227 1078.67 564.16C1078.67 563.067 1078.87 562.14 1079.29 561.38C1079.71 560.62 1080.27 560.04 1080.95 559.64C1081.64 559.24 1082.38 559.04 1083.17 559.04C1083.97 559.04 1084.71 559.24 1085.39 559.64C1086.07 560.04 1086.61 560.62 1087.03 561.38C1087.45 562.14 1087.67 563.067 1087.67 564.16C1087.67 565.227 1087.45 566.14 1087.03 566.9C1086.61 567.66 1086.07 568.24 1085.39 568.64C1084.71 569.04 1083.97 569.24 1083.17 569.24ZM1083.17 567.88C1084.01 567.88 1084.68 567.54 1085.19 566.86C1085.71 566.167 1085.97 565.267 1085.97 564.16C1085.97 563.04 1085.71 562.133 1085.19 561.44C1084.68 560.747 1084.01 560.4 1083.17 560.4C1082.34 560.4 1081.67 560.747 1081.15 561.44C1080.63 562.133 1080.37 563.04 1080.37 564.16C1080.37 565.267 1080.63 566.167 1081.15 566.86C1081.67 567.54 1082.34 567.88 1083.17 567.88ZM1092.19 569.24C1091.38 569.24 1090.7 569 1090.15 568.52C1089.62 568.027 1089.35 567.347 1089.35 566.48C1089.35 565.413 1089.83 564.6 1090.77 564.04C1091.73 563.467 1093.25 563.067 1095.31 562.84C1095.31 562.427 1095.25 562.033 1095.13 561.66C1095.03 561.287 1094.83 560.987 1094.53 560.76C1094.25 560.52 1093.85 560.4 1093.31 560.4C1092.75 560.4 1092.23 560.507 1091.73 560.72C1091.24 560.933 1090.8 561.173 1090.41 561.44L1089.77 560.3C1090.23 560.007 1090.78 559.727 1091.43 559.46C1092.1 559.18 1092.82 559.04 1093.59 559.04C1094.78 559.04 1095.64 559.407 1096.17 560.14C1096.71 560.86 1096.97 561.827 1096.97 563.04V569H1095.61L1095.47 567.84H1095.41C1094.96 568.213 1094.46 568.54 1093.91 568.82C1093.38 569.1 1092.81 569.24 1092.19 569.24ZM1092.67 567.92C1093.14 567.92 1093.58 567.807 1093.99 567.58C1094.41 567.353 1094.85 567.033 1095.31 566.62V563.92C1093.7 564.12 1092.57 564.42 1091.91 564.82C1091.27 565.22 1090.95 565.733 1090.95 566.36C1090.95 566.907 1091.12 567.307 1091.45 567.56C1091.79 567.8 1092.19 567.92 1092.67 567.92ZM1103.35 569.24C1102.14 569.24 1101.16 568.8 1100.43 567.92C1099.7 567.027 1099.33 565.773 1099.33 564.16C1099.33 563.107 1099.52 562.2 1099.91 561.44C1100.31 560.667 1100.83 560.073 1101.47 559.66C1102.12 559.247 1102.82 559.04 1103.55 559.04C1104.11 559.04 1104.6 559.14 1105.01 559.34C1105.42 559.54 1105.84 559.813 1106.27 560.16L1106.19 558.5V554.76H1107.85V569H1106.49L1106.35 567.86H1106.29C1105.92 568.233 1105.48 568.56 1104.97 568.84C1104.46 569.107 1103.92 569.24 1103.35 569.24ZM1103.71 567.86C1104.56 567.86 1105.39 567.413 1106.19 566.52V561.44C1105.78 561.067 1105.38 560.807 1104.99 560.66C1104.62 560.5 1104.23 560.42 1103.83 560.42C1103.31 560.42 1102.84 560.58 1102.41 560.9C1102 561.207 1101.66 561.64 1101.41 562.2C1101.16 562.747 1101.03 563.393 1101.03 564.14C1101.03 565.3 1101.26 566.213 1101.73 566.88C1102.2 567.533 1102.86 567.86 1103.71 567.86ZM1115.06 569.24C1114.2 569.24 1113.41 569.04 1112.7 568.64C1112 568.227 1111.44 567.64 1111.02 566.88C1110.61 566.12 1110.4 565.213 1110.4 564.16C1110.4 563.093 1110.61 562.18 1111.02 561.42C1111.45 560.66 1112 560.073 1112.66 559.66C1113.33 559.247 1114.03 559.04 1114.76 559.04C1116 559.04 1116.96 559.453 1117.62 560.28C1118.3 561.107 1118.64 562.213 1118.64 563.6C1118.64 563.773 1118.64 563.947 1118.62 564.12C1118.62 564.28 1118.61 564.42 1118.58 564.54H1112.02C1112.09 565.567 1112.41 566.387 1112.98 567C1113.57 567.613 1114.33 567.92 1115.26 567.92C1115.73 567.92 1116.16 567.853 1116.54 567.72C1116.94 567.573 1117.32 567.387 1117.68 567.16L1118.26 568.24C1117.85 568.507 1117.38 568.74 1116.84 568.94C1116.32 569.14 1115.73 569.24 1115.06 569.24ZM1112 563.36H1117.2C1117.2 562.373 1116.99 561.627 1116.56 561.12C1116.15 560.6 1115.56 560.34 1114.8 560.34C1114.12 560.34 1113.51 560.607 1112.96 561.14C1112.43 561.66 1112.11 562.4 1112 563.36ZM1124.37 569.24C1123.15 569.24 1122.18 568.8 1121.45 567.92C1120.71 567.027 1120.35 565.773 1120.35 564.16C1120.35 563.107 1120.54 562.2 1120.93 561.44C1121.33 560.667 1121.85 560.073 1122.49 559.66C1123.14 559.247 1123.83 559.04 1124.57 559.04C1125.13 559.04 1125.61 559.14 1126.03 559.34C1126.44 559.54 1126.86 559.813 1127.29 560.16L1127.21 558.5V554.76H1128.87V569H1127.51L1127.37 567.86H1127.31C1126.93 568.233 1126.49 568.56 1125.99 568.84C1125.48 569.107 1124.94 569.24 1124.37 569.24ZM1124.73 567.86C1125.58 567.86 1126.41 567.413 1127.21 566.52V561.44C1126.79 561.067 1126.39 560.807 1126.01 560.66C1125.63 560.5 1125.25 560.42 1124.85 560.42C1124.33 560.42 1123.85 560.58 1123.43 560.9C1123.01 561.207 1122.68 561.64 1122.43 562.2C1122.17 562.747 1122.05 563.393 1122.05 564.14C1122.05 565.3 1122.28 566.213 1122.75 566.88C1123.21 567.533 1123.87 567.86 1124.73 567.86ZM761.88 594.24C761.067 594.24 760.387 594 759.84 593.52C759.307 593.027 759.04 592.347 759.04 591.48C759.04 590.413 759.513 589.6 760.46 589.04C761.42 588.467 762.933 588.067 765 587.84C765 587.427 764.94 587.033 764.82 586.66C764.713 586.287 764.513 585.987 764.22 585.76C763.94 585.52 763.533 585.4 763 585.4C762.44 585.4 761.913 585.507 761.42 585.72C760.927 585.933 760.487 586.173 760.1 586.44L759.46 585.3C759.913 585.007 760.467 584.727 761.12 584.46C761.787 584.18 762.507 584.04 763.28 584.04C764.467 584.04 765.327 584.407 765.86 585.14C766.393 585.86 766.66 586.827 766.66 588.04V594H765.3L765.16 592.84H765.1C764.647 593.213 764.147 593.54 763.6 593.82C763.067 594.1 762.493 594.24 761.88 594.24ZM762.36 592.92C762.827 592.92 763.267 592.807 763.68 592.58C764.093 592.353 764.533 592.033 765 591.62V588.92C763.387 589.12 762.253 589.42 761.6 589.82C760.96 590.22 760.64 590.733 760.64 591.36C760.64 591.907 760.807 592.307 761.14 592.56C761.473 592.8 761.88 592.92 762.36 592.92ZM769.718 594V584.28H771.078L771.218 585.68H771.278C771.745 585.213 772.238 584.827 772.758 584.52C773.278 584.2 773.871 584.04 774.538 584.04C775.565 584.04 776.311 584.367 776.778 585.02C777.258 585.66 777.498 586.6 777.498 587.84V594H775.858V588.06C775.858 587.153 775.711 586.493 775.418 586.08C775.125 585.667 774.658 585.46 774.018 585.46C773.525 585.46 773.078 585.587 772.678 585.84C772.291 586.093 771.851 586.467 771.358 586.96V594H769.718ZM783.976 594.24C782.762 594.24 781.789 593.8 781.056 592.92C780.322 592.027 779.956 590.773 779.956 589.16C779.956 588.107 780.149 587.2 780.536 586.44C780.936 585.667 781.456 585.073 782.096 584.66C782.749 584.247 783.442 584.04 784.176 584.04C784.736 584.04 785.222 584.14 785.636 584.34C786.049 584.54 786.469 584.813 786.896 585.16L786.816 583.5V579.76H788.476V594H787.116L786.976 592.86H786.916C786.542 593.233 786.102 593.56 785.596 593.84C785.089 594.107 784.549 594.24 783.976 594.24ZM784.336 592.86C785.189 592.86 786.016 592.413 786.816 591.52V586.44C786.402 586.067 786.002 585.807 785.616 585.66C785.242 585.5 784.856 585.42 784.456 585.42C783.936 585.42 783.462 585.58 783.036 585.9C782.622 586.207 782.289 586.64 782.036 587.2C781.782 587.747 781.656 588.393 781.656 589.14C781.656 590.3 781.889 591.213 782.356 591.88C782.822 592.533 783.482 592.86 784.336 592.86ZM795.753 598.1V584.28H797.113L797.253 585.4H797.313C797.753 585.027 798.233 584.707 798.753 584.44C799.287 584.173 799.84 584.04 800.413 584.04C801.667 584.04 802.62 584.493 803.273 585.4C803.927 586.293 804.253 587.493 804.253 589C804.253 590.093 804.053 591.033 803.653 591.82C803.267 592.607 802.753 593.207 802.113 593.62C801.487 594.033 800.8 594.24 800.053 594.24C799.6 594.24 799.147 594.14 798.693 593.94C798.253 593.74 797.807 593.467 797.353 593.12L797.393 594.82V598.1H795.753ZM799.773 592.86C800.573 592.86 801.233 592.52 801.753 591.84C802.287 591.147 802.553 590.2 802.553 589C802.553 587.933 802.353 587.073 801.953 586.42C801.567 585.753 800.913 585.42 799.993 585.42C799.58 585.42 799.16 585.533 798.733 585.76C798.32 585.987 797.873 586.313 797.393 586.74V591.84C797.833 592.213 798.26 592.48 798.673 592.64C799.087 592.787 799.453 592.86 799.773 592.86ZM806.847 594V584.28H808.207L808.347 586.04H808.407C808.74 585.427 809.147 584.94 809.627 584.58C810.107 584.22 810.62 584.04 811.167 584.04C811.554 584.04 811.9 584.107 812.207 584.24L811.887 585.68C811.727 585.627 811.58 585.587 811.447 585.56C811.314 585.533 811.147 585.52 810.947 585.52C810.534 585.52 810.1 585.687 809.647 586.02C809.207 586.353 808.82 586.933 808.487 587.76V594H806.847ZM817.365 594.24C816.579 594.24 815.839 594.04 815.145 593.64C814.465 593.24 813.912 592.66 813.485 591.9C813.072 591.14 812.865 590.227 812.865 589.16C812.865 588.067 813.072 587.14 813.485 586.38C813.912 585.62 814.465 585.04 815.145 584.64C815.839 584.24 816.579 584.04 817.365 584.04C818.165 584.04 818.905 584.24 819.585 584.64C820.265 585.04 820.812 585.62 821.225 586.38C821.652 587.14 821.865 588.067 821.865 589.16C821.865 590.227 821.652 591.14 821.225 591.9C820.812 592.66 820.265 593.24 819.585 593.64C818.905 594.04 818.165 594.24 817.365 594.24ZM817.365 592.88C818.205 592.88 818.879 592.54 819.385 591.86C819.905 591.167 820.165 590.267 820.165 589.16C820.165 588.04 819.905 587.133 819.385 586.44C818.879 585.747 818.205 585.4 817.365 585.4C816.539 585.4 815.865 585.747 815.345 586.44C814.825 587.133 814.565 588.04 814.565 589.16C814.565 590.267 814.825 591.167 815.345 591.86C815.865 592.54 816.539 592.88 817.365 592.88ZM828.265 594.24C827.412 594.24 826.638 594.04 825.945 593.64C825.252 593.24 824.705 592.66 824.305 591.9C823.905 591.14 823.705 590.227 823.705 589.16C823.705 588.067 823.918 587.14 824.345 586.38C824.785 585.62 825.358 585.04 826.065 584.64C826.785 584.24 827.558 584.04 828.385 584.04C829.025 584.04 829.572 584.153 830.025 584.38C830.492 584.607 830.892 584.873 831.225 585.18L830.385 586.26C830.105 586.007 829.805 585.8 829.485 585.64C829.178 585.48 828.832 585.4 828.445 585.4C827.858 585.4 827.332 585.56 826.865 585.88C826.412 586.187 826.052 586.627 825.785 587.2C825.532 587.76 825.405 588.413 825.405 589.16C825.405 590.267 825.678 591.167 826.225 591.86C826.785 592.54 827.512 592.88 828.405 592.88C828.858 592.88 829.278 592.787 829.665 592.6C830.052 592.4 830.392 592.167 830.685 591.9L831.405 593C830.965 593.387 830.478 593.693 829.945 593.92C829.412 594.133 828.852 594.24 828.265 594.24ZM837.057 594.24C836.19 594.24 835.403 594.04 834.697 593.64C833.99 593.227 833.43 592.64 833.017 591.88C832.603 591.12 832.397 590.213 832.397 589.16C832.397 588.093 832.603 587.18 833.017 586.42C833.443 585.66 833.99 585.073 834.657 584.66C835.323 584.247 836.023 584.04 836.757 584.04C837.997 584.04 838.95 584.453 839.617 585.28C840.297 586.107 840.637 587.213 840.637 588.6C840.637 588.773 840.63 588.947 840.617 589.12C840.617 589.28 840.603 589.42 840.577 589.54H834.017C834.083 590.567 834.403 591.387 834.977 592C835.563 592.613 836.323 592.92 837.257 592.92C837.723 592.92 838.15 592.853 838.537 592.72C838.937 592.573 839.317 592.387 839.677 592.16L840.257 593.24C839.843 593.507 839.37 593.74 838.837 593.94C838.317 594.14 837.723 594.24 837.057 594.24ZM833.997 588.36H839.197C839.197 587.373 838.983 586.627 838.557 586.12C838.143 585.6 837.557 585.34 836.797 585.34C836.117 585.34 835.503 585.607 834.957 586.14C834.423 586.66 834.103 587.4 833.997 588.36ZM845.578 594.24C844.885 594.24 844.225 594.113 843.598 593.86C842.972 593.593 842.425 593.273 841.958 592.9L842.778 591.8C843.205 592.133 843.645 592.413 844.098 592.64C844.552 592.853 845.065 592.96 845.638 592.96C846.278 592.96 846.758 592.813 847.078 592.52C847.398 592.213 847.558 591.853 847.558 591.44C847.558 591.107 847.445 590.827 847.218 590.6C847.005 590.373 846.725 590.187 846.378 590.04C846.045 589.88 845.698 589.733 845.338 589.6C844.885 589.427 844.438 589.233 843.998 589.02C843.558 588.793 843.198 588.507 842.918 588.16C842.638 587.8 842.498 587.347 842.498 586.8C842.498 586.013 842.792 585.36 843.378 584.84C843.978 584.307 844.805 584.04 845.858 584.04C846.458 584.04 847.018 584.147 847.538 584.36C848.058 584.573 848.505 584.833 848.878 585.14L848.078 586.18C847.745 585.927 847.398 585.72 847.038 585.56C846.678 585.4 846.285 585.32 845.858 585.32C845.245 585.32 844.792 585.46 844.498 585.74C844.218 586.02 844.078 586.347 844.078 586.72C844.078 587.027 844.178 587.28 844.378 587.48C844.578 587.667 844.838 587.833 845.158 587.98C845.478 588.113 845.818 588.253 846.178 588.4C846.645 588.573 847.105 588.773 847.558 589C848.012 589.213 848.385 589.507 848.678 589.88C848.985 590.24 849.138 590.727 849.138 591.34C849.138 591.86 848.998 592.34 848.718 592.78C848.452 593.22 848.052 593.573 847.518 593.84C846.998 594.107 846.352 594.24 845.578 594.24ZM853.957 594.24C853.264 594.24 852.604 594.113 851.977 593.86C851.351 593.593 850.804 593.273 850.337 592.9L851.157 591.8C851.584 592.133 852.024 592.413 852.477 592.64C852.931 592.853 853.444 592.96 854.017 592.96C854.657 592.96 855.137 592.813 855.457 592.52C855.777 592.213 855.937 591.853 855.937 591.44C855.937 591.107 855.824 590.827 855.597 590.6C855.384 590.373 855.104 590.187 854.757 590.04C854.424 589.88 854.077 589.733 853.717 589.6C853.264 589.427 852.817 589.233 852.377 589.02C851.937 588.793 851.577 588.507 851.297 588.16C851.017 587.8 850.877 587.347 850.877 586.8C850.877 586.013 851.171 585.36 851.757 584.84C852.357 584.307 853.184 584.04 854.237 584.04C854.837 584.04 855.397 584.147 855.917 584.36C856.437 584.573 856.884 584.833 857.257 585.14L856.457 586.18C856.124 585.927 855.777 585.72 855.417 585.56C855.057 585.4 854.664 585.32 854.237 585.32C853.624 585.32 853.171 585.46 852.877 585.74C852.597 586.02 852.457 586.347 852.457 586.72C852.457 587.027 852.557 587.28 852.757 587.48C852.957 587.667 853.217 587.833 853.537 587.98C853.857 588.113 854.197 588.253 854.557 588.4C855.024 588.573 855.484 588.773 855.937 589C856.391 589.213 856.764 589.507 857.057 589.88C857.364 590.24 857.517 590.727 857.517 591.34C857.517 591.86 857.377 592.34 857.097 592.78C856.831 593.22 856.431 593.573 855.897 593.84C855.377 594.107 854.731 594.24 853.957 594.24ZM863.736 594.24C862.87 594.24 862.083 594.04 861.376 593.64C860.67 593.227 860.11 592.64 859.696 591.88C859.283 591.12 859.076 590.213 859.076 589.16C859.076 588.093 859.283 587.18 859.696 586.42C860.123 585.66 860.67 585.073 861.336 584.66C862.003 584.247 862.703 584.04 863.436 584.04C864.676 584.04 865.63 584.453 866.296 585.28C866.976 586.107 867.316 587.213 867.316 588.6C867.316 588.773 867.31 588.947 867.296 589.12C867.296 589.28 867.283 589.42 867.256 589.54H860.696C860.763 590.567 861.083 591.387 861.656 592C862.243 592.613 863.003 592.92 863.936 592.92C864.403 592.92 864.83 592.853 865.216 592.72C865.616 592.573 865.996 592.387 866.356 592.16L866.936 593.24C866.523 593.507 866.05 593.74 865.516 593.94C864.996 594.14 864.403 594.24 863.736 594.24ZM860.676 588.36H865.876C865.876 587.373 865.663 586.627 865.236 586.12C864.823 585.6 864.236 585.34 863.476 585.34C862.796 585.34 862.183 585.607 861.636 586.14C861.103 586.66 860.783 587.4 860.676 588.36ZM873.038 594.24C871.825 594.24 870.851 593.8 870.118 592.92C869.385 592.027 869.018 590.773 869.018 589.16C869.018 588.107 869.211 587.2 869.598 586.44C869.998 585.667 870.518 585.073 871.158 584.66C871.811 584.247 872.505 584.04 873.238 584.04C873.798 584.04 874.285 584.14 874.698 584.34C875.111 584.54 875.531 584.813 875.958 585.16L875.878 583.5V579.76H877.538V594H876.178L876.038 592.86H875.978C875.605 593.233 875.165 593.56 874.658 593.84C874.151 594.107 873.611 594.24 873.038 594.24ZM873.398 592.86C874.251 592.86 875.078 592.413 875.878 591.52V586.44C875.465 586.067 875.065 585.807 874.678 585.66C874.305 585.5 873.918 585.42 873.518 585.42C872.998 585.42 872.525 585.58 872.098 585.9C871.685 586.207 871.351 586.64 871.098 587.2C870.845 587.747 870.718 588.393 870.718 589.14C870.718 590.3 870.951 591.213 871.418 591.88C871.885 592.533 872.545 592.86 873.398 592.86ZM881.672 594.24C881.339 594.24 881.052 594.127 880.812 593.9C880.585 593.66 880.472 593.36 880.472 593C880.472 592.613 880.585 592.307 880.812 592.08C881.052 591.84 881.339 591.72 881.672 591.72C881.992 591.72 882.265 591.84 882.492 592.08C882.732 592.307 882.852 592.613 882.852 593C882.852 593.36 882.732 593.66 882.492 593.9C882.265 594.127 881.992 594.24 881.672 594.24ZM894.916 594.24C893.823 594.24 892.843 593.973 891.976 593.44C891.123 592.893 890.443 592.113 889.936 591.1C889.443 590.087 889.196 588.867 889.196 587.44C889.196 586.027 889.45 584.813 889.956 583.8C890.463 582.787 891.156 582.007 892.036 581.46C892.916 580.913 893.91 580.64 895.016 580.64C895.816 580.64 896.523 580.807 897.136 581.14C897.75 581.46 898.243 581.833 898.616 582.26L897.716 583.34C897.37 582.967 896.976 582.667 896.536 582.44C896.096 582.213 895.596 582.1 895.036 582.1C894.21 582.1 893.483 582.32 892.856 582.76C892.243 583.187 891.763 583.793 891.416 584.58C891.083 585.367 890.916 586.307 890.916 587.4C890.916 588.493 891.083 589.447 891.416 590.26C891.75 591.06 892.216 591.68 892.816 592.12C893.43 592.56 894.15 592.78 894.976 592.78C895.603 592.78 896.163 592.647 896.656 592.38C897.15 592.113 897.603 591.753 898.016 591.3L898.936 592.34C898.416 592.94 897.83 593.407 897.176 593.74C896.523 594.073 895.77 594.24 894.916 594.24ZM905.002 594.24C904.215 594.24 903.475 594.04 902.782 593.64C902.102 593.24 901.549 592.66 901.122 591.9C900.709 591.14 900.502 590.227 900.502 589.16C900.502 588.067 900.709 587.14 901.122 586.38C901.549 585.62 902.102 585.04 902.782 584.64C903.475 584.24 904.215 584.04 905.002 584.04C905.802 584.04 906.542 584.24 907.222 584.64C907.902 585.04 908.449 585.62 908.862 586.38C909.289 587.14 909.502 588.067 909.502 589.16C909.502 590.227 909.289 591.14 908.862 591.9C908.449 592.66 907.902 593.24 907.222 593.64C906.542 594.04 905.802 594.24 905.002 594.24ZM905.002 592.88C905.842 592.88 906.515 592.54 907.022 591.86C907.542 591.167 907.802 590.267 907.802 589.16C907.802 588.04 907.542 587.133 907.022 586.44C906.515 585.747 905.842 585.4 905.002 585.4C904.175 585.4 903.502 585.747 902.982 586.44C902.462 587.133 902.202 588.04 902.202 589.16C902.202 590.267 902.462 591.167 902.982 591.86C903.502 592.54 904.175 592.88 905.002 592.88ZM912.062 594V584.28H913.422L913.562 585.68H913.622C914.089 585.213 914.582 584.827 915.102 584.52C915.622 584.2 916.215 584.04 916.882 584.04C917.909 584.04 918.655 584.367 919.122 585.02C919.602 585.66 919.842 586.6 919.842 587.84V594H918.202V588.06C918.202 587.153 918.055 586.493 917.762 586.08C917.469 585.667 917.002 585.46 916.362 585.46C915.869 585.46 915.422 585.587 915.022 585.84C914.635 586.093 914.195 586.467 913.702 586.96V594H912.062ZM926.059 594.24C925.019 594.24 924.293 593.94 923.879 593.34C923.479 592.74 923.279 591.96 923.279 591V585.62H921.839V584.38L923.359 584.28L923.559 581.56H924.939V584.28H927.559V585.62H924.939V591.02C924.939 591.62 925.046 592.087 925.259 592.42C925.486 592.74 925.879 592.9 926.439 592.9C926.613 592.9 926.799 592.873 926.999 592.82C927.199 592.753 927.379 592.693 927.539 592.64L927.859 593.88C927.593 593.973 927.299 594.053 926.979 594.12C926.673 594.2 926.366 594.24 926.059 594.24ZM929.757 594V584.28H931.397V594H929.757ZM930.597 582.28C930.277 582.28 930.011 582.187 929.797 582C929.597 581.8 929.497 581.533 929.497 581.2C929.497 580.88 929.597 580.62 929.797 580.42C930.011 580.22 930.277 580.12 930.597 580.12C930.917 580.12 931.177 580.22 931.377 580.42C931.591 580.62 931.697 580.88 931.697 581.2C931.697 581.533 931.591 581.8 931.377 582C931.177 582.187 930.917 582.28 930.597 582.28ZM934.679 594V584.28H936.039L936.179 585.68H936.239C936.706 585.213 937.199 584.827 937.719 584.52C938.239 584.2 938.832 584.04 939.499 584.04C940.526 584.04 941.272 584.367 941.739 585.02C942.219 585.66 942.459 586.6 942.459 587.84V594H940.819V588.06C940.819 587.153 940.672 586.493 940.379 586.08C940.086 585.667 939.619 585.46 938.979 585.46C938.486 585.46 938.039 585.587 937.639 585.84C937.252 586.093 936.812 586.467 936.319 586.96V594H934.679ZM948.457 594.24C947.43 594.24 946.677 593.92 946.197 593.28C945.717 592.627 945.477 591.68 945.477 590.44V584.28H947.137V590.22C947.137 591.127 947.277 591.787 947.557 592.2C947.85 592.613 948.317 592.82 948.957 592.82C949.463 592.82 949.91 592.693 950.297 592.44C950.697 592.173 951.123 591.753 951.577 591.18V584.28H953.217V594H951.857L951.717 592.48H951.657C951.203 593.013 950.723 593.44 950.217 593.76C949.71 594.08 949.123 594.24 948.457 594.24ZM960.435 594.24C959.569 594.24 958.782 594.04 958.075 593.64C957.369 593.227 956.809 592.64 956.395 591.88C955.982 591.12 955.775 590.213 955.775 589.16C955.775 588.093 955.982 587.18 956.395 586.42C956.822 585.66 957.369 585.073 958.035 584.66C958.702 584.247 959.402 584.04 960.135 584.04C961.375 584.04 962.329 584.453 962.995 585.28C963.675 586.107 964.015 587.213 964.015 588.6C964.015 588.773 964.009 588.947 963.995 589.12C963.995 589.28 963.982 589.42 963.955 589.54H957.395C957.462 590.567 957.782 591.387 958.355 592C958.942 592.613 959.702 592.92 960.635 592.92C961.102 592.92 961.529 592.853 961.915 592.72C962.315 592.573 962.695 592.387 963.055 592.16L963.635 593.24C963.222 593.507 962.749 593.74 962.215 593.94C961.695 594.14 961.102 594.24 960.435 594.24ZM957.375 588.36H962.575C962.575 587.373 962.362 586.627 961.935 586.12C961.522 585.6 960.935 585.34 960.175 585.34C959.495 585.34 958.882 585.607 958.335 586.14C957.802 586.66 957.482 587.4 957.375 588.36ZM973.481 594.24C972.441 594.24 971.715 593.94 971.301 593.34C970.901 592.74 970.701 591.96 970.701 591V585.62H969.261V584.38L970.781 584.28L970.981 581.56H972.361V584.28H974.981V585.62H972.361V591.02C972.361 591.62 972.468 592.087 972.681 592.42C972.908 592.74 973.301 592.9 973.861 592.9C974.035 592.9 974.221 592.873 974.421 592.82C974.621 592.753 974.801 592.693 974.961 592.64L975.281 593.88C975.015 593.973 974.721 594.053 974.401 594.12C974.095 594.2 973.788 594.24 973.481 594.24ZM980.686 594.24C979.899 594.24 979.159 594.04 978.466 593.64C977.786 593.24 977.232 592.66 976.806 591.9C976.392 591.14 976.186 590.227 976.186 589.16C976.186 588.067 976.392 587.14 976.806 586.38C977.232 585.62 977.786 585.04 978.466 584.64C979.159 584.24 979.899 584.04 980.686 584.04C981.486 584.04 982.226 584.24 982.906 584.64C983.586 585.04 984.132 585.62 984.546 586.38C984.972 587.14 985.186 588.067 985.186 589.16C985.186 590.227 984.972 591.14 984.546 591.9C984.132 592.66 983.586 593.24 982.906 593.64C982.226 594.04 981.486 594.24 980.686 594.24ZM980.686 592.88C981.526 592.88 982.199 592.54 982.706 591.86C983.226 591.167 983.486 590.267 983.486 589.16C983.486 588.04 983.226 587.133 982.706 586.44C982.199 585.747 981.526 585.4 980.686 585.4C979.859 585.4 979.186 585.747 978.666 586.44C978.146 587.133 977.886 588.04 977.886 589.16C977.886 590.267 978.146 591.167 978.666 591.86C979.186 592.54 979.859 592.88 980.686 592.88ZM991.749 594V584.28H993.109L993.249 586.04H993.309C993.643 585.427 994.049 584.94 994.529 584.58C995.009 584.22 995.523 584.04 996.069 584.04C996.456 584.04 996.803 584.107 997.109 584.24L996.789 585.68C996.629 585.627 996.483 585.587 996.349 585.56C996.216 585.533 996.049 585.52 995.849 585.52C995.436 585.52 995.003 585.687 994.549 586.02C994.109 586.353 993.723 586.933 993.389 587.76V594H991.749ZM1002.43 594.24C1001.56 594.24 1000.77 594.04 1000.07 593.64C999.361 593.227 998.801 592.64 998.388 591.88C997.974 591.12 997.768 590.213 997.768 589.16C997.768 588.093 997.974 587.18 998.388 586.42C998.814 585.66 999.361 585.073 1000.03 584.66C1000.69 584.247 1001.39 584.04 1002.13 584.04C1003.37 584.04 1004.32 584.453 1004.99 585.28C1005.67 586.107 1006.01 587.213 1006.01 588.6C1006.01 588.773 1006 588.947 1005.99 589.12C1005.99 589.28 1005.97 589.42 1005.95 589.54H999.388C999.454 590.567 999.774 591.387 1000.35 592C1000.93 592.613 1001.69 592.92 1002.63 592.92C1003.09 592.92 1003.52 592.853 1003.91 592.72C1004.31 592.573 1004.69 592.387 1005.05 592.16L1005.63 593.24C1005.21 593.507 1004.74 593.74 1004.21 593.94C1003.69 594.14 1003.09 594.24 1002.43 594.24ZM999.368 588.36H1004.57C1004.57 587.373 1004.35 586.627 1003.93 586.12C1003.51 585.6 1002.93 585.34 1002.17 585.34C1001.49 585.34 1000.87 585.607 1000.33 586.14C999.794 586.66 999.474 587.4 999.368 588.36ZM1010.61 594L1007.11 584.28H1008.81L1010.65 589.8C1010.79 590.28 1010.94 590.76 1011.09 591.24C1011.25 591.72 1011.4 592.193 1011.55 592.66H1011.63C1011.77 592.193 1011.92 591.72 1012.07 591.24C1012.23 590.76 1012.37 590.28 1012.51 589.8L1014.35 584.28H1015.97L1012.53 594H1010.61ZM1017.84 594V584.28H1019.48V594H1017.84ZM1018.68 582.28C1018.36 582.28 1018.1 582.187 1017.88 582C1017.68 581.8 1017.58 581.533 1017.58 581.2C1017.58 580.88 1017.68 580.62 1017.88 580.42C1018.1 580.22 1018.36 580.12 1018.68 580.12C1019 580.12 1019.26 580.22 1019.46 580.42C1019.68 580.62 1019.78 580.88 1019.78 581.2C1019.78 581.533 1019.68 581.8 1019.46 582C1019.26 582.187 1019 582.28 1018.68 582.28ZM1026.71 594.24C1025.84 594.24 1025.05 594.04 1024.35 593.64C1023.64 593.227 1023.08 592.64 1022.67 591.88C1022.25 591.12 1022.05 590.213 1022.05 589.16C1022.05 588.093 1022.25 587.18 1022.67 586.42C1023.09 585.66 1023.64 585.073 1024.31 584.66C1024.97 584.247 1025.67 584.04 1026.4 584.04C1027.65 584.04 1028.6 584.453 1029.27 585.28C1029.95 586.107 1030.29 587.213 1030.29 588.6C1030.29 588.773 1030.28 588.947 1030.27 589.12C1030.27 589.28 1030.25 589.42 1030.23 589.54H1023.67C1023.73 590.567 1024.05 591.387 1024.63 592C1025.21 592.613 1025.97 592.92 1026.91 592.92C1027.37 592.92 1027.8 592.853 1028.19 592.72C1028.59 592.573 1028.97 592.387 1029.33 592.16L1029.91 593.24C1029.49 593.507 1029.02 593.74 1028.49 593.94C1027.97 594.14 1027.37 594.24 1026.71 594.24ZM1023.65 588.36H1028.85C1028.85 587.373 1028.63 586.627 1028.21 586.12C1027.79 585.6 1027.21 585.34 1026.45 585.34C1025.77 585.34 1025.15 585.607 1024.61 586.14C1024.07 586.66 1023.75 587.4 1023.65 588.36ZM1034.32 594L1031.62 584.28H1033.3L1034.74 589.9C1034.85 590.353 1034.95 590.807 1035.04 591.26C1035.14 591.7 1035.23 592.147 1035.32 592.6H1035.4C1035.51 592.147 1035.62 591.7 1035.72 591.26C1035.83 590.807 1035.94 590.353 1036.06 589.9L1037.56 584.28H1039.16L1040.68 589.9C1040.8 590.353 1040.92 590.807 1041.02 591.26C1041.14 591.7 1041.26 592.147 1041.36 592.6H1041.44C1041.55 592.147 1041.65 591.7 1041.74 591.26C1041.85 590.807 1041.95 590.353 1042.04 589.9L1043.46 584.28H1045.02L1042.42 594H1040.42L1039.02 588.78C1038.9 588.313 1038.79 587.853 1038.68 587.4C1038.59 586.947 1038.48 586.473 1038.36 585.98H1038.28C1038.18 586.473 1038.07 586.953 1037.96 587.42C1037.86 587.873 1037.74 588.333 1037.6 588.8L1036.24 594H1034.32ZM1051.3 598.18C1051.09 598.18 1050.88 598.16 1050.68 598.12C1050.5 598.08 1050.32 598.033 1050.16 597.98L1050.48 596.68C1050.59 596.707 1050.71 596.733 1050.84 596.76C1050.98 596.8 1051.1 596.82 1051.22 596.82C1051.77 596.82 1052.22 596.62 1052.58 596.22C1052.94 595.833 1053.22 595.34 1053.42 594.74L1053.64 594.02L1049.74 584.28H1051.44L1053.42 589.66C1053.57 590.073 1053.72 590.52 1053.88 591C1054.06 591.48 1054.22 591.947 1054.36 592.4H1054.44C1054.59 591.96 1054.73 591.5 1054.86 591.02C1055 590.54 1055.13 590.087 1055.26 589.66L1057 584.28H1058.6L1054.94 594.8C1054.72 595.44 1054.44 596.013 1054.12 596.52C1053.82 597.027 1053.43 597.427 1052.96 597.72C1052.51 598.027 1051.96 598.18 1051.3 598.18ZM1064.18 594.24C1063.4 594.24 1062.66 594.04 1061.96 593.64C1061.28 593.24 1060.73 592.66 1060.3 591.9C1059.89 591.14 1059.68 590.227 1059.68 589.16C1059.68 588.067 1059.89 587.14 1060.3 586.38C1060.73 585.62 1061.28 585.04 1061.96 584.64C1062.66 584.24 1063.4 584.04 1064.18 584.04C1064.98 584.04 1065.72 584.24 1066.4 584.64C1067.08 585.04 1067.63 585.62 1068.04 586.38C1068.47 587.14 1068.68 588.067 1068.68 589.16C1068.68 590.227 1068.47 591.14 1068.04 591.9C1067.63 592.66 1067.08 593.24 1066.4 593.64C1065.72 594.04 1064.98 594.24 1064.18 594.24ZM1064.18 592.88C1065.02 592.88 1065.7 592.54 1066.2 591.86C1066.72 591.167 1066.98 590.267 1066.98 589.16C1066.98 588.04 1066.72 587.133 1066.2 586.44C1065.7 585.747 1065.02 585.4 1064.18 585.4C1063.36 585.4 1062.68 585.747 1062.16 586.44C1061.64 587.133 1061.38 588.04 1061.38 589.16C1061.38 590.267 1061.64 591.167 1062.16 591.86C1062.68 592.54 1063.36 592.88 1064.18 592.88ZM1074.08 594.24C1073.05 594.24 1072.3 593.92 1071.82 593.28C1071.34 592.627 1071.1 591.68 1071.1 590.44V584.28H1072.76V590.22C1072.76 591.127 1072.9 591.787 1073.18 592.2C1073.47 592.613 1073.94 592.82 1074.58 592.82C1075.09 592.82 1075.53 592.693 1075.92 592.44C1076.32 592.173 1076.75 591.753 1077.2 591.18V584.28H1078.84V594H1077.48L1077.34 592.48H1077.28C1076.83 593.013 1076.35 593.44 1075.84 593.76C1075.33 594.08 1074.75 594.24 1074.08 594.24ZM1082.12 594V584.28H1083.48L1083.62 586.04H1083.68C1084.01 585.427 1084.42 584.94 1084.9 584.58C1085.38 584.22 1085.89 584.04 1086.44 584.04C1086.83 584.04 1087.17 584.107 1087.48 584.24L1087.16 585.68C1087 585.627 1086.85 585.587 1086.72 585.56C1086.59 585.533 1086.42 585.52 1086.22 585.52C1085.81 585.52 1085.37 585.687 1084.92 586.02C1084.48 586.353 1084.09 586.933 1083.76 587.76V594H1082.12ZM1096.9 594.24C1096.04 594.24 1095.27 594.04 1094.58 593.64C1093.88 593.24 1093.34 592.66 1092.94 591.9C1092.54 591.14 1092.34 590.227 1092.34 589.16C1092.34 588.067 1092.55 587.14 1092.98 586.38C1093.42 585.62 1093.99 585.04 1094.7 584.64C1095.42 584.24 1096.19 584.04 1097.02 584.04C1097.66 584.04 1098.2 584.153 1098.66 584.38C1099.12 584.607 1099.52 584.873 1099.86 585.18L1099.02 586.26C1098.74 586.007 1098.44 585.8 1098.12 585.64C1097.81 585.48 1097.46 585.4 1097.08 585.4C1096.49 585.4 1095.96 585.56 1095.5 585.88C1095.04 586.187 1094.68 586.627 1094.42 587.2C1094.16 587.76 1094.04 588.413 1094.04 589.16C1094.04 590.267 1094.31 591.167 1094.86 591.86C1095.42 592.54 1096.14 592.88 1097.04 592.88C1097.49 592.88 1097.91 592.787 1098.3 592.6C1098.68 592.4 1099.02 592.167 1099.32 591.9L1100.04 593C1099.6 593.387 1099.11 593.693 1098.58 593.92C1098.04 594.133 1097.48 594.24 1096.9 594.24ZM1105.53 594.24C1104.74 594.24 1104 594.04 1103.31 593.64C1102.63 593.24 1102.08 592.66 1101.65 591.9C1101.24 591.14 1101.03 590.227 1101.03 589.16C1101.03 588.067 1101.24 587.14 1101.65 586.38C1102.08 585.62 1102.63 585.04 1103.31 584.64C1104 584.24 1104.74 584.04 1105.53 584.04C1106.33 584.04 1107.07 584.24 1107.75 584.64C1108.43 585.04 1108.98 585.62 1109.39 586.38C1109.82 587.14 1110.03 588.067 1110.03 589.16C1110.03 590.227 1109.82 591.14 1109.39 591.9C1108.98 592.66 1108.43 593.24 1107.75 593.64C1107.07 594.04 1106.33 594.24 1105.53 594.24ZM1105.53 592.88C1106.37 592.88 1107.04 592.54 1107.55 591.86C1108.07 591.167 1108.33 590.267 1108.33 589.16C1108.33 588.04 1108.07 587.133 1107.55 586.44C1107.04 585.747 1106.37 585.4 1105.53 585.4C1104.7 585.4 1104.03 585.747 1103.51 586.44C1102.99 587.133 1102.73 588.04 1102.73 589.16C1102.73 590.267 1102.99 591.167 1103.51 591.86C1104.03 592.54 1104.7 592.88 1105.53 592.88ZM1112.59 594V584.28H1113.95L1114.09 585.68H1114.15C1114.62 585.213 1115.11 584.827 1115.63 584.52C1116.15 584.2 1116.74 584.04 1117.41 584.04C1118.44 584.04 1119.18 584.367 1119.65 585.02C1120.13 585.66 1120.37 586.6 1120.37 587.84V594H1118.73V588.06C1118.73 587.153 1118.58 586.493 1118.29 586.08C1118 585.667 1117.53 585.46 1116.89 585.46C1116.4 585.46 1115.95 585.587 1115.55 585.84C1115.16 586.093 1114.72 586.467 1114.23 586.96V594H1112.59ZM1126.59 594.24C1125.55 594.24 1124.82 593.94 1124.41 593.34C1124.01 592.74 1123.81 591.96 1123.81 591V585.62H1122.37V584.38L1123.89 584.28L1124.09 581.56H1125.47V584.28H1128.09V585.62H1125.47V591.02C1125.47 591.62 1125.57 592.087 1125.79 592.42C1126.01 592.74 1126.41 592.9 1126.97 592.9C1127.14 592.9 1127.33 592.873 1127.53 592.82C1127.73 592.753 1127.91 592.693 1128.07 592.64L1128.39 593.88C1128.12 593.973 1127.83 594.053 1127.51 594.12C1127.2 594.2 1126.89 594.24 1126.59 594.24ZM1133.95 594.24C1133.08 594.24 1132.3 594.04 1131.59 593.64C1130.88 593.227 1130.32 592.64 1129.91 591.88C1129.5 591.12 1129.29 590.213 1129.29 589.16C1129.29 588.093 1129.5 587.18 1129.91 586.42C1130.34 585.66 1130.88 585.073 1131.55 584.66C1132.22 584.247 1132.92 584.04 1133.65 584.04C1134.89 584.04 1135.84 584.453 1136.51 585.28C1137.19 586.107 1137.53 587.213 1137.53 588.6C1137.53 588.773 1137.52 588.947 1137.51 589.12C1137.51 589.28 1137.5 589.42 1137.47 589.54H1130.91C1130.98 590.567 1131.3 591.387 1131.87 592C1132.46 592.613 1133.22 592.92 1134.15 592.92C1134.62 592.92 1135.04 592.853 1135.43 592.72C1135.83 592.573 1136.21 592.387 1136.57 592.16L1137.15 593.24C1136.74 593.507 1136.26 593.74 1135.73 593.94C1135.21 594.14 1134.62 594.24 1133.95 594.24ZM1130.89 588.36H1136.09C1136.09 587.373 1135.88 586.627 1135.45 586.12C1135.04 585.6 1134.45 585.34 1133.69 585.34C1133.01 585.34 1132.4 585.607 1131.85 586.14C1131.32 586.66 1131 587.4 1130.89 588.36ZM1139.93 594V584.28H1141.29L1141.43 585.68H1141.49C1141.96 585.213 1142.45 584.827 1142.97 584.52C1143.49 584.2 1144.09 584.04 1144.75 584.04C1145.78 584.04 1146.53 584.367 1146.99 585.02C1147.47 585.66 1147.71 586.6 1147.71 587.84V594H1146.07V588.06C1146.07 587.153 1145.93 586.493 1145.63 586.08C1145.34 585.667 1144.87 585.46 1144.23 585.46C1143.74 585.46 1143.29 585.587 1142.89 585.84C1142.51 586.093 1142.07 586.467 1141.57 586.96V594H1139.93ZM1153.93 594.24C1152.89 594.24 1152.16 593.94 1151.75 593.34C1151.35 592.74 1151.15 591.96 1151.15 591V585.62H1149.71V584.38L1151.23 584.28L1151.43 581.56H1152.81V584.28H1155.43V585.62H1152.81V591.02C1152.81 591.62 1152.92 592.087 1153.13 592.42C1153.36 592.74 1153.75 592.9 1154.31 592.9C1154.48 592.9 1154.67 592.873 1154.87 592.82C1155.07 592.753 1155.25 592.693 1155.41 592.64L1155.73 593.88C1155.46 593.973 1155.17 594.053 1154.85 594.12C1154.54 594.2 1154.24 594.24 1153.93 594.24ZM1158.62 594.24C1158.29 594.24 1158.01 594.127 1157.77 593.9C1157.54 593.66 1157.43 593.36 1157.43 593C1157.43 592.613 1157.54 592.307 1157.77 592.08C1158.01 591.84 1158.29 591.72 1158.62 591.72C1158.95 591.72 1159.22 591.84 1159.45 592.08C1159.69 592.307 1159.81 592.613 1159.81 593C1159.81 593.36 1159.69 593.66 1159.45 593.9C1159.22 594.127 1158.95 594.24 1158.62 594.24Z" fill="#1B1B1B"/>
<rect x="856" y="653" width="207.418" height="49.96" rx="4.54182" fill="#005EA2"/>
<path d="M885.265 684.698C884.272 684.698 883.358 684.468 882.522 684.008C881.686 683.547 881.014 682.869 880.506 681.973C880.009 681.065 879.761 679.95 879.761 678.63C879.761 677.322 880.015 676.208 880.524 675.287C881.045 674.355 881.729 673.646 882.577 673.162C883.437 672.665 884.363 672.417 885.356 672.417C886.119 672.417 886.804 672.574 887.409 672.889C888.015 673.192 888.517 673.549 888.917 673.961L887.5 675.669C887.197 675.39 886.876 675.166 886.537 674.997C886.21 674.815 885.835 674.724 885.411 674.724C884.878 674.724 884.387 674.876 883.939 675.178C883.503 675.481 883.152 675.917 882.886 676.486C882.631 677.056 882.504 677.74 882.504 678.539C882.504 679.75 882.764 680.695 883.285 681.373C883.806 682.052 884.502 682.391 885.374 682.391C885.859 682.391 886.289 682.282 886.664 682.064C887.052 681.846 887.391 681.585 887.682 681.283L889.099 682.954C888.106 684.117 886.828 684.698 885.265 684.698ZM894.55 684.698C893.786 684.698 893.066 684.516 892.388 684.153C891.721 683.778 891.183 683.239 890.771 682.536C890.359 681.822 890.153 680.968 890.153 679.974C890.153 678.969 890.359 678.115 890.771 677.413C891.183 676.71 891.721 676.178 892.388 675.814C893.066 675.439 893.786 675.251 894.55 675.251C895.313 675.251 896.027 675.439 896.693 675.814C897.359 676.178 897.898 676.71 898.31 677.413C898.722 678.115 898.928 678.969 898.928 679.974C898.928 680.968 898.722 681.822 898.31 682.536C897.898 683.239 897.359 683.778 896.693 684.153C896.027 684.516 895.313 684.698 894.55 684.698ZM894.55 682.536C895.095 682.536 895.506 682.306 895.785 681.846C896.063 681.373 896.203 680.75 896.203 679.974C896.203 679.187 896.063 678.564 895.785 678.103C895.506 677.643 895.095 677.413 894.55 677.413C893.992 677.413 893.575 677.643 893.296 678.103C893.03 678.564 892.896 679.187 892.896 679.974C892.896 680.75 893.03 681.373 893.296 681.846C893.575 682.306 893.992 682.536 894.55 682.536ZM900.757 684.48V675.469H902.937L903.119 676.614H903.191C903.579 676.25 904.003 675.935 904.463 675.669C904.936 675.39 905.474 675.251 906.08 675.251C907.061 675.251 907.77 675.578 908.206 676.232C908.654 676.874 908.878 677.758 908.878 678.884V684.48H906.207V679.23C906.207 678.576 906.116 678.127 905.935 677.885C905.765 677.643 905.487 677.522 905.099 677.522C904.76 677.522 904.469 677.601 904.227 677.758C903.985 677.903 903.718 678.115 903.428 678.394V684.48H900.757ZM914.624 684.698C913.509 684.698 912.71 684.377 912.225 683.735C911.753 683.093 911.517 682.251 911.517 681.21V677.558H910.282V675.578L911.662 675.469L911.971 673.071H914.187V675.469H916.349V677.558H914.187V681.174C914.187 681.682 914.29 682.052 914.496 682.282C914.714 682.5 914.999 682.609 915.35 682.609C915.496 682.609 915.641 682.591 915.786 682.554C915.944 682.518 916.083 682.476 916.204 682.427L916.622 684.371C916.392 684.444 916.107 684.516 915.768 684.589C915.441 684.662 915.06 684.698 914.624 684.698ZM918.108 684.48V675.469H920.779V684.48H918.108ZM919.434 674.143C918.986 674.143 918.623 674.016 918.344 673.761C918.066 673.507 917.927 673.168 917.927 672.744C917.927 672.32 918.066 671.981 918.344 671.727C918.623 671.472 918.986 671.345 919.434 671.345C919.883 671.345 920.246 671.472 920.524 671.727C920.803 671.981 920.942 672.32 920.942 672.744C920.942 673.168 920.803 673.507 920.524 673.761C920.246 674.016 919.883 674.143 919.434 674.143ZM923.129 684.48V675.469H925.309L925.491 676.614H925.563C925.951 676.25 926.375 675.935 926.835 675.669C927.308 675.39 927.846 675.251 928.452 675.251C929.433 675.251 930.142 675.578 930.578 676.232C931.026 676.874 931.25 677.758 931.25 678.884V684.48H928.579V679.23C928.579 678.576 928.488 678.127 928.307 677.885C928.137 677.643 927.859 677.522 927.471 677.522C927.132 677.522 926.841 677.601 926.599 677.758C926.357 677.903 926.09 678.115 925.8 678.394V684.48H923.129ZM936.232 684.698C935.251 684.698 934.537 684.377 934.089 683.735C933.653 683.081 933.435 682.191 933.435 681.065V675.469H936.105V680.719C936.105 681.361 936.196 681.809 936.378 682.064C936.56 682.306 936.844 682.427 937.232 682.427C937.571 682.427 937.855 682.348 938.086 682.191C938.316 682.033 938.564 681.779 938.83 681.428V675.469H941.501V684.48H939.321L939.121 683.226H939.067C938.691 683.675 938.279 684.032 937.831 684.298C937.383 684.565 936.85 684.698 936.232 684.698ZM947.884 684.698C947.024 684.698 946.249 684.51 945.559 684.135C944.868 683.759 944.323 683.22 943.924 682.518C943.524 681.815 943.324 680.968 943.324 679.974C943.324 678.993 943.524 678.152 943.924 677.449C944.336 676.747 944.868 676.208 945.523 675.832C946.177 675.445 946.861 675.251 947.575 675.251C948.435 675.251 949.144 675.445 949.701 675.832C950.27 676.208 950.694 676.723 950.973 677.377C951.263 678.018 951.409 678.751 951.409 679.575C951.409 679.805 951.397 680.035 951.372 680.265C951.348 680.483 951.324 680.647 951.3 680.756H945.904C946.025 681.41 946.298 681.894 946.722 682.209C947.145 682.512 947.654 682.663 948.248 682.663C948.89 682.663 949.537 682.463 950.191 682.064L951.082 683.681C950.621 683.996 950.107 684.244 949.537 684.425C948.968 684.607 948.417 684.698 947.884 684.698ZM945.886 678.993H949.138C949.138 678.497 949.017 678.091 948.774 677.776C948.544 677.449 948.163 677.286 947.63 677.286C947.218 677.286 946.849 677.431 946.522 677.722C946.195 678 945.983 678.424 945.886 678.993ZM960.361 684.698C959.247 684.698 958.447 684.377 957.963 683.735C957.491 683.093 957.254 682.251 957.254 681.21V677.558H956.019V675.578L957.4 675.469L957.709 673.071H959.925V675.469H962.087V677.558H959.925V681.174C959.925 681.682 960.028 682.052 960.234 682.282C960.452 682.5 960.737 682.609 961.088 682.609C961.233 682.609 961.378 682.591 961.524 682.554C961.681 682.518 961.82 682.476 961.942 682.427L962.359 684.371C962.129 684.444 961.845 684.516 961.506 684.589C961.179 684.662 960.797 684.698 960.361 684.698ZM967.396 684.698C966.633 684.698 965.912 684.516 965.234 684.153C964.568 683.778 964.029 683.239 963.617 682.536C963.205 681.822 963 680.968 963 679.974C963 678.969 963.205 678.115 963.617 677.413C964.029 676.71 964.568 676.178 965.234 675.814C965.912 675.439 966.633 675.251 967.396 675.251C968.159 675.251 968.874 675.439 969.54 675.814C970.206 676.178 970.745 676.71 971.157 677.413C971.568 678.115 971.774 678.969 971.774 679.974C971.774 680.968 971.568 681.822 971.157 682.536C970.745 683.239 970.206 683.778 969.54 684.153C968.874 684.516 968.159 684.698 967.396 684.698ZM967.396 682.536C967.941 682.536 968.353 682.306 968.631 681.846C968.91 681.373 969.049 680.75 969.049 679.974C969.049 679.187 968.91 678.564 968.631 678.103C968.353 677.643 967.941 677.413 967.396 677.413C966.839 677.413 966.421 677.643 966.143 678.103C965.876 678.564 965.743 679.187 965.743 679.974C965.743 680.75 965.876 681.373 966.143 681.846C966.421 682.306 966.839 682.536 967.396 682.536ZM982.4 684.698C981.407 684.698 980.493 684.468 979.657 684.008C978.821 683.547 978.149 682.869 977.64 681.973C977.144 681.065 976.895 679.95 976.895 678.63C976.895 677.322 977.15 676.208 977.658 675.287C978.179 674.355 978.864 673.646 979.711 673.162C980.571 672.665 981.498 672.417 982.491 672.417C983.254 672.417 983.938 672.574 984.544 672.889C985.149 673.192 985.652 673.549 986.052 673.961L984.635 675.669C984.332 675.39 984.011 675.166 983.672 674.997C983.345 674.815 982.969 674.724 982.545 674.724C982.013 674.724 981.522 674.876 981.074 675.178C980.638 675.481 980.287 675.917 980.02 676.486C979.766 677.056 979.639 677.74 979.639 678.539C979.639 679.75 979.899 680.695 980.42 681.373C980.941 682.052 981.637 682.391 982.509 682.391C982.994 682.391 983.424 682.282 983.799 682.064C984.187 681.846 984.526 681.585 984.816 681.283L986.233 682.954C985.24 684.117 983.962 684.698 982.4 684.698ZM991.684 684.698C990.921 684.698 990.2 684.516 989.522 684.153C988.856 683.778 988.317 683.239 987.905 682.536C987.494 681.822 987.288 680.968 987.288 679.974C987.288 678.969 987.494 678.115 987.905 677.413C988.317 676.71 988.856 676.178 989.522 675.814C990.2 675.439 990.921 675.251 991.684 675.251C992.447 675.251 993.162 675.439 993.828 675.814C994.494 676.178 995.033 676.71 995.445 677.413C995.857 678.115 996.062 678.969 996.062 679.974C996.062 680.968 995.857 681.822 995.445 682.536C995.033 683.239 994.494 683.778 993.828 684.153C993.162 684.516 992.447 684.698 991.684 684.698ZM991.684 682.536C992.229 682.536 992.641 682.306 992.92 681.846C993.198 681.373 993.337 680.75 993.337 679.974C993.337 679.187 993.198 678.564 992.92 678.103C992.641 677.643 992.229 677.413 991.684 677.413C991.127 677.413 990.709 677.643 990.431 678.103C990.164 678.564 990.031 679.187 990.031 679.974C990.031 680.75 990.164 681.373 990.431 681.846C990.709 682.306 991.127 682.536 991.684 682.536ZM997.892 684.48V675.469H1000.07L1000.25 676.614H1000.33C1000.71 676.25 1001.14 675.935 1001.6 675.669C1002.07 675.39 1002.61 675.251 1003.21 675.251C1004.2 675.251 1004.9 675.578 1005.34 676.232C1005.79 676.874 1006.01 677.758 1006.01 678.884V684.48H1003.34V679.23C1003.34 678.576 1003.25 678.127 1003.07 677.885C1002.9 677.643 1002.62 677.522 1002.23 677.522C1001.89 677.522 1001.6 677.601 1001.36 677.758C1001.12 677.903 1000.85 678.115 1000.56 678.394V684.48H997.892ZM1011.76 684.698C1010.64 684.698 1009.84 684.377 1009.36 683.735C1008.89 683.093 1008.65 682.251 1008.65 681.21V677.558H1007.42V675.578L1008.8 675.469L1009.11 673.071H1011.32V675.469H1013.48V677.558H1011.32V681.174C1011.32 681.682 1011.43 682.052 1011.63 682.282C1011.85 682.5 1012.13 682.609 1012.48 682.609C1012.63 682.609 1012.78 682.591 1012.92 682.554C1013.08 682.518 1013.22 682.476 1013.34 682.427L1013.76 684.371C1013.53 684.444 1013.24 684.516 1012.9 684.589C1012.58 684.662 1012.19 684.698 1011.76 684.698ZM1018.96 684.698C1018.1 684.698 1017.32 684.51 1016.63 684.135C1015.94 683.759 1015.4 683.22 1015 682.518C1014.6 681.815 1014.4 680.968 1014.4 679.974C1014.4 678.993 1014.6 678.152 1015 677.449C1015.41 676.747 1015.94 676.208 1016.59 675.832C1017.25 675.445 1017.93 675.251 1018.65 675.251C1019.51 675.251 1020.22 675.445 1020.77 675.832C1021.34 676.208 1021.77 676.723 1022.05 677.377C1022.34 678.018 1022.48 678.751 1022.48 679.575C1022.48 679.805 1022.47 680.035 1022.44 680.265C1022.42 680.483 1022.4 680.647 1022.37 680.756H1016.98C1017.1 681.41 1017.37 681.894 1017.79 682.209C1018.22 682.512 1018.73 682.663 1019.32 682.663C1019.96 682.663 1020.61 682.463 1021.26 682.064L1022.15 683.681C1021.69 683.996 1021.18 684.244 1020.61 684.425C1020.04 684.607 1019.49 684.698 1018.96 684.698ZM1016.96 678.993H1020.21C1020.21 678.497 1020.09 678.091 1019.85 677.776C1019.62 677.449 1019.24 677.286 1018.7 677.286C1018.29 677.286 1017.92 677.431 1017.59 677.722C1017.27 678 1017.06 678.424 1016.96 678.993ZM1024.33 684.48V675.469H1026.51L1026.69 676.614H1026.76C1027.15 676.25 1027.57 675.935 1028.03 675.669C1028.5 675.39 1029.04 675.251 1029.65 675.251C1030.63 675.251 1031.34 675.578 1031.78 676.232C1032.22 676.874 1032.45 677.758 1032.45 678.884V684.48H1029.78V679.23C1029.78 678.576 1029.69 678.127 1029.5 677.885C1029.33 677.643 1029.06 677.522 1028.67 677.522C1028.33 677.522 1028.04 677.601 1027.8 677.758C1027.55 677.903 1027.29 678.115 1027 678.394V684.48H1024.33ZM1038.19 684.698C1037.08 684.698 1036.28 684.377 1035.79 683.735C1035.32 683.093 1035.09 682.251 1035.09 681.21V677.558H1033.85V675.578L1035.23 675.469L1035.54 673.071H1037.76V675.469H1039.92V677.558H1037.76V681.174C1037.76 681.682 1037.86 682.052 1038.07 682.282C1038.28 682.5 1038.57 682.609 1038.92 682.609C1039.06 682.609 1039.21 682.591 1039.36 682.554C1039.51 682.518 1039.65 682.476 1039.77 682.427L1040.19 684.371C1039.96 684.444 1039.68 684.516 1039.34 684.589C1039.01 684.662 1038.63 684.698 1038.19 684.698Z" fill="white"/>
<path fill-rule="evenodd" clip-rule="evenodd" d="M959.332 378.058C939.859 378.058 924.055 393.863 924.055 413.336C924.055 432.809 939.859 448.614 959.332 448.614C978.806 448.614 994.61 432.809 994.61 413.336C994.61 393.863 978.806 378.058 959.332 378.058ZM952.277 430.975L934.638 413.336L939.612 408.362L952.277 420.991L979.053 394.215L984.027 399.225L952.277 430.975Z" fill="#00A91C"/>
</svg>
