<svg width="1924" height="293" viewBox="0 0 1924 293" fill="none" xmlns="http://www.w3.org/2000/svg">
<rect x="61" width="145" height="41" rx="4" stroke="#FACE00"/>
<path d="M202 0C204.209 1.15966e-06 206 1.79086 206 4V37C206 39.2091 204.209 41 202 41H65C62.7909 41 61 39.2091 61 37V4C61 1.79086 62.7909 0 65 0H202Z" stroke="white"/>
<path d="M61 4C61 1.79086 62.7909 0 65 0H202C204.209 0 206 1.79086 206 4V37C206 39.2091 204.209 41 202 41H65C62.7909 41 61 39.2091 61 37V4Z" fill="white"/>
<path fill-rule="evenodd" clip-rule="evenodd" d="M81 20.5L82.41 21.91L88 16.33V28.5H90V16.33L95.58 21.92L97 20.5L89 12.5L81 20.5Z" fill="#005EA2"/>
<path d="M106.306 26V14.9421H110.088C110.857 14.9421 111.547 15.0269 112.157 15.1965C112.768 15.3548 113.254 15.6318 113.616 16.0275C113.977 16.4233 114.158 16.9773 114.158 17.6896C114.158 18.1758 114.028 18.6563 113.768 19.1312C113.52 19.5948 113.169 19.9114 112.717 20.081V20.1488C113.282 20.2958 113.751 20.5841 114.124 21.0138C114.509 21.4321 114.701 22.0087 114.701 22.7437C114.701 23.5012 114.509 24.1174 114.124 24.5923C113.74 25.0672 113.226 25.4234 112.581 25.6608C111.937 25.8869 111.213 26 110.41 26H106.306ZM108.799 19.3686H109.969C110.58 19.3686 111.021 19.2499 111.292 19.0125C111.575 18.775 111.716 18.4585 111.716 18.0627C111.716 17.6331 111.575 17.3278 111.292 17.1469C111.009 16.966 110.574 16.8755 109.986 16.8755H108.799V19.3686ZM108.799 24.0666H110.207C111.575 24.0666 112.259 23.5691 112.259 22.5741C112.259 22.0879 112.089 21.743 111.75 21.5395C111.411 21.3247 110.896 21.2173 110.207 21.2173H108.799V24.0666ZM118.491 26.2035C117.722 26.2035 117.112 25.9604 116.659 25.4742C116.207 24.9767 115.981 24.3718 115.981 23.6595C115.981 22.7776 116.354 22.0879 117.1 21.5904C117.847 21.0929 119.051 20.7594 120.713 20.5898C120.69 20.2166 120.577 19.9227 120.374 19.7078C120.181 19.4817 119.854 19.3686 119.39 19.3686C119.04 19.3686 118.683 19.4365 118.322 19.5722C117.96 19.7078 117.575 19.8944 117.168 20.1318L116.269 18.4867C116.801 18.1588 117.366 17.8931 117.965 17.6896C118.576 17.4861 119.209 17.3843 119.865 17.3843C120.939 17.3843 121.764 17.6953 122.341 18.3171C122.918 18.939 123.206 19.8944 123.206 21.1834V26H121.171L121.001 25.135H120.933C120.583 25.4516 120.204 25.7117 119.797 25.9152C119.401 26.1074 118.966 26.2035 118.491 26.2035ZM119.339 24.2701C119.622 24.2701 119.865 24.2079 120.068 24.0835C120.283 23.9478 120.498 23.7726 120.713 23.5578V22.0822C119.831 22.1953 119.22 22.3762 118.881 22.625C118.542 22.8624 118.372 23.1451 118.372 23.473C118.372 23.7443 118.457 23.9478 118.627 24.0835C118.808 24.2079 119.045 24.2701 119.339 24.2701ZM128.978 26.2035C128.198 26.2035 127.491 26.0339 126.858 25.6947C126.236 25.3442 125.739 24.8411 125.366 24.1853C125.004 23.5182 124.823 22.7211 124.823 21.7939C124.823 20.8555 125.027 20.0583 125.434 19.4026C125.841 18.7468 126.378 18.2493 127.045 17.9101C127.712 17.5596 128.43 17.3843 129.199 17.3843C129.719 17.3843 130.177 17.4691 130.572 17.6387C130.98 17.8083 131.341 18.0231 131.658 18.2832L130.488 19.8944C130.092 19.5665 129.713 19.4026 129.351 19.4026C128.752 19.4026 128.272 19.6174 127.91 20.047C127.559 20.4767 127.384 21.059 127.384 21.7939C127.384 22.5175 127.559 23.0998 127.91 23.5408C128.272 23.9705 128.724 24.1853 129.267 24.1853C129.538 24.1853 129.804 24.1287 130.064 24.0157C130.324 23.8913 130.561 23.7443 130.776 23.5747L131.76 25.2029C131.341 25.5647 130.889 25.8247 130.403 25.983C129.917 26.13 129.442 26.2035 128.978 26.2035ZM133.232 26V14.111H135.657V20.929H135.725L138.388 17.5878H141.101L138.15 21.0477L141.322 26H138.625L136.726 22.7267L135.657 23.9309V26H133.232ZM149.158 26.2035C148.118 26.2035 147.372 25.9039 146.919 25.3046C146.478 24.7054 146.258 23.9196 146.258 22.9472V19.5382H145.105V17.6896L146.394 17.5878L146.682 15.3491H148.751V17.5878H150.769V19.5382H148.751V22.9133C148.751 23.3882 148.847 23.733 149.039 23.9478C149.243 24.1514 149.509 24.2531 149.836 24.2531C149.972 24.2531 150.108 24.2362 150.243 24.2022C150.39 24.1683 150.52 24.1287 150.634 24.0835L151.024 25.8982C150.809 25.9661 150.543 26.0339 150.226 26.1018C149.921 26.1696 149.565 26.2035 149.158 26.2035ZM155.726 26.2035C155.013 26.2035 154.34 26.0339 153.707 25.6947C153.085 25.3442 152.582 24.8411 152.198 24.1853C151.813 23.5182 151.621 22.7211 151.621 21.7939C151.621 20.8555 151.813 20.0583 152.198 19.4026C152.582 18.7468 153.085 18.2493 153.707 17.9101C154.34 17.5596 155.013 17.3843 155.726 17.3843C156.438 17.3843 157.105 17.5596 157.727 17.9101C158.349 18.2493 158.852 18.7468 159.236 19.4026C159.621 20.0583 159.813 20.8555 159.813 21.7939C159.813 22.7211 159.621 23.5182 159.236 24.1853C158.852 24.8411 158.349 25.3442 157.727 25.6947C157.105 26.0339 156.438 26.2035 155.726 26.2035ZM155.726 24.1853C156.234 24.1853 156.619 23.9705 156.879 23.5408C157.139 23.0998 157.269 22.5175 157.269 21.7939C157.269 21.059 157.139 20.4767 156.879 20.047C156.619 19.6174 156.234 19.4026 155.726 19.4026C155.205 19.4026 154.815 19.6174 154.555 20.047C154.307 20.4767 154.182 21.059 154.182 21.7939C154.182 22.5175 154.307 23.0998 154.555 23.5408C154.815 23.9705 155.205 24.1853 155.726 24.1853ZM168.155 26.2035C167.115 26.2035 166.369 25.9039 165.916 25.3046C165.476 24.7054 165.255 23.9196 165.255 22.9472V19.5382H164.102V17.6896L165.391 17.5878L165.679 15.3491H167.748V17.5878H169.766V19.5382H167.748V22.9133C167.748 23.3882 167.844 23.733 168.036 23.9478C168.24 24.1514 168.506 24.2531 168.834 24.2531C168.969 24.2531 169.105 24.2362 169.241 24.2022C169.388 24.1683 169.518 24.1287 169.631 24.0835L170.021 25.8982C169.806 25.9661 169.54 26.0339 169.224 26.1018C168.918 26.1696 168.562 26.2035 168.155 26.2035ZM174.723 26.2035C174.01 26.2035 173.338 26.0339 172.704 25.6947C172.083 25.3442 171.579 24.8411 171.195 24.1853C170.811 23.5182 170.618 22.7211 170.618 21.7939C170.618 20.8555 170.811 20.0583 171.195 19.4026C171.579 18.7468 172.083 18.2493 172.704 17.9101C173.338 17.5596 174.01 17.3843 174.723 17.3843C175.435 17.3843 176.102 17.5596 176.724 17.9101C177.346 18.2493 177.849 18.7468 178.233 19.4026C178.618 20.0583 178.81 20.8555 178.81 21.7939C178.81 22.7211 178.618 23.5182 178.233 24.1853C177.849 24.8411 177.346 25.3442 176.724 25.6947C176.102 26.0339 175.435 26.2035 174.723 26.2035ZM174.723 24.1853C175.231 24.1853 175.616 23.9705 175.876 23.5408C176.136 23.0998 176.266 22.5175 176.266 21.7939C176.266 21.059 176.136 20.4767 175.876 20.047C175.616 19.6174 175.231 19.4026 174.723 19.4026C174.203 19.4026 173.812 19.6174 173.552 20.047C173.304 20.4767 173.179 21.059 173.179 21.7939C173.179 22.5175 173.304 23.0998 173.552 23.5408C173.812 23.9705 174.203 24.1853 174.723 24.1853ZM180.518 29.1206V17.5878H182.553L182.723 18.4189H182.79C183.118 18.1249 183.486 17.8818 183.893 17.6896C184.311 17.4861 184.741 17.3843 185.182 17.3843C186.199 17.3843 187.002 17.7744 187.59 18.5546C188.178 19.3234 188.472 20.358 188.472 21.6582C188.472 22.6193 188.302 23.439 187.963 24.1174C187.624 24.7958 187.183 25.3159 186.64 25.6778C186.109 26.0283 185.538 26.2035 184.927 26.2035C184.565 26.2035 184.215 26.13 183.876 25.983C183.537 25.8247 183.22 25.6043 182.926 25.3216L183.011 26.6614V29.1206H180.518ZM184.351 24.1683C184.78 24.1683 185.148 23.9705 185.453 23.5747C185.758 23.179 185.911 22.5515 185.911 21.6922C185.911 20.1771 185.425 19.4195 184.452 19.4195C183.966 19.4195 183.486 19.6739 183.011 20.1827V23.6256C183.237 23.8291 183.463 23.9705 183.689 24.0496C183.915 24.1287 184.136 24.1683 184.351 24.1683Z" fill="#005EA2"/>
<path d="M105 27.272H189.133V28.12H105V27.272Z" fill="#005EA2"/>
<rect y="124" width="1924" height="169" fill="#162E51"/>
<path d="M1566.98 216.24C1565.89 216.24 1564.88 215.987 1563.96 215.48C1563.04 214.973 1562.3 214.227 1561.74 213.24C1561.19 212.24 1560.92 211.013 1560.92 209.56C1560.92 208.12 1561.2 206.893 1561.76 205.88C1562.33 204.853 1563.09 204.073 1564.02 203.54C1564.97 202.993 1565.99 202.72 1567.08 202.72C1567.92 202.72 1568.67 202.893 1569.34 203.24C1570.01 203.573 1570.56 203.967 1571 204.42L1569.44 206.3C1569.11 205.993 1568.75 205.747 1568.38 205.56C1568.02 205.36 1567.61 205.26 1567.14 205.26C1566.55 205.26 1566.01 205.427 1565.52 205.76C1565.04 206.093 1564.65 206.573 1564.36 207.2C1564.08 207.827 1563.94 208.58 1563.94 209.46C1563.94 210.793 1564.23 211.833 1564.8 212.58C1565.37 213.327 1566.14 213.7 1567.1 213.7C1567.63 213.7 1568.11 213.58 1568.52 213.34C1568.95 213.1 1569.32 212.813 1569.64 212.48L1571.2 214.32C1570.11 215.6 1568.7 216.24 1566.98 216.24ZM1577.2 216.24C1576.36 216.24 1575.57 216.04 1574.82 215.64C1574.09 215.227 1573.49 214.633 1573.04 213.86C1572.59 213.073 1572.36 212.133 1572.36 211.04C1572.36 209.933 1572.59 208.993 1573.04 208.22C1573.49 207.447 1574.09 206.86 1574.82 206.46C1575.57 206.047 1576.36 205.84 1577.2 205.84C1578.04 205.84 1578.83 206.047 1579.56 206.46C1580.29 206.86 1580.89 207.447 1581.34 208.22C1581.79 208.993 1582.02 209.933 1582.02 211.04C1582.02 212.133 1581.79 213.073 1581.34 213.86C1580.89 214.633 1580.29 215.227 1579.56 215.64C1578.83 216.04 1578.04 216.24 1577.2 216.24ZM1577.2 213.86C1577.8 213.86 1578.25 213.607 1578.56 213.1C1578.87 212.58 1579.02 211.893 1579.02 211.04C1579.02 210.173 1578.87 209.487 1578.56 208.98C1578.25 208.473 1577.8 208.22 1577.2 208.22C1576.59 208.22 1576.13 208.473 1575.82 208.98C1575.53 209.487 1575.38 210.173 1575.38 211.04C1575.38 211.893 1575.53 212.58 1575.82 213.1C1576.13 213.607 1576.59 213.86 1577.2 213.86ZM1584.03 216V206.08H1586.43L1586.63 207.34H1586.71C1587.14 206.94 1587.61 206.593 1588.11 206.3C1588.63 205.993 1589.23 205.84 1589.89 205.84C1590.97 205.84 1591.75 206.2 1592.23 206.92C1592.73 207.627 1592.97 208.6 1592.97 209.84V216H1590.03V210.22C1590.03 209.5 1589.93 209.007 1589.73 208.74C1589.55 208.473 1589.24 208.34 1588.81 208.34C1588.44 208.34 1588.12 208.427 1587.85 208.6C1587.59 208.76 1587.29 208.993 1586.97 209.3V216H1584.03ZM1599.3 216.24C1598.07 216.24 1597.19 215.887 1596.66 215.18C1596.14 214.473 1595.88 213.547 1595.88 212.4V208.38H1594.52V206.2L1596.04 206.08L1596.38 203.44H1598.82V206.08H1601.2V208.38H1598.82V212.36C1598.82 212.92 1598.93 213.327 1599.16 213.58C1599.4 213.82 1599.71 213.94 1600.1 213.94C1600.26 213.94 1600.42 213.92 1600.58 213.88C1600.75 213.84 1600.91 213.793 1601.04 213.74L1601.5 215.88C1601.25 215.96 1600.93 216.04 1600.56 216.12C1600.2 216.2 1599.78 216.24 1599.3 216.24ZM1605.25 216.24C1604.34 216.24 1603.62 215.953 1603.09 215.38C1602.55 214.793 1602.29 214.08 1602.29 213.24C1602.29 212.2 1602.73 211.387 1603.61 210.8C1604.49 210.213 1605.91 209.82 1607.87 209.62C1607.84 209.18 1607.71 208.833 1607.47 208.58C1607.24 208.313 1606.85 208.18 1606.31 208.18C1605.89 208.18 1605.47 208.26 1605.05 208.42C1604.62 208.58 1604.17 208.8 1603.69 209.08L1602.63 207.14C1603.25 206.753 1603.92 206.44 1604.63 206.2C1605.35 205.96 1606.09 205.84 1606.87 205.84C1608.13 205.84 1609.11 206.207 1609.79 206.94C1610.47 207.673 1610.81 208.8 1610.81 210.32V216H1608.41L1608.21 214.98H1608.13C1607.71 215.353 1607.27 215.66 1606.79 215.9C1606.32 216.127 1605.81 216.24 1605.25 216.24ZM1606.25 213.96C1606.58 213.96 1606.87 213.887 1607.11 213.74C1607.36 213.58 1607.61 213.373 1607.87 213.12V211.38C1606.83 211.513 1606.11 211.727 1605.71 212.02C1605.31 212.3 1605.11 212.633 1605.11 213.02C1605.11 213.34 1605.21 213.58 1605.41 213.74C1605.62 213.887 1605.9 213.96 1606.25 213.96ZM1617.61 216.24C1616.69 216.24 1615.86 216.04 1615.11 215.64C1614.38 215.227 1613.79 214.633 1613.35 213.86C1612.93 213.073 1612.71 212.133 1612.71 211.04C1612.71 209.933 1612.95 208.993 1613.43 208.22C1613.91 207.447 1614.55 206.86 1615.33 206.46C1616.12 206.047 1616.97 205.84 1617.87 205.84C1618.49 205.84 1619.03 205.94 1619.49 206.14C1619.97 206.34 1620.4 206.593 1620.77 206.9L1619.39 208.8C1618.93 208.413 1618.48 208.22 1618.05 208.22C1617.35 208.22 1616.78 208.473 1616.35 208.98C1615.94 209.487 1615.73 210.173 1615.73 211.04C1615.73 211.893 1615.94 212.58 1616.35 213.1C1616.78 213.607 1617.31 213.86 1617.95 213.86C1618.27 213.86 1618.59 213.793 1618.89 213.66C1619.2 213.513 1619.48 213.34 1619.73 213.14L1620.89 215.06C1620.4 215.487 1619.87 215.793 1619.29 215.98C1618.72 216.153 1618.16 216.24 1617.61 216.24ZM1626.25 216.24C1625.03 216.24 1624.15 215.887 1623.61 215.18C1623.09 214.473 1622.83 213.547 1622.83 212.4V208.38H1621.47V206.2L1622.99 206.08L1623.33 203.44H1625.77V206.08H1628.15V208.38H1625.77V212.36C1625.77 212.92 1625.89 213.327 1626.11 213.58C1626.35 213.82 1626.67 213.94 1627.05 213.94C1627.21 213.94 1627.37 213.92 1627.53 213.88C1627.71 213.84 1627.86 213.793 1627.99 213.74L1628.45 215.88C1628.2 215.96 1627.89 216.04 1627.51 216.12C1627.15 216.2 1626.73 216.24 1626.25 216.24ZM1637.07 216.24C1635.99 216.24 1635.21 215.887 1634.71 215.18C1634.23 214.46 1633.99 213.48 1633.99 212.24V206.08H1636.93V211.86C1636.93 212.567 1637.03 213.06 1637.23 213.34C1637.43 213.607 1637.75 213.74 1638.17 213.74C1638.55 213.74 1638.86 213.653 1639.11 213.48C1639.37 213.307 1639.64 213.027 1639.93 212.64V206.08H1642.87V216H1640.47L1640.25 214.62H1640.19C1639.78 215.113 1639.33 215.507 1638.83 215.8C1638.34 216.093 1637.75 216.24 1637.07 216.24ZM1648.38 216.24C1647.73 216.24 1647.05 216.113 1646.36 215.86C1645.68 215.607 1645.09 215.273 1644.58 214.86L1645.9 213.02C1646.35 213.353 1646.79 213.613 1647.2 213.8C1647.63 213.973 1648.05 214.06 1648.46 214.06C1648.9 214.06 1649.22 213.987 1649.42 213.84C1649.62 213.68 1649.72 213.473 1649.72 213.22C1649.72 212.993 1649.62 212.807 1649.42 212.66C1649.23 212.513 1648.99 212.38 1648.68 212.26C1648.37 212.127 1648.05 211.993 1647.7 211.86C1647.3 211.7 1646.9 211.5 1646.5 211.26C1646.11 211.02 1645.79 210.713 1645.52 210.34C1645.25 209.953 1645.12 209.487 1645.12 208.94C1645.12 208.02 1645.47 207.273 1646.16 206.7C1646.87 206.127 1647.79 205.84 1648.92 205.84C1649.68 205.84 1650.35 205.973 1650.92 206.24C1651.51 206.493 1652.01 206.78 1652.42 207.1L1651.1 208.86C1650.75 208.593 1650.41 208.387 1650.06 208.24C1649.71 208.093 1649.37 208.02 1649.02 208.02C1648.26 208.02 1647.88 208.28 1647.88 208.8C1647.88 209.12 1648.07 209.367 1648.44 209.54C1648.83 209.7 1649.27 209.873 1649.78 210.06C1650.21 210.207 1650.62 210.4 1651.02 210.64C1651.43 210.867 1651.77 211.173 1652.04 211.56C1652.32 211.933 1652.46 212.427 1652.46 213.04C1652.46 213.933 1652.11 214.693 1651.42 215.32C1650.73 215.933 1649.71 216.24 1648.38 216.24ZM1656.03 209.76C1655.52 209.76 1655.09 209.587 1654.75 209.24C1654.41 208.88 1654.25 208.44 1654.25 207.92C1654.25 207.387 1654.41 206.947 1654.75 206.6C1655.09 206.24 1655.52 206.06 1656.03 206.06C1656.53 206.06 1656.95 206.24 1657.29 206.6C1657.63 206.947 1657.81 207.387 1657.81 207.92C1657.81 208.44 1657.63 208.88 1657.29 209.24C1656.95 209.587 1656.53 209.76 1656.03 209.76ZM1656.03 216.24C1655.52 216.24 1655.09 216.067 1654.75 215.72C1654.41 215.36 1654.25 214.92 1654.25 214.4C1654.25 213.867 1654.41 213.427 1654.75 213.08C1655.09 212.72 1655.52 212.54 1656.03 212.54C1656.53 212.54 1656.95 212.72 1657.29 213.08C1657.63 213.427 1657.81 213.867 1657.81 214.4C1657.81 214.92 1657.63 215.36 1657.29 215.72C1656.95 216.067 1656.53 216.24 1656.03 216.24ZM1664.67 216V206.28H1666.31V216H1664.67ZM1665.51 204.28C1665.19 204.28 1664.92 204.187 1664.71 204C1664.51 203.8 1664.41 203.533 1664.41 203.2C1664.41 202.88 1664.51 202.62 1664.71 202.42C1664.92 202.22 1665.19 202.12 1665.51 202.12C1665.83 202.12 1666.09 202.22 1666.29 202.42C1666.5 202.62 1666.61 202.88 1666.61 203.2C1666.61 203.533 1666.5 203.8 1666.29 204C1666.09 204.187 1665.83 204.28 1665.51 204.28ZM1669.59 216V206.28H1670.95L1671.09 207.68H1671.15C1671.62 207.213 1672.11 206.827 1672.63 206.52C1673.15 206.2 1673.74 206.04 1674.41 206.04C1675.44 206.04 1676.18 206.367 1676.65 207.02C1677.13 207.66 1677.37 208.6 1677.37 209.84V216H1675.73V210.06C1675.73 209.153 1675.58 208.493 1675.29 208.08C1675 207.667 1674.53 207.46 1673.89 207.46C1673.4 207.46 1672.95 207.587 1672.55 207.84C1672.16 208.093 1671.72 208.467 1671.23 208.96V216H1669.59ZM1680.81 216V207.62H1679.49V206.38L1680.81 206.28V204.74C1680.81 203.753 1681.03 202.973 1681.49 202.4C1681.95 201.813 1682.67 201.52 1683.65 201.52C1683.95 201.52 1684.25 201.553 1684.53 201.62C1684.81 201.673 1685.05 201.747 1685.27 201.84L1684.91 203.1C1684.55 202.94 1684.18 202.86 1683.81 202.86C1682.9 202.86 1682.45 203.487 1682.45 204.74V206.28H1684.51V207.62H1682.45V216H1680.81ZM1689.95 216.24C1689.16 216.24 1688.42 216.04 1687.73 215.64C1687.05 215.24 1686.5 214.66 1686.07 213.9C1685.66 213.14 1685.45 212.227 1685.45 211.16C1685.45 210.067 1685.66 209.14 1686.07 208.38C1686.5 207.62 1687.05 207.04 1687.73 206.64C1688.42 206.24 1689.16 206.04 1689.95 206.04C1690.75 206.04 1691.49 206.24 1692.17 206.64C1692.85 207.04 1693.4 207.62 1693.81 208.38C1694.24 209.14 1694.45 210.067 1694.45 211.16C1694.45 212.227 1694.24 213.14 1693.81 213.9C1693.4 214.66 1692.85 215.24 1692.17 215.64C1691.49 216.04 1690.75 216.24 1689.95 216.24ZM1689.95 214.88C1690.79 214.88 1691.46 214.54 1691.97 213.86C1692.49 213.167 1692.75 212.267 1692.75 211.16C1692.75 210.04 1692.49 209.133 1691.97 208.44C1691.46 207.747 1690.79 207.4 1689.95 207.4C1689.12 207.4 1688.45 207.747 1687.93 208.44C1687.41 209.133 1687.15 210.04 1687.15 211.16C1687.15 212.267 1687.41 213.167 1687.93 213.86C1688.45 214.54 1689.12 214.88 1689.95 214.88ZM1703.43 219.1C1702.12 219.1 1700.94 218.827 1699.87 218.28C1698.8 217.733 1697.96 216.927 1697.33 215.86C1696.7 214.793 1696.39 213.487 1696.39 211.94C1696.39 210.593 1696.61 209.38 1697.05 208.3C1697.49 207.207 1698.1 206.273 1698.87 205.5C1699.66 204.727 1700.55 204.133 1701.55 203.72C1702.55 203.293 1703.61 203.08 1704.73 203.08C1706.08 203.08 1707.24 203.36 1708.21 203.92C1709.2 204.467 1709.96 205.24 1710.49 206.24C1711.02 207.227 1711.29 208.38 1711.29 209.7C1711.29 210.86 1711.08 211.84 1710.67 212.64C1710.26 213.427 1709.74 214.02 1709.13 214.42C1708.52 214.82 1707.9 215.02 1707.29 215.02C1706.76 215.02 1706.3 214.893 1705.91 214.64C1705.52 214.373 1705.3 213.993 1705.23 213.5H1705.19C1704.86 213.887 1704.48 214.213 1704.05 214.48C1703.62 214.733 1703.19 214.86 1702.75 214.86C1702.07 214.86 1701.5 214.62 1701.03 214.14C1700.58 213.647 1700.35 212.947 1700.35 212.04C1700.35 211.507 1700.44 210.967 1700.61 210.42C1700.8 209.873 1701.06 209.373 1701.39 208.92C1701.72 208.467 1702.12 208.1 1702.59 207.82C1703.07 207.54 1703.6 207.4 1704.19 207.4C1704.54 207.4 1704.84 207.48 1705.11 207.64C1705.39 207.787 1705.62 208.027 1705.79 208.36H1705.83L1706.05 207.56H1707.15L1706.37 211.56C1705.97 213.12 1706.33 213.9 1707.45 213.9C1707.88 213.9 1708.29 213.74 1708.69 213.42C1709.1 213.087 1709.44 212.613 1709.71 212C1709.99 211.373 1710.13 210.627 1710.13 209.76C1710.13 208.68 1709.92 207.72 1709.49 206.88C1709.08 206.04 1708.46 205.38 1707.63 204.9C1706.82 204.42 1705.8 204.18 1704.59 204.18C1703.7 204.18 1702.83 204.36 1701.99 204.72C1701.16 205.08 1700.42 205.6 1699.75 206.28C1699.08 206.947 1698.56 207.753 1698.17 208.7C1697.78 209.647 1697.59 210.707 1697.59 211.88C1697.59 213.173 1697.85 214.28 1698.37 215.2C1698.89 216.107 1699.6 216.8 1700.49 217.28C1701.4 217.76 1702.42 218 1703.55 218C1704.16 218 1704.74 217.913 1705.29 217.74C1705.84 217.567 1706.34 217.353 1706.79 217.1L1707.23 218.08C1706.66 218.427 1706.05 218.68 1705.41 218.84C1704.78 219.013 1704.12 219.1 1703.43 219.1ZM1703.07 213.74C1703.35 213.74 1703.64 213.647 1703.95 213.46C1704.26 213.273 1704.58 212.973 1704.91 212.56L1705.49 209.38C1705.3 209.073 1705.11 208.86 1704.91 208.74C1704.71 208.607 1704.48 208.54 1704.21 208.54C1703.69 208.54 1703.24 208.72 1702.85 209.08C1702.48 209.44 1702.18 209.88 1701.97 210.4C1701.77 210.92 1701.67 211.433 1701.67 211.94C1701.67 212.58 1701.8 213.04 1702.07 213.32C1702.34 213.6 1702.67 213.74 1703.07 213.74ZM1716.18 216.24C1715.37 216.24 1714.69 216 1714.14 215.52C1713.61 215.027 1713.34 214.347 1713.34 213.48C1713.34 212.413 1713.82 211.6 1714.76 211.04C1715.72 210.467 1717.24 210.067 1719.3 209.84C1719.3 209.427 1719.24 209.033 1719.12 208.66C1719.02 208.287 1718.82 207.987 1718.52 207.76C1718.24 207.52 1717.84 207.4 1717.3 207.4C1716.74 207.4 1716.22 207.507 1715.72 207.72C1715.23 207.933 1714.79 208.173 1714.4 208.44L1713.76 207.3C1714.22 207.007 1714.77 206.727 1715.42 206.46C1716.09 206.18 1716.81 206.04 1717.58 206.04C1718.77 206.04 1719.63 206.407 1720.16 207.14C1720.7 207.86 1720.96 208.827 1720.96 210.04V216H1719.6L1719.46 214.84H1719.4C1718.95 215.213 1718.45 215.54 1717.9 215.82C1717.37 216.1 1716.8 216.24 1716.18 216.24ZM1716.66 214.92C1717.13 214.92 1717.57 214.807 1717.98 214.58C1718.4 214.353 1718.84 214.033 1719.3 213.62V210.92C1717.69 211.12 1716.56 211.42 1715.9 211.82C1715.26 212.22 1714.94 212.733 1714.94 213.36C1714.94 213.907 1715.11 214.307 1715.44 214.56C1715.78 214.8 1716.18 214.92 1716.66 214.92ZM1727.3 220.48C1726.12 220.48 1725.15 220.253 1724.4 219.8C1723.66 219.347 1723.28 218.7 1723.28 217.86C1723.28 217.447 1723.41 217.047 1723.66 216.66C1723.92 216.287 1724.26 215.953 1724.7 215.66V215.58C1724.46 215.433 1724.26 215.227 1724.08 214.96C1723.92 214.693 1723.84 214.373 1723.84 214C1723.84 213.587 1723.96 213.227 1724.18 212.92C1724.41 212.613 1724.65 212.373 1724.9 212.2V212.12C1724.58 211.853 1724.29 211.493 1724.02 211.04C1723.77 210.587 1723.64 210.073 1723.64 209.5C1723.64 208.793 1723.81 208.18 1724.14 207.66C1724.48 207.14 1724.92 206.74 1725.48 206.46C1726.04 206.18 1726.65 206.04 1727.3 206.04C1727.57 206.04 1727.82 206.067 1728.06 206.12C1728.3 206.16 1728.51 206.213 1728.68 206.28H1732.06V207.54H1730.06C1730.29 207.753 1730.48 208.04 1730.62 208.4C1730.78 208.747 1730.86 209.127 1730.86 209.54C1730.86 210.233 1730.7 210.833 1730.38 211.34C1730.06 211.847 1729.64 212.24 1729.1 212.52C1728.57 212.787 1727.97 212.92 1727.3 212.92C1726.78 212.92 1726.3 212.807 1725.84 212.58C1725.67 212.727 1725.52 212.893 1725.4 213.08C1725.28 213.253 1725.22 213.473 1725.22 213.74C1725.22 214.047 1725.34 214.3 1725.58 214.5C1725.84 214.7 1726.29 214.8 1726.94 214.8H1728.82C1729.96 214.8 1730.8 214.987 1731.36 215.36C1731.94 215.72 1732.22 216.307 1732.22 217.12C1732.22 217.72 1732.02 218.273 1731.62 218.78C1731.22 219.287 1730.66 219.693 1729.92 220C1729.19 220.32 1728.32 220.48 1727.3 220.48ZM1727.3 211.82C1727.86 211.82 1728.34 211.613 1728.74 211.2C1729.16 210.773 1729.36 210.207 1729.36 209.5C1729.36 208.793 1729.16 208.24 1728.76 207.84C1728.36 207.44 1727.88 207.24 1727.3 207.24C1726.73 207.24 1726.24 207.44 1725.84 207.84C1725.44 208.24 1725.24 208.793 1725.24 209.5C1725.24 210.207 1725.44 210.773 1725.84 211.2C1726.26 211.613 1726.74 211.82 1727.3 211.82ZM1727.54 219.34C1728.48 219.34 1729.22 219.133 1729.78 218.72C1730.34 218.32 1730.62 217.867 1730.62 217.36C1730.62 216.907 1730.45 216.593 1730.1 216.42C1729.77 216.247 1729.29 216.16 1728.66 216.16H1726.98C1726.8 216.16 1726.59 216.147 1726.36 216.12C1726.15 216.093 1725.94 216.053 1725.72 216C1725.38 216.253 1725.12 216.52 1724.96 216.8C1724.8 217.08 1724.72 217.36 1724.72 217.64C1724.72 218.16 1724.97 218.573 1725.46 218.88C1725.97 219.187 1726.66 219.34 1727.54 219.34ZM1737.77 216.24C1736.9 216.24 1736.11 216.04 1735.41 215.64C1734.7 215.227 1734.14 214.64 1733.73 213.88C1733.31 213.12 1733.11 212.213 1733.11 211.16C1733.11 210.093 1733.31 209.18 1733.73 208.42C1734.15 207.66 1734.7 207.073 1735.37 206.66C1736.03 206.247 1736.73 206.04 1737.47 206.04C1738.71 206.04 1739.66 206.453 1740.33 207.28C1741.01 208.107 1741.35 209.213 1741.35 210.6C1741.35 210.773 1741.34 210.947 1741.33 211.12C1741.33 211.28 1741.31 211.42 1741.29 211.54H1734.73C1734.79 212.567 1735.11 213.387 1735.69 214C1736.27 214.613 1737.03 214.92 1737.97 214.92C1738.43 214.92 1738.86 214.853 1739.25 214.72C1739.65 214.573 1740.03 214.387 1740.39 214.16L1740.97 215.24C1740.55 215.507 1740.08 215.74 1739.55 215.94C1739.03 216.14 1738.43 216.24 1737.77 216.24ZM1734.71 210.36H1739.91C1739.91 209.373 1739.69 208.627 1739.27 208.12C1738.85 207.6 1738.27 207.34 1737.51 207.34C1736.83 207.34 1736.21 207.607 1735.67 208.14C1735.13 208.66 1734.81 209.4 1734.71 210.36ZM1743.75 216V206.28H1745.11L1745.25 207.68H1745.31C1745.78 207.213 1746.27 206.827 1746.79 206.52C1747.31 206.2 1747.9 206.04 1748.57 206.04C1749.6 206.04 1750.34 206.367 1750.81 207.02C1751.29 207.66 1751.53 208.6 1751.53 209.84V216H1749.89V210.06C1749.89 209.153 1749.74 208.493 1749.45 208.08C1749.16 207.667 1748.69 207.46 1748.05 207.46C1747.56 207.46 1747.11 207.587 1746.71 207.84C1746.32 208.093 1745.88 208.467 1745.39 208.96V216H1743.75ZM1758.53 216.24C1757.67 216.24 1756.9 216.04 1756.21 215.64C1755.51 215.24 1754.97 214.66 1754.57 213.9C1754.17 213.14 1753.97 212.227 1753.97 211.16C1753.97 210.067 1754.18 209.14 1754.61 208.38C1755.05 207.62 1755.62 207.04 1756.33 206.64C1757.05 206.24 1757.82 206.04 1758.65 206.04C1759.29 206.04 1759.83 206.153 1760.29 206.38C1760.75 206.607 1761.15 206.873 1761.49 207.18L1760.65 208.26C1760.37 208.007 1760.07 207.8 1759.75 207.64C1759.44 207.48 1759.09 207.4 1758.71 207.4C1758.12 207.4 1757.59 207.56 1757.13 207.88C1756.67 208.187 1756.31 208.627 1756.05 209.2C1755.79 209.76 1755.67 210.413 1755.67 211.16C1755.67 212.267 1755.94 213.167 1756.49 213.86C1757.05 214.54 1757.77 214.88 1758.67 214.88C1759.12 214.88 1759.54 214.787 1759.93 214.6C1760.31 214.4 1760.65 214.167 1760.95 213.9L1761.67 215C1761.23 215.387 1760.74 215.693 1760.21 215.92C1759.67 216.133 1759.11 216.24 1758.53 216.24ZM1764.09 220.18C1763.87 220.18 1763.67 220.16 1763.47 220.12C1763.28 220.08 1763.11 220.033 1762.95 219.98L1763.27 218.68C1763.37 218.707 1763.49 218.733 1763.63 218.76C1763.76 218.8 1763.89 218.82 1764.01 218.82C1764.55 218.82 1765.01 218.62 1765.37 218.22C1765.73 217.833 1766.01 217.34 1766.21 216.74L1766.43 216.02L1762.53 206.28H1764.23L1766.21 211.66C1766.35 212.073 1766.51 212.52 1766.67 213C1766.84 213.48 1767 213.947 1767.15 214.4H1767.23C1767.37 213.96 1767.51 213.5 1767.65 213.02C1767.78 212.54 1767.91 212.087 1768.05 211.66L1769.79 206.28H1771.39L1767.73 216.8C1767.5 217.44 1767.23 218.013 1766.91 218.52C1766.6 219.027 1766.21 219.427 1765.75 219.72C1765.29 220.027 1764.74 220.18 1764.09 220.18ZM1773.42 216.24C1773.08 216.24 1772.8 216.127 1772.56 215.9C1772.33 215.66 1772.22 215.36 1772.22 215C1772.22 214.613 1772.33 214.307 1772.56 214.08C1772.8 213.84 1773.08 213.72 1773.42 213.72C1773.74 213.72 1774.01 213.84 1774.24 214.08C1774.48 214.307 1774.6 214.613 1774.6 215C1774.6 215.36 1774.48 215.66 1774.24 215.9C1774.01 216.127 1773.74 216.24 1773.42 216.24ZM1780.82 220.48C1779.63 220.48 1778.67 220.253 1777.92 219.8C1777.17 219.347 1776.8 218.7 1776.8 217.86C1776.8 217.447 1776.93 217.047 1777.18 216.66C1777.43 216.287 1777.78 215.953 1778.22 215.66V215.58C1777.98 215.433 1777.77 215.227 1777.6 214.96C1777.44 214.693 1777.36 214.373 1777.36 214C1777.36 213.587 1777.47 213.227 1777.7 212.92C1777.93 212.613 1778.17 212.373 1778.42 212.2V212.12C1778.1 211.853 1777.81 211.493 1777.54 211.04C1777.29 210.587 1777.16 210.073 1777.16 209.5C1777.16 208.793 1777.33 208.18 1777.66 207.66C1777.99 207.14 1778.44 206.74 1779 206.46C1779.56 206.18 1780.17 206.04 1780.82 206.04C1781.09 206.04 1781.34 206.067 1781.58 206.12C1781.82 206.16 1782.03 206.213 1782.2 206.28H1785.58V207.54H1783.58C1783.81 207.753 1783.99 208.04 1784.14 208.4C1784.3 208.747 1784.38 209.127 1784.38 209.54C1784.38 210.233 1784.22 210.833 1783.9 211.34C1783.58 211.847 1783.15 212.24 1782.62 212.52C1782.09 212.787 1781.49 212.92 1780.82 212.92C1780.3 212.92 1779.81 212.807 1779.36 212.58C1779.19 212.727 1779.04 212.893 1778.92 213.08C1778.8 213.253 1778.74 213.473 1778.74 213.74C1778.74 214.047 1778.86 214.3 1779.1 214.5C1779.35 214.7 1779.81 214.8 1780.46 214.8H1782.34C1783.47 214.8 1784.32 214.987 1784.88 215.36C1785.45 215.72 1785.74 216.307 1785.74 217.12C1785.74 217.72 1785.54 218.273 1785.14 218.78C1784.74 219.287 1784.17 219.693 1783.44 220C1782.71 220.32 1781.83 220.48 1780.82 220.48ZM1780.82 211.82C1781.38 211.82 1781.86 211.613 1782.26 211.2C1782.67 210.773 1782.88 210.207 1782.88 209.5C1782.88 208.793 1782.68 208.24 1782.28 207.84C1781.88 207.44 1781.39 207.24 1780.82 207.24C1780.25 207.24 1779.76 207.44 1779.36 207.84C1778.96 208.24 1778.76 208.793 1778.76 209.5C1778.76 210.207 1778.96 210.773 1779.36 211.2C1779.77 211.613 1780.26 211.82 1780.82 211.82ZM1781.06 219.34C1781.99 219.34 1782.74 219.133 1783.3 218.72C1783.86 218.32 1784.14 217.867 1784.14 217.36C1784.14 216.907 1783.97 216.593 1783.62 216.42C1783.29 216.247 1782.81 216.16 1782.18 216.16H1780.5C1780.31 216.16 1780.11 216.147 1779.88 216.12C1779.67 216.093 1779.45 216.053 1779.24 216C1778.89 216.253 1778.64 216.52 1778.48 216.8C1778.32 217.08 1778.24 217.36 1778.24 217.64C1778.24 218.16 1778.49 218.573 1778.98 218.88C1779.49 219.187 1780.18 219.34 1781.06 219.34ZM1791.12 216.24C1790.34 216.24 1789.6 216.04 1788.9 215.64C1788.22 215.24 1787.67 214.66 1787.24 213.9C1786.83 213.14 1786.62 212.227 1786.62 211.16C1786.62 210.067 1786.83 209.14 1787.24 208.38C1787.67 207.62 1788.22 207.04 1788.9 206.64C1789.6 206.24 1790.34 206.04 1791.12 206.04C1791.92 206.04 1792.66 206.24 1793.34 206.64C1794.02 207.04 1794.57 207.62 1794.98 208.38C1795.41 209.14 1795.62 210.067 1795.62 211.16C1795.62 212.227 1795.41 213.14 1794.98 213.9C1794.57 214.66 1794.02 215.24 1793.34 215.64C1792.66 216.04 1791.92 216.24 1791.12 216.24ZM1791.12 214.88C1791.96 214.88 1792.64 214.54 1793.14 213.86C1793.66 213.167 1793.92 212.267 1793.92 211.16C1793.92 210.04 1793.66 209.133 1793.14 208.44C1792.64 207.747 1791.96 207.4 1791.12 207.4C1790.3 207.4 1789.62 207.747 1789.1 208.44C1788.58 209.133 1788.32 210.04 1788.32 211.16C1788.32 212.267 1788.58 213.167 1789.1 213.86C1789.62 214.54 1790.3 214.88 1791.12 214.88ZM1800.2 216L1796.7 206.28H1798.4L1800.24 211.8C1800.39 212.28 1800.54 212.76 1800.68 213.24C1800.84 213.72 1801 214.193 1801.14 214.66H1801.22C1801.37 214.193 1801.52 213.72 1801.66 213.24C1801.82 212.76 1801.97 212.28 1802.1 211.8L1803.94 206.28H1805.56L1802.12 216H1800.2Z" fill="white"/>
<path d="M1560 217.5H1659.02V218.5H1560V217.5Z" fill="white"/>
<path d="M1663.03 217.5H1805.8V218.5H1663.03V217.5Z" fill="white"/>
<path d="M1472.54 216V202.96H1475.48V207.98H1479.98V202.96H1482.94V216H1479.98V210.56H1475.48V216H1472.54ZM1490.22 216.24C1489.27 216.24 1488.42 216.033 1487.66 215.62C1486.9 215.207 1486.3 214.613 1485.86 213.84C1485.42 213.067 1485.2 212.133 1485.2 211.04C1485.2 209.96 1485.42 209.033 1485.86 208.26C1486.31 207.487 1486.9 206.893 1487.62 206.48C1488.34 206.053 1489.09 205.84 1489.88 205.84C1490.82 205.84 1491.6 206.053 1492.22 206.48C1492.84 206.893 1493.31 207.46 1493.62 208.18C1493.94 208.887 1494.1 209.693 1494.1 210.6C1494.1 210.853 1494.08 211.107 1494.06 211.36C1494.03 211.6 1494 211.78 1493.98 211.9H1488.04C1488.17 212.62 1488.47 213.153 1488.94 213.5C1489.4 213.833 1489.96 214 1490.62 214C1491.32 214 1492.04 213.78 1492.76 213.34L1493.74 215.12C1493.23 215.467 1492.66 215.74 1492.04 215.94C1491.41 216.14 1490.8 216.24 1490.22 216.24ZM1488.02 209.96H1491.6C1491.6 209.413 1491.46 208.967 1491.2 208.62C1490.94 208.26 1490.52 208.08 1489.94 208.08C1489.48 208.08 1489.08 208.24 1488.72 208.56C1488.36 208.867 1488.12 209.333 1488.02 209.96ZM1498.83 216.24C1497.81 216.24 1497.11 215.94 1496.71 215.34C1496.32 214.727 1496.13 213.92 1496.13 212.92V201.98H1499.07V213.04C1499.07 213.347 1499.12 213.56 1499.23 213.68C1499.35 213.8 1499.47 213.86 1499.59 213.86C1499.65 213.86 1499.71 213.86 1499.75 213.86C1499.8 213.847 1499.87 213.833 1499.95 213.82L1500.31 216C1500.15 216.067 1499.94 216.12 1499.69 216.16C1499.45 216.213 1499.16 216.24 1498.83 216.24ZM1501.85 219.68V206.08H1504.25L1504.45 207.06H1504.53C1504.92 206.713 1505.35 206.427 1505.83 206.2C1506.32 205.96 1506.83 205.84 1507.35 205.84C1508.55 205.84 1509.5 206.3 1510.19 207.22C1510.88 208.127 1511.23 209.347 1511.23 210.88C1511.23 212.013 1511.03 212.98 1510.63 213.78C1510.23 214.58 1509.71 215.193 1509.07 215.62C1508.44 216.033 1507.77 216.24 1507.05 216.24C1506.62 216.24 1506.21 216.153 1505.81 215.98C1505.41 215.793 1505.04 215.533 1504.69 215.2L1504.79 216.78V219.68H1501.85ZM1506.37 213.84C1506.88 213.84 1507.31 213.607 1507.67 213.14C1508.03 212.673 1508.21 211.933 1508.21 210.92C1508.21 209.133 1507.64 208.24 1506.49 208.24C1505.92 208.24 1505.35 208.54 1504.79 209.14V213.2C1505.06 213.44 1505.32 213.607 1505.59 213.7C1505.86 213.793 1506.12 213.84 1506.37 213.84Z" fill="white"/>
<path d="M1471 217.5H1512.01V218.5H1471V217.5Z" fill="white"/>
<g clip-path="url(#clip0_80_9396)">
<path d="M105.923 220.537L105.953 199.535H122.491V204.599H112.275C112.275 206.637 112.245 207.025 112.245 207.714H120.843V212.507H112.275V215.444H122.79V220.537H105.923Z" fill="white"/>
<path d="M192.457 220.537L186.076 213.108H185.567V220.537H179.306L179.275 199.535H190.39C195.214 199.535 197.73 202.141 197.73 206.126C197.73 209.152 195.573 211.489 192.727 212.476L199.169 219.637L198.779 220.536H192.457V220.537ZM189.282 204.419H185.567V207.835H189.132C190.57 207.805 191.32 206.906 191.32 206.156C191.32 205.407 190.78 204.419 189.282 204.419Z" fill="white"/>
<path d="M219.869 220.537L218.791 217.932H210.342L209.084 220.537H203.002L212.588 199.477H217.831L226.999 220.537H219.869ZM214.567 207.505L212.501 212.539H216.666L214.569 207.505H214.567Z" fill="white"/>
<path d="M87.1422 213.599H81V220.042H87.1422V213.599Z" fill="white"/>
<path d="M94.1322 199.787V210.031C90.5445 205.757 86.0731 202.247 81 199.787V206.198C86.55 209.477 91.0857 214.287 94.0357 220.043H94.1322H100.274V199.787H94.1322Z" fill="white"/>
<path d="M162.819 198.311C156.404 198.311 151.202 203.511 151.202 209.928C151.202 216.344 156.402 221.544 162.819 221.544C169.235 221.544 174.435 216.344 174.435 209.928C174.435 203.511 169.235 198.311 162.819 198.311ZM162.819 216.24C159.331 216.24 156.504 213.413 156.504 209.926C156.504 206.438 159.331 203.611 162.819 203.611C166.306 203.611 169.133 206.438 169.133 209.926C169.133 213.413 166.306 216.24 162.819 216.24Z" fill="white"/>
<path d="M113.865 235.55L132.29 207.7L154.475 182L113.865 235.55Z" fill="white"/>
<path d="M135.996 202.219L134.024 199.535H127.492L127.252 200.404C128.658 202.336 130.395 204.76 131.85 206.828L135.994 202.219H135.996Z" fill="white"/>
<path d="M141.785 209.841L148.704 200.374L148.256 199.535H142.084L127.014 219.728L127.224 220.537H133.576L137.89 214.694L142.023 220.537H148.824L149.034 219.697L141.785 209.841Z" fill="white"/>
</g>
<defs>
<clipPath id="clip0_80_9396">
<rect width="146" height="53.5505" fill="white" transform="translate(81 182)"/>
</clipPath>
</defs>
</svg>
