<svg width="162" height="21" viewBox="0 0 162 21" fill="none" xmlns="http://www.w3.org/2000/svg">
<path d="M28.328 16V5.536H30.184V14.432H34.536V16H28.328ZM39.3561 16.192C38.6308 16.192 37.9748 16.032 37.3881 15.712C36.8015 15.3813 36.3375 14.912 35.9961 14.304C35.6548 13.6853 35.4841 12.944 35.4841 12.08C35.4841 11.2267 35.6548 10.4907 35.9961 9.872C36.3481 9.25333 36.8015 8.77867 37.3561 8.448C37.9108 8.11733 38.4921 7.952 39.1001 7.952C39.8148 7.952 40.4121 8.112 40.8921 8.432C41.3721 8.74133 41.7348 9.17867 41.9801 9.744C42.2255 10.2987 42.3481 10.944 42.3481 11.68C42.3481 12.064 42.3215 12.3627 42.2681 12.576H37.2761C37.3615 13.2693 37.6121 13.808 38.0281 14.192C38.4441 14.576 38.9668 14.768 39.5961 14.768C39.9375 14.768 40.2521 14.72 40.5401 14.624C40.8388 14.5173 41.1321 14.3733 41.4201 14.192L42.0441 15.344C41.6708 15.5893 41.2548 15.792 40.7961 15.952C40.3375 16.112 39.8575 16.192 39.3561 16.192ZM37.2601 11.328H40.7481C40.7481 10.72 40.6148 10.2453 40.3481 9.904C40.0815 9.552 39.6815 9.376 39.1481 9.376C38.6895 9.376 38.2788 9.54667 37.9161 9.888C37.5641 10.2187 37.3455 10.6987 37.2601 11.328ZM45.822 16.192C45.1393 16.192 44.5793 15.9787 44.142 15.552C43.7153 15.1253 43.502 14.5707 43.502 13.888C43.502 13.0453 43.87 12.3947 44.606 11.936C45.342 11.4667 46.5153 11.1467 48.126 10.976C48.1153 10.56 48.0033 10.2027 47.79 9.904C47.5873 9.59467 47.2193 9.44 46.686 9.44C46.302 9.44 45.9233 9.51467 45.55 9.664C45.1873 9.81333 44.83 9.99467 44.478 10.208L43.806 8.976C44.2433 8.69867 44.734 8.45867 45.278 8.256C45.8327 8.05333 46.4193 7.952 47.038 7.952C48.0193 7.952 48.75 8.24533 49.23 8.832C49.7207 9.408 49.966 10.2453 49.966 11.344V16H48.446L48.318 15.136H48.254C47.902 15.4347 47.5233 15.6853 47.118 15.888C46.7233 16.0907 46.2913 16.192 45.822 16.192ZM46.414 14.752C46.734 14.752 47.022 14.6773 47.278 14.528C47.5447 14.368 47.8273 14.1547 48.126 13.888V12.128C47.0593 12.2667 46.318 12.4747 45.902 12.752C45.486 13.0187 45.278 13.3493 45.278 13.744C45.278 14.096 45.3847 14.352 45.598 14.512C45.8113 14.672 46.0833 14.752 46.414 14.752ZM52.168 16V8.144H53.688L53.816 9.536H53.88C54.1573 9.024 54.4933 8.63467 54.888 8.368C55.2827 8.09067 55.688 7.952 56.104 7.952C56.4773 7.952 56.776 8.00533 57 8.112L56.68 9.712C56.5413 9.66933 56.4133 9.63733 56.296 9.616C56.1787 9.59467 56.0347 9.584 55.864 9.584C55.5547 9.584 55.2293 9.70667 54.888 9.952C54.5467 10.1867 54.2533 10.6027 54.008 11.2V16H52.168ZM58.1368 16V8.144H59.6568L59.7848 9.2H59.8488C60.2008 8.85867 60.5848 8.56533 61.0008 8.32C61.4168 8.07467 61.8914 7.952 62.4248 7.952C63.2674 7.952 63.8808 8.224 64.2648 8.768C64.6488 9.312 64.8408 10.08 64.8408 11.072V16H63.0008V11.312C63.0008 10.6613 62.9048 10.2027 62.7128 9.936C62.5208 9.66933 62.2061 9.536 61.7688 9.536C61.4274 9.536 61.1234 9.62133 60.8568 9.792C60.6008 9.952 60.3074 10.192 59.9768 10.512V16H58.1368ZM67.0899 16V8.144H68.9299V16H67.0899ZM68.0179 6.768C67.6872 6.768 67.4205 6.672 67.2179 6.48C67.0152 6.288 66.9139 6.032 66.9139 5.712C66.9139 5.40267 67.0152 5.152 67.2179 4.96C67.4205 4.768 67.6872 4.672 68.0179 4.672C68.3485 4.672 68.6152 4.768 68.8179 4.96C69.0205 5.152 69.1219 5.40267 69.1219 5.712C69.1219 6.032 69.0205 6.288 68.8179 6.48C68.6152 6.672 68.3485 6.768 68.0179 6.768ZM71.2774 16V8.144H72.7974L72.9254 9.2H72.9894C73.3414 8.85867 73.7254 8.56533 74.1414 8.32C74.5574 8.07467 75.032 7.952 75.5654 7.952C76.408 7.952 77.0214 8.224 77.4054 8.768C77.7894 9.312 77.9814 10.08 77.9814 11.072V16H76.1414V11.312C76.1414 10.6613 76.0454 10.2027 75.8534 9.936C75.6614 9.66933 75.3467 9.536 74.9094 9.536C74.568 9.536 74.264 9.62133 73.9974 9.792C73.7414 9.952 73.448 10.192 73.1174 10.512V16H71.2774ZM82.9665 19.472C82.3478 19.472 81.7878 19.3973 81.2865 19.248C80.7958 19.0987 80.4065 18.8693 80.1185 18.56C79.8412 18.2613 79.7025 17.8827 79.7025 17.424C79.7025 16.7733 80.0758 16.2133 80.8225 15.744V15.68C80.6198 15.552 80.4492 15.3813 80.3105 15.168C80.1825 14.9547 80.1185 14.688 80.1185 14.368C80.1185 14.0587 80.2038 13.7813 80.3745 13.536C80.5558 13.28 80.7585 13.072 80.9825 12.912V12.848C80.7158 12.6453 80.4758 12.3627 80.2625 12C80.0598 11.6373 79.9585 11.2267 79.9585 10.768C79.9585 10.16 80.1025 9.648 80.3905 9.232C80.6785 8.816 81.0572 8.50133 81.5265 8.288C82.0065 8.064 82.5185 7.952 83.0625 7.952C83.2758 7.952 83.4785 7.97333 83.6705 8.016C83.8732 8.048 84.0545 8.09067 84.2145 8.144H87.0305V9.504H85.5905C85.7185 9.65333 85.8252 9.84533 85.9105 10.08C85.9958 10.304 86.0385 10.5547 86.0385 10.832C86.0385 11.408 85.9052 11.8987 85.6385 12.304C85.3718 12.6987 85.0145 12.9973 84.5665 13.2C84.1185 13.4027 83.6172 13.504 83.0625 13.504C82.8918 13.504 82.7158 13.488 82.5345 13.456C82.3532 13.424 82.1718 13.3707 81.9905 13.296C81.8732 13.4027 81.7772 13.5093 81.7025 13.616C81.6385 13.7227 81.6065 13.8667 81.6065 14.048C81.6065 14.272 81.6972 14.448 81.8785 14.576C82.0705 14.704 82.4065 14.768 82.8865 14.768H84.2785C85.2278 14.768 85.9425 14.9227 86.4225 15.232C86.9132 15.5307 87.1585 16.0213 87.1585 16.704C87.1585 17.216 86.9878 17.68 86.6465 18.096C86.3052 18.5227 85.8198 18.8587 85.1905 19.104C84.5612 19.3493 83.8198 19.472 82.9665 19.472ZM83.0625 12.352C83.4358 12.352 83.7558 12.2133 84.0225 11.936C84.2892 11.6587 84.4225 11.2693 84.4225 10.768C84.4225 10.2773 84.2892 9.89867 84.0225 9.632C83.7665 9.35467 83.4465 9.216 83.0625 9.216C82.6785 9.216 82.3532 9.34933 82.0865 9.616C81.8198 9.88267 81.6865 10.2667 81.6865 10.768C81.6865 11.2693 81.8198 11.6587 82.0865 11.936C82.3532 12.2133 82.6785 12.352 83.0625 12.352ZM83.2545 18.272C83.8838 18.272 84.3958 18.144 84.7905 17.888C85.1852 17.632 85.3825 17.3387 85.3825 17.008C85.3825 16.6987 85.2598 16.4907 85.0145 16.384C84.7798 16.2773 84.4385 16.224 83.9905 16.224H82.9185C82.4918 16.224 82.1345 16.1867 81.8465 16.112C81.4412 16.4213 81.2385 16.768 81.2385 17.152C81.2385 17.504 81.4198 17.776 81.7825 17.968C82.1452 18.1707 82.6358 18.272 83.2545 18.272ZM91.9061 16V5.536H93.7621V9.744H98.0021V5.536H99.8581V16H98.0021V11.36H93.7621V16H91.9061ZM104.692 16.192C103.849 16.192 103.236 15.92 102.852 15.376C102.468 14.832 102.276 14.064 102.276 13.072V8.144H104.116V12.832C104.116 13.4827 104.212 13.9413 104.404 14.208C104.596 14.4747 104.905 14.608 105.332 14.608C105.673 14.608 105.972 14.5227 106.228 14.352C106.494 14.1813 106.777 13.904 107.076 13.52V8.144H108.916V16H107.412L107.268 14.848H107.22C106.878 15.2533 106.505 15.5787 106.1 15.824C105.694 16.0693 105.225 16.192 104.692 16.192ZM115.054 16.192C114.307 16.192 113.593 15.8507 112.91 15.168H112.862L112.702 16H111.246V4.704H113.086V7.616L113.038 8.928C113.369 8.64 113.731 8.40533 114.126 8.224C114.521 8.04267 114.915 7.952 115.31 7.952C116.291 7.952 117.054 8.31467 117.598 9.04C118.142 9.76533 118.414 10.7307 118.414 11.936C118.414 12.832 118.254 13.6 117.934 14.24C117.614 14.8693 117.198 15.3547 116.686 15.696C116.185 16.0267 115.641 16.192 115.054 16.192ZM114.67 14.672C115.193 14.672 115.63 14.4427 115.982 13.984C116.334 13.5253 116.51 12.8533 116.51 11.968C116.51 11.1787 116.377 10.5653 116.11 10.128C115.843 9.69067 115.411 9.472 114.814 9.472C114.259 9.472 113.683 9.76533 113.086 10.352V14.016C113.363 14.2507 113.635 14.4213 113.902 14.528C114.179 14.624 114.435 14.672 114.67 14.672Z" fill="#5C5C5C"/>
<path d="M9.50383 13.1542C8.64205 14.0159 7.77547 15.4343 7.26045 16.3494C7.05856 16.7081 6.51834 16.7081 6.31645 16.3494C5.80144 15.4343 4.93485 14.0159 4.07307 13.1542C3.21129 12.2924 1.7929 11.4258 0.87785 10.9108C0.519139 10.7089 0.519139 10.1687 0.877849 9.96678C1.7929 9.45177 3.21129 8.58518 4.07307 7.7234C4.93485 6.86162 5.80144 5.44323 6.31645 4.52818C6.51834 4.16947 7.05856 4.16947 7.26045 4.52818C7.77547 5.44323 8.64205 6.86162 9.50383 7.7234C10.3656 8.58518 11.784 9.45177 12.6991 9.96678C13.0578 10.1687 13.0578 10.7089 12.6991 10.9108C11.784 11.4258 10.3656 12.2924 9.50383 13.1542Z" fill="#5C5C5C"/>
<path d="M15.4005 18.0537C14.9723 18.4819 14.5421 19.1355 14.2276 19.6647C14.0173 20.0186 13.4722 20.0186 13.2619 19.6647C12.9474 19.1355 12.5173 18.4819 12.089 18.0537C11.6608 17.6255 11.0073 17.1954 10.478 16.8808C10.1242 16.6706 10.1242 16.1254 10.478 15.9152C11.0073 15.6006 11.6608 15.1705 12.089 14.7423C12.5173 14.3141 12.9474 13.6605 13.2619 13.1313C13.4722 12.7774 14.0173 12.7774 14.2276 13.1313C14.5421 13.6605 14.9723 14.3141 15.4005 14.7423C15.8287 15.1705 16.4823 15.6006 17.0115 15.9152C17.3654 16.1254 17.3654 16.6706 17.0115 16.8808C16.4823 17.1954 15.8287 17.6255 15.4005 18.0537Z" fill="#5C5C5C"/>
<path d="M14.6698 5.40422C14.3979 5.67617 14.1249 6.06773 13.903 6.42379C13.6854 6.77315 13.1376 6.77315 12.9199 6.42379C12.6981 6.06773 12.4251 5.67617 12.1531 5.40422C11.8812 5.13226 11.4896 4.85928 11.1336 4.63741C10.7842 4.41973 10.7842 3.87201 11.1336 3.65432C11.4896 3.43246 11.8812 3.15947 12.1531 2.88752C12.4251 2.61557 12.6981 2.22401 12.9199 1.86794C13.1376 1.51859 13.6854 1.51859 13.903 1.86794C14.1249 2.22401 14.3979 2.61557 14.6698 2.88752C14.9418 3.15947 15.3334 3.43246 15.6894 3.65432C16.0388 3.87201 16.0388 4.41973 15.6894 4.63741C15.3334 4.85928 14.9418 5.13226 14.6698 5.40422Z" fill="#5C5C5C"/>
</svg>
