<svg width="101" height="20" viewBox="0 0 101 20" fill="none" xmlns="http://www.w3.org/2000/svg">
<path d="M27.328 16V5.536H30.128C31.728 5.536 32.976 5.968 33.872 6.832C34.768 7.696 35.216 8.992 35.216 10.72C35.216 12.4587 34.7733 13.776 33.888 14.672C33.0027 15.5573 31.7813 16 30.224 16H27.328ZM29.184 14.496H30C31.056 14.496 31.872 14.192 32.448 13.584C33.024 12.9653 33.312 12.0107 33.312 10.72C33.312 9.44 33.024 8.50667 32.448 7.92C31.872 7.33333 31.056 7.04 30 7.04H29.184V14.496ZM39.072 16.192C38.3893 16.192 37.8293 15.9787 37.392 15.552C36.9653 15.1253 36.752 14.5707 36.752 13.888C36.752 13.0453 37.12 12.3947 37.856 11.936C38.592 11.4667 39.7653 11.1467 41.376 10.976C41.3653 10.56 41.2533 10.2027 41.04 9.904C40.8373 9.59467 40.4693 9.44 39.936 9.44C39.552 9.44 39.1733 9.51467 38.8 9.664C38.4373 9.81333 38.08 9.99467 37.728 10.208L37.056 8.976C37.4933 8.69867 37.984 8.45867 38.528 8.256C39.0827 8.05333 39.6693 7.952 40.288 7.952C41.2693 7.952 42 8.24533 42.48 8.832C42.9707 9.408 43.216 10.2453 43.216 11.344V16H41.696L41.568 15.136H41.504C41.152 15.4347 40.7733 15.6853 40.368 15.888C39.9733 16.0907 39.5413 16.192 39.072 16.192ZM39.664 14.752C39.984 14.752 40.272 14.6773 40.528 14.528C40.7947 14.368 41.0773 14.1547 41.376 13.888V12.128C40.3093 12.2667 39.568 12.4747 39.152 12.752C38.736 13.0187 38.528 13.3493 38.528 13.744C38.528 14.096 38.6347 14.352 38.848 14.512C39.0613 14.672 39.3333 14.752 39.664 14.752ZM47.61 16.192C47.0767 16.192 46.5433 16.0907 46.01 15.888C45.4767 15.6747 45.018 15.4133 44.634 15.104L45.498 13.92C45.85 14.1867 46.202 14.4 46.554 14.56C46.906 14.72 47.2793 14.8 47.674 14.8C48.1007 14.8 48.4153 14.7093 48.618 14.528C48.8207 14.3467 48.922 14.1227 48.922 13.856C48.922 13.632 48.8367 13.4507 48.666 13.312C48.506 13.1627 48.298 13.0347 48.042 12.928C47.786 12.8107 47.5193 12.6987 47.242 12.592C46.9007 12.464 46.5593 12.3093 46.218 12.128C45.8873 11.936 45.6153 11.696 45.402 11.408C45.1887 11.1093 45.082 10.7413 45.082 10.304C45.082 9.61067 45.338 9.04533 45.85 8.608C46.362 8.17067 47.0553 7.952 47.93 7.952C48.4847 7.952 48.9807 8.048 49.418 8.24C49.8553 8.432 50.234 8.65067 50.554 8.896L49.706 10.016C49.4287 9.81333 49.146 9.65333 48.858 9.536C48.5807 9.408 48.2873 9.344 47.978 9.344C47.5833 9.344 47.29 9.42933 47.098 9.6C46.906 9.76 46.81 9.96267 46.81 10.208C46.81 10.5173 46.97 10.752 47.29 10.912C47.61 11.072 47.9833 11.2267 48.41 11.376C48.7727 11.504 49.1247 11.664 49.466 11.856C49.8073 12.0373 50.09 12.2773 50.314 12.576C50.5487 12.8747 50.666 13.2693 50.666 13.76C50.666 14.432 50.4047 15.008 49.882 15.488C49.3593 15.9573 48.602 16.192 47.61 16.192ZM52.3086 16V4.704H54.1486V7.616L54.0846 9.136C54.4153 8.82667 54.7833 8.55467 55.1886 8.32C55.594 8.07467 56.0633 7.952 56.5966 7.952C57.4393 7.952 58.0526 8.224 58.4366 8.768C58.8206 9.312 59.0126 10.08 59.0126 11.072V16H57.1726V11.312C57.1726 10.6613 57.0766 10.2027 56.8846 9.936C56.6926 9.66933 56.378 9.536 55.9406 9.536C55.5993 9.536 55.2953 9.62133 55.0286 9.792C54.7726 9.952 54.4793 10.192 54.1486 10.512V16H52.3086ZM65.0385 16.192C64.2918 16.192 63.5772 15.8507 62.8945 15.168H62.8465L62.6865 16H61.2305V4.704H63.0705V7.616L63.0225 8.928C63.3532 8.64 63.7158 8.40533 64.1105 8.224C64.5052 8.04267 64.8998 7.952 65.2945 7.952C66.2758 7.952 67.0385 8.31467 67.5825 9.04C68.1265 9.76533 68.3985 10.7307 68.3985 11.936C68.3985 12.832 68.2385 13.6 67.9185 14.24C67.5985 14.8693 67.1825 15.3547 66.6705 15.696C66.1692 16.0267 65.6252 16.192 65.0385 16.192ZM64.6545 14.672C65.1772 14.672 65.6145 14.4427 65.9665 13.984C66.3185 13.5253 66.4945 12.8533 66.4945 11.968C66.4945 11.1787 66.3612 10.5653 66.0945 10.128C65.8278 9.69067 65.3958 9.472 64.7985 9.472C64.2438 9.472 63.6678 9.76533 63.0705 10.352V14.016C63.3478 14.2507 63.6198 14.4213 63.8865 14.528C64.1638 14.624 64.4198 14.672 64.6545 14.672ZM73.4621 16.192C72.8115 16.192 72.2035 16.032 71.6381 15.712C71.0728 15.3813 70.6141 14.912 70.2621 14.304C69.9101 13.6853 69.7341 12.944 69.7341 12.08C69.7341 11.2053 69.9101 10.464 70.2621 9.856C70.6141 9.23733 71.0728 8.768 71.6381 8.448C72.2035 8.11733 72.8115 7.952 73.4621 7.952C74.1235 7.952 74.7368 8.11733 75.3021 8.448C75.8675 8.768 76.3261 9.23733 76.6781 9.856C77.0301 10.464 77.2061 11.2053 77.2061 12.08C77.2061 12.944 77.0301 13.6853 76.6781 14.304C76.3261 14.912 75.8675 15.3813 75.3021 15.712C74.7368 16.032 74.1235 16.192 73.4621 16.192ZM73.4621 14.688C74.0381 14.688 74.4915 14.448 74.8221 13.968C75.1528 13.488 75.3181 12.8587 75.3181 12.08C75.3181 11.2907 75.1528 10.656 74.8221 10.176C74.4915 9.696 74.0381 9.456 73.4621 9.456C72.8861 9.456 72.4328 9.696 72.1021 10.176C71.7821 10.656 71.6221 11.2907 71.6221 12.08C71.6221 12.8587 71.7821 13.488 72.1021 13.968C72.4328 14.448 72.8861 14.688 73.4621 14.688ZM80.7439 16.192C80.0612 16.192 79.5012 15.9787 79.0639 15.552C78.6372 15.1253 78.4239 14.5707 78.4239 13.888C78.4239 13.0453 78.7919 12.3947 79.5279 11.936C80.2639 11.4667 81.4372 11.1467 83.0479 10.976C83.0372 10.56 82.9252 10.2027 82.7119 9.904C82.5092 9.59467 82.1412 9.44 81.6079 9.44C81.2239 9.44 80.8452 9.51467 80.4719 9.664C80.1092 9.81333 79.7519 9.99467 79.3999 10.208L78.7279 8.976C79.1652 8.69867 79.6559 8.45867 80.1999 8.256C80.7545 8.05333 81.3412 7.952 81.9599 7.952C82.9412 7.952 83.6719 8.24533 84.1519 8.832C84.6425 9.408 84.8879 10.2453 84.8879 11.344V16H83.3679L83.2399 15.136H83.1759C82.8239 15.4347 82.4452 15.6853 82.0399 15.888C81.6452 16.0907 81.2132 16.192 80.7439 16.192ZM81.3359 14.752C81.6559 14.752 81.9439 14.6773 82.1999 14.528C82.4665 14.368 82.7492 14.1547 83.0479 13.888V12.128C81.9812 12.2667 81.2399 12.4747 80.8239 12.752C80.4079 13.0187 80.1999 13.3493 80.1999 13.744C80.1999 14.096 80.3065 14.352 80.5199 14.512C80.7332 14.672 81.0052 14.752 81.3359 14.752ZM87.0899 16V8.144H88.6099L88.7379 9.536H88.8019C89.0792 9.024 89.4152 8.63467 89.8099 8.368C90.2045 8.09067 90.6099 7.952 91.0259 7.952C91.3992 7.952 91.6979 8.00533 91.9219 8.112L91.6019 9.712C91.4632 9.66933 91.3352 9.63733 91.2179 9.616C91.1005 9.59467 90.9565 9.584 90.7859 9.584C90.4765 9.584 90.1512 9.70667 89.8099 9.952C89.4685 10.1867 89.1752 10.6027 88.9299 11.2V16H87.0899ZM95.6544 16.192C94.673 16.192 93.889 15.8293 93.3024 15.104C92.7157 14.3787 92.4224 13.3707 92.4224 12.08C92.4224 11.2267 92.577 10.4907 92.8864 9.872C93.2064 9.25333 93.6224 8.77867 94.1344 8.448C94.6464 8.11733 95.185 7.952 95.7504 7.952C96.1984 7.952 96.577 8.032 96.8864 8.192C97.2064 8.34133 97.5157 8.54933 97.8144 8.816L97.7504 7.552V4.704H99.5904V16H98.0704L97.9424 15.152H97.8784C97.5904 15.44 97.2544 15.6853 96.8704 15.888C96.4864 16.0907 96.081 16.192 95.6544 16.192ZM96.1024 14.672C96.689 14.672 97.2384 14.3787 97.7504 13.792V10.128C97.4837 9.88267 97.217 9.712 96.9504 9.616C96.6837 9.52 96.417 9.472 96.1504 9.472C95.649 9.472 95.217 9.70133 94.8544 10.16C94.5024 10.608 94.3264 11.2427 94.3264 12.064C94.3264 12.9067 94.481 13.552 94.7904 14C95.0997 14.448 95.537 14.672 96.1024 14.672Z" fill="#5C5C5C"/>
<path fill-rule="evenodd" clip-rule="evenodd" d="M12.4444 3H1.55556C0.7 3 0 3.7 0 4.55556V15.4444C0 16.3 0.7 17 1.55556 17H12.4444C13.3 17 14 16.3 14 15.4444V4.55556C14 3.7 13.3 3 12.4444 3ZM4.66667 13.8889H3.11111V8.44444H4.66667V13.8889ZM7.77778 13.8889H6.22222V6.11111H7.77778V13.8889ZM10.8889 13.8889H9.33333V10.7778H10.8889V13.8889Z" fill="#5C5C5C"/>
</svg>
