<svg width="68" height="20" viewBox="0 0 68 20" fill="none" xmlns="http://www.w3.org/2000/svg">
<path d="M28.328 16V5.536H30.184V9.744H34.424V5.536H36.28V16H34.424V11.36H30.184V16H28.328ZM41.9934 16.192C41.3427 16.192 40.7347 16.032 40.1694 15.712C39.604 15.3813 39.1454 14.912 38.7934 14.304C38.4414 13.6853 38.2654 12.944 38.2654 12.08C38.2654 11.2053 38.4414 10.464 38.7934 9.856C39.1454 9.23733 39.604 8.768 40.1694 8.448C40.7347 8.11733 41.3427 7.952 41.9934 7.952C42.6547 7.952 43.268 8.11733 43.8334 8.448C44.3987 8.768 44.8574 9.23733 45.2094 9.856C45.5614 10.464 45.7374 11.2053 45.7374 12.08C45.7374 12.944 45.5614 13.6853 45.2094 14.304C44.8574 14.912 44.3987 15.3813 43.8334 15.712C43.268 16.032 42.6547 16.192 41.9934 16.192ZM41.9934 14.688C42.5694 14.688 43.0227 14.448 43.3534 13.968C43.684 13.488 43.8494 12.8587 43.8494 12.08C43.8494 11.2907 43.684 10.656 43.3534 10.176C43.0227 9.696 42.5694 9.456 41.9934 9.456C41.4174 9.456 40.964 9.696 40.6334 10.176C40.3134 10.656 40.1534 11.2907 40.1534 12.08C40.1534 12.8587 40.3134 13.488 40.6334 13.968C40.964 14.448 41.4174 14.688 41.9934 14.688ZM47.5586 16V8.144H49.0786L49.2066 9.216H49.2706C49.6013 8.864 49.9586 8.56533 50.3426 8.32C50.7373 8.07467 51.18 7.952 51.6706 7.952C52.2466 7.952 52.7053 8.08 53.0466 8.336C53.3986 8.58133 53.6653 8.92267 53.8466 9.36C54.22 8.95467 54.6093 8.61867 55.0146 8.352C55.4306 8.08533 55.884 7.952 56.3746 7.952C57.2066 7.952 57.82 8.224 58.2146 8.768C58.6093 9.312 58.8066 10.08 58.8066 11.072V16H56.9506V11.312C56.9506 10.6613 56.8493 10.2027 56.6466 9.936C56.4546 9.66933 56.156 9.536 55.7506 9.536C55.26 9.536 54.7106 9.86133 54.1026 10.512V16H52.2626V11.312C52.2626 10.6613 52.1613 10.2027 51.9586 9.936C51.7666 9.66933 51.4626 9.536 51.0466 9.536C50.556 9.536 50.0066 9.86133 49.3986 10.512V16H47.5586ZM64.403 16.192C63.6777 16.192 63.0217 16.032 62.435 15.712C61.8483 15.3813 61.3843 14.912 61.043 14.304C60.7017 13.6853 60.531 12.944 60.531 12.08C60.531 11.2267 60.7017 10.4907 61.043 9.872C61.395 9.25333 61.8483 8.77867 62.403 8.448C62.9577 8.11733 63.539 7.952 64.147 7.952C64.8617 7.952 65.459 8.112 65.939 8.432C66.419 8.74133 66.7817 9.17867 67.027 9.744C67.2723 10.2987 67.395 10.944 67.395 11.68C67.395 12.064 67.3683 12.3627 67.315 12.576H62.323C62.4083 13.2693 62.659 13.808 63.075 14.192C63.491 14.576 64.0137 14.768 64.643 14.768C64.9843 14.768 65.299 14.72 65.587 14.624C65.8857 14.5173 66.179 14.3733 66.467 14.192L67.091 15.344C66.7177 15.5893 66.3017 15.792 65.843 15.952C65.3843 16.112 64.9043 16.192 64.403 16.192ZM62.307 11.328H65.795C65.795 10.72 65.6617 10.2453 65.395 9.904C65.1283 9.552 64.7283 9.376 64.195 9.376C63.7363 9.376 63.3257 9.54667 62.963 9.888C62.611 10.2187 62.3923 10.6987 62.307 11.328Z" fill="#005EA2"/>
<path fill-rule="evenodd" clip-rule="evenodd" d="M7.5 16V11.5H10.5V16H14.25V10H16.5L9 3.25L1.5 10H3.75V16H7.5Z" fill="#005EA2"/>
</svg>
