<svg width="216" height="558" viewBox="0 0 216 558" fill="none" xmlns="http://www.w3.org/2000/svg">
<path d="M7.26 283V273.816H8.422V282.006H12.44V283H7.26ZM17.4286 283V273.816H18.5906V283H17.4286ZM24.4663 283V273.816H27.1963C27.8217 273.816 28.3677 273.891 28.8343 274.04C29.3103 274.189 29.679 274.427 29.9403 274.754C30.211 275.081 30.3463 275.515 30.3463 276.056C30.3463 276.513 30.2297 276.929 29.9963 277.302C29.7723 277.666 29.441 277.918 29.0023 278.058V278.114C29.553 278.217 30.001 278.45 30.3463 278.814C30.701 279.178 30.8783 279.677 30.8783 280.312C30.8783 280.909 30.729 281.409 30.4303 281.81C30.141 282.211 29.735 282.51 29.2123 282.706C28.6897 282.902 28.083 283 27.3923 283H24.4663ZM25.6283 277.722H26.9863C27.7703 277.722 28.335 277.587 28.6803 277.316C29.0257 277.045 29.1983 276.677 29.1983 276.21C29.1983 275.678 29.0163 275.3 28.6523 275.076C28.2977 274.852 27.761 274.74 27.0423 274.74H25.6283V277.722ZM25.6283 282.076H27.2243C28.0177 282.076 28.6337 281.931 29.0723 281.642C29.511 281.343 29.7303 280.886 29.7303 280.27C29.7303 279.701 29.511 279.285 29.0723 279.024C28.643 278.753 28.027 278.618 27.2243 278.618H25.6283V282.076ZM36.0568 283V273.816H38.9268C39.5521 273.816 40.1075 273.9 40.5928 274.068C41.0781 274.227 41.4561 274.497 41.7268 274.88C42.0068 275.253 42.1468 275.757 42.1468 276.392C42.1468 277.101 41.9601 277.675 41.5868 278.114C41.2135 278.543 40.7095 278.837 40.0748 278.996L42.4128 283H41.0968L38.8848 279.122H37.2188V283H36.0568ZM37.2188 278.17H38.7588C39.4775 278.17 40.0281 278.025 40.4108 277.736C40.7935 277.437 40.9848 276.989 40.9848 276.392C40.9848 275.785 40.7935 275.361 40.4108 275.118C40.0281 274.875 39.4775 274.754 38.7588 274.754H37.2188V278.17ZM48.9148 277.862L48.4808 279.262H51.2388L50.8048 277.862C50.6368 277.349 50.4781 276.84 50.3288 276.336C50.1795 275.823 50.0301 275.3 49.8808 274.768H49.8248C49.6848 275.3 49.5401 275.823 49.3908 276.336C49.2415 276.84 49.0828 277.349 48.9148 277.862ZM46.1148 283L49.2228 273.816H50.5388L53.6468 283H52.4008L51.5328 280.2H48.1868L47.3048 283H46.1148ZM58.308 283V273.816H61.178C61.8034 273.816 62.3587 273.9 62.844 274.068C63.3294 274.227 63.7074 274.497 63.978 274.88C64.258 275.253 64.398 275.757 64.398 276.392C64.398 277.101 64.2114 277.675 63.838 278.114C63.4647 278.543 62.9607 278.837 62.326 278.996L64.664 283H63.348L61.136 279.122H59.47V283H58.308ZM59.47 278.17H61.01C61.7287 278.17 62.2794 278.025 62.662 277.736C63.0447 277.437 63.236 276.989 63.236 276.392C63.236 275.785 63.0447 275.361 62.662 275.118C62.2794 274.875 61.7287 274.754 61.01 274.754H59.47V278.17ZM71.1227 283V279.444L68.3647 273.816H69.6107L70.8007 276.406C70.9501 276.742 71.0947 277.073 71.2348 277.4C71.3841 277.727 71.5334 278.063 71.6828 278.408H71.7387C71.8974 278.063 72.0561 277.727 72.2148 277.4C72.3734 277.073 72.5228 276.742 72.6628 276.406L73.8388 273.816H75.0568L72.2987 279.444V283H71.1227Z" fill="#9D9D9D"/>
<path d="M7.26 489V479.816H10.13C10.7553 479.816 11.3107 479.9 11.796 480.068C12.2813 480.227 12.6593 480.497 12.93 480.88C13.21 481.253 13.35 481.757 13.35 482.392C13.35 483.101 13.1633 483.675 12.79 484.114C12.4167 484.543 11.9127 484.837 11.278 484.996L13.616 489H12.3L10.088 485.122H8.422V489H7.26ZM8.422 484.17H9.962C10.6807 484.17 11.2313 484.025 11.614 483.736C11.9967 483.437 12.188 482.989 12.188 482.392C12.188 481.785 11.9967 481.361 11.614 481.118C11.2313 480.875 10.6807 480.754 9.962 480.754H8.422V484.17ZM18.5907 489V479.816H23.8827V480.796H19.7527V483.68H23.2387V484.674H19.7527V488.006H24.0227V489H18.5907ZM31.8815 489.168C31.2375 489.168 30.6402 489.047 30.0895 488.804C29.5388 488.552 29.0628 488.221 28.6615 487.81L29.3615 486.998C29.6882 487.343 30.0708 487.623 30.5095 487.838C30.9575 488.043 31.4195 488.146 31.8955 488.146C32.5022 488.146 32.9735 488.011 33.3095 487.74C33.6455 487.46 33.8135 487.096 33.8135 486.648C33.8135 486.331 33.7435 486.079 33.6035 485.892C33.4728 485.705 33.2908 485.547 33.0575 485.416C32.8335 485.285 32.5768 485.155 32.2875 485.024L30.9715 484.45C30.6822 484.329 30.3928 484.17 30.1035 483.974C29.8235 483.778 29.5855 483.526 29.3895 483.218C29.2028 482.91 29.1095 482.532 29.1095 482.084C29.1095 481.617 29.2308 481.202 29.4735 480.838C29.7255 480.465 30.0708 480.175 30.5095 479.97C30.9482 479.755 31.4428 479.648 31.9935 479.648C32.5442 479.648 33.0528 479.755 33.5195 479.97C33.9862 480.175 34.3828 480.446 34.7095 480.782L34.0795 481.538C33.7995 481.267 33.4868 481.057 33.1415 480.908C32.8055 480.749 32.4228 480.67 31.9935 480.67C31.4802 480.67 31.0648 480.791 30.7475 481.034C30.4395 481.277 30.2855 481.603 30.2855 482.014C30.2855 482.303 30.3602 482.546 30.5095 482.742C30.6682 482.929 30.8642 483.083 31.0975 483.204C31.3308 483.325 31.5688 483.437 31.8115 483.54L33.1135 484.1C33.4682 484.249 33.7855 484.431 34.0655 484.646C34.3548 484.851 34.5835 485.108 34.7515 485.416C34.9195 485.715 35.0035 486.093 35.0035 486.55C35.0035 487.035 34.8775 487.479 34.6255 487.88C34.3735 488.272 34.0142 488.585 33.5475 488.818C33.0808 489.051 32.5255 489.168 31.8815 489.168ZM43.56 489.168C42.7947 489.168 42.1134 488.972 41.516 488.58C40.928 488.188 40.466 487.633 40.13 486.914C39.8034 486.195 39.64 485.346 39.64 484.366C39.64 483.386 39.8034 482.546 40.13 481.846C40.466 481.137 40.928 480.595 41.516 480.222C42.1134 479.839 42.7947 479.648 43.56 479.648C44.3347 479.648 45.016 479.839 45.604 480.222C46.192 480.595 46.654 481.137 46.99 481.846C47.326 482.546 47.494 483.386 47.494 484.366C47.494 485.346 47.326 486.195 46.99 486.914C46.654 487.633 46.192 488.188 45.604 488.58C45.016 488.972 44.3347 489.168 43.56 489.168ZM43.56 488.146C44.1107 488.146 44.5867 487.992 44.988 487.684C45.3987 487.367 45.716 486.928 45.94 486.368C46.164 485.799 46.276 485.131 46.276 484.366C46.276 483.227 46.0287 482.327 45.534 481.664C45.0394 481.001 44.3814 480.67 43.56 480.67C42.7387 480.67 42.0807 481.001 41.586 481.664C41.0914 482.327 40.844 483.227 40.844 484.366C40.844 485.131 40.956 485.799 41.18 486.368C41.404 486.928 41.7214 487.367 42.132 487.684C42.5427 487.992 43.0187 488.146 43.56 488.146ZM56.0909 489.168C55.4656 489.168 54.9009 489.042 54.3969 488.79C53.9022 488.538 53.5102 488.123 53.2209 487.544C52.9316 486.965 52.7869 486.186 52.7869 485.206V479.816H53.9489V485.234C53.9489 485.971 54.0422 486.555 54.2289 486.984C54.4249 487.404 54.6816 487.703 54.9989 487.88C55.3256 488.057 55.6896 488.146 56.0909 488.146C56.5016 488.146 56.8702 488.057 57.1969 487.88C57.5236 487.703 57.7802 487.404 57.9669 486.984C58.1629 486.555 58.2609 485.971 58.2609 485.234V479.816H59.3809V485.206C59.3809 486.186 59.2362 486.965 58.9469 487.544C58.6576 488.123 58.2656 488.538 57.7709 488.79C57.2762 489.042 56.7162 489.168 56.0909 489.168ZM65.2123 489V479.816H68.0823C68.7077 479.816 69.263 479.9 69.7483 480.068C70.2337 480.227 70.6117 480.497 70.8823 480.88C71.1623 481.253 71.3023 481.757 71.3023 482.392C71.3023 483.101 71.1157 483.675 70.7423 484.114C70.369 484.543 69.865 484.837 69.2303 484.996L71.5683 489H70.2523L68.0403 485.122H66.3743V489H65.2123ZM66.3743 484.17H67.9143C68.633 484.17 69.1837 484.025 69.5663 483.736C69.949 483.437 70.1403 482.989 70.1403 482.392C70.1403 481.785 69.949 481.361 69.5663 481.118C69.1837 480.875 68.633 480.754 67.9143 480.754H66.3743V484.17ZM80.015 489.168C79.2497 489.168 78.5637 488.981 77.957 488.608C77.3597 488.225 76.8837 487.679 76.529 486.97C76.1837 486.261 76.011 485.407 76.011 484.408C76.011 483.419 76.1884 482.569 76.543 481.86C76.8977 481.151 77.383 480.605 77.999 480.222C78.615 479.839 79.3104 479.648 80.085 479.648C80.645 479.648 81.1397 479.765 81.569 479.998C81.9984 480.222 82.3437 480.483 82.605 480.782L81.975 481.538C81.7324 481.277 81.457 481.067 81.149 480.908C80.841 480.749 80.491 480.67 80.099 480.67C79.5204 480.67 79.0117 480.824 78.573 481.132C78.1437 481.431 77.8077 481.855 77.565 482.406C77.3317 482.957 77.215 483.615 77.215 484.38C77.215 485.145 77.3317 485.813 77.565 486.382C77.7984 486.942 78.125 487.376 78.545 487.684C78.9744 487.992 79.4784 488.146 80.057 488.146C80.4957 488.146 80.8877 488.053 81.233 487.866C81.5784 487.679 81.8957 487.427 82.185 487.11L82.829 487.838C82.465 488.258 82.0544 488.585 81.597 488.818C81.1397 489.051 80.6124 489.168 80.015 489.168ZM87.9011 489V479.816H93.1931V480.796H89.0631V483.68H92.5491V484.674H89.0631V488.006H93.3331V489H87.9011ZM101.192 489.168C100.548 489.168 99.9506 489.047 99.3999 488.804C98.8492 488.552 98.3732 488.221 97.9719 487.81L98.6719 486.998C98.9986 487.343 99.3812 487.623 99.8199 487.838C100.268 488.043 100.73 488.146 101.206 488.146C101.813 488.146 102.284 488.011 102.62 487.74C102.956 487.46 103.124 487.096 103.124 486.648C103.124 486.331 103.054 486.079 102.914 485.892C102.783 485.705 102.601 485.547 102.368 485.416C102.144 485.285 101.887 485.155 101.598 485.024L100.282 484.45C99.9926 484.329 99.7032 484.17 99.4139 483.974C99.1339 483.778 98.8959 483.526 98.6999 483.218C98.5132 482.91 98.4199 482.532 98.4199 482.084C98.4199 481.617 98.5412 481.202 98.7839 480.838C99.0359 480.465 99.3812 480.175 99.8199 479.97C100.259 479.755 100.753 479.648 101.304 479.648C101.855 479.648 102.363 479.755 102.83 479.97C103.297 480.175 103.693 480.446 104.02 480.782L103.39 481.538C103.11 481.267 102.797 481.057 102.452 480.908C102.116 480.749 101.733 480.67 101.304 480.67C100.791 480.67 100.375 480.791 100.058 481.034C99.7499 481.277 99.5959 481.603 99.5959 482.014C99.5959 482.303 99.6706 482.546 99.8199 482.742C99.9786 482.929 100.175 483.083 100.408 483.204C100.641 483.325 100.879 483.437 101.122 483.54L102.424 484.1C102.779 484.249 103.096 484.431 103.376 484.646C103.665 484.851 103.894 485.108 104.062 485.416C104.23 485.715 104.314 486.093 104.314 486.55C104.314 487.035 104.188 487.479 103.936 487.88C103.684 488.272 103.325 488.585 102.858 488.818C102.391 489.051 101.836 489.168 101.192 489.168Z" fill="#9D9D9D"/>
<path d="M31.328 103V92.536H33.184V96.744H37.424V92.536H39.28V103H37.424V98.36H33.184V103H31.328ZM44.9934 103.192C44.3427 103.192 43.7347 103.032 43.1694 102.712C42.604 102.381 42.1454 101.912 41.7934 101.304C41.4414 100.685 41.2654 99.944 41.2654 99.08C41.2654 98.2053 41.4414 97.464 41.7934 96.856C42.1454 96.2373 42.604 95.768 43.1694 95.448C43.7347 95.1173 44.3427 94.952 44.9934 94.952C45.6547 94.952 46.268 95.1173 46.8334 95.448C47.3987 95.768 47.8574 96.2373 48.2094 96.856C48.5614 97.464 48.7374 98.2053 48.7374 99.08C48.7374 99.944 48.5614 100.685 48.2094 101.304C47.8574 101.912 47.3987 102.381 46.8334 102.712C46.268 103.032 45.6547 103.192 44.9934 103.192ZM44.9934 101.688C45.5694 101.688 46.0227 101.448 46.3534 100.968C46.684 100.488 46.8494 99.8587 46.8494 99.08C46.8494 98.2907 46.684 97.656 46.3534 97.176C46.0227 96.696 45.5694 96.456 44.9934 96.456C44.4174 96.456 43.964 96.696 43.6334 97.176C43.3134 97.656 43.1534 98.2907 43.1534 99.08C43.1534 99.8587 43.3134 100.488 43.6334 100.968C43.964 101.448 44.4174 101.688 44.9934 101.688ZM50.5586 103V95.144H52.0786L52.2066 96.216H52.2706C52.6013 95.864 52.9586 95.5653 53.3426 95.32C53.7373 95.0747 54.18 94.952 54.6706 94.952C55.2466 94.952 55.7053 95.08 56.0466 95.336C56.3986 95.5813 56.6653 95.9227 56.8466 96.36C57.22 95.9547 57.6093 95.6187 58.0146 95.352C58.4306 95.0853 58.884 94.952 59.3746 94.952C60.2066 94.952 60.82 95.224 61.2146 95.768C61.6093 96.312 61.8066 97.08 61.8066 98.072V103H59.9506V98.312C59.9506 97.6613 59.8493 97.2027 59.6466 96.936C59.4546 96.6693 59.156 96.536 58.7506 96.536C58.26 96.536 57.7106 96.8613 57.1026 97.512V103H55.2626V98.312C55.2626 97.6613 55.1613 97.2027 54.9586 96.936C54.7666 96.6693 54.4626 96.536 54.0466 96.536C53.556 96.536 53.0066 96.8613 52.3986 97.512V103H50.5586ZM67.403 103.192C66.6777 103.192 66.0217 103.032 65.435 102.712C64.8483 102.381 64.3843 101.912 64.043 101.304C63.7017 100.685 63.531 99.944 63.531 99.08C63.531 98.2267 63.7017 97.4907 64.043 96.872C64.395 96.2533 64.8483 95.7787 65.403 95.448C65.9577 95.1173 66.539 94.952 67.147 94.952C67.8617 94.952 68.459 95.112 68.939 95.432C69.419 95.7413 69.7817 96.1787 70.027 96.744C70.2723 97.2987 70.395 97.944 70.395 98.68C70.395 99.064 70.3683 99.3627 70.315 99.576H65.323C65.4083 100.269 65.659 100.808 66.075 101.192C66.491 101.576 67.0137 101.768 67.643 101.768C67.9843 101.768 68.299 101.72 68.587 101.624C68.8857 101.517 69.179 101.373 69.467 101.192L70.091 102.344C69.7177 102.589 69.3017 102.792 68.843 102.952C68.3843 103.112 67.9043 103.192 67.403 103.192ZM65.307 98.328H68.795C68.795 97.72 68.6617 97.2453 68.395 96.904C68.1283 96.552 67.7283 96.376 67.195 96.376C66.7363 96.376 66.3257 96.5467 65.963 96.888C65.611 97.2187 65.3923 97.6987 65.307 98.328Z" fill="#005EA2"/>
<path fill-rule="evenodd" clip-rule="evenodd" d="M10.5 103V98.5H13.5V103H17.25V97H19.5L12 90.25L4.5 97H6.75V103H10.5Z" fill="#005EA2"/>
<path d="M31.328 140V129.536H33.184V138.432H37.536V140H31.328ZM42.3561 140.192C41.6308 140.192 40.9748 140.032 40.3881 139.712C39.8015 139.381 39.3375 138.912 38.9961 138.304C38.6548 137.685 38.4841 136.944 38.4841 136.08C38.4841 135.227 38.6548 134.491 38.9961 133.872C39.3481 133.253 39.8015 132.779 40.3561 132.448C40.9108 132.117 41.4921 131.952 42.1001 131.952C42.8148 131.952 43.4121 132.112 43.8921 132.432C44.3721 132.741 44.7348 133.179 44.9801 133.744C45.2255 134.299 45.3481 134.944 45.3481 135.68C45.3481 136.064 45.3215 136.363 45.2681 136.576H40.2761C40.3615 137.269 40.6121 137.808 41.0281 138.192C41.4441 138.576 41.9668 138.768 42.5961 138.768C42.9375 138.768 43.2521 138.72 43.5401 138.624C43.8388 138.517 44.1321 138.373 44.4201 138.192L45.0441 139.344C44.6708 139.589 44.2548 139.792 43.7961 139.952C43.3375 140.112 42.8575 140.192 42.3561 140.192ZM40.2601 135.328H43.7481C43.7481 134.72 43.6148 134.245 43.3481 133.904C43.0815 133.552 42.6815 133.376 42.1481 133.376C41.6895 133.376 41.2788 133.547 40.9161 133.888C40.5641 134.219 40.3455 134.699 40.2601 135.328ZM48.822 140.192C48.1393 140.192 47.5793 139.979 47.142 139.552C46.7153 139.125 46.502 138.571 46.502 137.888C46.502 137.045 46.87 136.395 47.606 135.936C48.342 135.467 49.5153 135.147 51.126 134.976C51.1153 134.56 51.0033 134.203 50.79 133.904C50.5873 133.595 50.2193 133.44 49.686 133.44C49.302 133.44 48.9233 133.515 48.55 133.664C48.1873 133.813 47.83 133.995 47.478 134.208L46.806 132.976C47.2433 132.699 47.734 132.459 48.278 132.256C48.8327 132.053 49.4193 131.952 50.038 131.952C51.0193 131.952 51.75 132.245 52.23 132.832C52.7207 133.408 52.966 134.245 52.966 135.344V140H51.446L51.318 139.136H51.254C50.902 139.435 50.5233 139.685 50.118 139.888C49.7233 140.091 49.2913 140.192 48.822 140.192ZM49.414 138.752C49.734 138.752 50.022 138.677 50.278 138.528C50.5447 138.368 50.8273 138.155 51.126 137.888V136.128C50.0593 136.267 49.318 136.475 48.902 136.752C48.486 137.019 48.278 137.349 48.278 137.744C48.278 138.096 48.3847 138.352 48.598 138.512C48.8113 138.672 49.0833 138.752 49.414 138.752ZM55.168 140V132.144H56.688L56.816 133.536H56.88C57.1573 133.024 57.4933 132.635 57.888 132.368C58.2827 132.091 58.688 131.952 59.104 131.952C59.4773 131.952 59.776 132.005 60 132.112L59.68 133.712C59.5413 133.669 59.4133 133.637 59.296 133.616C59.1787 133.595 59.0347 133.584 58.864 133.584C58.5547 133.584 58.2293 133.707 57.888 133.952C57.5467 134.187 57.2533 134.603 57.008 135.2V140H55.168ZM61.1368 140V132.144H62.6568L62.7848 133.2H62.8488C63.2008 132.859 63.5848 132.565 64.0008 132.32C64.4168 132.075 64.8914 131.952 65.4248 131.952C66.2674 131.952 66.8808 132.224 67.2648 132.768C67.6488 133.312 67.8408 134.08 67.8408 135.072V140H66.0008V135.312C66.0008 134.661 65.9048 134.203 65.7128 133.936C65.5208 133.669 65.2061 133.536 64.7688 133.536C64.4274 133.536 64.1234 133.621 63.8568 133.792C63.6008 133.952 63.3074 134.192 62.9768 134.512V140H61.1368ZM70.0899 140V132.144H71.9299V140H70.0899ZM71.0179 130.768C70.6872 130.768 70.4205 130.672 70.2179 130.48C70.0152 130.288 69.9139 130.032 69.9139 129.712C69.9139 129.403 70.0152 129.152 70.2179 128.96C70.4205 128.768 70.6872 128.672 71.0179 128.672C71.3485 128.672 71.6152 128.768 71.8179 128.96C72.0205 129.152 72.1219 129.403 72.1219 129.712C72.1219 130.032 72.0205 130.288 71.8179 130.48C71.6152 130.672 71.3485 130.768 71.0179 130.768ZM74.2774 140V132.144H75.7974L75.9254 133.2H75.9894C76.3414 132.859 76.7254 132.565 77.1414 132.32C77.5574 132.075 78.032 131.952 78.5654 131.952C79.408 131.952 80.0214 132.224 80.4054 132.768C80.7894 133.312 80.9814 134.08 80.9814 135.072V140H79.1414V135.312C79.1414 134.661 79.0454 134.203 78.8534 133.936C78.6614 133.669 78.3467 133.536 77.9094 133.536C77.568 133.536 77.264 133.621 76.9974 133.792C76.7414 133.952 76.448 134.192 76.1174 134.512V140H74.2774ZM85.9665 143.472C85.3478 143.472 84.7878 143.397 84.2865 143.248C83.7958 143.099 83.4065 142.869 83.1185 142.56C82.8412 142.261 82.7025 141.883 82.7025 141.424C82.7025 140.773 83.0758 140.213 83.8225 139.744V139.68C83.6198 139.552 83.4492 139.381 83.3105 139.168C83.1825 138.955 83.1185 138.688 83.1185 138.368C83.1185 138.059 83.2038 137.781 83.3745 137.536C83.5558 137.28 83.7585 137.072 83.9825 136.912V136.848C83.7158 136.645 83.4758 136.363 83.2625 136C83.0598 135.637 82.9585 135.227 82.9585 134.768C82.9585 134.16 83.1025 133.648 83.3905 133.232C83.6785 132.816 84.0572 132.501 84.5265 132.288C85.0065 132.064 85.5185 131.952 86.0625 131.952C86.2758 131.952 86.4785 131.973 86.6705 132.016C86.8732 132.048 87.0545 132.091 87.2145 132.144H90.0305V133.504H88.5905C88.7185 133.653 88.8252 133.845 88.9105 134.08C88.9958 134.304 89.0385 134.555 89.0385 134.832C89.0385 135.408 88.9052 135.899 88.6385 136.304C88.3718 136.699 88.0145 136.997 87.5665 137.2C87.1185 137.403 86.6172 137.504 86.0625 137.504C85.8918 137.504 85.7158 137.488 85.5345 137.456C85.3532 137.424 85.1718 137.371 84.9905 137.296C84.8732 137.403 84.7772 137.509 84.7025 137.616C84.6385 137.723 84.6065 137.867 84.6065 138.048C84.6065 138.272 84.6972 138.448 84.8785 138.576C85.0705 138.704 85.4065 138.768 85.8865 138.768H87.2785C88.2278 138.768 88.9425 138.923 89.4225 139.232C89.9132 139.531 90.1585 140.021 90.1585 140.704C90.1585 141.216 89.9878 141.68 89.6465 142.096C89.3052 142.523 88.8198 142.859 88.1905 143.104C87.5612 143.349 86.8198 143.472 85.9665 143.472ZM86.0625 136.352C86.4358 136.352 86.7558 136.213 87.0225 135.936C87.2892 135.659 87.4225 135.269 87.4225 134.768C87.4225 134.277 87.2892 133.899 87.0225 133.632C86.7665 133.355 86.4465 133.216 86.0625 133.216C85.6785 133.216 85.3532 133.349 85.0865 133.616C84.8198 133.883 84.6865 134.267 84.6865 134.768C84.6865 135.269 84.8198 135.659 85.0865 135.936C85.3532 136.213 85.6785 136.352 86.0625 136.352ZM86.2545 142.272C86.8838 142.272 87.3958 142.144 87.7905 141.888C88.1852 141.632 88.3825 141.339 88.3825 141.008C88.3825 140.699 88.2598 140.491 88.0145 140.384C87.7798 140.277 87.4385 140.224 86.9905 140.224H85.9185C85.4918 140.224 85.1345 140.187 84.8465 140.112C84.4412 140.421 84.2385 140.768 84.2385 141.152C84.2385 141.504 84.4198 141.776 84.7825 141.968C85.1452 142.171 85.6358 142.272 86.2545 142.272ZM94.9061 140V129.536H96.7621V133.744H101.002V129.536H102.858V140H101.002V135.36H96.7621V140H94.9061ZM107.692 140.192C106.849 140.192 106.236 139.92 105.852 139.376C105.468 138.832 105.276 138.064 105.276 137.072V132.144H107.116V136.832C107.116 137.483 107.212 137.941 107.404 138.208C107.596 138.475 107.905 138.608 108.332 138.608C108.673 138.608 108.972 138.523 109.228 138.352C109.494 138.181 109.777 137.904 110.076 137.52V132.144H111.916V140H110.412L110.268 138.848H110.22C109.878 139.253 109.505 139.579 109.1 139.824C108.694 140.069 108.225 140.192 107.692 140.192ZM118.054 140.192C117.307 140.192 116.593 139.851 115.91 139.168H115.862L115.702 140H114.246V128.704H116.086V131.616L116.038 132.928C116.369 132.64 116.731 132.405 117.126 132.224C117.521 132.043 117.915 131.952 118.31 131.952C119.291 131.952 120.054 132.315 120.598 133.04C121.142 133.765 121.414 134.731 121.414 135.936C121.414 136.832 121.254 137.6 120.934 138.24C120.614 138.869 120.198 139.355 119.686 139.696C119.185 140.027 118.641 140.192 118.054 140.192ZM117.67 138.672C118.193 138.672 118.63 138.443 118.982 137.984C119.334 137.525 119.51 136.853 119.51 135.968C119.51 135.179 119.377 134.565 119.11 134.128C118.843 133.691 118.411 133.472 117.814 133.472C117.259 133.472 116.683 133.765 116.086 134.352V138.016C116.363 138.251 116.635 138.421 116.902 138.528C117.179 138.624 117.435 138.672 117.67 138.672Z" fill="#5C5C5C"/>
<path d="M12.5038 137.154C11.6421 138.016 10.7755 139.434 10.2605 140.349C10.0586 140.708 9.51834 140.708 9.31645 140.349C8.80144 139.434 7.93485 138.016 7.07307 137.154C6.21129 136.292 4.7929 135.426 3.87785 134.911C3.51914 134.709 3.51914 134.169 3.87785 133.967C4.7929 133.452 6.21129 132.585 7.07307 131.723C7.93485 130.862 8.80144 129.443 9.31645 128.528C9.51834 128.17 10.0586 128.17 10.2605 128.528C10.7755 129.443 11.6421 130.862 12.5038 131.723C13.3656 132.585 14.784 133.452 15.6991 133.967C16.0578 134.169 16.0578 134.709 15.6991 134.911C14.784 135.426 13.3656 136.292 12.5038 137.154Z" fill="#5C5C5C"/>
<path d="M18.3966 142.054C17.9684 142.482 17.5382 143.136 17.2237 143.665C17.0134 144.019 16.4683 144.019 16.258 143.665C15.9435 143.136 15.5134 142.482 15.0851 142.054C14.6569 141.626 14.0033 141.195 13.4741 140.881C13.1203 140.671 13.1203 140.126 13.4741 139.915C14.0033 139.601 14.6569 139.171 15.0851 138.742C15.5134 138.314 15.9435 137.661 16.258 137.131C16.4683 136.777 17.0134 136.777 17.2237 137.131C17.5382 137.661 17.9684 138.314 18.3966 138.742C18.8248 139.171 19.4784 139.601 20.0076 139.915C20.3615 140.126 20.3615 140.671 20.0076 140.881C19.4784 141.195 18.8248 141.626 18.3966 142.054Z" fill="#5C5C5C"/>
<path d="M17.6698 129.404C17.3979 129.676 17.1249 130.068 16.903 130.424C16.6854 130.773 16.1376 130.773 15.9199 130.424C15.6981 130.068 15.4251 129.676 15.1531 129.404C14.8812 129.132 14.4896 128.859 14.1336 128.637C13.7842 128.42 13.7842 127.872 14.1336 127.654C14.4896 127.432 14.8812 127.159 15.1531 126.888C15.4251 126.616 15.6981 126.224 15.9199 125.868C16.1376 125.519 16.6854 125.519 16.903 125.868C17.1249 126.224 17.3979 126.616 17.6698 126.888C17.9418 127.159 18.3334 127.432 18.6894 127.654C19.0388 127.872 19.0388 128.42 18.6894 128.637C18.3334 128.859 17.9418 129.132 17.6698 129.404Z" fill="#5C5C5C"/>
<rect x="1.5" y="1.5" width="213" height="44" fill="white"/>
<rect x="1.5" y="1.5" width="213" height="44" stroke="#2491FF" stroke-width="3"/>
<rect x="3.5" y="3.5" width="209" height="40" stroke="#565C65"/>
<path d="M173.58 11.5V35.5" stroke="#DFE1E2" stroke-linecap="square"/>
<path fill-rule="evenodd" clip-rule="evenodd" d="M189.117 17.38L195.224 23.5L189.117 29.62L190.997 31.5L198.997 23.5L190.997 15.5L189.117 17.38Z" fill="#565C65"/>
<path d="M54.408 29.2706C53.5333 29.2706 52.7493 29.0573 52.056 28.6306C51.3733 28.1933 50.8293 27.5693 50.424 26.7586C50.0293 25.9479 49.832 24.9719 49.832 23.8306C49.832 22.6999 50.0347 21.7293 50.44 20.9186C50.8453 20.1079 51.4 19.4839 52.104 19.0466C52.808 18.6093 53.6027 18.3906 54.488 18.3906C55.128 18.3906 55.6933 18.5239 56.184 18.7906C56.6747 19.0466 57.0693 19.3453 57.368 19.6866L56.648 20.5506C56.3707 20.2519 56.056 20.0119 55.704 19.8306C55.352 19.6493 54.952 19.5586 54.504 19.5586C53.8427 19.5586 53.2613 19.7346 52.76 20.0866C52.2693 20.4279 51.8853 20.9133 51.608 21.5426C51.3413 22.1719 51.208 22.9239 51.208 23.7986C51.208 24.6733 51.3413 25.4359 51.608 26.0866C51.8747 26.7266 52.248 27.2226 52.728 27.5746C53.2187 27.9266 53.7947 28.1026 54.456 28.1026C54.9573 28.1026 55.4053 27.9959 55.8 27.7826C56.1947 27.5693 56.5573 27.2813 56.888 26.9186L57.624 27.7506C57.208 28.2306 56.7387 28.6039 56.216 28.8706C55.6933 29.1373 55.0907 29.2706 54.408 29.2706ZM59.4526 29.0786V21.3026H60.5406L60.6526 22.7106H60.7006C60.9673 22.2199 61.2926 21.8306 61.6766 21.5426C62.0606 21.2546 62.4713 21.1106 62.9086 21.1106C63.218 21.1106 63.4953 21.1639 63.7406 21.2706L63.4846 22.4226C63.3566 22.3799 63.2393 22.3479 63.1326 22.3266C63.026 22.3053 62.8926 22.2946 62.7326 22.2946C62.402 22.2946 62.0553 22.4279 61.6926 22.6946C61.3406 22.9613 61.0313 23.4253 60.7646 24.0866V29.0786H59.4526ZM67.9953 29.2706C67.3019 29.2706 66.6726 29.1106 66.1073 28.7906C65.5419 28.4599 65.0939 27.9906 64.7633 27.3826C64.4326 26.7746 64.2673 26.0493 64.2673 25.2066C64.2673 24.3533 64.4326 23.6226 64.7633 23.0146C65.1046 22.4066 65.5419 21.9373 66.0753 21.6066C66.6086 21.2759 67.1686 21.1106 67.7552 21.1106C68.7473 21.1106 69.5099 21.4413 70.0433 22.1026C70.5873 22.7639 70.8593 23.6493 70.8593 24.7586C70.8593 24.8973 70.8539 25.0359 70.8433 25.1746C70.8433 25.3026 70.8326 25.4146 70.8113 25.5106H65.5633C65.6166 26.3319 65.8726 26.9879 66.3313 27.4786C66.8006 27.9693 67.4086 28.2146 68.1553 28.2146C68.5286 28.2146 68.8699 28.1613 69.1793 28.0546C69.4993 27.9373 69.8033 27.7879 70.0913 27.6066L70.5553 28.4706C70.2246 28.6839 69.8459 28.8706 69.4193 29.0306C69.0033 29.1906 68.5286 29.2706 67.9953 29.2706ZM65.5473 24.5666H69.7073C69.7073 23.7773 69.5366 23.1799 69.1953 22.7746C68.8646 22.3586 68.3953 22.1506 67.7873 22.1506C67.2433 22.1506 66.7526 22.3639 66.3153 22.7906C65.8886 23.2066 65.6326 23.7986 65.5473 24.5666ZM74.354 29.2706C73.7033 29.2706 73.1593 29.0786 72.722 28.6946C72.2953 28.2999 72.082 27.7559 72.082 27.0626C72.082 26.2093 72.4607 25.5586 73.218 25.1106C73.986 24.6519 75.1967 24.3319 76.85 24.1506C76.85 23.8199 76.802 23.5053 76.706 23.2066C76.6207 22.9079 76.4607 22.6679 76.226 22.4866C76.002 22.2946 75.6767 22.1986 75.25 22.1986C74.802 22.1986 74.3807 22.2839 73.986 22.4546C73.5913 22.6253 73.2393 22.8173 72.93 23.0306L72.418 22.1186C72.7807 21.8839 73.2233 21.6599 73.746 21.4466C74.2793 21.2226 74.8553 21.1106 75.474 21.1106C76.4233 21.1106 77.1113 21.4039 77.538 21.9906C77.9647 22.5666 78.178 23.3399 78.178 24.3106V29.0786H77.09L76.978 28.1506H76.93C76.5673 28.4493 76.1673 28.7106 75.73 28.9346C75.3033 29.1586 74.8447 29.2706 74.354 29.2706ZM74.738 28.2146C75.1113 28.2146 75.4633 28.1239 75.794 27.9426C76.1247 27.7613 76.4767 27.5053 76.85 27.1746V25.0146C75.5593 25.1746 74.6527 25.4146 74.13 25.7346C73.618 26.0546 73.362 26.4653 73.362 26.9666C73.362 27.4039 73.4953 27.7239 73.762 27.9266C74.0287 28.1186 74.354 28.2146 74.738 28.2146ZM82.8538 29.2706C82.0218 29.2706 81.4404 29.0306 81.1098 28.5506C80.7898 28.0706 80.6298 27.4466 80.6298 26.6786V22.3746H79.4778V21.3826L80.6938 21.3026L80.8538 19.1266H81.9578V21.3026H84.0538V22.3746H81.9578V26.6946C81.9578 27.1746 82.0431 27.5479 82.2138 27.8146C82.3951 28.0706 82.7098 28.1986 83.1578 28.1986C83.2964 28.1986 83.4458 28.1773 83.6058 28.1346C83.7658 28.0813 83.9098 28.0333 84.0378 27.9906L84.2938 28.9826C84.0804 29.0573 83.8458 29.1213 83.5898 29.1746C83.3444 29.2386 83.0991 29.2706 82.8538 29.2706ZM88.6173 29.2706C87.9879 29.2706 87.3959 29.1106 86.8413 28.7906C86.2973 28.4706 85.8546 28.0066 85.5133 27.3986C85.1826 26.7906 85.0173 26.0599 85.0173 25.2066C85.0173 24.3319 85.1826 23.5906 85.5133 22.9826C85.8546 22.3746 86.2973 21.9106 86.8413 21.5906C87.3959 21.2706 87.9879 21.1106 88.6173 21.1106C89.2573 21.1106 89.8493 21.2706 90.3933 21.5906C90.9373 21.9106 91.3746 22.3746 91.7053 22.9826C92.0466 23.5906 92.2173 24.3319 92.2173 25.2066C92.2173 26.0599 92.0466 26.7906 91.7053 27.3986C91.3746 28.0066 90.9373 28.4706 90.3933 28.7906C89.8493 29.1106 89.2573 29.2706 88.6173 29.2706ZM88.6173 28.1826C89.2893 28.1826 89.8279 27.9106 90.2333 27.3666C90.6493 26.8119 90.8573 26.0919 90.8573 25.2066C90.8573 24.3106 90.6493 23.5853 90.2333 23.0306C89.8279 22.4759 89.2893 22.1986 88.6173 22.1986C87.9559 22.1986 87.4173 22.4759 87.0013 23.0306C86.5853 23.5853 86.3773 24.3106 86.3773 25.2066C86.3773 26.0919 86.5853 26.8119 87.0013 27.3666C87.4173 27.9106 87.9559 28.1826 88.6173 28.1826ZM94.2651 29.0786V21.3026H95.3531L95.4651 22.7106H95.5131C95.7798 22.2199 96.1051 21.8306 96.4891 21.5426C96.8731 21.2546 97.2838 21.1106 97.7211 21.1106C98.0305 21.1106 98.3078 21.1639 98.5531 21.2706L98.2971 22.4226C98.1691 22.3799 98.0518 22.3479 97.9451 22.3266C97.8385 22.3053 97.7051 22.2946 97.5451 22.2946C97.2145 22.2946 96.8678 22.4279 96.5051 22.6946C96.1531 22.9613 95.8438 23.4253 95.5771 24.0866V29.0786H94.2651Z" fill="#1B1B1B"/>
<path d="M30.475 27.7117L38.85 19.3367L37.55 18.0367L29.175 26.4117L30.475 27.7117ZM23.95 29.8867C22.2833 29.8034 21.0417 29.4534 20.225 28.8367C19.4083 28.2201 19 27.3284 19 26.1617C19 25.0784 19.4458 24.1992 20.3375 23.5242C21.2292 22.8492 22.4667 22.4451 24.05 22.3117C24.7 22.2617 25.1875 22.1576 25.5125 21.9992C25.8375 21.8409 26 21.6201 26 21.3367C26 20.9034 25.7542 20.5784 25.2625 20.3617C24.7708 20.1451 23.9583 19.9867 22.825 19.8867L23 17.8867C24.7167 18.0201 25.9792 18.3659 26.7875 18.9242C27.5958 19.4826 28 20.2867 28 21.3367C28 22.2201 27.6792 22.9117 27.0375 23.4117C26.3958 23.9117 25.45 24.2117 24.2 24.3117C23.1333 24.3951 22.3333 24.5909 21.8 24.8992C21.2667 25.2076 21 25.6284 21 26.1617C21 26.7451 21.2333 27.1659 21.7 27.4242C22.1667 27.6826 22.95 27.8367 24.05 27.8867L23.95 29.8867ZM30.95 30.0617L26.825 25.9367L36.375 16.3867C36.7083 16.0534 37.1042 15.8867 37.5625 15.8867C38.0208 15.8867 38.4167 16.0534 38.75 16.3867L40.5 18.1367C40.8333 18.4701 41 18.8659 41 19.3242C41 19.7826 40.8333 20.1784 40.5 20.5117L30.95 30.0617ZM26.975 30.8867C26.6917 30.9534 26.4417 30.8784 26.225 30.6617C26.0083 30.4451 25.9333 30.1951 26 29.9117L26.825 25.9367L30.95 30.0617L26.975 30.8867Z" fill="#383838"/>
<path fill-rule="evenodd" clip-rule="evenodd" d="M12.5026 347.023L11.7172 346.308C8.9276 343.778 7.08594 342.11 7.08594 340.062C7.08594 338.394 8.39677 337.083 10.0651 337.083C11.0076 337.083 11.9122 337.522 12.5026 338.215C13.093 337.522 13.9976 337.083 14.9401 337.083C16.6084 337.083 17.9193 338.394 17.9193 340.062C17.9193 342.11 16.0776 343.778 13.288 346.313L12.5026 347.023Z" fill="#5C5C5C"/>
<path d="M33.328 348V337.536H39.648V339.104H35.184V342.064H38.992V343.632H35.184V348H33.328ZM42.6501 348.192C41.9675 348.192 41.4075 347.979 40.9701 347.552C40.5435 347.125 40.3301 346.571 40.3301 345.888C40.3301 345.045 40.6981 344.395 41.4341 343.936C42.1701 343.467 43.3435 343.147 44.9541 342.976C44.9435 342.56 44.8315 342.203 44.6181 341.904C44.4155 341.595 44.0475 341.44 43.5141 341.44C43.1301 341.44 42.7515 341.515 42.3781 341.664C42.0155 341.813 41.6581 341.995 41.3061 342.208L40.6341 340.976C41.0715 340.699 41.5621 340.459 42.1061 340.256C42.6608 340.053 43.2475 339.952 43.8661 339.952C44.8475 339.952 45.5781 340.245 46.0581 340.832C46.5488 341.408 46.7941 342.245 46.7941 343.344V348H45.2741L45.1461 347.136H45.0821C44.7301 347.435 44.3515 347.685 43.9461 347.888C43.5515 348.091 43.1195 348.192 42.6501 348.192ZM43.2421 346.752C43.5621 346.752 43.8501 346.677 44.1061 346.528C44.3728 346.368 44.6555 346.155 44.9541 345.888V344.128C43.8875 344.267 43.1461 344.475 42.7301 344.752C42.3141 345.019 42.1061 345.349 42.1061 345.744C42.1061 346.096 42.2128 346.352 42.4261 346.512C42.6395 346.672 42.9115 346.752 43.2421 346.752ZM50.7561 348L48.0201 340.144H49.8921L51.1401 344.224C51.2468 344.608 51.3535 344.997 51.4601 345.392C51.5775 345.787 51.6895 346.187 51.7961 346.592H51.8601C51.9775 346.187 52.0895 345.787 52.1961 345.392C52.3135 344.997 52.4255 344.608 52.5321 344.224L53.7801 340.144H55.5561L52.8841 348H50.7561ZM60.0403 348.192C59.3896 348.192 58.7816 348.032 58.2163 347.712C57.6509 347.381 57.1923 346.912 56.8403 346.304C56.4883 345.685 56.3123 344.944 56.3123 344.08C56.3123 343.205 56.4883 342.464 56.8403 341.856C57.1923 341.237 57.6509 340.768 58.2163 340.448C58.7816 340.117 59.3896 339.952 60.0403 339.952C60.7016 339.952 61.3149 340.117 61.8803 340.448C62.4456 340.768 62.9043 341.237 63.2563 341.856C63.6083 342.464 63.7843 343.205 63.7843 344.08C63.7843 344.944 63.6083 345.685 63.2563 346.304C62.9043 346.912 62.4456 347.381 61.8803 347.712C61.3149 348.032 60.7016 348.192 60.0403 348.192ZM60.0403 346.688C60.6163 346.688 61.0696 346.448 61.4003 345.968C61.7309 345.488 61.8963 344.859 61.8963 344.08C61.8963 343.291 61.7309 342.656 61.4003 342.176C61.0696 341.696 60.6163 341.456 60.0403 341.456C59.4643 341.456 59.0109 341.696 58.6803 342.176C58.3603 342.656 58.2003 343.291 58.2003 344.08C58.2003 344.859 58.3603 345.488 58.6803 345.968C59.0109 346.448 59.4643 346.688 60.0403 346.688ZM65.6055 348V340.144H67.1255L67.2535 341.536H67.3175C67.5948 341.024 67.9308 340.635 68.3255 340.368C68.7202 340.091 69.1255 339.952 69.5415 339.952C69.9148 339.952 70.2135 340.005 70.4375 340.112L70.1175 341.712C69.9788 341.669 69.8508 341.637 69.7335 341.616C69.6162 341.595 69.4722 341.584 69.3015 341.584C68.9922 341.584 68.6668 341.707 68.3255 341.952C67.9842 342.187 67.6908 342.603 67.4455 343.2V348H65.6055ZM71.5743 348V340.144H73.4143V348H71.5743ZM72.5023 338.768C72.1716 338.768 71.9049 338.672 71.7023 338.48C71.4996 338.288 71.3983 338.032 71.3983 337.712C71.3983 337.403 71.4996 337.152 71.7023 336.96C71.9049 336.768 72.1716 336.672 72.5023 336.672C72.8329 336.672 73.0996 336.768 73.3023 336.96C73.5049 337.152 73.6063 337.403 73.6063 337.712C73.6063 338.032 73.5049 338.288 73.3023 338.48C73.0996 338.672 72.8329 338.768 72.5023 338.768ZM78.5298 348.192C77.6231 348.192 76.9778 347.931 76.5938 347.408C76.2204 346.875 76.0338 346.187 76.0338 345.344V341.6H74.9138V340.224L76.1298 340.144L76.3538 338H77.8898V340.144H79.8898V341.6H77.8898V345.344C77.8898 346.261 78.2578 346.72 78.9938 346.72C79.1324 346.72 79.2764 346.704 79.4258 346.672C79.5751 346.629 79.7031 346.587 79.8098 346.544L80.1298 347.904C79.9164 347.979 79.6711 348.043 79.3938 348.096C79.1271 348.16 78.8391 348.192 78.5298 348.192ZM84.653 348.192C83.9277 348.192 83.2717 348.032 82.685 347.712C82.0983 347.381 81.6343 346.912 81.293 346.304C80.9517 345.685 80.781 344.944 80.781 344.08C80.781 343.227 80.9517 342.491 81.293 341.872C81.645 341.253 82.0983 340.779 82.653 340.448C83.2077 340.117 83.789 339.952 84.397 339.952C85.1117 339.952 85.709 340.112 86.189 340.432C86.669 340.741 87.0317 341.179 87.277 341.744C87.5223 342.299 87.645 342.944 87.645 343.68C87.645 344.064 87.6183 344.363 87.565 344.576H82.573C82.6583 345.269 82.909 345.808 83.325 346.192C83.741 346.576 84.2637 346.768 84.893 346.768C85.2343 346.768 85.549 346.72 85.837 346.624C86.1357 346.517 86.429 346.373 86.717 346.192L87.341 347.344C86.9677 347.589 86.5517 347.792 86.093 347.952C85.6343 348.112 85.1543 348.192 84.653 348.192ZM82.557 343.328H86.045C86.045 342.72 85.9117 342.245 85.645 341.904C85.3783 341.552 84.9783 341.376 84.445 341.376C83.9863 341.376 83.5757 341.547 83.213 341.888C82.861 342.219 82.6423 342.699 82.557 343.328ZM91.5944 348.192C91.061 348.192 90.5277 348.091 89.9944 347.888C89.461 347.675 89.0024 347.413 88.6184 347.104L89.4824 345.92C89.8344 346.187 90.1864 346.4 90.5384 346.56C90.8904 346.72 91.2637 346.8 91.6584 346.8C92.085 346.8 92.3997 346.709 92.6024 346.528C92.805 346.347 92.9064 346.123 92.9064 345.856C92.9064 345.632 92.821 345.451 92.6504 345.312C92.4904 345.163 92.2824 345.035 92.0264 344.928C91.7704 344.811 91.5037 344.699 91.2264 344.592C90.885 344.464 90.5437 344.309 90.2024 344.128C89.8717 343.936 89.5997 343.696 89.3864 343.408C89.173 343.109 89.0664 342.741 89.0664 342.304C89.0664 341.611 89.3224 341.045 89.8344 340.608C90.3464 340.171 91.0397 339.952 91.9144 339.952C92.469 339.952 92.965 340.048 93.4024 340.24C93.8397 340.432 94.2184 340.651 94.5384 340.896L93.6904 342.016C93.413 341.813 93.1304 341.653 92.8424 341.536C92.565 341.408 92.2717 341.344 91.9624 341.344C91.5677 341.344 91.2744 341.429 91.0824 341.6C90.8904 341.76 90.7944 341.963 90.7944 342.208C90.7944 342.517 90.9544 342.752 91.2744 342.912C91.5944 343.072 91.9677 343.227 92.3944 343.376C92.757 343.504 93.109 343.664 93.4504 343.856C93.7917 344.037 94.0744 344.277 94.2984 344.576C94.533 344.875 94.6504 345.269 94.6504 345.76C94.6504 346.432 94.389 347.008 93.8664 347.488C93.3437 347.957 92.5864 348.192 91.5944 348.192Z" fill="#5C5C5C"/>
<path d="M7.33333 386C6.96667 386 6.65278 385.873 6.39167 385.618C6.13056 385.364 6 385.058 6 384.7V375.6C6 375.242 6.13056 374.936 6.39167 374.682C6.65278 374.427 6.96667 374.3 7.33333 374.3H10.1333C10.2889 373.91 10.5333 373.596 10.8667 373.357C11.2 373.119 11.5778 373 12 373C12.4222 373 12.8 373.119 13.1333 373.357C13.4667 373.596 13.7111 373.91 13.8667 374.3H16.6667C17.0333 374.3 17.3472 374.427 17.6083 374.682C17.8694 374.936 18 375.242 18 375.6V384.7C18 385.058 17.8694 385.364 17.6083 385.618C17.3472 385.873 17.0333 386 16.6667 386H7.33333ZM12 375.112C12.1444 375.112 12.2639 375.066 12.3583 374.974C12.4528 374.882 12.5 374.766 12.5 374.625C12.5 374.484 12.4528 374.368 12.3583 374.276C12.2639 374.184 12.1444 374.137 12 374.137C11.8556 374.137 11.7361 374.184 11.6417 374.276C11.5472 374.368 11.5 374.484 11.5 374.625C11.5 374.766 11.5472 374.882 11.6417 374.974C11.7361 375.066 11.8556 375.112 12 375.112ZM7.33333 383.953C7.93333 383.378 8.63056 382.926 9.425 382.596C10.2194 382.265 11.0778 382.1 12 382.1C12.9222 382.1 13.7806 382.265 14.575 382.596C15.3694 382.926 16.0667 383.378 16.6667 383.953V375.6H7.33333V383.953ZM12 380.8C12.6444 380.8 13.1944 380.578 13.65 380.134C14.1056 379.69 14.3333 379.153 14.3333 378.525C14.3333 377.897 14.1056 377.36 13.65 376.916C13.1944 376.472 12.6444 376.25 12 376.25C11.3556 376.25 10.8056 376.472 10.35 376.916C9.89444 377.36 9.66667 377.897 9.66667 378.525C9.66667 379.153 9.89444 379.69 10.35 380.134C10.8056 380.578 11.3556 380.8 12 380.8Z" fill="#5C5C5C"/>
<path d="M35.472 379.432L35.104 380.712H37.776L37.408 379.432C37.2373 378.877 37.072 378.307 36.912 377.72C36.7627 377.133 36.6133 376.552 36.464 375.976H36.4C36.2613 376.563 36.112 377.149 35.952 377.736C35.8027 378.312 35.6427 378.877 35.472 379.432ZM31.968 385L35.376 374.536H37.552L40.96 385H39.008L38.192 382.168H34.672L33.856 385H31.968ZM44.5631 385.192C44.0298 385.192 43.4965 385.091 42.9631 384.888C42.4298 384.675 41.9711 384.413 41.5871 384.104L42.4511 382.92C42.8031 383.187 43.1551 383.4 43.5071 383.56C43.8591 383.72 44.2325 383.8 44.6271 383.8C45.0538 383.8 45.3685 383.709 45.5711 383.528C45.7738 383.347 45.8751 383.123 45.8751 382.856C45.8751 382.632 45.7898 382.451 45.6191 382.312C45.4591 382.163 45.2511 382.035 44.9951 381.928C44.7391 381.811 44.4725 381.699 44.1951 381.592C43.8538 381.464 43.5125 381.309 43.1711 381.128C42.8405 380.936 42.5685 380.696 42.3551 380.408C42.1418 380.109 42.0351 379.741 42.0351 379.304C42.0351 378.611 42.2911 378.045 42.8031 377.608C43.3151 377.171 44.0085 376.952 44.8831 376.952C45.4378 376.952 45.9338 377.048 46.3711 377.24C46.8085 377.432 47.1871 377.651 47.5071 377.896L46.6591 379.016C46.3818 378.813 46.0991 378.653 45.8111 378.536C45.5338 378.408 45.2405 378.344 44.9311 378.344C44.5365 378.344 44.2431 378.429 44.0511 378.6C43.8591 378.76 43.7631 378.963 43.7631 379.208C43.7631 379.517 43.9231 379.752 44.2431 379.912C44.5631 380.072 44.9365 380.227 45.3631 380.376C45.7258 380.504 46.0778 380.664 46.4191 380.856C46.7605 381.037 47.0431 381.277 47.2671 381.576C47.5018 381.875 47.6191 382.269 47.6191 382.76C47.6191 383.432 47.3578 384.008 46.8351 384.488C46.3125 384.957 45.5551 385.192 44.5631 385.192ZM51.4538 385.192C50.9204 385.192 50.3871 385.091 49.8538 384.888C49.3204 384.675 48.8618 384.413 48.4778 384.104L49.3418 382.92C49.6938 383.187 50.0458 383.4 50.3978 383.56C50.7498 383.72 51.1231 383.8 51.5178 383.8C51.9444 383.8 52.2591 383.709 52.4618 383.528C52.6644 383.347 52.7658 383.123 52.7658 382.856C52.7658 382.632 52.6804 382.451 52.5098 382.312C52.3498 382.163 52.1418 382.035 51.8858 381.928C51.6298 381.811 51.3631 381.699 51.0858 381.592C50.7444 381.464 50.4031 381.309 50.0618 381.128C49.7311 380.936 49.4591 380.696 49.2458 380.408C49.0324 380.109 48.9258 379.741 48.9258 379.304C48.9258 378.611 49.1818 378.045 49.6938 377.608C50.2058 377.171 50.8991 376.952 51.7738 376.952C52.3284 376.952 52.8244 377.048 53.2618 377.24C53.6991 377.432 54.0778 377.651 54.3978 377.896L53.5498 379.016C53.2724 378.813 52.9898 378.653 52.7018 378.536C52.4244 378.408 52.1311 378.344 51.8218 378.344C51.4271 378.344 51.1338 378.429 50.9418 378.6C50.7498 378.76 50.6538 378.963 50.6538 379.208C50.6538 379.517 50.8138 379.752 51.1338 379.912C51.4538 380.072 51.8271 380.227 52.2538 380.376C52.6164 380.504 52.9684 380.664 53.3098 380.856C53.6511 381.037 53.9338 381.277 54.1578 381.576C54.3924 381.875 54.5098 382.269 54.5098 382.76C54.5098 383.432 54.2484 384.008 53.7258 384.488C53.2031 384.957 52.4458 385.192 51.4538 385.192ZM56.1524 385V377.144H57.9924V385H56.1524ZM57.0804 375.768C56.7497 375.768 56.483 375.672 56.2804 375.48C56.0777 375.288 55.9764 375.032 55.9764 374.712C55.9764 374.403 56.0777 374.152 56.2804 373.96C56.483 373.768 56.7497 373.672 57.0804 373.672C57.411 373.672 57.6777 373.768 57.8804 373.96C58.083 374.152 58.1844 374.403 58.1844 374.712C58.1844 375.032 58.083 375.288 57.8804 375.48C57.6777 375.672 57.411 375.768 57.0804 375.768ZM63.0759 388.472C62.4572 388.472 61.8972 388.397 61.3959 388.248C60.9052 388.099 60.5159 387.869 60.2279 387.56C59.9505 387.261 59.8119 386.883 59.8119 386.424C59.8119 385.773 60.1852 385.213 60.9319 384.744V384.68C60.7292 384.552 60.5585 384.381 60.4199 384.168C60.2919 383.955 60.2279 383.688 60.2279 383.368C60.2279 383.059 60.3132 382.781 60.4839 382.536C60.6652 382.28 60.8679 382.072 61.0919 381.912V381.848C60.8252 381.645 60.5852 381.363 60.3719 381C60.1692 380.637 60.0679 380.227 60.0679 379.768C60.0679 379.16 60.2119 378.648 60.4999 378.232C60.7879 377.816 61.1665 377.501 61.6359 377.288C62.1159 377.064 62.6279 376.952 63.1719 376.952C63.3852 376.952 63.5879 376.973 63.7799 377.016C63.9825 377.048 64.1639 377.091 64.3239 377.144H67.1399V378.504H65.6999C65.8279 378.653 65.9345 378.845 66.0199 379.08C66.1052 379.304 66.1479 379.555 66.1479 379.832C66.1479 380.408 66.0145 380.899 65.7479 381.304C65.4812 381.699 65.1239 381.997 64.6759 382.2C64.2279 382.403 63.7265 382.504 63.1719 382.504C63.0012 382.504 62.8252 382.488 62.6439 382.456C62.4625 382.424 62.2812 382.371 62.0999 382.296C61.9825 382.403 61.8865 382.509 61.8119 382.616C61.7479 382.723 61.7159 382.867 61.7159 383.048C61.7159 383.272 61.8065 383.448 61.9879 383.576C62.1799 383.704 62.5159 383.768 62.9959 383.768H64.3879C65.3372 383.768 66.0519 383.923 66.5319 384.232C67.0225 384.531 67.2679 385.021 67.2679 385.704C67.2679 386.216 67.0972 386.68 66.7559 387.096C66.4145 387.523 65.9292 387.859 65.2999 388.104C64.6705 388.349 63.9292 388.472 63.0759 388.472ZM63.1719 381.352C63.5452 381.352 63.8652 381.213 64.1319 380.936C64.3985 380.659 64.5319 380.269 64.5319 379.768C64.5319 379.277 64.3985 378.899 64.1319 378.632C63.8759 378.355 63.5559 378.216 63.1719 378.216C62.7879 378.216 62.4625 378.349 62.1959 378.616C61.9292 378.883 61.7959 379.267 61.7959 379.768C61.7959 380.269 61.9292 380.659 62.1959 380.936C62.4625 381.213 62.7879 381.352 63.1719 381.352ZM63.3639 387.272C63.9932 387.272 64.5052 387.144 64.8999 386.888C65.2945 386.632 65.4919 386.339 65.4919 386.008C65.4919 385.699 65.3692 385.491 65.1239 385.384C64.8892 385.277 64.5479 385.224 64.0999 385.224H63.0279C62.6012 385.224 62.2439 385.187 61.9559 385.112C61.5505 385.421 61.3479 385.768 61.3479 386.152C61.3479 386.504 61.5292 386.776 61.8919 386.968C62.2545 387.171 62.7452 387.272 63.3639 387.272ZM68.6524 385V377.144H70.1724L70.3004 378.2H70.3644C70.7164 377.859 71.1004 377.565 71.5164 377.32C71.9324 377.075 72.407 376.952 72.9404 376.952C73.783 376.952 74.3964 377.224 74.7804 377.768C75.1644 378.312 75.3564 379.08 75.3564 380.072V385H73.5164V380.312C73.5164 379.661 73.4204 379.203 73.2284 378.936C73.0364 378.669 72.7217 378.536 72.2844 378.536C71.943 378.536 71.639 378.621 71.3724 378.792C71.1164 378.952 70.823 379.192 70.4924 379.512V385H68.6524ZM80.9655 385.192C80.2402 385.192 79.5842 385.032 78.9975 384.712C78.4108 384.381 77.9468 383.912 77.6055 383.304C77.2642 382.685 77.0935 381.944 77.0935 381.08C77.0935 380.227 77.2642 379.491 77.6055 378.872C77.9575 378.253 78.4108 377.779 78.9655 377.448C79.5202 377.117 80.1015 376.952 80.7095 376.952C81.4242 376.952 82.0215 377.112 82.5015 377.432C82.9815 377.741 83.3442 378.179 83.5895 378.744C83.8348 379.299 83.9575 379.944 83.9575 380.68C83.9575 381.064 83.9308 381.363 83.8775 381.576H78.8855C78.9708 382.269 79.2215 382.808 79.6375 383.192C80.0535 383.576 80.5762 383.768 81.2055 383.768C81.5468 383.768 81.8615 383.72 82.1495 383.624C82.4482 383.517 82.7415 383.373 83.0295 383.192L83.6535 384.344C83.2802 384.589 82.8642 384.792 82.4055 384.952C81.9468 385.112 81.4668 385.192 80.9655 385.192ZM78.8695 380.328H82.3575C82.3575 379.72 82.2242 379.245 81.9575 378.904C81.6908 378.552 81.2908 378.376 80.7575 378.376C80.2988 378.376 79.8882 378.547 79.5255 378.888C79.1735 379.219 78.9548 379.699 78.8695 380.328ZM88.4669 385.192C87.4855 385.192 86.7015 384.829 86.1149 384.104C85.5282 383.379 85.2349 382.371 85.2349 381.08C85.2349 380.227 85.3895 379.491 85.6989 378.872C86.0189 378.253 86.4349 377.779 86.9469 377.448C87.4589 377.117 87.9975 376.952 88.5629 376.952C89.0109 376.952 89.3895 377.032 89.6989 377.192C90.0189 377.341 90.3282 377.549 90.6269 377.816L90.5629 376.552V373.704H92.4029V385H90.8829L90.7549 384.152H90.6909C90.4029 384.44 90.0669 384.685 89.6829 384.888C89.2989 385.091 88.8935 385.192 88.4669 385.192ZM88.9149 383.672C89.5015 383.672 90.0509 383.379 90.5629 382.792V379.128C90.2962 378.883 90.0295 378.712 89.7629 378.616C89.4962 378.52 89.2295 378.472 88.9629 378.472C88.4615 378.472 88.0295 378.701 87.6669 379.16C87.3149 379.608 87.1389 380.243 87.1389 381.064C87.1389 381.907 87.2935 382.552 87.6029 383C87.9122 383.448 88.3495 383.672 88.9149 383.672ZM100.717 385.192C99.8106 385.192 99.1653 384.931 98.7812 384.408C98.4079 383.875 98.2213 383.187 98.2213 382.344V378.6H97.1013V377.224L98.3173 377.144L98.5413 375H100.077V377.144H102.077V378.6H100.077V382.344C100.077 383.261 100.445 383.72 101.181 383.72C101.32 383.72 101.464 383.704 101.613 383.672C101.763 383.629 101.891 383.587 101.997 383.544L102.317 384.904C102.104 384.979 101.859 385.043 101.581 385.096C101.315 385.16 101.027 385.192 100.717 385.192ZM106.697 385.192C106.046 385.192 105.438 385.032 104.873 384.712C104.307 384.381 103.849 383.912 103.497 383.304C103.145 382.685 102.969 381.944 102.969 381.08C102.969 380.205 103.145 379.464 103.497 378.856C103.849 378.237 104.307 377.768 104.873 377.448C105.438 377.117 106.046 376.952 106.697 376.952C107.358 376.952 107.971 377.117 108.537 377.448C109.102 377.768 109.561 378.237 109.913 378.856C110.265 379.464 110.441 380.205 110.441 381.08C110.441 381.944 110.265 382.685 109.913 383.304C109.561 383.912 109.102 384.381 108.537 384.712C107.971 385.032 107.358 385.192 106.697 385.192ZM106.697 383.688C107.273 383.688 107.726 383.448 108.057 382.968C108.387 382.488 108.553 381.859 108.553 381.08C108.553 380.291 108.387 379.656 108.057 379.176C107.726 378.696 107.273 378.456 106.697 378.456C106.121 378.456 105.667 378.696 105.337 379.176C105.017 379.656 104.857 380.291 104.857 381.08C104.857 381.859 105.017 382.488 105.337 382.968C105.667 383.448 106.121 383.688 106.697 383.688ZM117.369 385V381.112L114.233 374.536H116.217L117.353 377.208C117.502 377.603 117.652 377.987 117.801 378.36C117.95 378.723 118.11 379.107 118.281 379.512H118.345C118.516 379.107 118.681 378.723 118.841 378.36C119.001 377.987 119.156 377.603 119.305 377.208L120.441 374.536H122.377L119.225 381.112V385H117.369ZM125.931 385.192C125.28 385.192 124.672 385.032 124.107 384.712C123.542 384.381 123.083 383.912 122.731 383.304C122.379 382.685 122.203 381.944 122.203 381.08C122.203 380.205 122.379 379.464 122.731 378.856C123.083 378.237 123.542 377.768 124.107 377.448C124.672 377.117 125.28 376.952 125.931 376.952C126.592 376.952 127.206 377.117 127.771 377.448C128.336 377.768 128.795 378.237 129.147 378.856C129.499 379.464 129.675 380.205 129.675 381.08C129.675 381.944 129.499 382.685 129.147 383.304C128.795 383.912 128.336 384.381 127.771 384.712C127.206 385.032 126.592 385.192 125.931 385.192ZM125.931 383.688C126.507 383.688 126.96 383.448 127.291 382.968C127.622 382.488 127.787 381.859 127.787 381.08C127.787 380.291 127.622 379.656 127.291 379.176C126.96 378.696 126.507 378.456 125.931 378.456C125.355 378.456 124.902 378.696 124.571 379.176C124.251 379.656 124.091 380.291 124.091 381.08C124.091 381.859 124.251 382.488 124.571 382.968C124.902 383.448 125.355 383.688 125.931 383.688ZM133.832 385.192C132.989 385.192 132.376 384.92 131.992 384.376C131.608 383.832 131.416 383.064 131.416 382.072V377.144H133.256V381.832C133.256 382.483 133.352 382.941 133.544 383.208C133.736 383.475 134.045 383.608 134.472 383.608C134.813 383.608 135.112 383.523 135.368 383.352C135.635 383.181 135.917 382.904 136.216 382.52V377.144H138.056V385H136.552L136.408 383.848H136.36C136.019 384.253 135.645 384.579 135.24 384.824C134.835 385.069 134.365 385.192 133.832 385.192Z" fill="#5C5C5C"/>
<path d="M10.8 308.2H13.2V307H10.8V308.2ZM10.8 306.4H15.6V305.2H10.8V306.4ZM10.8 304.6H15.6V303.4H10.8V304.6ZM9.6 310.6C9.27 310.6 8.9875 310.482 8.7525 310.247C8.5175 310.012 8.4 309.73 8.4 309.4V302.2C8.4 301.87 8.5175 301.587 8.7525 301.352C8.9875 301.117 9.27 301 9.6 301H16.8C17.13 301 17.4125 301.117 17.6475 301.352C17.8825 301.587 18 301.87 18 302.2V309.4C18 309.73 17.8825 310.012 17.6475 310.247C17.4125 310.482 17.13 310.6 16.8 310.6H9.6ZM9.6 309.4H16.8V302.2H9.6V309.4ZM7.2 313C6.87 313 6.5875 312.882 6.3525 312.647C6.1175 312.412 6 312.13 6 311.8V303.4H7.2V311.8H15.6V313H7.2Z" fill="#5C5C5C"/>
<path d="M33.328 311V300.536H39.648V302.104H35.184V305.064H38.992V306.632H35.184V311H33.328ZM43.379 311.192C42.5363 311.192 41.923 310.92 41.539 310.376C41.155 309.832 40.963 309.064 40.963 308.072V303.144H42.803V307.832C42.803 308.483 42.899 308.941 43.091 309.208C43.283 309.475 43.5923 309.608 44.019 309.608C44.3603 309.608 44.659 309.523 44.915 309.352C45.1817 309.181 45.4643 308.904 45.763 308.52V303.144H47.603V311H46.099L45.955 309.848H45.907C45.5657 310.253 45.1923 310.579 44.787 310.824C44.3817 311.069 43.9123 311.192 43.379 311.192ZM51.7256 311.192C51.075 311.192 50.611 310.995 50.3336 310.6C50.067 310.205 49.9336 309.667 49.9336 308.984V299.704H51.7736V309.08C51.7736 309.304 51.8163 309.464 51.9016 309.56C51.987 309.645 52.0776 309.688 52.1736 309.688C52.2163 309.688 52.2536 309.688 52.2856 309.688C52.3283 309.677 52.387 309.667 52.4616 309.656L52.7016 311.032C52.595 311.075 52.4563 311.112 52.2856 311.144C52.1256 311.176 51.939 311.192 51.7256 311.192ZM56.0694 311.192C55.4187 311.192 54.9547 310.995 54.6774 310.6C54.4107 310.205 54.2774 309.667 54.2774 308.984V299.704H56.1174V309.08C56.1174 309.304 56.16 309.464 56.2454 309.56C56.3307 309.645 56.4214 309.688 56.5174 309.688C56.56 309.688 56.5974 309.688 56.6294 309.688C56.672 309.677 56.7307 309.667 56.8054 309.656L57.0454 311.032C56.9387 311.075 56.8 311.112 56.6294 311.144C56.4694 311.176 56.2827 311.192 56.0694 311.192ZM66.1603 311.192C65.2856 311.192 64.4909 310.984 63.7763 310.568C63.0616 310.152 62.4909 309.544 62.0643 308.744C61.6483 307.933 61.4403 306.952 61.4403 305.8C61.4403 304.659 61.6536 303.683 62.0803 302.872C62.5176 302.051 63.0989 301.427 63.8243 301C64.5496 300.563 65.3496 300.344 66.2243 300.344C66.8856 300.344 67.4723 300.477 67.9843 300.744C68.4963 301.011 68.9176 301.32 69.2483 301.672L68.2563 302.872C67.9896 302.595 67.6909 302.376 67.3603 302.216C67.0403 302.045 66.6776 301.96 66.2723 301.96C65.7069 301.96 65.2003 302.115 64.7523 302.424C64.3149 302.723 63.9683 303.155 63.7123 303.72C63.4669 304.285 63.3443 304.963 63.3443 305.752C63.3443 306.947 63.6056 307.885 64.1283 308.568C64.6509 309.24 65.3496 309.576 66.2243 309.576C66.6936 309.576 67.1096 309.48 67.4723 309.288C67.8349 309.085 68.1656 308.824 68.4643 308.504L69.4563 309.672C69.0296 310.163 68.5389 310.541 67.9843 310.808C67.4403 311.064 66.8323 311.192 66.1603 311.192ZM74.259 311.192C73.6083 311.192 73.0003 311.032 72.435 310.712C71.8697 310.381 71.411 309.912 71.059 309.304C70.707 308.685 70.531 307.944 70.531 307.08C70.531 306.205 70.707 305.464 71.059 304.856C71.411 304.237 71.8697 303.768 72.435 303.448C73.0003 303.117 73.6083 302.952 74.259 302.952C74.9203 302.952 75.5337 303.117 76.099 303.448C76.6643 303.768 77.123 304.237 77.475 304.856C77.827 305.464 78.003 306.205 78.003 307.08C78.003 307.944 77.827 308.685 77.475 309.304C77.123 309.912 76.6643 310.381 76.099 310.712C75.5337 311.032 74.9203 311.192 74.259 311.192ZM74.259 309.688C74.835 309.688 75.2883 309.448 75.619 308.968C75.9497 308.488 76.115 307.859 76.115 307.08C76.115 306.291 75.9497 305.656 75.619 305.176C75.2883 304.696 74.835 304.456 74.259 304.456C73.683 304.456 73.2297 304.696 72.899 305.176C72.579 305.656 72.419 306.291 72.419 307.08C72.419 307.859 72.579 308.488 72.899 308.968C73.2297 309.448 73.683 309.688 74.259 309.688ZM79.8243 311V303.144H81.3443L81.4723 304.2H81.5363C81.8883 303.859 82.2723 303.565 82.6883 303.32C83.1043 303.075 83.5789 302.952 84.1123 302.952C84.9549 302.952 85.5683 303.224 85.9523 303.768C86.3363 304.312 86.5283 305.08 86.5283 306.072V311H84.6883V306.312C84.6883 305.661 84.5923 305.203 84.4003 304.936C84.2083 304.669 83.8936 304.536 83.4563 304.536C83.1149 304.536 82.8109 304.621 82.5443 304.792C82.2883 304.952 81.9949 305.192 81.6643 305.512V311H79.8243ZM91.5454 311.192C90.6387 311.192 89.9934 310.931 89.6094 310.408C89.236 309.875 89.0494 309.187 89.0494 308.344V304.6H87.9294V303.224L89.1454 303.144L89.3694 301H90.9054V303.144H92.9054V304.6H90.9054V308.344C90.9054 309.261 91.2734 309.72 92.0094 309.72C92.148 309.72 92.292 309.704 92.4414 309.672C92.5907 309.629 92.7187 309.587 92.8254 309.544L93.1454 310.904C92.932 310.979 92.6867 311.043 92.4094 311.096C92.1427 311.16 91.8547 311.192 91.5454 311.192ZM97.6686 311.192C96.9433 311.192 96.2873 311.032 95.7006 310.712C95.114 310.381 94.65 309.912 94.3086 309.304C93.9673 308.685 93.7966 307.944 93.7966 307.08C93.7966 306.227 93.9673 305.491 94.3086 304.872C94.6606 304.253 95.114 303.779 95.6686 303.448C96.2233 303.117 96.8046 302.952 97.4126 302.952C98.1273 302.952 98.7246 303.112 99.2046 303.432C99.6846 303.741 100.047 304.179 100.293 304.744C100.538 305.299 100.661 305.944 100.661 306.68C100.661 307.064 100.634 307.363 100.581 307.576H95.5886C95.674 308.269 95.9246 308.808 96.3406 309.192C96.7566 309.576 97.2793 309.768 97.9086 309.768C98.25 309.768 98.5646 309.72 98.8526 309.624C99.1513 309.517 99.4446 309.373 99.7326 309.192L100.357 310.344C99.9833 310.589 99.5673 310.792 99.1086 310.952C98.65 311.112 98.17 311.192 97.6686 311.192ZM95.5726 306.328H99.0606C99.0606 305.72 98.9273 305.245 98.6606 304.904C98.394 304.552 97.994 304.376 97.4606 304.376C97.002 304.376 96.5913 304.547 96.2286 304.888C95.8766 305.219 95.658 305.699 95.5726 306.328ZM102.418 311V303.144H103.938L104.066 304.2H104.13C104.482 303.859 104.866 303.565 105.282 303.32C105.698 303.075 106.173 302.952 106.706 302.952C107.549 302.952 108.162 303.224 108.546 303.768C108.93 304.312 109.122 305.08 109.122 306.072V311H107.282V306.312C107.282 305.661 107.186 305.203 106.994 304.936C106.802 304.669 106.487 304.536 106.05 304.536C105.709 304.536 105.405 304.621 105.138 304.792C104.882 304.952 104.589 305.192 104.258 305.512V311H102.418ZM114.139 311.192C113.232 311.192 112.587 310.931 112.203 310.408C111.83 309.875 111.643 309.187 111.643 308.344V304.6H110.523V303.224L111.739 303.144L111.963 301H113.499V303.144H115.499V304.6H113.499V308.344C113.499 309.261 113.867 309.72 114.603 309.72C114.742 309.72 114.886 309.704 115.035 309.672C115.184 309.629 115.312 309.587 115.419 309.544L115.739 310.904C115.526 310.979 115.28 311.043 115.003 311.096C114.736 311.16 114.448 311.192 114.139 311.192ZM120.516 311V300.536H122.372V309.432H126.724V311H120.516ZM128.387 311V303.144H130.227V311H128.387ZM129.315 301.768C128.984 301.768 128.717 301.672 128.515 301.48C128.312 301.288 128.211 301.032 128.211 300.712C128.211 300.403 128.312 300.152 128.515 299.96C128.717 299.768 128.984 299.672 129.315 299.672C129.645 299.672 129.912 299.768 130.115 299.96C130.317 300.152 130.419 300.403 130.419 300.712C130.419 301.032 130.317 301.288 130.115 301.48C129.912 301.672 129.645 301.768 129.315 301.768ZM136.382 311.192C135.636 311.192 134.921 310.851 134.238 310.168H134.19L134.03 311H132.574V299.704H134.414V302.616L134.366 303.928C134.697 303.64 135.06 303.405 135.454 303.224C135.849 303.043 136.244 302.952 136.638 302.952C137.62 302.952 138.382 303.315 138.926 304.04C139.47 304.765 139.742 305.731 139.742 306.936C139.742 307.832 139.582 308.6 139.262 309.24C138.942 309.869 138.526 310.355 138.014 310.696C137.513 311.027 136.969 311.192 136.382 311.192ZM135.998 309.672C136.521 309.672 136.958 309.443 137.31 308.984C137.662 308.525 137.838 307.853 137.838 306.968C137.838 306.179 137.705 305.565 137.438 305.128C137.172 304.691 136.74 304.472 136.142 304.472C135.588 304.472 135.012 304.765 134.414 305.352V309.016C134.692 309.251 134.964 309.421 135.23 309.528C135.508 309.624 135.764 309.672 135.998 309.672ZM141.59 311V303.144H143.11L143.238 304.536H143.302C143.579 304.024 143.915 303.635 144.31 303.368C144.705 303.091 145.11 302.952 145.526 302.952C145.899 302.952 146.198 303.005 146.422 303.112L146.102 304.712C145.963 304.669 145.835 304.637 145.718 304.616C145.601 304.595 145.457 304.584 145.286 304.584C144.977 304.584 144.651 304.707 144.31 304.952C143.969 305.187 143.675 305.603 143.43 306.2V311H141.59ZM149.041 311.192C148.358 311.192 147.798 310.979 147.361 310.552C146.934 310.125 146.721 309.571 146.721 308.888C146.721 308.045 147.089 307.395 147.825 306.936C148.561 306.467 149.734 306.147 151.345 305.976C151.334 305.56 151.222 305.203 151.009 304.904C150.806 304.595 150.438 304.44 149.905 304.44C149.521 304.44 149.142 304.515 148.769 304.664C148.406 304.813 148.049 304.995 147.697 305.208L147.025 303.976C147.462 303.699 147.953 303.459 148.497 303.256C149.051 303.053 149.638 302.952 150.257 302.952C151.238 302.952 151.969 303.245 152.449 303.832C152.939 304.408 153.185 305.245 153.185 306.344V311H151.665L151.537 310.136H151.473C151.121 310.435 150.742 310.685 150.337 310.888C149.942 311.091 149.51 311.192 149.041 311.192ZM149.633 309.752C149.953 309.752 150.241 309.677 150.497 309.528C150.763 309.368 151.046 309.155 151.345 308.888V307.128C150.278 307.267 149.537 307.475 149.121 307.752C148.705 308.019 148.497 308.349 148.497 308.744C148.497 309.096 148.603 309.352 148.817 309.512C149.03 309.672 149.302 309.752 149.633 309.752ZM155.387 311V303.144H156.907L157.035 304.536H157.099C157.376 304.024 157.712 303.635 158.107 303.368C158.501 303.091 158.907 302.952 159.323 302.952C159.696 302.952 159.995 303.005 160.219 303.112L159.899 304.712C159.76 304.669 159.632 304.637 159.515 304.616C159.397 304.595 159.253 304.584 159.083 304.584C158.773 304.584 158.448 304.707 158.107 304.952C157.765 305.187 157.472 305.603 157.227 306.2V311H155.387ZM162.134 314.232C161.92 314.232 161.734 314.216 161.574 314.184C161.414 314.152 161.259 314.115 161.11 314.072L161.446 312.632C161.52 312.653 161.606 312.675 161.702 312.696C161.808 312.728 161.91 312.744 162.006 312.744C162.422 312.744 162.752 312.616 162.998 312.36C163.254 312.115 163.446 311.795 163.574 311.4L163.718 310.904L160.63 303.144H162.502L163.862 307C163.979 307.341 164.091 307.704 164.198 308.088C164.315 308.461 164.432 308.835 164.549 309.208H164.614C164.71 308.845 164.806 308.477 164.902 308.104C165.008 307.72 165.11 307.352 165.206 307L166.39 303.144H168.166L165.318 311.352C164.987 312.237 164.587 312.936 164.118 313.448C163.648 313.971 162.987 314.232 162.134 314.232Z" fill="#5C5C5C"/>
<path d="M11.75 419.75H17.75V419.338C17.75 418.775 17.475 418.328 16.925 417.997C16.375 417.666 15.65 417.5 14.75 417.5C13.85 417.5 13.125 417.666 12.575 417.997C12.025 418.328 11.75 418.775 11.75 419.338V419.75ZM14.75 416.75C15.1625 416.75 15.5156 416.603 15.8094 416.309C16.1031 416.016 16.25 415.663 16.25 415.25C16.25 414.838 16.1031 414.484 15.8094 414.191C15.5156 413.897 15.1625 413.75 14.75 413.75C14.3375 413.75 13.9844 413.897 13.6906 414.191C13.3969 414.484 13.25 414.838 13.25 415.25C13.25 415.663 13.3969 416.016 13.6906 416.309C13.9844 416.603 14.3375 416.75 14.75 416.75ZM6.5 422C6.0875 422 5.73438 421.853 5.44063 421.559C5.14687 421.266 5 420.913 5 420.5V411.5C5 411.088 5.14687 410.734 5.44063 410.441C5.73438 410.147 6.0875 410 6.5 410H11L12.5 411.5H18.5C18.9125 411.5 19.2656 411.647 19.5594 411.941C19.8531 412.234 20 412.588 20 413V420.5C20 420.913 19.8531 421.266 19.5594 421.559C19.2656 421.853 18.9125 422 18.5 422H6.5ZM6.5 420.5H18.5V413H11.8813L10.3813 411.5H6.5V420.5Z" fill="#5C5C5C"/>
<path d="M36.384 422.192C35.68 422.192 34.9973 422.059 34.336 421.792C33.6853 421.525 33.1093 421.147 32.608 420.656L33.696 419.392C34.0693 419.744 34.496 420.032 34.976 420.256C35.456 420.469 35.936 420.576 36.416 420.576C37.0133 420.576 37.4667 420.453 37.776 420.208C38.0853 419.963 38.24 419.637 38.24 419.232C38.24 418.795 38.0853 418.48 37.776 418.288C37.4773 418.096 37.0933 417.899 36.624 417.696L35.184 417.072C34.8427 416.923 34.5067 416.731 34.176 416.496C33.856 416.261 33.5893 415.963 33.376 415.6C33.1733 415.237 33.072 414.8 33.072 414.288C33.072 413.733 33.2213 413.237 33.52 412.8C33.8293 412.352 34.2453 412 34.768 411.744C35.3013 411.477 35.9093 411.344 36.592 411.344C37.2 411.344 37.7867 411.467 38.352 411.712C38.9173 411.947 39.4027 412.267 39.808 412.672L38.864 413.856C38.5333 413.579 38.1813 413.36 37.808 413.2C37.4453 413.04 37.04 412.96 36.592 412.96C36.1013 412.96 35.7013 413.072 35.392 413.296C35.0933 413.509 34.944 413.808 34.944 414.192C34.944 414.459 35.0187 414.683 35.168 414.864C35.328 415.035 35.536 415.184 35.792 415.312C36.048 415.429 36.32 415.547 36.608 415.664L38.032 416.256C38.6507 416.523 39.1573 416.875 39.552 417.312C39.9467 417.739 40.144 418.331 40.144 419.088C40.144 419.653 39.9947 420.171 39.696 420.64C39.3973 421.109 38.9653 421.488 38.4 421.776C37.8453 422.053 37.1733 422.192 36.384 422.192ZM41.8868 422V410.704H43.7268V413.616L43.6628 415.136C43.9934 414.827 44.3614 414.555 44.7668 414.32C45.1721 414.075 45.6414 413.952 46.1748 413.952C47.0174 413.952 47.6308 414.224 48.0148 414.768C48.3988 415.312 48.5908 416.08 48.5908 417.072V422H46.7508V417.312C46.7508 416.661 46.6548 416.203 46.4628 415.936C46.2708 415.669 45.9561 415.536 45.5188 415.536C45.1774 415.536 44.8734 415.621 44.6068 415.792C44.3508 415.952 44.0574 416.192 43.7268 416.512V422H41.8868ZM52.7126 422.192C52.03 422.192 51.47 421.979 51.0326 421.552C50.606 421.125 50.3926 420.571 50.3926 419.888C50.3926 419.045 50.7606 418.395 51.4966 417.936C52.2326 417.467 53.406 417.147 55.0166 416.976C55.006 416.56 54.894 416.203 54.6806 415.904C54.478 415.595 54.11 415.44 53.5766 415.44C53.1926 415.44 52.814 415.515 52.4406 415.664C52.078 415.813 51.7206 415.995 51.3686 416.208L50.6966 414.976C51.134 414.699 51.6246 414.459 52.1686 414.256C52.7233 414.053 53.31 413.952 53.9286 413.952C54.91 413.952 55.6406 414.245 56.1206 414.832C56.6113 415.408 56.8566 416.245 56.8566 417.344V422H55.3366L55.2086 421.136H55.1446C54.7926 421.435 54.414 421.685 54.0086 421.888C53.614 422.091 53.182 422.192 52.7126 422.192ZM53.3046 420.752C53.6246 420.752 53.9126 420.677 54.1686 420.528C54.4353 420.368 54.718 420.155 55.0166 419.888V418.128C53.95 418.267 53.2086 418.475 52.7926 418.752C52.3766 419.019 52.1686 419.349 52.1686 419.744C52.1686 420.096 52.2753 420.352 52.4886 420.512C52.702 420.672 52.974 420.752 53.3046 420.752ZM59.0586 422V414.144H60.5786L60.7066 415.536H60.7706C61.048 415.024 61.384 414.635 61.7786 414.368C62.1733 414.091 62.5786 413.952 62.9946 413.952C63.368 413.952 63.6666 414.005 63.8906 414.112L63.5706 415.712C63.432 415.669 63.304 415.637 63.1866 415.616C63.0693 415.595 62.9253 415.584 62.7546 415.584C62.4453 415.584 62.12 415.707 61.7786 415.952C61.4373 416.187 61.144 416.603 60.8986 417.2V422H59.0586ZM68.2311 422.192C67.5058 422.192 66.8498 422.032 66.2631 421.712C65.6765 421.381 65.2125 420.912 64.8711 420.304C64.5298 419.685 64.3591 418.944 64.3591 418.08C64.3591 417.227 64.5298 416.491 64.8711 415.872C65.2231 415.253 65.6765 414.779 66.2311 414.448C66.7858 414.117 67.3671 413.952 67.9751 413.952C68.6898 413.952 69.2871 414.112 69.7671 414.432C70.2471 414.741 70.6098 415.179 70.8551 415.744C71.1005 416.299 71.2231 416.944 71.2231 417.68C71.2231 418.064 71.1965 418.363 71.1431 418.576H66.1511C66.2365 419.269 66.4871 419.808 66.9031 420.192C67.3191 420.576 67.8418 420.768 68.4711 420.768C68.8125 420.768 69.1271 420.72 69.4151 420.624C69.7138 420.517 70.0071 420.373 70.2951 420.192L70.9191 421.344C70.5458 421.589 70.1298 421.792 69.6711 421.952C69.2125 422.112 68.7325 422.192 68.2311 422.192ZM66.1351 417.328H69.6231C69.6231 416.72 69.4898 416.245 69.2231 415.904C68.9565 415.552 68.5565 415.376 68.0231 415.376C67.5645 415.376 67.1538 415.547 66.7911 415.888C66.4391 416.219 66.2205 416.699 66.1351 417.328ZM75.7325 422.192C74.7512 422.192 73.9672 421.829 73.3805 421.104C72.7938 420.379 72.5005 419.371 72.5005 418.08C72.5005 417.227 72.6552 416.491 72.9645 415.872C73.2845 415.253 73.7005 414.779 74.2125 414.448C74.7245 414.117 75.2632 413.952 75.8285 413.952C76.2765 413.952 76.6552 414.032 76.9645 414.192C77.2845 414.341 77.5938 414.549 77.8925 414.816L77.8285 413.552V410.704H79.6685V422H78.1485L78.0205 421.152H77.9565C77.6685 421.44 77.3325 421.685 76.9485 421.888C76.5645 422.091 76.1592 422.192 75.7325 422.192ZM76.1805 420.672C76.7672 420.672 77.3165 420.379 77.8285 419.792V416.128C77.5618 415.883 77.2952 415.712 77.0285 415.616C76.7618 415.52 76.4952 415.472 76.2285 415.472C75.7272 415.472 75.2952 415.701 74.9325 416.16C74.5805 416.608 74.4045 417.243 74.4045 418.064C74.4045 418.907 74.5592 419.552 74.8685 420C75.1778 420.448 75.6152 420.672 76.1805 420.672ZM86.5109 422L84.4309 414.144H86.2869L87.2309 418.224C87.3162 418.597 87.3855 418.971 87.4389 419.344C87.5029 419.717 87.5722 420.096 87.6469 420.48H87.7109C87.7855 420.096 87.8602 419.717 87.9349 419.344C88.0202 418.96 88.1109 418.587 88.2069 418.224L89.2309 414.144H90.9109L91.9509 418.224C92.0469 418.597 92.1375 418.971 92.2229 419.344C92.3082 419.717 92.3935 420.096 92.4789 420.48H92.5429C92.6175 420.096 92.6869 419.717 92.7509 419.344C92.8149 418.971 92.8842 418.597 92.9589 418.224L93.9029 414.144H95.6309L93.6309 422H91.4389L90.5269 418.336C90.4415 417.963 90.3615 417.595 90.2869 417.232C90.2122 416.859 90.1322 416.464 90.0469 416.048H89.9829C89.9082 416.464 89.8335 416.859 89.7589 417.232C89.6842 417.605 89.6042 417.979 89.5189 418.352L88.6229 422H86.5109ZM97.1836 422V414.144H99.0236V422H97.1836ZM98.1116 412.768C97.781 412.768 97.5143 412.672 97.3116 412.48C97.109 412.288 97.0076 412.032 97.0076 411.712C97.0076 411.403 97.109 411.152 97.3116 410.96C97.5143 410.768 97.781 410.672 98.1116 410.672C98.4423 410.672 98.709 410.768 98.9116 410.96C99.1143 411.152 99.2156 411.403 99.2156 411.712C99.2156 412.032 99.1143 412.288 98.9116 412.48C98.709 412.672 98.4423 412.768 98.1116 412.768ZM104.139 422.192C103.232 422.192 102.587 421.931 102.203 421.408C101.83 420.875 101.643 420.187 101.643 419.344V415.6H100.523V414.224L101.739 414.144L101.963 412H103.499V414.144H105.499V415.6H103.499V419.344C103.499 420.261 103.867 420.72 104.603 420.72C104.742 420.72 104.886 420.704 105.035 420.672C105.184 420.629 105.312 420.587 105.419 420.544L105.739 421.904C105.526 421.979 105.28 422.043 105.003 422.096C104.736 422.16 104.448 422.192 104.139 422.192ZM107.152 422V410.704H108.992V413.616L108.928 415.136C109.259 414.827 109.627 414.555 110.032 414.32C110.438 414.075 110.907 413.952 111.44 413.952C112.283 413.952 112.896 414.224 113.28 414.768C113.664 415.312 113.856 416.08 113.856 417.072V422H112.016V417.312C112.016 416.661 111.92 416.203 111.728 415.936C111.536 415.669 111.222 415.536 110.784 415.536C110.443 415.536 110.139 415.621 109.872 415.792C109.616 415.952 109.323 416.192 108.992 416.512V422H107.152ZM121.181 422V418.112L118.045 411.536H120.029L121.165 414.208C121.315 414.603 121.464 414.987 121.613 415.36C121.763 415.723 121.923 416.107 122.093 416.512H122.157C122.328 416.107 122.493 415.723 122.653 415.36C122.813 414.987 122.968 414.603 123.117 414.208L124.253 411.536H126.189L123.037 418.112V422H121.181ZM129.743 422.192C129.093 422.192 128.485 422.032 127.919 421.712C127.354 421.381 126.895 420.912 126.543 420.304C126.191 419.685 126.015 418.944 126.015 418.08C126.015 417.205 126.191 416.464 126.543 415.856C126.895 415.237 127.354 414.768 127.919 414.448C128.485 414.117 129.093 413.952 129.743 413.952C130.405 413.952 131.018 414.117 131.583 414.448C132.149 414.768 132.607 415.237 132.959 415.856C133.311 416.464 133.487 417.205 133.487 418.08C133.487 418.944 133.311 419.685 132.959 420.304C132.607 420.912 132.149 421.381 131.583 421.712C131.018 422.032 130.405 422.192 129.743 422.192ZM129.743 420.688C130.319 420.688 130.773 420.448 131.103 419.968C131.434 419.488 131.599 418.859 131.599 418.08C131.599 417.291 131.434 416.656 131.103 416.176C130.773 415.696 130.319 415.456 129.743 415.456C129.167 415.456 128.714 415.696 128.383 416.176C128.063 416.656 127.903 417.291 127.903 418.08C127.903 418.859 128.063 419.488 128.383 419.968C128.714 420.448 129.167 420.688 129.743 420.688ZM137.645 422.192C136.802 422.192 136.189 421.92 135.805 421.376C135.421 420.832 135.229 420.064 135.229 419.072V414.144H137.069V418.832C137.069 419.483 137.165 419.941 137.357 420.208C137.549 420.475 137.858 420.608 138.285 420.608C138.626 420.608 138.925 420.523 139.181 420.352C139.447 420.181 139.73 419.904 140.029 419.52V414.144H141.869V422H140.365L140.221 420.848H140.173C139.831 421.253 139.458 421.579 139.053 421.824C138.647 422.069 138.178 422.192 137.645 422.192Z" fill="#5C5C5C"/>
<path d="M33.328 517V506.536H35.184V510.744H39.424V506.536H41.28V517H39.424V512.36H35.184V517H33.328ZM43.7774 517V509.144H45.6174V517H43.7774ZM44.7054 507.768C44.3747 507.768 44.108 507.672 43.9054 507.48C43.7027 507.288 43.6014 507.032 43.6014 506.712C43.6014 506.403 43.7027 506.152 43.9054 505.96C44.108 505.768 44.3747 505.672 44.7054 505.672C45.036 505.672 45.3027 505.768 45.5054 505.96C45.708 506.152 45.8094 506.403 45.8094 506.712C45.8094 507.032 45.708 507.288 45.5054 507.48C45.3027 507.672 45.036 507.768 44.7054 507.768ZM50.1569 517.192C49.6235 517.192 49.0902 517.091 48.5569 516.888C48.0235 516.675 47.5649 516.413 47.1809 516.104L48.0449 514.92C48.3969 515.187 48.7489 515.4 49.1009 515.56C49.4529 515.72 49.8262 515.8 50.2209 515.8C50.6475 515.8 50.9622 515.709 51.1649 515.528C51.3675 515.347 51.4689 515.123 51.4689 514.856C51.4689 514.632 51.3835 514.451 51.2129 514.312C51.0529 514.163 50.8449 514.035 50.5889 513.928C50.3329 513.811 50.0662 513.699 49.7889 513.592C49.4475 513.464 49.1062 513.309 48.7649 513.128C48.4342 512.936 48.1622 512.696 47.9489 512.408C47.7355 512.109 47.6289 511.741 47.6289 511.304C47.6289 510.611 47.8849 510.045 48.3969 509.608C48.9089 509.171 49.6022 508.952 50.4769 508.952C51.0315 508.952 51.5275 509.048 51.9649 509.24C52.4022 509.432 52.7809 509.651 53.1009 509.896L52.2529 511.016C51.9755 510.813 51.6929 510.653 51.4049 510.536C51.1275 510.408 50.8342 510.344 50.5249 510.344C50.1302 510.344 49.8369 510.429 49.6449 510.6C49.4529 510.76 49.3569 510.963 49.3569 511.208C49.3569 511.517 49.5169 511.752 49.8369 511.912C50.1569 512.072 50.5302 512.227 50.9569 512.376C51.3195 512.504 51.6715 512.664 52.0129 512.856C52.3542 513.037 52.6369 513.277 52.8609 513.576C53.0955 513.875 53.2129 514.269 53.2129 514.76C53.2129 515.432 52.9515 516.008 52.4289 516.488C51.9062 516.957 51.1489 517.192 50.1569 517.192ZM57.311 517.192C56.4043 517.192 55.759 516.931 55.375 516.408C55.0017 515.875 54.815 515.187 54.815 514.344V510.6H53.695V509.224L54.911 509.144L55.135 507H56.671V509.144H58.671V510.6H56.671V514.344C56.671 515.261 57.039 515.72 57.775 515.72C57.9137 515.72 58.0577 515.704 58.207 515.672C58.3563 515.629 58.4843 515.587 58.591 515.544L58.911 516.904C58.6977 516.979 58.4523 517.043 58.175 517.096C57.9083 517.16 57.6203 517.192 57.311 517.192ZM63.2903 517.192C62.6396 517.192 62.0316 517.032 61.4663 516.712C60.9009 516.381 60.4423 515.912 60.0903 515.304C59.7383 514.685 59.5623 513.944 59.5623 513.08C59.5623 512.205 59.7383 511.464 60.0903 510.856C60.4423 510.237 60.9009 509.768 61.4663 509.448C62.0316 509.117 62.6396 508.952 63.2903 508.952C63.9516 508.952 64.5649 509.117 65.1303 509.448C65.6956 509.768 66.1543 510.237 66.5063 510.856C66.8583 511.464 67.0343 512.205 67.0343 513.08C67.0343 513.944 66.8583 514.685 66.5063 515.304C66.1543 515.912 65.6956 516.381 65.1303 516.712C64.5649 517.032 63.9516 517.192 63.2903 517.192ZM63.2903 515.688C63.8663 515.688 64.3196 515.448 64.6503 514.968C64.9809 514.488 65.1463 513.859 65.1463 513.08C65.1463 512.291 64.9809 511.656 64.6503 511.176C64.3196 510.696 63.8663 510.456 63.2903 510.456C62.7143 510.456 62.2609 510.696 61.9303 511.176C61.6103 511.656 61.4503 512.291 61.4503 513.08C61.4503 513.859 61.6103 514.488 61.9303 514.968C62.2609 515.448 62.7143 515.688 63.2903 515.688ZM68.8555 517V509.144H70.3755L70.5035 510.536H70.5675C70.8448 510.024 71.1808 509.635 71.5755 509.368C71.9702 509.091 72.3755 508.952 72.7915 508.952C73.1648 508.952 73.4635 509.005 73.6875 509.112L73.3675 510.712C73.2288 510.669 73.1008 510.637 72.9835 510.616C72.8662 510.595 72.7222 510.584 72.5515 510.584C72.2422 510.584 71.9168 510.707 71.5755 510.952C71.2342 511.187 70.9408 511.603 70.6955 512.2V517H68.8555ZM75.6023 520.232C75.3889 520.232 75.2023 520.216 75.0423 520.184C74.8823 520.152 74.7276 520.115 74.5783 520.072L74.9143 518.632C74.9889 518.653 75.0743 518.675 75.1703 518.696C75.2769 518.728 75.3783 518.744 75.4743 518.744C75.8903 518.744 76.2209 518.616 76.4663 518.36C76.7223 518.115 76.9143 517.795 77.0423 517.4L77.1863 516.904L74.0983 509.144H75.9703L77.3303 513C77.4476 513.341 77.5596 513.704 77.6663 514.088C77.7836 514.461 77.9009 514.835 78.0182 515.208H78.0823C78.1783 514.845 78.2743 514.477 78.3703 514.104C78.4769 513.72 78.5783 513.352 78.6743 513L79.8583 509.144H81.6343L78.7863 517.352C78.4556 518.237 78.0556 518.936 77.5863 519.448C77.1169 519.971 76.4556 520.232 75.6023 520.232Z" fill="#5C5C5C"/>
<path fill-rule="evenodd" clip-rule="evenodd" d="M14 505.75C10.6867 505.75 8 508.437 8 511.75H6L8.59333 514.343L8.64 514.437L11.3333 511.75H9.33333C9.33333 509.17 11.42 507.083 14 507.083C16.58 507.083 18.6667 509.17 18.6667 511.75C18.6667 514.33 16.58 516.417 14 516.417C12.7133 516.417 11.5467 515.89 10.7067 515.043L9.76 515.99C10.8467 517.077 12.34 517.75 14 517.75C17.3133 517.75 20 515.063 20 511.75C20 508.437 17.3133 505.75 14 505.75ZM13.3333 509.083V512.417L16.1867 514.11L16.6667 513.303L14.3333 511.917V509.083H13.3333Z" fill="#5C5C5C"/>
<path d="M33.328 554V543.536H35.184V547.744H39.424V543.536H41.28V554H39.424V549.36H35.184V554H33.328ZM47.1374 554.192C46.412 554.192 45.756 554.032 45.1694 553.712C44.5827 553.381 44.1187 552.912 43.7774 552.304C43.436 551.685 43.2654 550.944 43.2654 550.08C43.2654 549.227 43.436 548.491 43.7774 547.872C44.1294 547.253 44.5827 546.779 45.1374 546.448C45.692 546.117 46.2734 545.952 46.8814 545.952C47.596 545.952 48.1934 546.112 48.6734 546.432C49.1534 546.741 49.516 547.179 49.7614 547.744C50.0067 548.299 50.1294 548.944 50.1294 549.68C50.1294 550.064 50.1027 550.363 50.0494 550.576H45.0574C45.1427 551.269 45.3934 551.808 45.8094 552.192C46.2254 552.576 46.748 552.768 47.3774 552.768C47.7187 552.768 48.0334 552.72 48.3214 552.624C48.62 552.517 48.9134 552.373 49.2014 552.192L49.8254 553.344C49.452 553.589 49.036 553.792 48.5774 553.952C48.1187 554.112 47.6387 554.192 47.1374 554.192ZM45.0414 549.328H48.5294C48.5294 548.72 48.396 548.245 48.1294 547.904C47.8627 547.552 47.4627 547.376 46.9294 547.376C46.4707 547.376 46.06 547.547 45.6974 547.888C45.3454 548.219 45.1267 548.699 45.0414 549.328ZM53.6788 554.192C53.0281 554.192 52.5641 553.995 52.2868 553.6C52.0201 553.205 51.8868 552.667 51.8868 551.984V542.704H53.7268V552.08C53.7268 552.304 53.7694 552.464 53.8548 552.56C53.9401 552.645 54.0308 552.688 54.1268 552.688C54.1694 552.688 54.2068 552.688 54.2388 552.688C54.2814 552.677 54.3401 552.667 54.4148 552.656L54.6548 554.032C54.5481 554.075 54.4094 554.112 54.2388 554.144C54.0788 554.176 53.8921 554.192 53.6788 554.192ZM56.2305 557.104V546.144H57.7505L57.8785 546.976H57.9425C58.2732 546.699 58.6412 546.459 59.0465 546.256C59.4625 546.053 59.8838 545.952 60.3105 545.952C61.2918 545.952 62.0492 546.315 62.5825 547.04C63.1265 547.765 63.3985 548.736 63.3985 549.952C63.3985 550.848 63.2385 551.616 62.9185 552.256C62.5985 552.885 62.1825 553.365 61.6705 553.696C61.1692 554.027 60.6252 554.192 60.0385 554.192C59.6972 554.192 59.3558 554.117 59.0145 553.968C58.6732 553.808 58.3425 553.595 58.0225 553.328L58.0705 554.64V557.104H56.2305ZM59.6545 552.672C60.1772 552.672 60.6145 552.443 60.9665 551.984C61.3185 551.525 61.4945 550.853 61.4945 549.968C61.4945 549.179 61.3612 548.565 61.0945 548.128C60.8278 547.691 60.3958 547.472 59.7985 547.472C59.2438 547.472 58.6678 547.765 58.0705 548.352V552.016C58.3585 552.251 58.6358 552.421 58.9025 552.528C59.1692 552.624 59.4198 552.672 59.6545 552.672Z" fill="#5C5C5C"/>
<path fill-rule="evenodd" clip-rule="evenodd" d="M11.4 552.266H12.6V551.066H11.4V552.266ZM12 542.666C8.688 542.666 6 545.354 6 548.666C6 551.978 8.688 554.666 12 554.666C15.312 554.666 18 551.978 18 548.666C18 545.354 15.312 542.666 12 542.666ZM12 553.466C9.354 553.466 7.2 551.312 7.2 548.666C7.2 546.02 9.354 543.866 12 543.866C14.646 543.866 16.8 546.02 16.8 548.666C16.8 551.312 14.646 553.466 12 553.466ZM12 545.066C10.674 545.066 9.6 546.14 9.6 547.466H10.8C10.8 546.806 11.34 546.266 12 546.266C12.66 546.266 13.2 546.806 13.2 547.466C13.2 548.666 11.4 548.516 11.4 550.466H12.6C12.6 549.116 14.4 548.966 14.4 547.466C14.4 546.14 13.326 545.066 12 545.066Z" fill="#5C5C5C"/>
<path d="M30.328 180V169.536H33.128C34.728 169.536 35.976 169.968 36.872 170.832C37.768 171.696 38.216 172.992 38.216 174.72C38.216 176.459 37.7733 177.776 36.888 178.672C36.0027 179.557 34.7813 180 33.224 180H30.328ZM32.184 178.496H33C34.056 178.496 34.872 178.192 35.448 177.584C36.024 176.965 36.312 176.011 36.312 174.72C36.312 173.44 36.024 172.507 35.448 171.92C34.872 171.333 34.056 171.04 33 171.04H32.184V178.496ZM42.072 180.192C41.3893 180.192 40.8293 179.979 40.392 179.552C39.9653 179.125 39.752 178.571 39.752 177.888C39.752 177.045 40.12 176.395 40.856 175.936C41.592 175.467 42.7653 175.147 44.376 174.976C44.3653 174.56 44.2533 174.203 44.04 173.904C43.8373 173.595 43.4693 173.44 42.936 173.44C42.552 173.44 42.1733 173.515 41.8 173.664C41.4373 173.813 41.08 173.995 40.728 174.208L40.056 172.976C40.4933 172.699 40.984 172.459 41.528 172.256C42.0827 172.053 42.6693 171.952 43.288 171.952C44.2693 171.952 45 172.245 45.48 172.832C45.9707 173.408 46.216 174.245 46.216 175.344V180H44.696L44.568 179.136H44.504C44.152 179.435 43.7733 179.685 43.368 179.888C42.9733 180.091 42.5413 180.192 42.072 180.192ZM42.664 178.752C42.984 178.752 43.272 178.677 43.528 178.528C43.7947 178.368 44.0773 178.155 44.376 177.888V176.128C43.3093 176.267 42.568 176.475 42.152 176.752C41.736 177.019 41.528 177.349 41.528 177.744C41.528 178.096 41.6347 178.352 41.848 178.512C42.0613 178.672 42.3333 178.752 42.664 178.752ZM50.61 180.192C50.0767 180.192 49.5433 180.091 49.01 179.888C48.4767 179.675 48.018 179.413 47.634 179.104L48.498 177.92C48.85 178.187 49.202 178.4 49.554 178.56C49.906 178.72 50.2793 178.8 50.674 178.8C51.1007 178.8 51.4153 178.709 51.618 178.528C51.8207 178.347 51.922 178.123 51.922 177.856C51.922 177.632 51.8367 177.451 51.666 177.312C51.506 177.163 51.298 177.035 51.042 176.928C50.786 176.811 50.5193 176.699 50.242 176.592C49.9007 176.464 49.5593 176.309 49.218 176.128C48.8873 175.936 48.6153 175.696 48.402 175.408C48.1887 175.109 48.082 174.741 48.082 174.304C48.082 173.611 48.338 173.045 48.85 172.608C49.362 172.171 50.0553 171.952 50.93 171.952C51.4847 171.952 51.9807 172.048 52.418 172.24C52.8553 172.432 53.234 172.651 53.554 172.896L52.706 174.016C52.4287 173.813 52.146 173.653 51.858 173.536C51.5807 173.408 51.2873 173.344 50.978 173.344C50.5833 173.344 50.29 173.429 50.098 173.6C49.906 173.76 49.81 173.963 49.81 174.208C49.81 174.517 49.97 174.752 50.29 174.912C50.61 175.072 50.9833 175.227 51.41 175.376C51.7727 175.504 52.1247 175.664 52.466 175.856C52.8073 176.037 53.09 176.277 53.314 176.576C53.5487 176.875 53.666 177.269 53.666 177.76C53.666 178.432 53.4047 179.008 52.882 179.488C52.3593 179.957 51.602 180.192 50.61 180.192ZM55.3086 180V168.704H57.1486V171.616L57.0846 173.136C57.4153 172.827 57.7833 172.555 58.1886 172.32C58.594 172.075 59.0633 171.952 59.5966 171.952C60.4393 171.952 61.0526 172.224 61.4366 172.768C61.8206 173.312 62.0126 174.08 62.0126 175.072V180H60.1726V175.312C60.1726 174.661 60.0766 174.203 59.8846 173.936C59.6926 173.669 59.378 173.536 58.9406 173.536C58.5993 173.536 58.2953 173.621 58.0286 173.792C57.7726 173.952 57.4793 174.192 57.1486 174.512V180H55.3086ZM68.0385 180.192C67.2918 180.192 66.5772 179.851 65.8945 179.168H65.8465L65.6865 180H64.2305V168.704H66.0705V171.616L66.0225 172.928C66.3532 172.64 66.7158 172.405 67.1105 172.224C67.5052 172.043 67.8998 171.952 68.2945 171.952C69.2758 171.952 70.0385 172.315 70.5825 173.04C71.1265 173.765 71.3985 174.731 71.3985 175.936C71.3985 176.832 71.2385 177.6 70.9185 178.24C70.5985 178.869 70.1825 179.355 69.6705 179.696C69.1692 180.027 68.6252 180.192 68.0385 180.192ZM67.6545 178.672C68.1772 178.672 68.6145 178.443 68.9665 177.984C69.3185 177.525 69.4945 176.853 69.4945 175.968C69.4945 175.179 69.3612 174.565 69.0945 174.128C68.8278 173.691 68.3958 173.472 67.7985 173.472C67.2438 173.472 66.6678 173.765 66.0705 174.352V178.016C66.3478 178.251 66.6198 178.421 66.8865 178.528C67.1638 178.624 67.4198 178.672 67.6545 178.672ZM76.4621 180.192C75.8115 180.192 75.2035 180.032 74.6381 179.712C74.0728 179.381 73.6141 178.912 73.2621 178.304C72.9101 177.685 72.7341 176.944 72.7341 176.08C72.7341 175.205 72.9101 174.464 73.2621 173.856C73.6141 173.237 74.0728 172.768 74.6381 172.448C75.2035 172.117 75.8115 171.952 76.4621 171.952C77.1235 171.952 77.7368 172.117 78.3021 172.448C78.8675 172.768 79.3261 173.237 79.6781 173.856C80.0301 174.464 80.2061 175.205 80.2061 176.08C80.2061 176.944 80.0301 177.685 79.6781 178.304C79.3261 178.912 78.8675 179.381 78.3021 179.712C77.7368 180.032 77.1235 180.192 76.4621 180.192ZM76.4621 178.688C77.0381 178.688 77.4915 178.448 77.8221 177.968C78.1528 177.488 78.3181 176.859 78.3181 176.08C78.3181 175.291 78.1528 174.656 77.8221 174.176C77.4915 173.696 77.0381 173.456 76.4621 173.456C75.8861 173.456 75.4328 173.696 75.1021 174.176C74.7821 174.656 74.6221 175.291 74.6221 176.08C74.6221 176.859 74.7821 177.488 75.1021 177.968C75.4328 178.448 75.8861 178.688 76.4621 178.688ZM83.7439 180.192C83.0612 180.192 82.5012 179.979 82.0639 179.552C81.6372 179.125 81.4239 178.571 81.4239 177.888C81.4239 177.045 81.7919 176.395 82.5279 175.936C83.2639 175.467 84.4372 175.147 86.0479 174.976C86.0372 174.56 85.9252 174.203 85.7119 173.904C85.5092 173.595 85.1412 173.44 84.6079 173.44C84.2239 173.44 83.8452 173.515 83.4719 173.664C83.1092 173.813 82.7519 173.995 82.3999 174.208L81.7279 172.976C82.1652 172.699 82.6559 172.459 83.1999 172.256C83.7545 172.053 84.3412 171.952 84.9599 171.952C85.9412 171.952 86.6719 172.245 87.1519 172.832C87.6425 173.408 87.8879 174.245 87.8879 175.344V180H86.3679L86.2399 179.136H86.1759C85.8239 179.435 85.4452 179.685 85.0399 179.888C84.6452 180.091 84.2132 180.192 83.7439 180.192ZM84.3359 178.752C84.6559 178.752 84.9439 178.677 85.1999 178.528C85.4665 178.368 85.7492 178.155 86.0479 177.888V176.128C84.9812 176.267 84.2399 176.475 83.8239 176.752C83.4079 177.019 83.1999 177.349 83.1999 177.744C83.1999 178.096 83.3065 178.352 83.5199 178.512C83.7332 178.672 84.0052 178.752 84.3359 178.752ZM90.0899 180V172.144H91.6099L91.7379 173.536H91.8019C92.0792 173.024 92.4152 172.635 92.8099 172.368C93.2045 172.091 93.6099 171.952 94.0259 171.952C94.3992 171.952 94.6979 172.005 94.9219 172.112L94.6019 173.712C94.4632 173.669 94.3352 173.637 94.2179 173.616C94.1005 173.595 93.9565 173.584 93.7859 173.584C93.4765 173.584 93.1512 173.707 92.8099 173.952C92.4685 174.187 92.1752 174.603 91.9299 175.2V180H90.0899ZM98.6544 180.192C97.673 180.192 96.889 179.829 96.3024 179.104C95.7157 178.379 95.4224 177.371 95.4224 176.08C95.4224 175.227 95.577 174.491 95.8864 173.872C96.2064 173.253 96.6224 172.779 97.1344 172.448C97.6464 172.117 98.185 171.952 98.7504 171.952C99.1984 171.952 99.577 172.032 99.8864 172.192C100.206 172.341 100.516 172.549 100.814 172.816L100.75 171.552V168.704H102.59V180H101.07L100.942 179.152H100.878C100.59 179.44 100.254 179.685 99.8704 179.888C99.4864 180.091 99.081 180.192 98.6544 180.192ZM99.1024 178.672C99.689 178.672 100.238 178.379 100.75 177.792V174.128C100.484 173.883 100.217 173.712 99.9504 173.616C99.6837 173.52 99.417 173.472 99.1504 173.472C98.649 173.472 98.217 173.701 97.8544 174.16C97.5024 174.608 97.3264 175.243 97.3264 176.064C97.3264 176.907 97.481 177.552 97.7904 178C98.0997 178.448 98.537 178.672 99.1024 178.672Z" fill="#5C5C5C"/>
<path fill-rule="evenodd" clip-rule="evenodd" d="M15.4444 167H4.55556C3.7 167 3 167.7 3 168.556V179.444C3 180.3 3.7 181 4.55556 181H15.4444C16.3 181 17 180.3 17 179.444V168.556C17 167.7 16.3 167 15.4444 167ZM7.66667 177.889H6.11111V172.444H7.66667V177.889ZM10.7778 177.889H9.22222V170.111H10.7778V177.889ZM13.8889 177.889H12.3333V174.778H13.8889V177.889Z" fill="#5C5C5C"/>
<path d="M32.072 217V213.112L28.936 206.536H30.92L32.056 209.208C32.2053 209.603 32.3547 209.987 32.504 210.36C32.6533 210.723 32.8133 211.107 32.984 211.512H33.048C33.2187 211.107 33.384 210.723 33.544 210.36C33.704 209.987 33.8587 209.603 34.008 209.208L35.144 206.536H37.08L33.928 213.112V217H32.072ZM40.634 217.192C39.9833 217.192 39.3753 217.032 38.81 216.712C38.2447 216.381 37.786 215.912 37.434 215.304C37.082 214.685 36.906 213.944 36.906 213.08C36.906 212.205 37.082 211.464 37.434 210.856C37.786 210.237 38.2447 209.768 38.81 209.448C39.3753 209.117 39.9833 208.952 40.634 208.952C41.2953 208.952 41.9087 209.117 42.474 209.448C43.0393 209.768 43.498 210.237 43.85 210.856C44.202 211.464 44.378 212.205 44.378 213.08C44.378 213.944 44.202 214.685 43.85 215.304C43.498 215.912 43.0393 216.381 42.474 216.712C41.9087 217.032 41.2953 217.192 40.634 217.192ZM40.634 215.688C41.21 215.688 41.6633 215.448 41.994 214.968C42.3247 214.488 42.49 213.859 42.49 213.08C42.49 212.291 42.3247 211.656 41.994 211.176C41.6633 210.696 41.21 210.456 40.634 210.456C40.058 210.456 39.6047 210.696 39.274 211.176C38.954 211.656 38.794 212.291 38.794 213.08C38.794 213.859 38.954 214.488 39.274 214.968C39.6047 215.448 40.058 215.688 40.634 215.688ZM48.5353 217.192C47.6926 217.192 47.0793 216.92 46.6953 216.376C46.3113 215.832 46.1193 215.064 46.1193 214.072V209.144H47.9593V213.832C47.9593 214.483 48.0553 214.941 48.2473 215.208C48.4393 215.475 48.7486 215.608 49.1753 215.608C49.5166 215.608 49.8153 215.523 50.0713 215.352C50.3379 215.181 50.6206 214.904 50.9193 214.52V209.144H52.7593V217H51.2553L51.1113 215.848H51.0633C50.7219 216.253 50.3486 216.579 49.9433 216.824C49.5379 217.069 49.0686 217.192 48.5353 217.192ZM55.0899 217V209.144H56.6099L56.7379 210.536H56.8019C57.0792 210.024 57.4152 209.635 57.8099 209.368C58.2045 209.091 58.6099 208.952 59.0259 208.952C59.3992 208.952 59.6979 209.005 59.9219 209.112L59.6019 210.712C59.4632 210.669 59.3352 210.637 59.2179 210.616C59.1005 210.595 58.9565 210.584 58.7859 210.584C58.4765 210.584 58.1512 210.707 57.8099 210.952C57.4685 211.187 57.1752 211.603 56.9299 212.2V217H55.0899ZM68.5978 217.192C67.7231 217.192 66.9284 216.984 66.2138 216.568C65.4991 216.152 64.9284 215.544 64.5018 214.744C64.0858 213.933 63.8778 212.952 63.8778 211.8C63.8778 210.659 64.0911 209.683 64.5178 208.872C64.9551 208.051 65.5364 207.427 66.2618 207C66.9871 206.563 67.7871 206.344 68.6618 206.344C69.3231 206.344 69.9098 206.477 70.4218 206.744C70.9338 207.011 71.3551 207.32 71.6858 207.672L70.6938 208.872C70.4271 208.595 70.1284 208.376 69.7978 208.216C69.4778 208.045 69.1151 207.96 68.7098 207.96C68.1444 207.96 67.6378 208.115 67.1898 208.424C66.7524 208.723 66.4058 209.155 66.1498 209.72C65.9044 210.285 65.7818 210.963 65.7818 211.752C65.7818 212.947 66.0431 213.885 66.5658 214.568C67.0884 215.24 67.7871 215.576 68.6618 215.576C69.1311 215.576 69.5471 215.48 69.9098 215.288C70.2724 215.085 70.6031 214.824 70.9018 214.504L71.8938 215.672C71.4671 216.163 70.9764 216.541 70.4218 216.808C69.8778 217.064 69.2698 217.192 68.5978 217.192ZM76.6965 217.192C76.0458 217.192 75.4378 217.032 74.8725 216.712C74.3072 216.381 73.8485 215.912 73.4965 215.304C73.1445 214.685 72.9685 213.944 72.9685 213.08C72.9685 212.205 73.1445 211.464 73.4965 210.856C73.8485 210.237 74.3072 209.768 74.8725 209.448C75.4378 209.117 76.0458 208.952 76.6965 208.952C77.3578 208.952 77.9712 209.117 78.5365 209.448C79.1018 209.768 79.5605 210.237 79.9125 210.856C80.2645 211.464 80.4405 212.205 80.4405 213.08C80.4405 213.944 80.2645 214.685 79.9125 215.304C79.5605 215.912 79.1018 216.381 78.5365 216.712C77.9712 217.032 77.3578 217.192 76.6965 217.192ZM76.6965 215.688C77.2725 215.688 77.7258 215.448 78.0565 214.968C78.3872 214.488 78.5525 213.859 78.5525 213.08C78.5525 212.291 78.3872 211.656 78.0565 211.176C77.7258 210.696 77.2725 210.456 76.6965 210.456C76.1205 210.456 75.6672 210.696 75.3365 211.176C75.0165 211.656 74.8565 212.291 74.8565 213.08C74.8565 213.859 75.0165 214.488 75.3365 214.968C75.6672 215.448 76.1205 215.688 76.6965 215.688ZM82.2618 217V209.144H83.7818L83.9098 210.2H83.9738C84.3258 209.859 84.7098 209.565 85.1258 209.32C85.5418 209.075 86.0164 208.952 86.5498 208.952C87.3924 208.952 88.0058 209.224 88.3898 209.768C88.7738 210.312 88.9658 211.08 88.9658 212.072V217H87.1258V212.312C87.1258 211.661 87.0298 211.203 86.8378 210.936C86.6458 210.669 86.3311 210.536 85.8938 210.536C85.5524 210.536 85.2484 210.621 84.9818 210.792C84.7258 210.952 84.4324 211.192 84.1018 211.512V217H82.2618ZM93.9829 217.192C93.0762 217.192 92.4309 216.931 92.0469 216.408C91.6735 215.875 91.4869 215.187 91.4869 214.344V210.6H90.3669V209.224L91.5829 209.144L91.8069 207H93.3429V209.144H95.3429V210.6H93.3429V214.344C93.3429 215.261 93.7109 215.72 94.4469 215.72C94.5855 215.72 94.7295 215.704 94.8789 215.672C95.0282 215.629 95.1562 215.587 95.2629 215.544L95.5829 216.904C95.3695 216.979 95.1242 217.043 94.8469 217.096C94.5802 217.16 94.2922 217.192 93.9829 217.192ZM100.106 217.192C99.3808 217.192 98.7248 217.032 98.1381 216.712C97.5515 216.381 97.0875 215.912 96.7461 215.304C96.4048 214.685 96.2341 213.944 96.2341 213.08C96.2341 212.227 96.4048 211.491 96.7461 210.872C97.0981 210.253 97.5515 209.779 98.1061 209.448C98.6608 209.117 99.2421 208.952 99.8501 208.952C100.565 208.952 101.162 209.112 101.642 209.432C102.122 209.741 102.485 210.179 102.73 210.744C102.975 211.299 103.098 211.944 103.098 212.68C103.098 213.064 103.071 213.363 103.018 213.576H98.0261C98.1115 214.269 98.3621 214.808 98.7781 215.192C99.1941 215.576 99.7168 215.768 100.346 215.768C100.687 215.768 101.002 215.72 101.29 215.624C101.589 215.517 101.882 215.373 102.17 215.192L102.794 216.344C102.421 216.589 102.005 216.792 101.546 216.952C101.087 217.112 100.607 217.192 100.106 217.192ZM98.0101 212.328H101.498C101.498 211.72 101.365 211.245 101.098 210.904C100.831 210.552 100.431 210.376 99.8981 210.376C99.4395 210.376 99.0288 210.547 98.6661 210.888C98.3141 211.219 98.0955 211.699 98.0101 212.328ZM104.856 217V209.144H106.376L106.504 210.2H106.568C106.92 209.859 107.304 209.565 107.72 209.32C108.136 209.075 108.61 208.952 109.144 208.952C109.986 208.952 110.6 209.224 110.984 209.768C111.368 210.312 111.56 211.08 111.56 212.072V217H109.72V212.312C109.72 211.661 109.624 211.203 109.432 210.936C109.24 210.669 108.925 210.536 108.488 210.536C108.146 210.536 107.842 210.621 107.576 210.792C107.32 210.952 107.026 211.192 106.696 211.512V217H104.856ZM116.577 217.192C115.67 217.192 115.025 216.931 114.641 216.408C114.267 215.875 114.081 215.187 114.081 214.344V210.6H112.961V209.224L114.177 209.144L114.401 207H115.937V209.144H117.937V210.6H115.937V214.344C115.937 215.261 116.305 215.72 117.041 215.72C117.179 215.72 117.323 215.704 117.473 215.672C117.622 215.629 117.75 215.587 117.857 215.544L118.177 216.904C117.963 216.979 117.718 217.043 117.441 217.096C117.174 217.16 116.886 217.192 116.577 217.192ZM122.953 217V206.536H124.809V210.744H129.049V206.536H130.905V217H129.049V212.36H124.809V217H122.953ZM135.738 217.192C134.896 217.192 134.282 216.92 133.898 216.376C133.514 215.832 133.322 215.064 133.322 214.072V209.144H135.162V213.832C135.162 214.483 135.258 214.941 135.45 215.208C135.642 215.475 135.952 215.608 136.378 215.608C136.72 215.608 137.018 215.523 137.274 215.352C137.541 215.181 137.824 214.904 138.122 214.52V209.144H139.962V217H138.458L138.314 215.848H138.266C137.925 216.253 137.552 216.579 137.146 216.824C136.741 217.069 136.272 217.192 135.738 217.192ZM146.101 217.192C145.354 217.192 144.64 216.851 143.957 216.168H143.909L143.749 217H142.293V205.704H144.133V208.616L144.085 209.928C144.416 209.64 144.778 209.405 145.173 209.224C145.568 209.043 145.962 208.952 146.357 208.952C147.338 208.952 148.101 209.315 148.645 210.04C149.189 210.765 149.461 211.731 149.461 212.936C149.461 213.832 149.301 214.6 148.981 215.24C148.661 215.869 148.245 216.355 147.733 216.696C147.232 217.027 146.688 217.192 146.101 217.192ZM145.717 215.672C146.24 215.672 146.677 215.443 147.029 214.984C147.381 214.525 147.557 213.853 147.557 212.968C147.557 212.179 147.424 211.565 147.157 211.128C146.89 210.691 146.458 210.472 145.861 210.472C145.306 210.472 144.73 210.765 144.133 211.352V215.016C144.41 215.251 144.682 215.421 144.949 215.528C145.226 215.624 145.482 215.672 145.717 215.672Z" fill="#5C5C5C"/>
<path d="M15.5263 216.909H7.42105C7.01579 216.909 6.66886 216.758 6.38026 216.455C6.09167 216.152 5.94737 215.789 5.94737 215.364V204.545C5.94737 204.12 6.09167 203.757 6.38026 203.454C6.66886 203.151 7.01579 203 7.42105 203H12.5789L17 207.636V215.364C17 215.789 16.8557 216.152 16.5671 216.455C16.2785 216.758 15.9316 216.909 15.5263 216.909ZM11.8421 208.409V204.545H7.42105V215.364H15.5263V208.409H11.8421ZM4.47368 220C4.06842 220 3.72149 219.849 3.43289 219.546C3.1443 219.243 3 218.88 3 218.455V207.636H4.47368V218.455H12.5789V220H4.47368Z" fill="#5C5C5C"/>
</svg>
