<svg width="216" height="3722" viewBox="0 0 216 3722" fill="none" xmlns="http://www.w3.org/2000/svg">
<rect x="2" y="3681" width="145" height="41" rx="4" stroke="#FACE00"/>
<path d="M143 3681C145.209 3681 147 3682.79 147 3685V3718C147 3720.21 145.209 3722 143 3722H6C3.79086 3722 2 3720.21 2 3718V3685C2 3682.79 3.79086 3681 6 3681H143Z" stroke="white"/>
<path d="M2 3685C2 3682.79 3.79086 3681 6 3681H143C145.209 3681 147 3682.79 147 3685V3718C147 3720.21 145.209 3722 143 3722H6C3.79086 3722 2 3720.21 2 3718V3685Z" fill="white"/>
<path fill-rule="evenodd" clip-rule="evenodd" d="M22 3701.5L23.41 3702.91L29 3697.33V3709.5H31V3697.33L36.58 3702.92L38 3701.5L30 3693.5L22 3701.5Z" fill="#005EA2"/>
<path d="M47.3059 3707V3695.94H51.088C51.8569 3695.94 52.5466 3696.03 53.1571 3696.2C53.7677 3696.35 54.2539 3696.63 54.6157 3697.03C54.9775 3697.42 55.1584 3697.98 55.1584 3698.69C55.1584 3699.18 55.0284 3699.66 54.7683 3700.13C54.5196 3700.59 54.1691 3700.91 53.7168 3701.08V3701.15C54.2821 3701.3 54.7514 3701.58 55.1245 3702.01C55.5089 3702.43 55.7011 3703.01 55.7011 3703.74C55.7011 3704.5 55.5089 3705.12 55.1245 3705.59C54.7401 3706.07 54.2256 3706.42 53.5811 3706.66C52.9366 3706.89 52.213 3707 51.4102 3707H47.3059ZM49.799 3700.37H50.9693C51.5798 3700.37 52.0208 3700.25 52.2922 3700.01C52.5748 3699.78 52.7162 3699.46 52.7162 3699.06C52.7162 3698.63 52.5748 3698.33 52.2922 3698.15C52.0095 3697.97 51.5742 3697.88 50.9862 3697.88H49.799V3700.37ZM49.799 3705.07H51.2067C52.5748 3705.07 53.2589 3704.57 53.2589 3703.57C53.2589 3703.09 53.0893 3702.74 52.7501 3702.54C52.4109 3702.32 51.8964 3702.22 51.2067 3702.22H49.799V3705.07ZM59.4911 3707.2C58.7223 3707.2 58.1117 3706.96 57.6595 3706.47C57.2072 3705.98 56.9811 3705.37 56.9811 3704.66C56.9811 3703.78 57.3542 3703.09 58.1004 3702.59C58.8467 3702.09 60.0508 3701.76 61.7129 3701.59C61.6903 3701.22 61.5772 3700.92 61.3737 3700.71C61.1815 3700.48 60.8536 3700.37 60.39 3700.37C60.0395 3700.37 59.6834 3700.44 59.3215 3700.57C58.9597 3700.71 58.5753 3700.89 58.1683 3701.13L57.2694 3699.49C57.8008 3699.16 58.3661 3698.89 58.9654 3698.69C59.5759 3698.49 60.2091 3698.38 60.8649 3698.38C61.939 3698.38 62.7644 3698.7 63.3411 3699.32C63.9177 3699.94 64.206 3700.89 64.206 3702.18V3707H62.1708L62.0012 3706.14H61.9334C61.5829 3706.45 61.2041 3706.71 60.7971 3706.92C60.4013 3707.11 59.966 3707.2 59.4911 3707.2ZM60.3391 3705.27C60.6218 3705.27 60.8649 3705.21 61.0684 3705.08C61.2833 3704.95 61.4981 3704.77 61.7129 3704.56V3703.08C60.831 3703.2 60.2204 3703.38 59.8812 3703.62C59.542 3703.86 59.3724 3704.15 59.3724 3704.47C59.3724 3704.74 59.4572 3704.95 59.6268 3705.08C59.8077 3705.21 60.0452 3705.27 60.3391 3705.27ZM69.9783 3707.2C69.1981 3707.2 68.4914 3707.03 67.8583 3706.69C67.2364 3706.34 66.7389 3705.84 66.3658 3705.19C66.004 3704.52 65.8231 3703.72 65.8231 3702.79C65.8231 3701.86 66.0266 3701.06 66.4336 3700.4C66.8407 3699.75 67.3777 3699.25 68.0448 3698.91C68.7119 3698.56 69.4299 3698.38 70.1987 3698.38C70.7188 3698.38 71.1768 3698.47 71.5725 3698.64C71.9795 3698.81 72.3414 3699.02 72.6579 3699.28L71.4877 3700.89C71.092 3700.57 70.7132 3700.4 70.3514 3700.4C69.7521 3700.4 69.2716 3700.62 68.9098 3701.05C68.5593 3701.48 68.384 3702.06 68.384 3702.79C68.384 3703.52 68.5593 3704.1 68.9098 3704.54C69.2716 3704.97 69.7239 3705.19 70.2666 3705.19C70.5379 3705.19 70.8036 3705.13 71.0637 3705.02C71.3238 3704.89 71.5612 3704.74 71.776 3704.57L72.7597 3706.2C72.3414 3706.56 71.8891 3706.82 71.4029 3706.98C70.9167 3707.13 70.4418 3707.2 69.9783 3707.2ZM74.2318 3707V3695.11H76.6571V3701.93H76.7249L79.3876 3698.59H82.1012L79.1502 3702.05L82.3217 3707H79.6251L77.7255 3703.73L76.6571 3704.93V3707H74.2318ZM90.158 3707.2C89.1178 3707.2 88.3716 3706.9 87.9193 3706.3C87.4783 3705.71 87.2578 3704.92 87.2578 3703.95V3700.54H86.1046V3698.69L87.3935 3698.59L87.6818 3696.35H89.751V3698.59H91.7692V3700.54H89.751V3703.91C89.751 3704.39 89.8471 3704.73 90.0393 3704.95C90.2428 3705.15 90.5085 3705.25 90.8364 3705.25C90.9721 3705.25 91.1078 3705.24 91.2434 3705.2C91.3904 3705.17 91.5205 3705.13 91.6335 3705.08L92.0236 3706.9C91.8088 3706.97 91.5431 3707.03 91.2265 3707.1C90.9212 3707.17 90.565 3707.2 90.158 3707.2ZM96.7255 3707.2C96.0132 3707.2 95.3404 3707.03 94.7073 3706.69C94.0854 3706.34 93.5822 3705.84 93.1978 3705.19C92.8134 3704.52 92.6212 3703.72 92.6212 3702.79C92.6212 3701.86 92.8134 3701.06 93.1978 3700.4C93.5822 3699.75 94.0854 3699.25 94.7073 3698.91C95.3404 3698.56 96.0132 3698.38 96.7255 3698.38C97.4378 3698.38 98.1049 3698.56 98.7268 3698.91C99.3486 3699.25 99.8518 3699.75 100.236 3700.4C100.621 3701.06 100.813 3701.86 100.813 3702.79C100.813 3703.72 100.621 3704.52 100.236 3705.19C99.8518 3705.84 99.3486 3706.34 98.7268 3706.69C98.1049 3707.03 97.4378 3707.2 96.7255 3707.2ZM96.7255 3705.19C97.2343 3705.19 97.6187 3704.97 97.8788 3704.54C98.1388 3704.1 98.2689 3703.52 98.2689 3702.79C98.2689 3702.06 98.1388 3701.48 97.8788 3701.05C97.6187 3700.62 97.2343 3700.4 96.7255 3700.4C96.2054 3700.4 95.8153 3700.62 95.5553 3701.05C95.3065 3701.48 95.1821 3702.06 95.1821 3702.79C95.1821 3703.52 95.3065 3704.1 95.5553 3704.54C95.8153 3704.97 96.2054 3705.19 96.7255 3705.19ZM109.155 3707.2C108.115 3707.2 107.369 3706.9 106.916 3706.3C106.476 3705.71 106.255 3704.92 106.255 3703.95V3700.54H105.102V3698.69L106.391 3698.59L106.679 3696.35H108.748V3698.59H110.766V3700.54H108.748V3703.91C108.748 3704.39 108.844 3704.73 109.036 3704.95C109.24 3705.15 109.506 3705.25 109.834 3705.25C109.969 3705.25 110.105 3705.24 110.241 3705.2C110.388 3705.17 110.518 3705.13 110.631 3705.08L111.021 3706.9C110.806 3706.97 110.54 3707.03 110.224 3707.1C109.918 3707.17 109.562 3707.2 109.155 3707.2ZM115.723 3707.2C115.01 3707.2 114.338 3707.03 113.704 3706.69C113.083 3706.34 112.579 3705.84 112.195 3705.19C111.811 3704.52 111.618 3703.72 111.618 3702.79C111.618 3701.86 111.811 3701.06 112.195 3700.4C112.579 3699.75 113.083 3699.25 113.704 3698.91C114.338 3698.56 115.01 3698.38 115.723 3698.38C116.435 3698.38 117.102 3698.56 117.724 3698.91C118.346 3699.25 118.849 3699.75 119.233 3700.4C119.618 3701.06 119.81 3701.86 119.81 3702.79C119.81 3703.72 119.618 3704.52 119.233 3705.19C118.849 3705.84 118.346 3706.34 117.724 3706.69C117.102 3707.03 116.435 3707.2 115.723 3707.2ZM115.723 3705.19C116.231 3705.19 116.616 3704.97 116.876 3704.54C117.136 3704.1 117.266 3703.52 117.266 3702.79C117.266 3702.06 117.136 3701.48 116.876 3701.05C116.616 3700.62 116.231 3700.4 115.723 3700.4C115.203 3700.4 114.812 3700.62 114.552 3701.05C114.304 3701.48 114.179 3702.06 114.179 3702.79C114.179 3703.52 114.304 3704.1 114.552 3704.54C114.812 3704.97 115.203 3705.19 115.723 3705.19ZM121.518 3710.12V3698.59H123.553L123.723 3699.42H123.79C124.118 3699.12 124.486 3698.88 124.893 3698.69C125.311 3698.49 125.741 3698.38 126.182 3698.38C127.199 3698.38 128.002 3698.77 128.59 3699.55C129.178 3700.32 129.472 3701.36 129.472 3702.66C129.472 3703.62 129.302 3704.44 128.963 3705.12C128.624 3705.8 128.183 3706.32 127.64 3706.68C127.109 3707.03 126.538 3707.2 125.927 3707.2C125.565 3707.2 125.215 3707.13 124.876 3706.98C124.537 3706.82 124.22 3706.6 123.926 3706.32L124.011 3707.66V3710.12H121.518ZM125.351 3705.17C125.78 3705.17 126.148 3704.97 126.453 3704.57C126.758 3704.18 126.911 3703.55 126.911 3702.69C126.911 3701.18 126.425 3700.42 125.452 3700.42C124.966 3700.42 124.486 3700.67 124.011 3701.18V3704.63C124.237 3704.83 124.463 3704.97 124.689 3705.05C124.915 3705.13 125.136 3705.17 125.351 3705.17Z" fill="#005EA2"/>
<path d="M46 3708.27H130.133V3709.12H46V3708.27Z" fill="#005EA2"/>
<path fill-rule="evenodd" clip-rule="evenodd" d="M12.4999 271.023L11.7145 270.308C8.92492 267.778 7.08325 266.11 7.08325 264.062C7.08325 262.394 8.39409 261.083 10.0624 261.083C11.0049 261.083 11.9095 261.522 12.4999 262.215C13.0903 261.522 13.9949 261.083 14.9374 261.083C16.6058 261.083 17.9166 262.394 17.9166 264.062C17.9166 266.11 16.0749 267.778 13.2853 270.313L12.4999 271.023Z" fill="#5C5C5C"/>
<path d="M33.328 272V261.536H39.648V263.104H35.184V266.064H38.992V267.632H35.184V272H33.328ZM42.6501 272.192C41.9675 272.192 41.4075 271.979 40.9701 271.552C40.5435 271.125 40.3301 270.571 40.3301 269.888C40.3301 269.045 40.6981 268.395 41.4341 267.936C42.1701 267.467 43.3435 267.147 44.9541 266.976C44.9435 266.56 44.8315 266.203 44.6181 265.904C44.4155 265.595 44.0475 265.44 43.5141 265.44C43.1301 265.44 42.7515 265.515 42.3781 265.664C42.0155 265.813 41.6581 265.995 41.3061 266.208L40.6341 264.976C41.0715 264.699 41.5621 264.459 42.1061 264.256C42.6608 264.053 43.2475 263.952 43.8661 263.952C44.8475 263.952 45.5781 264.245 46.0581 264.832C46.5488 265.408 46.7941 266.245 46.7941 267.344V272H45.2741L45.1461 271.136H45.0821C44.7301 271.435 44.3515 271.685 43.9461 271.888C43.5515 272.091 43.1195 272.192 42.6501 272.192ZM43.2421 270.752C43.5621 270.752 43.8501 270.677 44.1061 270.528C44.3728 270.368 44.6555 270.155 44.9541 269.888V268.128C43.8875 268.267 43.1461 268.475 42.7301 268.752C42.3141 269.019 42.1061 269.349 42.1061 269.744C42.1061 270.096 42.2128 270.352 42.4261 270.512C42.6395 270.672 42.9115 270.752 43.2421 270.752ZM50.7561 272L48.0201 264.144H49.8921L51.1401 268.224C51.2468 268.608 51.3535 268.997 51.4601 269.392C51.5775 269.787 51.6895 270.187 51.7961 270.592H51.8601C51.9775 270.187 52.0895 269.787 52.1961 269.392C52.3135 268.997 52.4255 268.608 52.5321 268.224L53.7801 264.144H55.5561L52.8841 272H50.7561ZM60.0403 272.192C59.3896 272.192 58.7816 272.032 58.2163 271.712C57.6509 271.381 57.1923 270.912 56.8403 270.304C56.4883 269.685 56.3123 268.944 56.3123 268.08C56.3123 267.205 56.4883 266.464 56.8403 265.856C57.1923 265.237 57.6509 264.768 58.2163 264.448C58.7816 264.117 59.3896 263.952 60.0403 263.952C60.7016 263.952 61.3149 264.117 61.8803 264.448C62.4456 264.768 62.9043 265.237 63.2563 265.856C63.6083 266.464 63.7843 267.205 63.7843 268.08C63.7843 268.944 63.6083 269.685 63.2563 270.304C62.9043 270.912 62.4456 271.381 61.8803 271.712C61.3149 272.032 60.7016 272.192 60.0403 272.192ZM60.0403 270.688C60.6163 270.688 61.0696 270.448 61.4003 269.968C61.7309 269.488 61.8963 268.859 61.8963 268.08C61.8963 267.291 61.7309 266.656 61.4003 266.176C61.0696 265.696 60.6163 265.456 60.0403 265.456C59.4643 265.456 59.0109 265.696 58.6803 266.176C58.3603 266.656 58.2003 267.291 58.2003 268.08C58.2003 268.859 58.3603 269.488 58.6803 269.968C59.0109 270.448 59.4643 270.688 60.0403 270.688ZM65.6055 272V264.144H67.1255L67.2535 265.536H67.3175C67.5948 265.024 67.9308 264.635 68.3255 264.368C68.7202 264.091 69.1255 263.952 69.5415 263.952C69.9148 263.952 70.2135 264.005 70.4375 264.112L70.1175 265.712C69.9788 265.669 69.8508 265.637 69.7335 265.616C69.6162 265.595 69.4722 265.584 69.3015 265.584C68.9922 265.584 68.6668 265.707 68.3255 265.952C67.9842 266.187 67.6908 266.603 67.4455 267.2V272H65.6055ZM71.5743 272V264.144H73.4143V272H71.5743ZM72.5023 262.768C72.1716 262.768 71.9049 262.672 71.7023 262.48C71.4996 262.288 71.3983 262.032 71.3983 261.712C71.3983 261.403 71.4996 261.152 71.7023 260.96C71.9049 260.768 72.1716 260.672 72.5023 260.672C72.8329 260.672 73.0996 260.768 73.3023 260.96C73.5049 261.152 73.6063 261.403 73.6063 261.712C73.6063 262.032 73.5049 262.288 73.3023 262.48C73.0996 262.672 72.8329 262.768 72.5023 262.768ZM78.5298 272.192C77.6231 272.192 76.9778 271.931 76.5938 271.408C76.2204 270.875 76.0338 270.187 76.0338 269.344V265.6H74.9138V264.224L76.1298 264.144L76.3538 262H77.8898V264.144H79.8898V265.6H77.8898V269.344C77.8898 270.261 78.2578 270.72 78.9938 270.72C79.1324 270.72 79.2764 270.704 79.4258 270.672C79.5751 270.629 79.7031 270.587 79.8098 270.544L80.1298 271.904C79.9164 271.979 79.6711 272.043 79.3938 272.096C79.1271 272.16 78.8391 272.192 78.5298 272.192ZM84.653 272.192C83.9277 272.192 83.2717 272.032 82.685 271.712C82.0983 271.381 81.6343 270.912 81.293 270.304C80.9517 269.685 80.781 268.944 80.781 268.08C80.781 267.227 80.9517 266.491 81.293 265.872C81.645 265.253 82.0983 264.779 82.653 264.448C83.2077 264.117 83.789 263.952 84.397 263.952C85.1117 263.952 85.709 264.112 86.189 264.432C86.669 264.741 87.0317 265.179 87.277 265.744C87.5223 266.299 87.645 266.944 87.645 267.68C87.645 268.064 87.6183 268.363 87.565 268.576H82.573C82.6583 269.269 82.909 269.808 83.325 270.192C83.741 270.576 84.2637 270.768 84.893 270.768C85.2343 270.768 85.549 270.72 85.837 270.624C86.1357 270.517 86.429 270.373 86.717 270.192L87.341 271.344C86.9677 271.589 86.5517 271.792 86.093 271.952C85.6343 272.112 85.1543 272.192 84.653 272.192ZM82.557 267.328H86.045C86.045 266.72 85.9117 266.245 85.645 265.904C85.3783 265.552 84.9783 265.376 84.445 265.376C83.9863 265.376 83.5757 265.547 83.213 265.888C82.861 266.219 82.6423 266.699 82.557 267.328ZM91.5944 272.192C91.061 272.192 90.5277 272.091 89.9944 271.888C89.461 271.675 89.0024 271.413 88.6184 271.104L89.4824 269.92C89.8344 270.187 90.1864 270.4 90.5384 270.56C90.8904 270.72 91.2637 270.8 91.6584 270.8C92.085 270.8 92.3997 270.709 92.6024 270.528C92.805 270.347 92.9064 270.123 92.9064 269.856C92.9064 269.632 92.821 269.451 92.6504 269.312C92.4904 269.163 92.2824 269.035 92.0264 268.928C91.7704 268.811 91.5037 268.699 91.2264 268.592C90.885 268.464 90.5437 268.309 90.2024 268.128C89.8717 267.936 89.5997 267.696 89.3864 267.408C89.173 267.109 89.0664 266.741 89.0664 266.304C89.0664 265.611 89.3224 265.045 89.8344 264.608C90.3464 264.171 91.0397 263.952 91.9144 263.952C92.469 263.952 92.965 264.048 93.4024 264.24C93.8397 264.432 94.2184 264.651 94.5384 264.896L93.6904 266.016C93.413 265.813 93.1304 265.653 92.8424 265.536C92.565 265.408 92.2717 265.344 91.9624 265.344C91.5677 265.344 91.2744 265.429 91.0824 265.6C90.8904 265.76 90.7944 265.963 90.7944 266.208C90.7944 266.517 90.9544 266.752 91.2744 266.912C91.5944 267.072 91.9677 267.227 92.3944 267.376C92.757 267.504 93.109 267.664 93.4504 267.856C93.7917 268.037 94.0744 268.277 94.2984 268.576C94.533 268.875 94.6504 269.269 94.6504 269.76C94.6504 270.432 94.389 271.008 93.8664 271.488C93.3437 271.957 92.5864 272.192 91.5944 272.192Z" fill="#5C5C5C"/>
<path d="M7.33333 310C6.96667 310 6.65278 309.873 6.39167 309.618C6.13056 309.364 6 309.057 6 308.7V299.6C6 299.242 6.13056 298.936 6.39167 298.682C6.65278 298.427 6.96667 298.3 7.33333 298.3H10.1333C10.2889 297.91 10.5333 297.596 10.8667 297.357C11.2 297.119 11.5778 297 12 297C12.4222 297 12.8 297.119 13.1333 297.357C13.4667 297.596 13.7111 297.91 13.8667 298.3H16.6667C17.0333 298.3 17.3472 298.427 17.6083 298.682C17.8694 298.936 18 299.242 18 299.6V308.7C18 309.057 17.8694 309.364 17.6083 309.618C17.3472 309.873 17.0333 310 16.6667 310H7.33333ZM12 299.112C12.1444 299.112 12.2639 299.066 12.3583 298.974C12.4528 298.882 12.5 298.766 12.5 298.625C12.5 298.484 12.4528 298.368 12.3583 298.276C12.2639 298.184 12.1444 298.137 12 298.137C11.8556 298.137 11.7361 298.184 11.6417 298.276C11.5472 298.368 11.5 298.484 11.5 298.625C11.5 298.766 11.5472 298.882 11.6417 298.974C11.7361 299.066 11.8556 299.112 12 299.112ZM7.33333 307.953C7.93333 307.378 8.63056 306.926 9.425 306.596C10.2194 306.265 11.0778 306.1 12 306.1C12.9222 306.1 13.7806 306.265 14.575 306.596C15.3694 306.926 16.0667 307.378 16.6667 307.953V299.6H7.33333V307.953ZM12 304.8C12.6444 304.8 13.1944 304.578 13.65 304.134C14.1056 303.69 14.3333 303.153 14.3333 302.525C14.3333 301.897 14.1056 301.36 13.65 300.916C13.1944 300.472 12.6444 300.25 12 300.25C11.3556 300.25 10.8056 300.472 10.35 300.916C9.89444 301.36 9.66667 301.897 9.66667 302.525C9.66667 303.153 9.89444 303.69 10.35 304.134C10.8056 304.578 11.3556 304.8 12 304.8Z" fill="#5C5C5C"/>
<path d="M35.472 303.432L35.104 304.712H37.776L37.408 303.432C37.2373 302.877 37.072 302.307 36.912 301.72C36.7627 301.133 36.6133 300.552 36.464 299.976H36.4C36.2613 300.563 36.112 301.149 35.952 301.736C35.8027 302.312 35.6427 302.877 35.472 303.432ZM31.968 309L35.376 298.536H37.552L40.96 309H39.008L38.192 306.168H34.672L33.856 309H31.968ZM44.5631 309.192C44.0298 309.192 43.4965 309.091 42.9631 308.888C42.4298 308.675 41.9711 308.413 41.5871 308.104L42.4511 306.92C42.8031 307.187 43.1551 307.4 43.5071 307.56C43.8591 307.72 44.2325 307.8 44.6271 307.8C45.0538 307.8 45.3685 307.709 45.5711 307.528C45.7738 307.347 45.8751 307.123 45.8751 306.856C45.8751 306.632 45.7898 306.451 45.6191 306.312C45.4591 306.163 45.2511 306.035 44.9951 305.928C44.7391 305.811 44.4725 305.699 44.1951 305.592C43.8538 305.464 43.5125 305.309 43.1711 305.128C42.8405 304.936 42.5685 304.696 42.3551 304.408C42.1418 304.109 42.0351 303.741 42.0351 303.304C42.0351 302.611 42.2911 302.045 42.8031 301.608C43.3151 301.171 44.0085 300.952 44.8831 300.952C45.4378 300.952 45.9338 301.048 46.3711 301.24C46.8085 301.432 47.1871 301.651 47.5071 301.896L46.6591 303.016C46.3818 302.813 46.0991 302.653 45.8111 302.536C45.5338 302.408 45.2405 302.344 44.9311 302.344C44.5365 302.344 44.2431 302.429 44.0511 302.6C43.8591 302.76 43.7631 302.963 43.7631 303.208C43.7631 303.517 43.9231 303.752 44.2431 303.912C44.5631 304.072 44.9365 304.227 45.3631 304.376C45.7258 304.504 46.0778 304.664 46.4191 304.856C46.7605 305.037 47.0431 305.277 47.2671 305.576C47.5018 305.875 47.6191 306.269 47.6191 306.76C47.6191 307.432 47.3578 308.008 46.8351 308.488C46.3125 308.957 45.5551 309.192 44.5631 309.192ZM51.4538 309.192C50.9204 309.192 50.3871 309.091 49.8538 308.888C49.3204 308.675 48.8618 308.413 48.4778 308.104L49.3418 306.92C49.6938 307.187 50.0458 307.4 50.3978 307.56C50.7498 307.72 51.1231 307.8 51.5178 307.8C51.9444 307.8 52.2591 307.709 52.4618 307.528C52.6644 307.347 52.7658 307.123 52.7658 306.856C52.7658 306.632 52.6804 306.451 52.5098 306.312C52.3498 306.163 52.1418 306.035 51.8858 305.928C51.6298 305.811 51.3631 305.699 51.0858 305.592C50.7444 305.464 50.4031 305.309 50.0618 305.128C49.7311 304.936 49.4591 304.696 49.2458 304.408C49.0324 304.109 48.9258 303.741 48.9258 303.304C48.9258 302.611 49.1818 302.045 49.6938 301.608C50.2058 301.171 50.8991 300.952 51.7738 300.952C52.3284 300.952 52.8244 301.048 53.2618 301.24C53.6991 301.432 54.0778 301.651 54.3978 301.896L53.5498 303.016C53.2724 302.813 52.9898 302.653 52.7018 302.536C52.4244 302.408 52.1311 302.344 51.8218 302.344C51.4271 302.344 51.1338 302.429 50.9418 302.6C50.7498 302.76 50.6538 302.963 50.6538 303.208C50.6538 303.517 50.8138 303.752 51.1338 303.912C51.4538 304.072 51.8271 304.227 52.2538 304.376C52.6164 304.504 52.9684 304.664 53.3098 304.856C53.6511 305.037 53.9338 305.277 54.1578 305.576C54.3924 305.875 54.5098 306.269 54.5098 306.76C54.5098 307.432 54.2484 308.008 53.7258 308.488C53.2031 308.957 52.4458 309.192 51.4538 309.192ZM56.1524 309V301.144H57.9924V309H56.1524ZM57.0804 299.768C56.7497 299.768 56.483 299.672 56.2804 299.48C56.0777 299.288 55.9764 299.032 55.9764 298.712C55.9764 298.403 56.0777 298.152 56.2804 297.96C56.483 297.768 56.7497 297.672 57.0804 297.672C57.411 297.672 57.6777 297.768 57.8804 297.96C58.083 298.152 58.1844 298.403 58.1844 298.712C58.1844 299.032 58.083 299.288 57.8804 299.48C57.6777 299.672 57.411 299.768 57.0804 299.768ZM63.0759 312.472C62.4572 312.472 61.8972 312.397 61.3959 312.248C60.9052 312.099 60.5159 311.869 60.2279 311.56C59.9505 311.261 59.8119 310.883 59.8119 310.424C59.8119 309.773 60.1852 309.213 60.9319 308.744V308.68C60.7292 308.552 60.5585 308.381 60.4199 308.168C60.2919 307.955 60.2279 307.688 60.2279 307.368C60.2279 307.059 60.3132 306.781 60.4839 306.536C60.6652 306.28 60.8679 306.072 61.0919 305.912V305.848C60.8252 305.645 60.5852 305.363 60.3719 305C60.1692 304.637 60.0679 304.227 60.0679 303.768C60.0679 303.16 60.2119 302.648 60.4999 302.232C60.7879 301.816 61.1665 301.501 61.6359 301.288C62.1159 301.064 62.6279 300.952 63.1719 300.952C63.3852 300.952 63.5879 300.973 63.7799 301.016C63.9825 301.048 64.1639 301.091 64.3239 301.144H67.1399V302.504H65.6999C65.8279 302.653 65.9345 302.845 66.0199 303.08C66.1052 303.304 66.1479 303.555 66.1479 303.832C66.1479 304.408 66.0145 304.899 65.7479 305.304C65.4812 305.699 65.1239 305.997 64.6759 306.2C64.2279 306.403 63.7265 306.504 63.1719 306.504C63.0012 306.504 62.8252 306.488 62.6439 306.456C62.4625 306.424 62.2812 306.371 62.0999 306.296C61.9825 306.403 61.8865 306.509 61.8119 306.616C61.7479 306.723 61.7159 306.867 61.7159 307.048C61.7159 307.272 61.8065 307.448 61.9879 307.576C62.1799 307.704 62.5159 307.768 62.9959 307.768H64.3879C65.3372 307.768 66.0519 307.923 66.5319 308.232C67.0225 308.531 67.2679 309.021 67.2679 309.704C67.2679 310.216 67.0972 310.68 66.7559 311.096C66.4145 311.523 65.9292 311.859 65.2999 312.104C64.6705 312.349 63.9292 312.472 63.0759 312.472ZM63.1719 305.352C63.5452 305.352 63.8652 305.213 64.1319 304.936C64.3985 304.659 64.5319 304.269 64.5319 303.768C64.5319 303.277 64.3985 302.899 64.1319 302.632C63.8759 302.355 63.5559 302.216 63.1719 302.216C62.7879 302.216 62.4625 302.349 62.1959 302.616C61.9292 302.883 61.7959 303.267 61.7959 303.768C61.7959 304.269 61.9292 304.659 62.1959 304.936C62.4625 305.213 62.7879 305.352 63.1719 305.352ZM63.3639 311.272C63.9932 311.272 64.5052 311.144 64.8999 310.888C65.2945 310.632 65.4919 310.339 65.4919 310.008C65.4919 309.699 65.3692 309.491 65.1239 309.384C64.8892 309.277 64.5479 309.224 64.0999 309.224H63.0279C62.6012 309.224 62.2439 309.187 61.9559 309.112C61.5505 309.421 61.3479 309.768 61.3479 310.152C61.3479 310.504 61.5292 310.776 61.8919 310.968C62.2545 311.171 62.7452 311.272 63.3639 311.272ZM68.6524 309V301.144H70.1724L70.3004 302.2H70.3644C70.7164 301.859 71.1004 301.565 71.5164 301.32C71.9324 301.075 72.407 300.952 72.9404 300.952C73.783 300.952 74.3964 301.224 74.7804 301.768C75.1644 302.312 75.3564 303.08 75.3564 304.072V309H73.5164V304.312C73.5164 303.661 73.4204 303.203 73.2284 302.936C73.0364 302.669 72.7217 302.536 72.2844 302.536C71.943 302.536 71.639 302.621 71.3724 302.792C71.1164 302.952 70.823 303.192 70.4924 303.512V309H68.6524ZM80.9655 309.192C80.2402 309.192 79.5842 309.032 78.9975 308.712C78.4108 308.381 77.9468 307.912 77.6055 307.304C77.2642 306.685 77.0935 305.944 77.0935 305.08C77.0935 304.227 77.2642 303.491 77.6055 302.872C77.9575 302.253 78.4108 301.779 78.9655 301.448C79.5202 301.117 80.1015 300.952 80.7095 300.952C81.4242 300.952 82.0215 301.112 82.5015 301.432C82.9815 301.741 83.3442 302.179 83.5895 302.744C83.8348 303.299 83.9575 303.944 83.9575 304.68C83.9575 305.064 83.9308 305.363 83.8775 305.576H78.8855C78.9708 306.269 79.2215 306.808 79.6375 307.192C80.0535 307.576 80.5762 307.768 81.2055 307.768C81.5468 307.768 81.8615 307.72 82.1495 307.624C82.4482 307.517 82.7415 307.373 83.0295 307.192L83.6535 308.344C83.2802 308.589 82.8642 308.792 82.4055 308.952C81.9468 309.112 81.4668 309.192 80.9655 309.192ZM78.8695 304.328H82.3575C82.3575 303.72 82.2242 303.245 81.9575 302.904C81.6908 302.552 81.2908 302.376 80.7575 302.376C80.2988 302.376 79.8882 302.547 79.5255 302.888C79.1735 303.219 78.9548 303.699 78.8695 304.328ZM88.4669 309.192C87.4855 309.192 86.7015 308.829 86.1149 308.104C85.5282 307.379 85.2349 306.371 85.2349 305.08C85.2349 304.227 85.3895 303.491 85.6989 302.872C86.0189 302.253 86.4349 301.779 86.9469 301.448C87.4589 301.117 87.9975 300.952 88.5629 300.952C89.0109 300.952 89.3895 301.032 89.6989 301.192C90.0189 301.341 90.3282 301.549 90.6269 301.816L90.5629 300.552V297.704H92.4029V309H90.8829L90.7549 308.152H90.6909C90.4029 308.44 90.0669 308.685 89.6829 308.888C89.2989 309.091 88.8935 309.192 88.4669 309.192ZM88.9149 307.672C89.5015 307.672 90.0509 307.379 90.5629 306.792V303.128C90.2962 302.883 90.0295 302.712 89.7629 302.616C89.4962 302.52 89.2295 302.472 88.9629 302.472C88.4615 302.472 88.0295 302.701 87.6669 303.16C87.3149 303.608 87.1389 304.243 87.1389 305.064C87.1389 305.907 87.2935 306.552 87.6029 307C87.9122 307.448 88.3495 307.672 88.9149 307.672ZM100.717 309.192C99.8106 309.192 99.1653 308.931 98.7812 308.408C98.4079 307.875 98.2213 307.187 98.2213 306.344V302.6H97.1013V301.224L98.3173 301.144L98.5413 299H100.077V301.144H102.077V302.6H100.077V306.344C100.077 307.261 100.445 307.72 101.181 307.72C101.32 307.72 101.464 307.704 101.613 307.672C101.763 307.629 101.891 307.587 101.997 307.544L102.317 308.904C102.104 308.979 101.859 309.043 101.581 309.096C101.315 309.16 101.027 309.192 100.717 309.192ZM106.697 309.192C106.046 309.192 105.438 309.032 104.873 308.712C104.307 308.381 103.849 307.912 103.497 307.304C103.145 306.685 102.969 305.944 102.969 305.08C102.969 304.205 103.145 303.464 103.497 302.856C103.849 302.237 104.307 301.768 104.873 301.448C105.438 301.117 106.046 300.952 106.697 300.952C107.358 300.952 107.971 301.117 108.537 301.448C109.102 301.768 109.561 302.237 109.913 302.856C110.265 303.464 110.441 304.205 110.441 305.08C110.441 305.944 110.265 306.685 109.913 307.304C109.561 307.912 109.102 308.381 108.537 308.712C107.971 309.032 107.358 309.192 106.697 309.192ZM106.697 307.688C107.273 307.688 107.726 307.448 108.057 306.968C108.387 306.488 108.553 305.859 108.553 305.08C108.553 304.291 108.387 303.656 108.057 303.176C107.726 302.696 107.273 302.456 106.697 302.456C106.121 302.456 105.667 302.696 105.337 303.176C105.017 303.656 104.857 304.291 104.857 305.08C104.857 305.859 105.017 306.488 105.337 306.968C105.667 307.448 106.121 307.688 106.697 307.688ZM117.369 309V305.112L114.233 298.536H116.217L117.353 301.208C117.502 301.603 117.652 301.987 117.801 302.36C117.95 302.723 118.11 303.107 118.281 303.512H118.345C118.516 303.107 118.681 302.723 118.841 302.36C119.001 301.987 119.156 301.603 119.305 301.208L120.441 298.536H122.377L119.225 305.112V309H117.369ZM125.931 309.192C125.28 309.192 124.672 309.032 124.107 308.712C123.542 308.381 123.083 307.912 122.731 307.304C122.379 306.685 122.203 305.944 122.203 305.08C122.203 304.205 122.379 303.464 122.731 302.856C123.083 302.237 123.542 301.768 124.107 301.448C124.672 301.117 125.28 300.952 125.931 300.952C126.592 300.952 127.206 301.117 127.771 301.448C128.336 301.768 128.795 302.237 129.147 302.856C129.499 303.464 129.675 304.205 129.675 305.08C129.675 305.944 129.499 306.685 129.147 307.304C128.795 307.912 128.336 308.381 127.771 308.712C127.206 309.032 126.592 309.192 125.931 309.192ZM125.931 307.688C126.507 307.688 126.96 307.448 127.291 306.968C127.622 306.488 127.787 305.859 127.787 305.08C127.787 304.291 127.622 303.656 127.291 303.176C126.96 302.696 126.507 302.456 125.931 302.456C125.355 302.456 124.902 302.696 124.571 303.176C124.251 303.656 124.091 304.291 124.091 305.08C124.091 305.859 124.251 306.488 124.571 306.968C124.902 307.448 125.355 307.688 125.931 307.688ZM133.832 309.192C132.989 309.192 132.376 308.92 131.992 308.376C131.608 307.832 131.416 307.064 131.416 306.072V301.144H133.256V305.832C133.256 306.483 133.352 306.941 133.544 307.208C133.736 307.475 134.045 307.608 134.472 307.608C134.813 307.608 135.112 307.523 135.368 307.352C135.635 307.181 135.917 306.904 136.216 306.52V301.144H138.056V309H136.552L136.408 307.848H136.36C136.019 308.253 135.645 308.579 135.24 308.824C134.835 309.069 134.365 309.192 133.832 309.192Z" fill="#5C5C5C"/>
<path d="M11.75 343.75H17.75V343.338C17.75 342.775 17.475 342.328 16.925 341.997C16.375 341.666 15.65 341.5 14.75 341.5C13.85 341.5 13.125 341.666 12.575 341.997C12.025 342.328 11.75 342.775 11.75 343.338V343.75ZM14.75 340.75C15.1625 340.75 15.5156 340.603 15.8094 340.309C16.1031 340.016 16.25 339.663 16.25 339.25C16.25 338.838 16.1031 338.484 15.8094 338.191C15.5156 337.897 15.1625 337.75 14.75 337.75C14.3375 337.75 13.9844 337.897 13.6906 338.191C13.3969 338.484 13.25 338.838 13.25 339.25C13.25 339.663 13.3969 340.016 13.6906 340.309C13.9844 340.603 14.3375 340.75 14.75 340.75ZM6.5 346C6.0875 346 5.73438 345.853 5.44063 345.559C5.14687 345.266 5 344.913 5 344.5V335.5C5 335.088 5.14687 334.734 5.44063 334.441C5.73438 334.147 6.0875 334 6.5 334H11L12.5 335.5H18.5C18.9125 335.5 19.2656 335.647 19.5594 335.941C19.8531 336.234 20 336.588 20 337V344.5C20 344.913 19.8531 345.266 19.5594 345.559C19.2656 345.853 18.9125 346 18.5 346H6.5ZM6.5 344.5H18.5V337H11.8813L10.3813 335.5H6.5V344.5Z" fill="#5C5C5C"/>
<path d="M36.384 346.192C35.68 346.192 34.9973 346.059 34.336 345.792C33.6853 345.525 33.1093 345.147 32.608 344.656L33.696 343.392C34.0693 343.744 34.496 344.032 34.976 344.256C35.456 344.469 35.936 344.576 36.416 344.576C37.0133 344.576 37.4667 344.453 37.776 344.208C38.0853 343.963 38.24 343.637 38.24 343.232C38.24 342.795 38.0853 342.48 37.776 342.288C37.4773 342.096 37.0933 341.899 36.624 341.696L35.184 341.072C34.8427 340.923 34.5067 340.731 34.176 340.496C33.856 340.261 33.5893 339.963 33.376 339.6C33.1733 339.237 33.072 338.8 33.072 338.288C33.072 337.733 33.2213 337.237 33.52 336.8C33.8293 336.352 34.2453 336 34.768 335.744C35.3013 335.477 35.9093 335.344 36.592 335.344C37.2 335.344 37.7867 335.467 38.352 335.712C38.9173 335.947 39.4027 336.267 39.808 336.672L38.864 337.856C38.5333 337.579 38.1813 337.36 37.808 337.2C37.4453 337.04 37.04 336.96 36.592 336.96C36.1013 336.96 35.7013 337.072 35.392 337.296C35.0933 337.509 34.944 337.808 34.944 338.192C34.944 338.459 35.0187 338.683 35.168 338.864C35.328 339.035 35.536 339.184 35.792 339.312C36.048 339.429 36.32 339.547 36.608 339.664L38.032 340.256C38.6507 340.523 39.1573 340.875 39.552 341.312C39.9467 341.739 40.144 342.331 40.144 343.088C40.144 343.653 39.9947 344.171 39.696 344.64C39.3973 345.109 38.9653 345.488 38.4 345.776C37.8453 346.053 37.1733 346.192 36.384 346.192ZM41.8868 346V334.704H43.7268V337.616L43.6628 339.136C43.9934 338.827 44.3614 338.555 44.7668 338.32C45.1721 338.075 45.6414 337.952 46.1748 337.952C47.0174 337.952 47.6308 338.224 48.0148 338.768C48.3988 339.312 48.5908 340.08 48.5908 341.072V346H46.7508V341.312C46.7508 340.661 46.6548 340.203 46.4628 339.936C46.2708 339.669 45.9561 339.536 45.5188 339.536C45.1774 339.536 44.8734 339.621 44.6068 339.792C44.3508 339.952 44.0574 340.192 43.7268 340.512V346H41.8868ZM52.7126 346.192C52.03 346.192 51.47 345.979 51.0326 345.552C50.606 345.125 50.3926 344.571 50.3926 343.888C50.3926 343.045 50.7606 342.395 51.4966 341.936C52.2326 341.467 53.406 341.147 55.0166 340.976C55.006 340.56 54.894 340.203 54.6806 339.904C54.478 339.595 54.11 339.44 53.5766 339.44C53.1926 339.44 52.814 339.515 52.4406 339.664C52.078 339.813 51.7206 339.995 51.3686 340.208L50.6966 338.976C51.134 338.699 51.6246 338.459 52.1686 338.256C52.7233 338.053 53.31 337.952 53.9286 337.952C54.91 337.952 55.6406 338.245 56.1206 338.832C56.6113 339.408 56.8566 340.245 56.8566 341.344V346H55.3366L55.2086 345.136H55.1446C54.7926 345.435 54.414 345.685 54.0086 345.888C53.614 346.091 53.182 346.192 52.7126 346.192ZM53.3046 344.752C53.6246 344.752 53.9126 344.677 54.1686 344.528C54.4353 344.368 54.718 344.155 55.0166 343.888V342.128C53.95 342.267 53.2086 342.475 52.7926 342.752C52.3766 343.019 52.1686 343.349 52.1686 343.744C52.1686 344.096 52.2753 344.352 52.4886 344.512C52.702 344.672 52.974 344.752 53.3046 344.752ZM59.0586 346V338.144H60.5786L60.7066 339.536H60.7706C61.048 339.024 61.384 338.635 61.7786 338.368C62.1733 338.091 62.5786 337.952 62.9946 337.952C63.368 337.952 63.6666 338.005 63.8906 338.112L63.5706 339.712C63.432 339.669 63.304 339.637 63.1866 339.616C63.0693 339.595 62.9253 339.584 62.7546 339.584C62.4453 339.584 62.12 339.707 61.7786 339.952C61.4373 340.187 61.144 340.603 60.8986 341.2V346H59.0586ZM68.2311 346.192C67.5058 346.192 66.8498 346.032 66.2631 345.712C65.6765 345.381 65.2125 344.912 64.8711 344.304C64.5298 343.685 64.3591 342.944 64.3591 342.08C64.3591 341.227 64.5298 340.491 64.8711 339.872C65.2231 339.253 65.6765 338.779 66.2311 338.448C66.7858 338.117 67.3671 337.952 67.9751 337.952C68.6898 337.952 69.2871 338.112 69.7671 338.432C70.2471 338.741 70.6098 339.179 70.8551 339.744C71.1005 340.299 71.2231 340.944 71.2231 341.68C71.2231 342.064 71.1965 342.363 71.1431 342.576H66.1511C66.2365 343.269 66.4871 343.808 66.9031 344.192C67.3191 344.576 67.8418 344.768 68.4711 344.768C68.8125 344.768 69.1271 344.72 69.4151 344.624C69.7138 344.517 70.0071 344.373 70.2951 344.192L70.9191 345.344C70.5458 345.589 70.1298 345.792 69.6711 345.952C69.2125 346.112 68.7325 346.192 68.2311 346.192ZM66.1351 341.328H69.6231C69.6231 340.72 69.4898 340.245 69.2231 339.904C68.9565 339.552 68.5565 339.376 68.0231 339.376C67.5645 339.376 67.1538 339.547 66.7911 339.888C66.4391 340.219 66.2205 340.699 66.1351 341.328ZM75.7325 346.192C74.7512 346.192 73.9672 345.829 73.3805 345.104C72.7938 344.379 72.5005 343.371 72.5005 342.08C72.5005 341.227 72.6552 340.491 72.9645 339.872C73.2845 339.253 73.7005 338.779 74.2125 338.448C74.7245 338.117 75.2632 337.952 75.8285 337.952C76.2765 337.952 76.6552 338.032 76.9645 338.192C77.2845 338.341 77.5938 338.549 77.8925 338.816L77.8285 337.552V334.704H79.6685V346H78.1485L78.0205 345.152H77.9565C77.6685 345.44 77.3325 345.685 76.9485 345.888C76.5645 346.091 76.1592 346.192 75.7325 346.192ZM76.1805 344.672C76.7672 344.672 77.3165 344.379 77.8285 343.792V340.128C77.5618 339.883 77.2952 339.712 77.0285 339.616C76.7618 339.52 76.4952 339.472 76.2285 339.472C75.7272 339.472 75.2952 339.701 74.9325 340.16C74.5805 340.608 74.4045 341.243 74.4045 342.064C74.4045 342.907 74.5592 343.552 74.8685 344C75.1778 344.448 75.6152 344.672 76.1805 344.672ZM86.5109 346L84.4309 338.144H86.2869L87.2309 342.224C87.3162 342.597 87.3855 342.971 87.4389 343.344C87.5029 343.717 87.5722 344.096 87.6469 344.48H87.7109C87.7855 344.096 87.8602 343.717 87.9349 343.344C88.0202 342.96 88.1109 342.587 88.2069 342.224L89.2309 338.144H90.9109L91.9509 342.224C92.0469 342.597 92.1375 342.971 92.2229 343.344C92.3082 343.717 92.3935 344.096 92.4789 344.48H92.5429C92.6175 344.096 92.6869 343.717 92.7509 343.344C92.8149 342.971 92.8842 342.597 92.9589 342.224L93.9029 338.144H95.6309L93.6309 346H91.4389L90.5269 342.336C90.4415 341.963 90.3615 341.595 90.2869 341.232C90.2122 340.859 90.1322 340.464 90.0469 340.048H89.9829C89.9082 340.464 89.8335 340.859 89.7589 341.232C89.6842 341.605 89.6042 341.979 89.5189 342.352L88.6229 346H86.5109ZM97.1836 346V338.144H99.0236V346H97.1836ZM98.1116 336.768C97.781 336.768 97.5143 336.672 97.3116 336.48C97.109 336.288 97.0076 336.032 97.0076 335.712C97.0076 335.403 97.109 335.152 97.3116 334.96C97.5143 334.768 97.781 334.672 98.1116 334.672C98.4423 334.672 98.709 334.768 98.9116 334.96C99.1143 335.152 99.2156 335.403 99.2156 335.712C99.2156 336.032 99.1143 336.288 98.9116 336.48C98.709 336.672 98.4423 336.768 98.1116 336.768ZM104.139 346.192C103.232 346.192 102.587 345.931 102.203 345.408C101.83 344.875 101.643 344.187 101.643 343.344V339.6H100.523V338.224L101.739 338.144L101.963 336H103.499V338.144H105.499V339.6H103.499V343.344C103.499 344.261 103.867 344.72 104.603 344.72C104.742 344.72 104.886 344.704 105.035 344.672C105.184 344.629 105.312 344.587 105.419 344.544L105.739 345.904C105.526 345.979 105.28 346.043 105.003 346.096C104.736 346.16 104.448 346.192 104.139 346.192ZM107.152 346V334.704H108.992V337.616L108.928 339.136C109.259 338.827 109.627 338.555 110.032 338.32C110.438 338.075 110.907 337.952 111.44 337.952C112.283 337.952 112.896 338.224 113.28 338.768C113.664 339.312 113.856 340.08 113.856 341.072V346H112.016V341.312C112.016 340.661 111.92 340.203 111.728 339.936C111.536 339.669 111.222 339.536 110.784 339.536C110.443 339.536 110.139 339.621 109.872 339.792C109.616 339.952 109.323 340.192 108.992 340.512V346H107.152ZM121.181 346V342.112L118.045 335.536H120.029L121.165 338.208C121.315 338.603 121.464 338.987 121.613 339.36C121.763 339.723 121.923 340.107 122.093 340.512H122.157C122.328 340.107 122.493 339.723 122.653 339.36C122.813 338.987 122.968 338.603 123.117 338.208L124.253 335.536H126.189L123.037 342.112V346H121.181ZM129.743 346.192C129.093 346.192 128.485 346.032 127.919 345.712C127.354 345.381 126.895 344.912 126.543 344.304C126.191 343.685 126.015 342.944 126.015 342.08C126.015 341.205 126.191 340.464 126.543 339.856C126.895 339.237 127.354 338.768 127.919 338.448C128.485 338.117 129.093 337.952 129.743 337.952C130.405 337.952 131.018 338.117 131.583 338.448C132.149 338.768 132.607 339.237 132.959 339.856C133.311 340.464 133.487 341.205 133.487 342.08C133.487 342.944 133.311 343.685 132.959 344.304C132.607 344.912 132.149 345.381 131.583 345.712C131.018 346.032 130.405 346.192 129.743 346.192ZM129.743 344.688C130.319 344.688 130.773 344.448 131.103 343.968C131.434 343.488 131.599 342.859 131.599 342.08C131.599 341.291 131.434 340.656 131.103 340.176C130.773 339.696 130.319 339.456 129.743 339.456C129.167 339.456 128.714 339.696 128.383 340.176C128.063 340.656 127.903 341.291 127.903 342.08C127.903 342.859 128.063 343.488 128.383 343.968C128.714 344.448 129.167 344.688 129.743 344.688ZM137.645 346.192C136.802 346.192 136.189 345.92 135.805 345.376C135.421 344.832 135.229 344.064 135.229 343.072V338.144H137.069V342.832C137.069 343.483 137.165 343.941 137.357 344.208C137.549 344.475 137.858 344.608 138.285 344.608C138.626 344.608 138.925 344.523 139.181 344.352C139.447 344.181 139.73 343.904 140.029 343.52V338.144H141.869V346H140.365L140.221 344.848H140.173C139.831 345.253 139.458 345.579 139.053 345.824C138.647 346.069 138.178 346.192 137.645 346.192Z" fill="#5C5C5C"/>
<path d="M10.8 232.2H13.2V231H10.8V232.2ZM10.8 230.4H15.6V229.2H10.8V230.4ZM10.8 228.6H15.6V227.4H10.8V228.6ZM9.6 234.6C9.27 234.6 8.9875 234.483 8.7525 234.247C8.5175 234.012 8.4 233.73 8.4 233.4V226.2C8.4 225.87 8.5175 225.587 8.7525 225.352C8.9875 225.117 9.27 225 9.6 225H16.8C17.13 225 17.4125 225.117 17.6475 225.352C17.8825 225.587 18 225.87 18 226.2V233.4C18 233.73 17.8825 234.012 17.6475 234.247C17.4125 234.483 17.13 234.6 16.8 234.6H9.6ZM9.6 233.4H16.8V226.2H9.6V233.4ZM7.2 237C6.87 237 6.5875 236.882 6.3525 236.648C6.1175 236.412 6 236.13 6 235.8V227.4H7.2V235.8H15.6V237H7.2Z" fill="#5C5C5C"/>
<path d="M33.328 235V224.536H39.648V226.104H35.184V229.064H38.992V230.632H35.184V235H33.328ZM43.379 235.192C42.5363 235.192 41.923 234.92 41.539 234.376C41.155 233.832 40.963 233.064 40.963 232.072V227.144H42.803V231.832C42.803 232.483 42.899 232.941 43.091 233.208C43.283 233.475 43.5923 233.608 44.019 233.608C44.3603 233.608 44.659 233.523 44.915 233.352C45.1817 233.181 45.4643 232.904 45.763 232.52V227.144H47.603V235H46.099L45.955 233.848H45.907C45.5657 234.253 45.1923 234.579 44.787 234.824C44.3817 235.069 43.9123 235.192 43.379 235.192ZM51.7256 235.192C51.075 235.192 50.611 234.995 50.3336 234.6C50.067 234.205 49.9336 233.667 49.9336 232.984V223.704H51.7736V233.08C51.7736 233.304 51.8163 233.464 51.9016 233.56C51.987 233.645 52.0776 233.688 52.1736 233.688C52.2163 233.688 52.2536 233.688 52.2856 233.688C52.3283 233.677 52.387 233.667 52.4616 233.656L52.7016 235.032C52.595 235.075 52.4563 235.112 52.2856 235.144C52.1256 235.176 51.939 235.192 51.7256 235.192ZM56.0694 235.192C55.4187 235.192 54.9547 234.995 54.6774 234.6C54.4107 234.205 54.2774 233.667 54.2774 232.984V223.704H56.1174V233.08C56.1174 233.304 56.16 233.464 56.2454 233.56C56.3307 233.645 56.4214 233.688 56.5174 233.688C56.56 233.688 56.5974 233.688 56.6294 233.688C56.672 233.677 56.7307 233.667 56.8054 233.656L57.0454 235.032C56.9387 235.075 56.8 235.112 56.6294 235.144C56.4694 235.176 56.2827 235.192 56.0694 235.192ZM66.1603 235.192C65.2856 235.192 64.4909 234.984 63.7763 234.568C63.0616 234.152 62.4909 233.544 62.0643 232.744C61.6483 231.933 61.4403 230.952 61.4403 229.8C61.4403 228.659 61.6536 227.683 62.0803 226.872C62.5176 226.051 63.0989 225.427 63.8243 225C64.5496 224.563 65.3496 224.344 66.2243 224.344C66.8856 224.344 67.4723 224.477 67.9843 224.744C68.4963 225.011 68.9176 225.32 69.2483 225.672L68.2563 226.872C67.9896 226.595 67.6909 226.376 67.3603 226.216C67.0403 226.045 66.6776 225.96 66.2723 225.96C65.7069 225.96 65.2003 226.115 64.7523 226.424C64.3149 226.723 63.9683 227.155 63.7123 227.72C63.4669 228.285 63.3443 228.963 63.3443 229.752C63.3443 230.947 63.6056 231.885 64.1283 232.568C64.6509 233.24 65.3496 233.576 66.2243 233.576C66.6936 233.576 67.1096 233.48 67.4723 233.288C67.8349 233.085 68.1656 232.824 68.4643 232.504L69.4563 233.672C69.0296 234.163 68.5389 234.541 67.9843 234.808C67.4403 235.064 66.8323 235.192 66.1603 235.192ZM74.259 235.192C73.6083 235.192 73.0003 235.032 72.435 234.712C71.8697 234.381 71.411 233.912 71.059 233.304C70.707 232.685 70.531 231.944 70.531 231.08C70.531 230.205 70.707 229.464 71.059 228.856C71.411 228.237 71.8697 227.768 72.435 227.448C73.0003 227.117 73.6083 226.952 74.259 226.952C74.9203 226.952 75.5337 227.117 76.099 227.448C76.6643 227.768 77.123 228.237 77.475 228.856C77.827 229.464 78.003 230.205 78.003 231.08C78.003 231.944 77.827 232.685 77.475 233.304C77.123 233.912 76.6643 234.381 76.099 234.712C75.5337 235.032 74.9203 235.192 74.259 235.192ZM74.259 233.688C74.835 233.688 75.2883 233.448 75.619 232.968C75.9497 232.488 76.115 231.859 76.115 231.08C76.115 230.291 75.9497 229.656 75.619 229.176C75.2883 228.696 74.835 228.456 74.259 228.456C73.683 228.456 73.2297 228.696 72.899 229.176C72.579 229.656 72.419 230.291 72.419 231.08C72.419 231.859 72.579 232.488 72.899 232.968C73.2297 233.448 73.683 233.688 74.259 233.688ZM79.8243 235V227.144H81.3443L81.4723 228.2H81.5363C81.8883 227.859 82.2723 227.565 82.6883 227.32C83.1043 227.075 83.5789 226.952 84.1123 226.952C84.9549 226.952 85.5683 227.224 85.9523 227.768C86.3363 228.312 86.5283 229.08 86.5283 230.072V235H84.6883V230.312C84.6883 229.661 84.5923 229.203 84.4003 228.936C84.2083 228.669 83.8936 228.536 83.4563 228.536C83.1149 228.536 82.8109 228.621 82.5443 228.792C82.2883 228.952 81.9949 229.192 81.6643 229.512V235H79.8243ZM91.5454 235.192C90.6387 235.192 89.9934 234.931 89.6094 234.408C89.236 233.875 89.0494 233.187 89.0494 232.344V228.6H87.9294V227.224L89.1454 227.144L89.3694 225H90.9054V227.144H92.9054V228.6H90.9054V232.344C90.9054 233.261 91.2734 233.72 92.0094 233.72C92.148 233.72 92.292 233.704 92.4414 233.672C92.5907 233.629 92.7187 233.587 92.8254 233.544L93.1454 234.904C92.932 234.979 92.6867 235.043 92.4094 235.096C92.1427 235.16 91.8547 235.192 91.5454 235.192ZM97.6686 235.192C96.9433 235.192 96.2873 235.032 95.7006 234.712C95.114 234.381 94.65 233.912 94.3086 233.304C93.9673 232.685 93.7966 231.944 93.7966 231.08C93.7966 230.227 93.9673 229.491 94.3086 228.872C94.6606 228.253 95.114 227.779 95.6686 227.448C96.2233 227.117 96.8046 226.952 97.4126 226.952C98.1273 226.952 98.7246 227.112 99.2046 227.432C99.6846 227.741 100.047 228.179 100.293 228.744C100.538 229.299 100.661 229.944 100.661 230.68C100.661 231.064 100.634 231.363 100.581 231.576H95.5886C95.674 232.269 95.9246 232.808 96.3406 233.192C96.7566 233.576 97.2793 233.768 97.9086 233.768C98.25 233.768 98.5646 233.72 98.8526 233.624C99.1513 233.517 99.4446 233.373 99.7326 233.192L100.357 234.344C99.9833 234.589 99.5673 234.792 99.1086 234.952C98.65 235.112 98.17 235.192 97.6686 235.192ZM95.5726 230.328H99.0606C99.0606 229.72 98.9273 229.245 98.6606 228.904C98.394 228.552 97.994 228.376 97.4606 228.376C97.002 228.376 96.5913 228.547 96.2286 228.888C95.8766 229.219 95.658 229.699 95.5726 230.328ZM102.418 235V227.144H103.938L104.066 228.2H104.13C104.482 227.859 104.866 227.565 105.282 227.32C105.698 227.075 106.173 226.952 106.706 226.952C107.549 226.952 108.162 227.224 108.546 227.768C108.93 228.312 109.122 229.08 109.122 230.072V235H107.282V230.312C107.282 229.661 107.186 229.203 106.994 228.936C106.802 228.669 106.487 228.536 106.05 228.536C105.709 228.536 105.405 228.621 105.138 228.792C104.882 228.952 104.589 229.192 104.258 229.512V235H102.418ZM114.139 235.192C113.232 235.192 112.587 234.931 112.203 234.408C111.83 233.875 111.643 233.187 111.643 232.344V228.6H110.523V227.224L111.739 227.144L111.963 225H113.499V227.144H115.499V228.6H113.499V232.344C113.499 233.261 113.867 233.72 114.603 233.72C114.742 233.72 114.886 233.704 115.035 233.672C115.184 233.629 115.312 233.587 115.419 233.544L115.739 234.904C115.526 234.979 115.28 235.043 115.003 235.096C114.736 235.16 114.448 235.192 114.139 235.192ZM120.516 235V224.536H122.372V233.432H126.724V235H120.516ZM128.387 235V227.144H130.227V235H128.387ZM129.315 225.768C128.984 225.768 128.717 225.672 128.515 225.48C128.312 225.288 128.211 225.032 128.211 224.712C128.211 224.403 128.312 224.152 128.515 223.96C128.717 223.768 128.984 223.672 129.315 223.672C129.645 223.672 129.912 223.768 130.115 223.96C130.317 224.152 130.419 224.403 130.419 224.712C130.419 225.032 130.317 225.288 130.115 225.48C129.912 225.672 129.645 225.768 129.315 225.768ZM136.382 235.192C135.636 235.192 134.921 234.851 134.238 234.168H134.19L134.03 235H132.574V223.704H134.414V226.616L134.366 227.928C134.697 227.64 135.06 227.405 135.454 227.224C135.849 227.043 136.244 226.952 136.638 226.952C137.62 226.952 138.382 227.315 138.926 228.04C139.47 228.765 139.742 229.731 139.742 230.936C139.742 231.832 139.582 232.6 139.262 233.24C138.942 233.869 138.526 234.355 138.014 234.696C137.513 235.027 136.969 235.192 136.382 235.192ZM135.998 233.672C136.521 233.672 136.958 233.443 137.31 232.984C137.662 232.525 137.838 231.853 137.838 230.968C137.838 230.179 137.705 229.565 137.438 229.128C137.172 228.691 136.74 228.472 136.142 228.472C135.588 228.472 135.012 228.765 134.414 229.352V233.016C134.692 233.251 134.964 233.421 135.23 233.528C135.508 233.624 135.764 233.672 135.998 233.672ZM141.59 235V227.144H143.11L143.238 228.536H143.302C143.579 228.024 143.915 227.635 144.31 227.368C144.705 227.091 145.11 226.952 145.526 226.952C145.899 226.952 146.198 227.005 146.422 227.112L146.102 228.712C145.963 228.669 145.835 228.637 145.718 228.616C145.601 228.595 145.457 228.584 145.286 228.584C144.977 228.584 144.651 228.707 144.31 228.952C143.969 229.187 143.675 229.603 143.43 230.2V235H141.59ZM149.041 235.192C148.358 235.192 147.798 234.979 147.361 234.552C146.934 234.125 146.721 233.571 146.721 232.888C146.721 232.045 147.089 231.395 147.825 230.936C148.561 230.467 149.734 230.147 151.345 229.976C151.334 229.56 151.222 229.203 151.009 228.904C150.806 228.595 150.438 228.44 149.905 228.44C149.521 228.44 149.142 228.515 148.769 228.664C148.406 228.813 148.049 228.995 147.697 229.208L147.025 227.976C147.462 227.699 147.953 227.459 148.497 227.256C149.051 227.053 149.638 226.952 150.257 226.952C151.238 226.952 151.969 227.245 152.449 227.832C152.939 228.408 153.185 229.245 153.185 230.344V235H151.665L151.537 234.136H151.473C151.121 234.435 150.742 234.685 150.337 234.888C149.942 235.091 149.51 235.192 149.041 235.192ZM149.633 233.752C149.953 233.752 150.241 233.677 150.497 233.528C150.763 233.368 151.046 233.155 151.345 232.888V231.128C150.278 231.267 149.537 231.475 149.121 231.752C148.705 232.019 148.497 232.349 148.497 232.744C148.497 233.096 148.603 233.352 148.817 233.512C149.03 233.672 149.302 233.752 149.633 233.752ZM155.387 235V227.144H156.907L157.035 228.536H157.099C157.376 228.024 157.712 227.635 158.107 227.368C158.501 227.091 158.907 226.952 159.323 226.952C159.696 226.952 159.995 227.005 160.219 227.112L159.899 228.712C159.76 228.669 159.632 228.637 159.515 228.616C159.397 228.595 159.253 228.584 159.083 228.584C158.773 228.584 158.448 228.707 158.107 228.952C157.765 229.187 157.472 229.603 157.227 230.2V235H155.387ZM162.134 238.232C161.92 238.232 161.734 238.216 161.574 238.184C161.414 238.152 161.259 238.115 161.11 238.072L161.446 236.632C161.52 236.653 161.606 236.675 161.702 236.696C161.808 236.728 161.91 236.744 162.006 236.744C162.422 236.744 162.752 236.616 162.998 236.36C163.254 236.115 163.446 235.795 163.574 235.4L163.718 234.904L160.63 227.144H162.502L163.862 231C163.979 231.341 164.091 231.704 164.198 232.088C164.315 232.461 164.432 232.835 164.549 233.208H164.614C164.71 232.845 164.806 232.477 164.902 232.104C165.008 231.72 165.11 231.352 165.206 231L166.39 227.144H168.166L165.318 235.352C164.987 236.237 164.587 236.936 164.118 237.448C163.648 237.971 162.987 238.232 162.134 238.232Z" fill="#5C5C5C"/>
<path d="M33.328 441V430.536H35.184V434.744H39.424V430.536H41.28V441H39.424V436.36H35.184V441H33.328ZM43.7774 441V433.144H45.6174V441H43.7774ZM44.7054 431.768C44.3747 431.768 44.108 431.672 43.9054 431.48C43.7027 431.288 43.6014 431.032 43.6014 430.712C43.6014 430.403 43.7027 430.152 43.9054 429.96C44.108 429.768 44.3747 429.672 44.7054 429.672C45.036 429.672 45.3027 429.768 45.5054 429.96C45.708 430.152 45.8094 430.403 45.8094 430.712C45.8094 431.032 45.708 431.288 45.5054 431.48C45.3027 431.672 45.036 431.768 44.7054 431.768ZM50.1569 441.192C49.6235 441.192 49.0902 441.091 48.5569 440.888C48.0235 440.675 47.5649 440.413 47.1809 440.104L48.0449 438.92C48.3969 439.187 48.7489 439.4 49.1009 439.56C49.4529 439.72 49.8262 439.8 50.2209 439.8C50.6475 439.8 50.9622 439.709 51.1649 439.528C51.3675 439.347 51.4689 439.123 51.4689 438.856C51.4689 438.632 51.3835 438.451 51.2129 438.312C51.0529 438.163 50.8449 438.035 50.5889 437.928C50.3329 437.811 50.0662 437.699 49.7889 437.592C49.4475 437.464 49.1062 437.309 48.7649 437.128C48.4342 436.936 48.1622 436.696 47.9489 436.408C47.7355 436.109 47.6289 435.741 47.6289 435.304C47.6289 434.611 47.8849 434.045 48.3969 433.608C48.9089 433.171 49.6022 432.952 50.4769 432.952C51.0315 432.952 51.5275 433.048 51.9649 433.24C52.4022 433.432 52.7809 433.651 53.1009 433.896L52.2529 435.016C51.9755 434.813 51.6929 434.653 51.4049 434.536C51.1275 434.408 50.8342 434.344 50.5249 434.344C50.1302 434.344 49.8369 434.429 49.6449 434.6C49.4529 434.76 49.3569 434.963 49.3569 435.208C49.3569 435.517 49.5169 435.752 49.8369 435.912C50.1569 436.072 50.5302 436.227 50.9569 436.376C51.3195 436.504 51.6715 436.664 52.0129 436.856C52.3542 437.037 52.6369 437.277 52.8609 437.576C53.0955 437.875 53.2129 438.269 53.2129 438.76C53.2129 439.432 52.9515 440.008 52.4289 440.488C51.9062 440.957 51.1489 441.192 50.1569 441.192ZM57.311 441.192C56.4043 441.192 55.759 440.931 55.375 440.408C55.0017 439.875 54.815 439.187 54.815 438.344V434.6H53.695V433.224L54.911 433.144L55.135 431H56.671V433.144H58.671V434.6H56.671V438.344C56.671 439.261 57.039 439.72 57.775 439.72C57.9137 439.72 58.0577 439.704 58.207 439.672C58.3563 439.629 58.4843 439.587 58.591 439.544L58.911 440.904C58.6977 440.979 58.4523 441.043 58.175 441.096C57.9083 441.16 57.6203 441.192 57.311 441.192ZM63.2903 441.192C62.6396 441.192 62.0316 441.032 61.4663 440.712C60.9009 440.381 60.4423 439.912 60.0903 439.304C59.7383 438.685 59.5623 437.944 59.5623 437.08C59.5623 436.205 59.7383 435.464 60.0903 434.856C60.4423 434.237 60.9009 433.768 61.4663 433.448C62.0316 433.117 62.6396 432.952 63.2903 432.952C63.9516 432.952 64.5649 433.117 65.1303 433.448C65.6956 433.768 66.1543 434.237 66.5063 434.856C66.8583 435.464 67.0343 436.205 67.0343 437.08C67.0343 437.944 66.8583 438.685 66.5063 439.304C66.1543 439.912 65.6956 440.381 65.1303 440.712C64.5649 441.032 63.9516 441.192 63.2903 441.192ZM63.2903 439.688C63.8663 439.688 64.3196 439.448 64.6503 438.968C64.9809 438.488 65.1463 437.859 65.1463 437.08C65.1463 436.291 64.9809 435.656 64.6503 435.176C64.3196 434.696 63.8663 434.456 63.2903 434.456C62.7143 434.456 62.2609 434.696 61.9303 435.176C61.6103 435.656 61.4503 436.291 61.4503 437.08C61.4503 437.859 61.6103 438.488 61.9303 438.968C62.2609 439.448 62.7143 439.688 63.2903 439.688ZM68.8555 441V433.144H70.3755L70.5035 434.536H70.5675C70.8448 434.024 71.1808 433.635 71.5755 433.368C71.9702 433.091 72.3755 432.952 72.7915 432.952C73.1648 432.952 73.4635 433.005 73.6875 433.112L73.3675 434.712C73.2288 434.669 73.1008 434.637 72.9835 434.616C72.8662 434.595 72.7222 434.584 72.5515 434.584C72.2422 434.584 71.9168 434.707 71.5755 434.952C71.2342 435.187 70.9408 435.603 70.6955 436.2V441H68.8555ZM75.6023 444.232C75.3889 444.232 75.2023 444.216 75.0423 444.184C74.8823 444.152 74.7276 444.115 74.5783 444.072L74.9143 442.632C74.9889 442.653 75.0743 442.675 75.1703 442.696C75.2769 442.728 75.3783 442.744 75.4743 442.744C75.8903 442.744 76.2209 442.616 76.4663 442.36C76.7223 442.115 76.9143 441.795 77.0423 441.4L77.1863 440.904L74.0983 433.144H75.9703L77.3303 437C77.4476 437.341 77.5596 437.704 77.6663 438.088C77.7836 438.461 77.9009 438.835 78.0182 439.208H78.0823C78.1783 438.845 78.2743 438.477 78.3703 438.104C78.4769 437.72 78.5783 437.352 78.6743 437L79.8583 433.144H81.6343L78.7863 441.352C78.4556 442.237 78.0556 442.936 77.5863 443.448C77.1169 443.971 76.4556 444.232 75.6023 444.232Z" fill="#5C5C5C"/>
<path fill-rule="evenodd" clip-rule="evenodd" d="M14 429.75C10.6867 429.75 8 432.437 8 435.75H6L8.59333 438.343L8.64 438.437L11.3333 435.75H9.33333C9.33333 433.17 11.42 431.083 14 431.083C16.58 431.083 18.6667 433.17 18.6667 435.75C18.6667 438.33 16.58 440.417 14 440.417C12.7133 440.417 11.5467 439.89 10.7067 439.043L9.76 439.99C10.8467 441.077 12.34 441.75 14 441.75C17.3133 441.75 20 439.063 20 435.75C20 432.437 17.3133 429.75 14 429.75ZM13.3333 433.083V436.417L16.1867 438.11L16.6667 437.303L14.3333 435.917V433.083H13.3333Z" fill="#5C5C5C"/>
<path d="M33.328 478V467.536H35.184V471.744H39.424V467.536H41.28V478H39.424V473.36H35.184V478H33.328ZM47.1374 478.192C46.412 478.192 45.756 478.032 45.1694 477.712C44.5827 477.381 44.1187 476.912 43.7774 476.304C43.436 475.685 43.2654 474.944 43.2654 474.08C43.2654 473.227 43.436 472.491 43.7774 471.872C44.1294 471.253 44.5827 470.779 45.1374 470.448C45.692 470.117 46.2734 469.952 46.8814 469.952C47.596 469.952 48.1934 470.112 48.6734 470.432C49.1534 470.741 49.516 471.179 49.7614 471.744C50.0067 472.299 50.1294 472.944 50.1294 473.68C50.1294 474.064 50.1027 474.363 50.0494 474.576H45.0574C45.1427 475.269 45.3934 475.808 45.8094 476.192C46.2254 476.576 46.748 476.768 47.3774 476.768C47.7187 476.768 48.0334 476.72 48.3214 476.624C48.62 476.517 48.9134 476.373 49.2014 476.192L49.8254 477.344C49.452 477.589 49.036 477.792 48.5774 477.952C48.1187 478.112 47.6387 478.192 47.1374 478.192ZM45.0414 473.328H48.5294C48.5294 472.72 48.396 472.245 48.1294 471.904C47.8627 471.552 47.4627 471.376 46.9294 471.376C46.4707 471.376 46.06 471.547 45.6974 471.888C45.3454 472.219 45.1267 472.699 45.0414 473.328ZM53.6788 478.192C53.0281 478.192 52.5641 477.995 52.2868 477.6C52.0201 477.205 51.8868 476.667 51.8868 475.984V466.704H53.7268V476.08C53.7268 476.304 53.7694 476.464 53.8548 476.56C53.9401 476.645 54.0308 476.688 54.1268 476.688C54.1694 476.688 54.2068 476.688 54.2388 476.688C54.2814 476.677 54.3401 476.667 54.4148 476.656L54.6548 478.032C54.5481 478.075 54.4094 478.112 54.2388 478.144C54.0788 478.176 53.8921 478.192 53.6788 478.192ZM56.2305 481.104V470.144H57.7505L57.8785 470.976H57.9425C58.2732 470.699 58.6412 470.459 59.0465 470.256C59.4625 470.053 59.8838 469.952 60.3105 469.952C61.2918 469.952 62.0492 470.315 62.5825 471.04C63.1265 471.765 63.3985 472.736 63.3985 473.952C63.3985 474.848 63.2385 475.616 62.9185 476.256C62.5985 476.885 62.1825 477.365 61.6705 477.696C61.1692 478.027 60.6252 478.192 60.0385 478.192C59.6972 478.192 59.3558 478.117 59.0145 477.968C58.6732 477.808 58.3425 477.595 58.0225 477.328L58.0705 478.64V481.104H56.2305ZM59.6545 476.672C60.1772 476.672 60.6145 476.443 60.9665 475.984C61.3185 475.525 61.4945 474.853 61.4945 473.968C61.4945 473.179 61.3612 472.565 61.0945 472.128C60.8278 471.691 60.3958 471.472 59.7985 471.472C59.2438 471.472 58.6678 471.765 58.0705 472.352V476.016C58.3585 476.251 58.6358 476.421 58.9025 476.528C59.1692 476.624 59.4198 476.672 59.6545 476.672Z" fill="#5C5C5C"/>
<path fill-rule="evenodd" clip-rule="evenodd" d="M11.4 476.266H12.6V475.066H11.4V476.266ZM12 466.666C8.688 466.666 6 469.354 6 472.666C6 475.978 8.688 478.666 12 478.666C15.312 478.666 18 475.978 18 472.666C18 469.354 15.312 466.666 12 466.666ZM12 477.466C9.354 477.466 7.2 475.312 7.2 472.666C7.2 470.02 9.354 467.866 12 467.866C14.646 467.866 16.8 470.02 16.8 472.666C16.8 475.312 14.646 477.466 12 477.466ZM12 469.066C10.674 469.066 9.6 470.14 9.6 471.466H10.8C10.8 470.806 11.34 470.266 12 470.266C12.66 470.266 13.2 470.806 13.2 471.466C13.2 472.666 11.4 472.516 11.4 474.466H12.6C12.6 473.116 14.4 472.966 14.4 471.466C14.4 470.14 13.326 469.066 12 469.066Z" fill="#5C5C5C"/>
<path d="M31.328 103V92.536H33.184V96.744H37.424V92.536H39.28V103H37.424V98.36H33.184V103H31.328ZM44.9934 103.192C44.3427 103.192 43.7347 103.032 43.1694 102.712C42.604 102.381 42.1454 101.912 41.7934 101.304C41.4414 100.685 41.2654 99.944 41.2654 99.08C41.2654 98.2053 41.4414 97.464 41.7934 96.856C42.1454 96.2373 42.604 95.768 43.1694 95.448C43.7347 95.1173 44.3427 94.952 44.9934 94.952C45.6547 94.952 46.268 95.1173 46.8334 95.448C47.3987 95.768 47.8574 96.2373 48.2094 96.856C48.5614 97.464 48.7374 98.2053 48.7374 99.08C48.7374 99.944 48.5614 100.685 48.2094 101.304C47.8574 101.912 47.3987 102.381 46.8334 102.712C46.268 103.032 45.6547 103.192 44.9934 103.192ZM44.9934 101.688C45.5694 101.688 46.0227 101.448 46.3534 100.968C46.684 100.488 46.8494 99.8587 46.8494 99.08C46.8494 98.2907 46.684 97.656 46.3534 97.176C46.0227 96.696 45.5694 96.456 44.9934 96.456C44.4174 96.456 43.964 96.696 43.6334 97.176C43.3134 97.656 43.1534 98.2907 43.1534 99.08C43.1534 99.8587 43.3134 100.488 43.6334 100.968C43.964 101.448 44.4174 101.688 44.9934 101.688ZM50.5586 103V95.144H52.0786L52.2066 96.216H52.2706C52.6013 95.864 52.9586 95.5653 53.3426 95.32C53.7373 95.0747 54.18 94.952 54.6706 94.952C55.2466 94.952 55.7053 95.08 56.0466 95.336C56.3986 95.5813 56.6653 95.9227 56.8466 96.36C57.22 95.9547 57.6093 95.6187 58.0146 95.352C58.4306 95.0853 58.884 94.952 59.3746 94.952C60.2066 94.952 60.82 95.224 61.2146 95.768C61.6093 96.312 61.8066 97.08 61.8066 98.072V103H59.9506V98.312C59.9506 97.6613 59.8493 97.2027 59.6466 96.936C59.4546 96.6693 59.156 96.536 58.7506 96.536C58.26 96.536 57.7106 96.8613 57.1026 97.512V103H55.2626V98.312C55.2626 97.6613 55.1613 97.2027 54.9586 96.936C54.7666 96.6693 54.4626 96.536 54.0466 96.536C53.556 96.536 53.0066 96.8613 52.3986 97.512V103H50.5586ZM67.403 103.192C66.6777 103.192 66.0217 103.032 65.435 102.712C64.8483 102.381 64.3843 101.912 64.043 101.304C63.7017 100.685 63.531 99.944 63.531 99.08C63.531 98.2267 63.7017 97.4907 64.043 96.872C64.395 96.2533 64.8483 95.7787 65.403 95.448C65.9577 95.1173 66.539 94.952 67.147 94.952C67.8617 94.952 68.459 95.112 68.939 95.432C69.419 95.7413 69.7817 96.1787 70.027 96.744C70.2723 97.2987 70.395 97.944 70.395 98.68C70.395 99.064 70.3683 99.3627 70.315 99.576H65.323C65.4083 100.269 65.659 100.808 66.075 101.192C66.491 101.576 67.0137 101.768 67.643 101.768C67.9843 101.768 68.299 101.72 68.587 101.624C68.8857 101.517 69.179 101.373 69.467 101.192L70.091 102.344C69.7177 102.589 69.3017 102.792 68.843 102.952C68.3843 103.112 67.9043 103.192 67.403 103.192ZM65.307 98.328H68.795C68.795 97.72 68.6617 97.2453 68.395 96.904C68.1283 96.552 67.7283 96.376 67.195 96.376C66.7363 96.376 66.3257 96.5467 65.963 96.888C65.611 97.2187 65.3923 97.6987 65.307 98.328Z" fill="#005EA2"/>
<path fill-rule="evenodd" clip-rule="evenodd" d="M10.5 103V98.5H13.5V103H17.25V97H19.5L12 90.25L4.5 97H6.75V103H10.5Z" fill="#005EA2"/>
<path d="M31.328 140V129.536H33.184V138.432H37.536V140H31.328ZM42.3561 140.192C41.6308 140.192 40.9748 140.032 40.3881 139.712C39.8015 139.381 39.3375 138.912 38.9961 138.304C38.6548 137.685 38.4841 136.944 38.4841 136.08C38.4841 135.227 38.6548 134.491 38.9961 133.872C39.3481 133.253 39.8015 132.779 40.3561 132.448C40.9108 132.117 41.4921 131.952 42.1001 131.952C42.8148 131.952 43.4121 132.112 43.8921 132.432C44.3721 132.741 44.7348 133.179 44.9801 133.744C45.2255 134.299 45.3481 134.944 45.3481 135.68C45.3481 136.064 45.3215 136.363 45.2681 136.576H40.2761C40.3615 137.269 40.6121 137.808 41.0281 138.192C41.4441 138.576 41.9668 138.768 42.5961 138.768C42.9375 138.768 43.2521 138.72 43.5401 138.624C43.8388 138.517 44.1321 138.373 44.4201 138.192L45.0441 139.344C44.6708 139.589 44.2548 139.792 43.7961 139.952C43.3375 140.112 42.8575 140.192 42.3561 140.192ZM40.2601 135.328H43.7481C43.7481 134.72 43.6148 134.245 43.3481 133.904C43.0815 133.552 42.6815 133.376 42.1481 133.376C41.6895 133.376 41.2788 133.547 40.9161 133.888C40.5641 134.219 40.3455 134.699 40.2601 135.328ZM48.822 140.192C48.1393 140.192 47.5793 139.979 47.142 139.552C46.7153 139.125 46.502 138.571 46.502 137.888C46.502 137.045 46.87 136.395 47.606 135.936C48.342 135.467 49.5153 135.147 51.126 134.976C51.1153 134.56 51.0033 134.203 50.79 133.904C50.5873 133.595 50.2193 133.44 49.686 133.44C49.302 133.44 48.9233 133.515 48.55 133.664C48.1873 133.813 47.83 133.995 47.478 134.208L46.806 132.976C47.2433 132.699 47.734 132.459 48.278 132.256C48.8327 132.053 49.4193 131.952 50.038 131.952C51.0193 131.952 51.75 132.245 52.23 132.832C52.7207 133.408 52.966 134.245 52.966 135.344V140H51.446L51.318 139.136H51.254C50.902 139.435 50.5233 139.685 50.118 139.888C49.7233 140.091 49.2913 140.192 48.822 140.192ZM49.414 138.752C49.734 138.752 50.022 138.677 50.278 138.528C50.5447 138.368 50.8273 138.155 51.126 137.888V136.128C50.0593 136.267 49.318 136.475 48.902 136.752C48.486 137.019 48.278 137.349 48.278 137.744C48.278 138.096 48.3847 138.352 48.598 138.512C48.8113 138.672 49.0833 138.752 49.414 138.752ZM55.168 140V132.144H56.688L56.816 133.536H56.88C57.1573 133.024 57.4933 132.635 57.888 132.368C58.2827 132.091 58.688 131.952 59.104 131.952C59.4773 131.952 59.776 132.005 60 132.112L59.68 133.712C59.5413 133.669 59.4133 133.637 59.296 133.616C59.1787 133.595 59.0347 133.584 58.864 133.584C58.5547 133.584 58.2293 133.707 57.888 133.952C57.5467 134.187 57.2533 134.603 57.008 135.2V140H55.168ZM61.1368 140V132.144H62.6568L62.7848 133.2H62.8488C63.2008 132.859 63.5848 132.565 64.0008 132.32C64.4168 132.075 64.8914 131.952 65.4248 131.952C66.2674 131.952 66.8808 132.224 67.2648 132.768C67.6488 133.312 67.8408 134.08 67.8408 135.072V140H66.0008V135.312C66.0008 134.661 65.9048 134.203 65.7128 133.936C65.5208 133.669 65.2061 133.536 64.7688 133.536C64.4274 133.536 64.1234 133.621 63.8568 133.792C63.6008 133.952 63.3074 134.192 62.9768 134.512V140H61.1368ZM70.0899 140V132.144H71.9299V140H70.0899ZM71.0179 130.768C70.6872 130.768 70.4205 130.672 70.2179 130.48C70.0152 130.288 69.9139 130.032 69.9139 129.712C69.9139 129.403 70.0152 129.152 70.2179 128.96C70.4205 128.768 70.6872 128.672 71.0179 128.672C71.3485 128.672 71.6152 128.768 71.8179 128.96C72.0205 129.152 72.1219 129.403 72.1219 129.712C72.1219 130.032 72.0205 130.288 71.8179 130.48C71.6152 130.672 71.3485 130.768 71.0179 130.768ZM74.2774 140V132.144H75.7974L75.9254 133.2H75.9894C76.3414 132.859 76.7254 132.565 77.1414 132.32C77.5574 132.075 78.032 131.952 78.5654 131.952C79.408 131.952 80.0214 132.224 80.4054 132.768C80.7894 133.312 80.9814 134.08 80.9814 135.072V140H79.1414V135.312C79.1414 134.661 79.0454 134.203 78.8534 133.936C78.6614 133.669 78.3467 133.536 77.9094 133.536C77.568 133.536 77.264 133.621 76.9974 133.792C76.7414 133.952 76.448 134.192 76.1174 134.512V140H74.2774ZM85.9665 143.472C85.3478 143.472 84.7878 143.397 84.2865 143.248C83.7958 143.099 83.4065 142.869 83.1185 142.56C82.8412 142.261 82.7025 141.883 82.7025 141.424C82.7025 140.773 83.0758 140.213 83.8225 139.744V139.68C83.6198 139.552 83.4492 139.381 83.3105 139.168C83.1825 138.955 83.1185 138.688 83.1185 138.368C83.1185 138.059 83.2038 137.781 83.3745 137.536C83.5558 137.28 83.7585 137.072 83.9825 136.912V136.848C83.7158 136.645 83.4758 136.363 83.2625 136C83.0598 135.637 82.9585 135.227 82.9585 134.768C82.9585 134.16 83.1025 133.648 83.3905 133.232C83.6785 132.816 84.0572 132.501 84.5265 132.288C85.0065 132.064 85.5185 131.952 86.0625 131.952C86.2758 131.952 86.4785 131.973 86.6705 132.016C86.8732 132.048 87.0545 132.091 87.2145 132.144H90.0305V133.504H88.5905C88.7185 133.653 88.8252 133.845 88.9105 134.08C88.9958 134.304 89.0385 134.555 89.0385 134.832C89.0385 135.408 88.9052 135.899 88.6385 136.304C88.3718 136.699 88.0145 136.997 87.5665 137.2C87.1185 137.403 86.6172 137.504 86.0625 137.504C85.8918 137.504 85.7158 137.488 85.5345 137.456C85.3532 137.424 85.1718 137.371 84.9905 137.296C84.8732 137.403 84.7772 137.509 84.7025 137.616C84.6385 137.723 84.6065 137.867 84.6065 138.048C84.6065 138.272 84.6972 138.448 84.8785 138.576C85.0705 138.704 85.4065 138.768 85.8865 138.768H87.2785C88.2278 138.768 88.9425 138.923 89.4225 139.232C89.9132 139.531 90.1585 140.021 90.1585 140.704C90.1585 141.216 89.9878 141.68 89.6465 142.096C89.3052 142.523 88.8198 142.859 88.1905 143.104C87.5612 143.349 86.8198 143.472 85.9665 143.472ZM86.0625 136.352C86.4358 136.352 86.7558 136.213 87.0225 135.936C87.2892 135.659 87.4225 135.269 87.4225 134.768C87.4225 134.277 87.2892 133.899 87.0225 133.632C86.7665 133.355 86.4465 133.216 86.0625 133.216C85.6785 133.216 85.3532 133.349 85.0865 133.616C84.8198 133.883 84.6865 134.267 84.6865 134.768C84.6865 135.269 84.8198 135.659 85.0865 135.936C85.3532 136.213 85.6785 136.352 86.0625 136.352ZM86.2545 142.272C86.8838 142.272 87.3958 142.144 87.7905 141.888C88.1852 141.632 88.3825 141.339 88.3825 141.008C88.3825 140.699 88.2598 140.491 88.0145 140.384C87.7798 140.277 87.4385 140.224 86.9905 140.224H85.9185C85.4918 140.224 85.1345 140.187 84.8465 140.112C84.4412 140.421 84.2385 140.768 84.2385 141.152C84.2385 141.504 84.4198 141.776 84.7825 141.968C85.1452 142.171 85.6358 142.272 86.2545 142.272ZM94.9061 140V129.536H96.7621V133.744H101.002V129.536H102.858V140H101.002V135.36H96.7621V140H94.9061ZM107.692 140.192C106.849 140.192 106.236 139.92 105.852 139.376C105.468 138.832 105.276 138.064 105.276 137.072V132.144H107.116V136.832C107.116 137.483 107.212 137.941 107.404 138.208C107.596 138.475 107.905 138.608 108.332 138.608C108.673 138.608 108.972 138.523 109.228 138.352C109.494 138.181 109.777 137.904 110.076 137.52V132.144H111.916V140H110.412L110.268 138.848H110.22C109.878 139.253 109.505 139.579 109.1 139.824C108.694 140.069 108.225 140.192 107.692 140.192ZM118.054 140.192C117.307 140.192 116.593 139.851 115.91 139.168H115.862L115.702 140H114.246V128.704H116.086V131.616L116.038 132.928C116.369 132.64 116.731 132.405 117.126 132.224C117.521 132.043 117.915 131.952 118.31 131.952C119.291 131.952 120.054 132.315 120.598 133.04C121.142 133.765 121.414 134.731 121.414 135.936C121.414 136.832 121.254 137.6 120.934 138.24C120.614 138.869 120.198 139.355 119.686 139.696C119.185 140.027 118.641 140.192 118.054 140.192ZM117.67 138.672C118.193 138.672 118.63 138.443 118.982 137.984C119.334 137.525 119.51 136.853 119.51 135.968C119.51 135.179 119.377 134.565 119.11 134.128C118.843 133.691 118.411 133.472 117.814 133.472C117.259 133.472 116.683 133.765 116.086 134.352V138.016C116.363 138.251 116.635 138.421 116.902 138.528C117.179 138.624 117.435 138.672 117.67 138.672Z" fill="#5C5C5C"/>
<path d="M12.5038 137.154C11.6421 138.016 10.7755 139.434 10.2605 140.349C10.0586 140.708 9.51834 140.708 9.31645 140.349C8.80144 139.434 7.93485 138.016 7.07307 137.154C6.21129 136.292 4.7929 135.426 3.87785 134.911C3.51914 134.709 3.51914 134.169 3.87785 133.967C4.7929 133.452 6.21129 132.585 7.07307 131.723C7.93485 130.862 8.80144 129.443 9.31645 128.528C9.51834 128.169 10.0586 128.169 10.2605 128.528C10.7755 129.443 11.6421 130.862 12.5038 131.723C13.3656 132.585 14.784 133.452 15.6991 133.967C16.0578 134.169 16.0578 134.709 15.6991 134.911C14.784 135.426 13.3656 136.292 12.5038 137.154Z" fill="#5C5C5C"/>
<path d="M18.399 142.054C17.9708 142.482 17.5407 143.136 17.2262 143.665C17.0159 144.019 16.4707 144.019 16.2605 143.665C15.9459 143.136 15.5158 142.482 15.0876 142.054C14.6594 141.626 14.0058 141.195 13.4766 140.881C13.1227 140.671 13.1227 140.125 13.4766 139.915C14.0058 139.601 14.6594 139.17 15.0876 138.742C15.5158 138.314 15.9459 137.66 16.2605 137.131C16.4707 136.777 17.0159 136.777 17.2262 137.131C17.5407 137.66 17.9708 138.314 18.399 138.742C18.8272 139.17 19.4808 139.601 20.01 139.915C20.3639 140.125 20.3639 140.671 20.01 140.881C19.4808 141.195 18.8272 141.626 18.399 142.054Z" fill="#5C5C5C"/>
<path d="M17.6691 129.404C17.3972 129.676 17.1242 130.068 16.9023 130.424C16.6846 130.773 16.1369 130.773 15.9192 130.424C15.6973 130.068 15.4244 129.676 15.1524 129.404C14.8805 129.132 14.4889 128.859 14.1328 128.637C13.7835 128.42 13.7835 127.872 14.1328 127.654C14.4889 127.432 14.8805 127.159 15.1524 126.888C15.4244 126.616 15.6973 126.224 15.9192 125.868C16.1369 125.519 16.6846 125.519 16.9023 125.868C17.1242 126.224 17.3972 126.616 17.6691 126.888C17.9411 127.159 18.3326 127.432 18.6887 127.654C19.038 127.872 19.038 128.42 18.6887 128.637C18.3326 128.859 17.9411 129.132 17.6691 129.404Z" fill="#5C5C5C"/>
<rect x="1.5" y="1.5" width="213" height="44" fill="white"/>
<rect x="1.5" y="1.5" width="213" height="44" stroke="#2491FF" stroke-width="3"/>
<rect x="3.5" y="3.5" width="209" height="40" stroke="#565C65"/>
<path d="M173.579 11.5V35.5" stroke="#DFE1E2" stroke-linecap="square"/>
<path fill-rule="evenodd" clip-rule="evenodd" d="M189.12 17.38L195.227 23.5L189.12 29.62L191 31.5L199 23.5L191 15.5L189.12 17.38Z" fill="#565C65"/>
<path d="M52.36 29.0785L49 18.5825H50.424L52.104 24.2465C52.296 24.8652 52.4613 25.4465 52.6 25.9905C52.7493 26.5238 52.9253 27.0998 53.128 27.7185H53.192C53.384 27.0998 53.5547 26.5238 53.704 25.9905C53.8533 25.4465 54.0187 24.8652 54.2 24.2465L55.88 18.5825H57.24L53.912 29.0785H52.36ZM58.5464 29.0785V21.3025H59.8584V29.0785H58.5464ZM59.2184 19.7025C58.9624 19.7025 58.749 19.6278 58.5784 19.4785C58.4184 19.3185 58.3384 19.1052 58.3384 18.8385C58.3384 18.5825 58.4184 18.3745 58.5784 18.2145C58.749 18.0545 58.9624 17.9745 59.2184 17.9745C59.4744 17.9745 59.6824 18.0545 59.8424 18.2145C60.013 18.3745 60.0984 18.5825 60.0984 18.8385C60.0984 19.1052 60.013 19.3185 59.8424 19.4785C59.6824 19.6278 59.4744 19.7025 59.2184 19.7025ZM65.6359 29.2705C64.9425 29.2705 64.3132 29.1105 63.7479 28.7905C63.1825 28.4598 62.7345 27.9905 62.4039 27.3825C62.0732 26.7745 61.9079 26.0492 61.9079 25.2065C61.9079 24.3532 62.0732 23.6225 62.4039 23.0145C62.7452 22.4065 63.1825 21.9372 63.7159 21.6065C64.2492 21.2758 64.8092 21.1105 65.3959 21.1105C66.3879 21.1105 67.1505 21.4412 67.6839 22.1025C68.2279 22.7638 68.4999 23.6492 68.4999 24.7585C68.4999 24.8972 68.4945 25.0358 68.4839 25.1745C68.4839 25.3025 68.4732 25.4145 68.4519 25.5105H63.2039C63.2572 26.3318 63.5132 26.9878 63.9719 27.4785C64.4412 27.9692 65.0492 28.2145 65.7959 28.2145C66.1692 28.2145 66.5105 28.1612 66.8199 28.0545C67.1399 27.9372 67.4439 27.7878 67.7319 27.6065L68.1959 28.4705C67.8652 28.6838 67.4865 28.8705 67.0599 29.0305C66.6439 29.1905 66.1692 29.2705 65.6359 29.2705ZM63.1879 24.5665H67.3479C67.3479 23.7772 67.1772 23.1798 66.8359 22.7745C66.5052 22.3585 66.0359 22.1505 65.4279 22.1505C64.8839 22.1505 64.3932 22.3638 63.9559 22.7905C63.5292 23.2065 63.2732 23.7985 63.1879 24.5665ZM71.7315 29.0785L69.5715 21.3025H70.9155L72.0675 25.7985C72.1528 26.1612 72.2328 26.5238 72.3075 26.8865C72.3822 27.2385 72.4568 27.5958 72.5315 27.9585H72.5955C72.6808 27.5958 72.7662 27.2385 72.8515 26.8865C72.9368 26.5238 73.0275 26.1612 73.1235 25.7985L74.3235 21.3025H75.6035L76.8195 25.7985C76.9155 26.1612 77.0062 26.5238 77.0915 26.8865C77.1875 27.2385 77.2782 27.5958 77.3635 27.9585H77.4275C77.5128 27.5958 77.5928 27.2385 77.6675 26.8865C77.7528 26.5238 77.8328 26.1612 77.9075 25.7985L79.0435 21.3025H80.2915L78.2115 29.0785H76.6115L75.4915 24.9025C75.3955 24.5292 75.3048 24.1612 75.2195 23.7985C75.1448 23.4358 75.0595 23.0572 74.9635 22.6625H74.8995C74.8142 23.0572 74.7288 23.4412 74.6435 23.8145C74.5582 24.1772 74.4622 24.5452 74.3555 24.9185L73.2675 29.0785H71.7315ZM85.0734 29.2705C84.38 29.2705 83.7507 29.1105 83.1854 28.7905C82.62 28.4598 82.172 27.9905 81.8414 27.3825C81.5107 26.7745 81.3454 26.0492 81.3454 25.2065C81.3454 24.3532 81.5107 23.6225 81.8414 23.0145C82.1827 22.4065 82.62 21.9372 83.1534 21.6065C83.6867 21.2758 84.2467 21.1105 84.8334 21.1105C85.8254 21.1105 86.588 21.4412 87.1214 22.1025C87.6654 22.7638 87.9374 23.6492 87.9374 24.7585C87.9374 24.8972 87.932 25.0358 87.9214 25.1745C87.9214 25.3025 87.9107 25.4145 87.8894 25.5105H82.6414C82.6947 26.3318 82.9507 26.9878 83.4094 27.4785C83.8787 27.9692 84.4867 28.2145 85.2334 28.2145C85.6067 28.2145 85.948 28.1612 86.2574 28.0545C86.5774 27.9372 86.8814 27.7878 87.1694 27.6065L87.6334 28.4705C87.3027 28.6838 86.924 28.8705 86.4974 29.0305C86.0814 29.1905 85.6067 29.2705 85.0734 29.2705ZM82.6254 24.5665H86.7854C86.7854 23.7772 86.6147 23.1798 86.2734 22.7745C85.9427 22.3585 85.4734 22.1505 84.8654 22.1505C84.3214 22.1505 83.8307 22.3638 83.3934 22.7905C82.9667 23.2065 82.7107 23.7985 82.6254 24.5665ZM89.8589 29.0785V21.3025H90.9469L91.0589 22.7105H91.1069C91.3735 22.2198 91.6989 21.8305 92.0829 21.5425C92.4669 21.2545 92.8775 21.1105 93.3149 21.1105C93.6242 21.1105 93.9015 21.1638 94.1469 21.2705L93.8909 22.4225C93.7629 22.3798 93.6455 22.3478 93.5389 22.3265C93.4322 22.3052 93.2989 22.2945 93.1389 22.2945C92.8082 22.2945 92.4615 22.4278 92.0989 22.6945C91.7469 22.9612 91.4375 23.4252 91.1709 24.0865V29.0785H89.8589Z" fill="#1B1B1B"/>
<path d="M29.5 26.9C30.5795 26.9 31.4972 26.5208 32.2528 25.7625C33.0085 25.0042 33.3864 24.0833 33.3864 23C33.3864 21.9167 33.0085 20.9958 32.2528 20.2375C31.4972 19.4792 30.5795 19.1 29.5 19.1C28.4205 19.1 27.5028 19.4792 26.7472 20.2375C25.9915 20.9958 25.6136 21.9167 25.6136 23C25.6136 24.0833 25.9915 25.0042 26.7472 25.7625C27.5028 26.5208 28.4205 26.9 29.5 26.9ZM29.5 25.34C28.8523 25.34 28.3017 25.1125 27.8483 24.6575C27.3949 24.2025 27.1682 23.65 27.1682 23C27.1682 22.35 27.3949 21.7975 27.8483 21.3425C28.3017 20.8875 28.8523 20.66 29.5 20.66C30.1477 20.66 30.6983 20.8875 31.1517 21.3425C31.6051 21.7975 31.8318 22.35 31.8318 23C31.8318 23.65 31.6051 24.2025 31.1517 24.6575C30.6983 25.1125 30.1477 25.34 29.5 25.34ZM29.5 29.5C27.3985 29.5 25.4841 28.9114 23.7568 27.7342C22.0295 26.5569 20.7773 24.9789 20 23C20.7773 21.0211 22.0295 19.4431 23.7568 18.2658C25.4841 17.0886 27.3985 16.5 29.5 16.5C31.6015 16.5 33.5159 17.0886 35.2432 18.2658C36.9705 19.4431 38.2227 21.0211 39 23C38.2227 24.9789 36.9705 26.5569 35.2432 27.7342C33.5159 28.9114 31.6015 29.5 29.5 29.5ZM29.5 27.7667C31.1265 27.7667 32.6199 27.3369 33.9801 26.4775C35.3403 25.6181 36.3803 24.4589 37.1 23C36.3803 21.5411 35.3403 20.3819 33.9801 19.5225C32.6199 18.6631 31.1265 18.2333 29.5 18.2333C27.8735 18.2333 26.3801 18.6631 25.0199 19.5225C23.6597 20.3819 22.6197 21.5411 21.9 23C22.6197 24.4589 23.6597 25.6181 25.0199 26.4775C26.3801 27.3369 27.8735 27.7667 29.5 27.7667Z" fill="#383838"/>
<path d="M7.26 207V197.816H8.422V206.006H12.44V207H7.26ZM17.4286 207V197.816H18.5906V207H17.4286ZM24.4663 207V197.816H27.1963C27.8217 197.816 28.3677 197.891 28.8343 198.04C29.3103 198.189 29.679 198.427 29.9403 198.754C30.211 199.081 30.3463 199.515 30.3463 200.056C30.3463 200.513 30.2297 200.929 29.9963 201.302C29.7723 201.666 29.441 201.918 29.0023 202.058V202.114C29.553 202.217 30.001 202.45 30.3463 202.814C30.701 203.178 30.8783 203.677 30.8783 204.312C30.8783 204.909 30.729 205.409 30.4303 205.81C30.141 206.211 29.735 206.51 29.2123 206.706C28.6897 206.902 28.083 207 27.3923 207H24.4663ZM25.6283 201.722H26.9863C27.7703 201.722 28.335 201.587 28.6803 201.316C29.0257 201.045 29.1983 200.677 29.1983 200.21C29.1983 199.678 29.0163 199.3 28.6523 199.076C28.2977 198.852 27.761 198.74 27.0423 198.74H25.6283V201.722ZM25.6283 206.076H27.2243C28.0177 206.076 28.6337 205.931 29.0723 205.642C29.511 205.343 29.7303 204.886 29.7303 204.27C29.7303 203.701 29.511 203.285 29.0723 203.024C28.643 202.753 28.027 202.618 27.2243 202.618H25.6283V206.076ZM36.0568 207V197.816H38.9268C39.5521 197.816 40.1075 197.9 40.5928 198.068C41.0781 198.227 41.4561 198.497 41.7268 198.88C42.0068 199.253 42.1468 199.757 42.1468 200.392C42.1468 201.101 41.9601 201.675 41.5868 202.114C41.2135 202.543 40.7095 202.837 40.0748 202.996L42.4128 207H41.0968L38.8848 203.122H37.2188V207H36.0568ZM37.2188 202.17H38.7588C39.4775 202.17 40.0281 202.025 40.4108 201.736C40.7935 201.437 40.9848 200.989 40.9848 200.392C40.9848 199.785 40.7935 199.361 40.4108 199.118C40.0281 198.875 39.4775 198.754 38.7588 198.754H37.2188V202.17ZM48.9148 201.862L48.4808 203.262H51.2388L50.8048 201.862C50.6368 201.349 50.4781 200.84 50.3288 200.336C50.1795 199.823 50.0301 199.3 49.8808 198.768H49.8248C49.6848 199.3 49.5401 199.823 49.3908 200.336C49.2415 200.84 49.0828 201.349 48.9148 201.862ZM46.1148 207L49.2228 197.816H50.5388L53.6468 207H52.4008L51.5328 204.2H48.1868L47.3048 207H46.1148ZM58.308 207V197.816H61.178C61.8034 197.816 62.3587 197.9 62.844 198.068C63.3294 198.227 63.7074 198.497 63.978 198.88C64.258 199.253 64.398 199.757 64.398 200.392C64.398 201.101 64.2114 201.675 63.838 202.114C63.4647 202.543 62.9607 202.837 62.326 202.996L64.664 207H63.348L61.136 203.122H59.47V207H58.308ZM59.47 202.17H61.01C61.7287 202.17 62.2794 202.025 62.662 201.736C63.0447 201.437 63.236 200.989 63.236 200.392C63.236 199.785 63.0447 199.361 62.662 199.118C62.2794 198.875 61.7287 198.754 61.01 198.754H59.47V202.17ZM71.1227 207V203.444L68.3647 197.816H69.6107L70.8007 200.406C70.9501 200.742 71.0947 201.073 71.2348 201.4C71.3841 201.727 71.5334 202.063 71.6828 202.408H71.7387C71.8974 202.063 72.0561 201.727 72.2148 201.4C72.3734 201.073 72.5228 200.742 72.6628 200.406L73.8388 197.816H75.0568L72.2987 203.444V207H71.1227Z" fill="#9D9D9D"/>
<path d="M7.26 413V403.816H10.13C10.7553 403.816 11.3107 403.9 11.796 404.068C12.2813 404.227 12.6593 404.497 12.93 404.88C13.21 405.253 13.35 405.757 13.35 406.392C13.35 407.101 13.1633 407.675 12.79 408.114C12.4167 408.543 11.9127 408.837 11.278 408.996L13.616 413H12.3L10.088 409.122H8.422V413H7.26ZM8.422 408.17H9.962C10.6807 408.17 11.2313 408.025 11.614 407.736C11.9967 407.437 12.188 406.989 12.188 406.392C12.188 405.785 11.9967 405.361 11.614 405.118C11.2313 404.875 10.6807 404.754 9.962 404.754H8.422V408.17ZM18.5907 413V403.816H23.8827V404.796H19.7527V407.68H23.2387V408.674H19.7527V412.006H24.0227V413H18.5907ZM31.8815 413.168C31.2375 413.168 30.6402 413.047 30.0895 412.804C29.5388 412.552 29.0628 412.221 28.6615 411.81L29.3615 410.998C29.6882 411.343 30.0708 411.623 30.5095 411.838C30.9575 412.043 31.4195 412.146 31.8955 412.146C32.5022 412.146 32.9735 412.011 33.3095 411.74C33.6455 411.46 33.8135 411.096 33.8135 410.648C33.8135 410.331 33.7435 410.079 33.6035 409.892C33.4728 409.705 33.2908 409.547 33.0575 409.416C32.8335 409.285 32.5768 409.155 32.2875 409.024L30.9715 408.45C30.6822 408.329 30.3928 408.17 30.1035 407.974C29.8235 407.778 29.5855 407.526 29.3895 407.218C29.2028 406.91 29.1095 406.532 29.1095 406.084C29.1095 405.617 29.2308 405.202 29.4735 404.838C29.7255 404.465 30.0708 404.175 30.5095 403.97C30.9482 403.755 31.4428 403.648 31.9935 403.648C32.5442 403.648 33.0528 403.755 33.5195 403.97C33.9862 404.175 34.3828 404.446 34.7095 404.782L34.0795 405.538C33.7995 405.267 33.4868 405.057 33.1415 404.908C32.8055 404.749 32.4228 404.67 31.9935 404.67C31.4802 404.67 31.0648 404.791 30.7475 405.034C30.4395 405.277 30.2855 405.603 30.2855 406.014C30.2855 406.303 30.3602 406.546 30.5095 406.742C30.6682 406.929 30.8642 407.083 31.0975 407.204C31.3308 407.325 31.5688 407.437 31.8115 407.54L33.1135 408.1C33.4682 408.249 33.7855 408.431 34.0655 408.646C34.3548 408.851 34.5835 409.108 34.7515 409.416C34.9195 409.715 35.0035 410.093 35.0035 410.55C35.0035 411.035 34.8775 411.479 34.6255 411.88C34.3735 412.272 34.0142 412.585 33.5475 412.818C33.0808 413.051 32.5255 413.168 31.8815 413.168ZM43.56 413.168C42.7947 413.168 42.1134 412.972 41.516 412.58C40.928 412.188 40.466 411.633 40.13 410.914C39.8034 410.195 39.64 409.346 39.64 408.366C39.64 407.386 39.8034 406.546 40.13 405.846C40.466 405.137 40.928 404.595 41.516 404.222C42.1134 403.839 42.7947 403.648 43.56 403.648C44.3347 403.648 45.016 403.839 45.604 404.222C46.192 404.595 46.654 405.137 46.99 405.846C47.326 406.546 47.494 407.386 47.494 408.366C47.494 409.346 47.326 410.195 46.99 410.914C46.654 411.633 46.192 412.188 45.604 412.58C45.016 412.972 44.3347 413.168 43.56 413.168ZM43.56 412.146C44.1107 412.146 44.5867 411.992 44.988 411.684C45.3987 411.367 45.716 410.928 45.94 410.368C46.164 409.799 46.276 409.131 46.276 408.366C46.276 407.227 46.0287 406.327 45.534 405.664C45.0394 405.001 44.3814 404.67 43.56 404.67C42.7387 404.67 42.0807 405.001 41.586 405.664C41.0914 406.327 40.844 407.227 40.844 408.366C40.844 409.131 40.956 409.799 41.18 410.368C41.404 410.928 41.7214 411.367 42.132 411.684C42.5427 411.992 43.0187 412.146 43.56 412.146ZM56.0909 413.168C55.4656 413.168 54.9009 413.042 54.3969 412.79C53.9022 412.538 53.5102 412.123 53.2209 411.544C52.9316 410.965 52.7869 410.186 52.7869 409.206V403.816H53.9489V409.234C53.9489 409.971 54.0422 410.555 54.2289 410.984C54.4249 411.404 54.6816 411.703 54.9989 411.88C55.3256 412.057 55.6896 412.146 56.0909 412.146C56.5016 412.146 56.8702 412.057 57.1969 411.88C57.5236 411.703 57.7802 411.404 57.9669 410.984C58.1629 410.555 58.2609 409.971 58.2609 409.234V403.816H59.3809V409.206C59.3809 410.186 59.2362 410.965 58.9469 411.544C58.6576 412.123 58.2656 412.538 57.7709 412.79C57.2762 413.042 56.7162 413.168 56.0909 413.168ZM65.2123 413V403.816H68.0823C68.7077 403.816 69.263 403.9 69.7483 404.068C70.2337 404.227 70.6117 404.497 70.8823 404.88C71.1623 405.253 71.3023 405.757 71.3023 406.392C71.3023 407.101 71.1157 407.675 70.7423 408.114C70.369 408.543 69.865 408.837 69.2303 408.996L71.5683 413H70.2523L68.0403 409.122H66.3743V413H65.2123ZM66.3743 408.17H67.9143C68.633 408.17 69.1837 408.025 69.5663 407.736C69.949 407.437 70.1403 406.989 70.1403 406.392C70.1403 405.785 69.949 405.361 69.5663 405.118C69.1837 404.875 68.633 404.754 67.9143 404.754H66.3743V408.17ZM80.015 413.168C79.2497 413.168 78.5637 412.981 77.957 412.608C77.3597 412.225 76.8837 411.679 76.529 410.97C76.1837 410.261 76.011 409.407 76.011 408.408C76.011 407.419 76.1884 406.569 76.543 405.86C76.8977 405.151 77.383 404.605 77.999 404.222C78.615 403.839 79.3104 403.648 80.085 403.648C80.645 403.648 81.1397 403.765 81.569 403.998C81.9984 404.222 82.3437 404.483 82.605 404.782L81.975 405.538C81.7324 405.277 81.457 405.067 81.149 404.908C80.841 404.749 80.491 404.67 80.099 404.67C79.5204 404.67 79.0117 404.824 78.573 405.132C78.1437 405.431 77.8077 405.855 77.565 406.406C77.3317 406.957 77.215 407.615 77.215 408.38C77.215 409.145 77.3317 409.813 77.565 410.382C77.7984 410.942 78.125 411.376 78.545 411.684C78.9744 411.992 79.4784 412.146 80.057 412.146C80.4957 412.146 80.8877 412.053 81.233 411.866C81.5784 411.679 81.8957 411.427 82.185 411.11L82.829 411.838C82.465 412.258 82.0544 412.585 81.597 412.818C81.1397 413.051 80.6124 413.168 80.015 413.168ZM87.9011 413V403.816H93.1931V404.796H89.0631V407.68H92.5491V408.674H89.0631V412.006H93.3331V413H87.9011ZM101.192 413.168C100.548 413.168 99.9506 413.047 99.3999 412.804C98.8492 412.552 98.3732 412.221 97.9719 411.81L98.6719 410.998C98.9986 411.343 99.3812 411.623 99.8199 411.838C100.268 412.043 100.73 412.146 101.206 412.146C101.813 412.146 102.284 412.011 102.62 411.74C102.956 411.46 103.124 411.096 103.124 410.648C103.124 410.331 103.054 410.079 102.914 409.892C102.783 409.705 102.601 409.547 102.368 409.416C102.144 409.285 101.887 409.155 101.598 409.024L100.282 408.45C99.9926 408.329 99.7032 408.17 99.4139 407.974C99.1339 407.778 98.8959 407.526 98.6999 407.218C98.5132 406.91 98.4199 406.532 98.4199 406.084C98.4199 405.617 98.5412 405.202 98.7839 404.838C99.0359 404.465 99.3812 404.175 99.8199 403.97C100.259 403.755 100.753 403.648 101.304 403.648C101.855 403.648 102.363 403.755 102.83 403.97C103.297 404.175 103.693 404.446 104.02 404.782L103.39 405.538C103.11 405.267 102.797 405.057 102.452 404.908C102.116 404.749 101.733 404.67 101.304 404.67C100.791 404.67 100.375 404.791 100.058 405.034C99.7499 405.277 99.5959 405.603 99.5959 406.014C99.5959 406.303 99.6706 406.546 99.8199 406.742C99.9786 406.929 100.175 407.083 100.408 407.204C100.641 407.325 100.879 407.437 101.122 407.54L102.424 408.1C102.779 408.249 103.096 408.431 103.376 408.646C103.665 408.851 103.894 409.108 104.062 409.416C104.23 409.715 104.314 410.093 104.314 410.55C104.314 411.035 104.188 411.479 103.936 411.88C103.684 412.272 103.325 412.585 102.858 412.818C102.391 413.051 101.836 413.168 101.192 413.168Z" fill="#9D9D9D"/>
</svg>
