<svg width="240" height="174" viewBox="0 0 240 174" fill="none" xmlns="http://www.w3.org/2000/svg">
<g filter="url(#filter0_d_194_15598)">
<rect x="8" y="4" width="210" height="158" fill="white" shape-rendering="crispEdges"/>
<rect x="8.5" y="4.5" width="209" height="157" stroke="#DFE1E2" shape-rendering="crispEdges"/>
<path d="M35.5 28.4C36.5795 28.4 37.4972 28.0208 38.2528 27.2625C39.0085 26.5042 39.3864 25.5833 39.3864 24.5C39.3864 23.4167 39.0085 22.4958 38.2528 21.7375C37.4972 20.9792 36.5795 20.6 35.5 20.6C34.4205 20.6 33.5028 20.9792 32.7472 21.7375C31.9915 22.4958 31.6136 23.4167 31.6136 24.5C31.6136 25.5833 31.9915 26.5042 32.7472 27.2625C33.5028 28.0208 34.4205 28.4 35.5 28.4ZM35.5 26.84C34.8523 26.84 34.3017 26.6125 33.8483 26.1575C33.3949 25.7025 33.1682 25.15 33.1682 24.5C33.1682 23.85 33.3949 23.2975 33.8483 22.8425C34.3017 22.3875 34.8523 22.16 35.5 22.16C36.1477 22.16 36.6983 22.3875 37.1517 22.8425C37.6051 23.2975 37.8318 23.85 37.8318 24.5C37.8318 25.15 37.6051 25.7025 37.1517 26.1575C36.6983 26.6125 36.1477 26.84 35.5 26.84ZM35.5 31C33.3985 31 31.4841 30.4114 29.7568 29.2342C28.0295 28.0569 26.7773 26.4789 26 24.5C26.7773 22.5211 28.0295 20.9431 29.7568 19.7658C31.4841 18.5886 33.3985 18 35.5 18C37.6015 18 39.5159 18.5886 41.2432 19.7658C42.9705 20.9431 44.2227 22.5211 45 24.5C44.2227 26.4789 42.9705 28.0569 41.2432 29.2342C39.5159 30.4114 37.6015 31 35.5 31ZM35.5 29.2667C37.1265 29.2667 38.6199 28.8369 39.9801 27.9775C41.3403 27.1181 42.3803 25.9589 43.1 24.5C42.3803 23.0411 41.3403 21.8819 39.9801 21.0225C38.6199 20.1631 37.1265 19.7333 35.5 19.7333C33.8735 19.7333 32.3801 20.1631 31.0199 21.0225C29.6597 21.8819 28.6197 23.0411 27.9 24.5C28.6197 25.9589 29.6597 27.1181 31.0199 27.9775C32.3801 28.8369 33.8735 29.2667 35.5 29.2667Z" fill="#383838"/>
<path d="M59.36 30L56 19.504H57.424L59.104 25.168C59.296 25.7867 59.4613 26.368 59.6 26.912C59.7493 27.4453 59.9253 28.0213 60.128 28.64H60.192C60.384 28.0213 60.5547 27.4453 60.704 26.912C60.8533 26.368 61.0187 25.7867 61.2 25.168L62.88 19.504H64.24L60.912 30H59.36ZM65.5464 30V22.224H66.8584V30H65.5464ZM66.2184 20.624C65.9624 20.624 65.749 20.5493 65.5784 20.4C65.4184 20.24 65.3384 20.0267 65.3384 19.76C65.3384 19.504 65.4184 19.296 65.5784 19.136C65.749 18.976 65.9624 18.896 66.2184 18.896C66.4744 18.896 66.6824 18.976 66.8424 19.136C67.013 19.296 67.0984 19.504 67.0984 19.76C67.0984 20.0267 67.013 20.24 66.8424 20.4C66.6824 20.5493 66.4744 20.624 66.2184 20.624ZM72.6359 30.192C71.9425 30.192 71.3132 30.032 70.7479 29.712C70.1825 29.3813 69.7345 28.912 69.4039 28.304C69.0732 27.696 68.9079 26.9707 68.9079 26.128C68.9079 25.2747 69.0732 24.544 69.4039 23.936C69.7452 23.328 70.1825 22.8587 70.7159 22.528C71.2492 22.1973 71.8092 22.032 72.3959 22.032C73.3879 22.032 74.1505 22.3627 74.6839 23.024C75.2279 23.6853 75.4999 24.5707 75.4999 25.68C75.4999 25.8187 75.4945 25.9573 75.4839 26.096C75.4839 26.224 75.4732 26.336 75.4519 26.432H70.2039C70.2572 27.2533 70.5132 27.9093 70.9719 28.4C71.4412 28.8907 72.0492 29.136 72.7959 29.136C73.1692 29.136 73.5105 29.0827 73.8199 28.976C74.1399 28.8587 74.4439 28.7093 74.7319 28.528L75.1959 29.392C74.8652 29.6053 74.4865 29.792 74.0599 29.952C73.6439 30.112 73.1692 30.192 72.6359 30.192ZM70.1879 25.488H74.3479C74.3479 24.6987 74.1772 24.1013 73.8359 23.696C73.5052 23.28 73.0359 23.072 72.4279 23.072C71.8839 23.072 71.3932 23.2853 70.9559 23.712C70.5292 24.128 70.2732 24.72 70.1879 25.488ZM78.7315 30L76.5715 22.224H77.9155L79.0675 26.72C79.1528 27.0827 79.2328 27.4453 79.3075 27.808C79.3822 28.16 79.4568 28.5173 79.5315 28.88H79.5955C79.6808 28.5173 79.7662 28.16 79.8515 27.808C79.9368 27.4453 80.0275 27.0827 80.1235 26.72L81.3235 22.224H82.6035L83.8195 26.72C83.9155 27.0827 84.0062 27.4453 84.0915 27.808C84.1875 28.16 84.2782 28.5173 84.3635 28.88H84.4275C84.5128 28.5173 84.5928 28.16 84.6675 27.808C84.7528 27.4453 84.8328 27.0827 84.9075 26.72L86.0435 22.224H87.2915L85.2115 30H83.6115L82.4915 25.824C82.3955 25.4507 82.3048 25.0827 82.2195 24.72C82.1448 24.3573 82.0595 23.9787 81.9635 23.584H81.8995C81.8142 23.9787 81.7288 24.3627 81.6435 24.736C81.5582 25.0987 81.4622 25.4667 81.3555 25.84L80.2675 30H78.7315ZM92.0734 30.192C91.38 30.192 90.7507 30.032 90.1854 29.712C89.62 29.3813 89.172 28.912 88.8414 28.304C88.5107 27.696 88.3454 26.9707 88.3454 26.128C88.3454 25.2747 88.5107 24.544 88.8414 23.936C89.1827 23.328 89.62 22.8587 90.1534 22.528C90.6867 22.1973 91.2467 22.032 91.8334 22.032C92.8254 22.032 93.588 22.3627 94.1214 23.024C94.6654 23.6853 94.9374 24.5707 94.9374 25.68C94.9374 25.8187 94.932 25.9573 94.9214 26.096C94.9214 26.224 94.9107 26.336 94.8894 26.432H89.6414C89.6947 27.2533 89.9507 27.9093 90.4094 28.4C90.8787 28.8907 91.4867 29.136 92.2334 29.136C92.6067 29.136 92.948 29.0827 93.2574 28.976C93.5774 28.8587 93.8814 28.7093 94.1694 28.528L94.6334 29.392C94.3027 29.6053 93.924 29.792 93.4974 29.952C93.0814 30.112 92.6067 30.192 92.0734 30.192ZM89.6254 25.488H93.7854C93.7854 24.6987 93.6147 24.1013 93.2734 23.696C92.9427 23.28 92.4734 23.072 91.8654 23.072C91.3214 23.072 90.8307 23.2853 90.3934 23.712C89.9667 24.128 89.7107 24.72 89.6254 25.488ZM96.8589 30V22.224H97.9469L98.0589 23.632H98.1069C98.3735 23.1413 98.6989 22.752 99.0829 22.464C99.4669 22.176 99.8775 22.032 100.315 22.032C100.624 22.032 100.902 22.0853 101.147 22.192L100.891 23.344C100.763 23.3013 100.646 23.2693 100.539 23.248C100.432 23.2267 100.299 23.216 100.139 23.216C99.8082 23.216 99.4615 23.3493 99.0989 23.616C98.7469 23.8827 98.4375 24.3467 98.1709 25.008V30H96.8589Z" fill="#1B1B1B"/>
<rect x="8.5" y="44.5" width="209" height="39" fill="#F3F3F3"/>
<rect x="8.5" y="44.5" width="209" height="39" stroke="#DFE1E2"/>
<path d="M35.475 68.3133L43.85 59.9383L42.55 58.6383L34.175 67.0133L35.475 68.3133ZM28.95 70.4883C27.2833 70.4049 26.0417 70.0549 25.225 69.4383C24.4083 68.8216 24 67.9299 24 66.7633C24 65.6799 24.4458 64.8008 25.3375 64.1258C26.2292 63.4508 27.4667 63.0466 29.05 62.9133C29.7 62.8633 30.1875 62.7591 30.5125 62.6008C30.8375 62.4424 31 62.2216 31 61.9383C31 61.5049 30.7542 61.1799 30.2625 60.9633C29.7708 60.7466 28.9583 60.5883 27.825 60.4883L28 58.4883C29.7167 58.6216 30.9792 58.9674 31.7875 59.5258C32.5958 60.0841 33 60.8883 33 61.9383C33 62.8216 32.6792 63.5133 32.0375 64.0133C31.3958 64.5133 30.45 64.8133 29.2 64.9133C28.1333 64.9966 27.3333 65.1924 26.8 65.5008C26.2667 65.8091 26 66.2299 26 66.7633C26 67.3466 26.2333 67.7674 26.7 68.0258C27.1667 68.2841 27.95 68.4383 29.05 68.4883L28.95 70.4883ZM35.95 70.6633L31.825 66.5383L41.375 56.9883C41.7083 56.6549 42.1042 56.4883 42.5625 56.4883C43.0208 56.4883 43.4167 56.6549 43.75 56.9883L45.5 58.7383C45.8333 59.0716 46 59.4674 46 59.9258C46 60.3841 45.8333 60.7799 45.5 61.1133L35.95 70.6633ZM31.975 71.4883C31.6917 71.5549 31.4417 71.4799 31.225 71.2633C31.0083 71.0466 30.9333 70.7966 31 70.5133L31.825 66.5383L35.95 70.6633L31.975 71.4883Z" fill="#383838"/>
<path d="M60.408 70.192C59.5333 70.192 58.7493 69.9787 58.056 69.552C57.3733 69.1147 56.8293 68.4907 56.424 67.68C56.0293 66.8693 55.832 65.8933 55.832 64.752C55.832 63.6213 56.0347 62.6507 56.44 61.84C56.8453 61.0293 57.4 60.4053 58.104 59.968C58.808 59.5307 59.6027 59.312 60.488 59.312C61.128 59.312 61.6933 59.4453 62.184 59.712C62.6747 59.968 63.0693 60.2667 63.368 60.608L62.648 61.472C62.3707 61.1733 62.056 60.9333 61.704 60.752C61.352 60.5707 60.952 60.48 60.504 60.48C59.8427 60.48 59.2613 60.656 58.76 61.008C58.2693 61.3493 57.8853 61.8347 57.608 62.464C57.3413 63.0933 57.208 63.8453 57.208 64.72C57.208 65.5947 57.3413 66.3573 57.608 67.008C57.8747 67.648 58.248 68.144 58.728 68.496C59.2187 68.848 59.7947 69.024 60.456 69.024C60.9573 69.024 61.4053 68.9173 61.8 68.704C62.1947 68.4907 62.5573 68.2027 62.888 67.84L63.624 68.672C63.208 69.152 62.7387 69.5253 62.216 69.792C61.6933 70.0587 61.0907 70.192 60.408 70.192ZM65.4526 70V62.224H66.5406L66.6526 63.632H66.7006C66.9673 63.1413 67.2926 62.752 67.6766 62.464C68.0606 62.176 68.4713 62.032 68.9086 62.032C69.218 62.032 69.4953 62.0853 69.7406 62.192L69.4846 63.344C69.3566 63.3013 69.2393 63.2693 69.1326 63.248C69.026 63.2267 68.8926 63.216 68.7326 63.216C68.402 63.216 68.0553 63.3493 67.6926 63.616C67.3406 63.8827 67.0313 64.3467 66.7646 65.008V70H65.4526ZM73.9953 70.192C73.3019 70.192 72.6726 70.032 72.1073 69.712C71.5419 69.3813 71.0939 68.912 70.7633 68.304C70.4326 67.696 70.2673 66.9707 70.2673 66.128C70.2673 65.2747 70.4326 64.544 70.7633 63.936C71.1046 63.328 71.5419 62.8587 72.0753 62.528C72.6086 62.1973 73.1686 62.032 73.7552 62.032C74.7473 62.032 75.5099 62.3627 76.0433 63.024C76.5873 63.6853 76.8593 64.5707 76.8593 65.68C76.8593 65.8187 76.8539 65.9573 76.8433 66.096C76.8433 66.224 76.8326 66.336 76.8113 66.432H71.5633C71.6166 67.2533 71.8726 67.9093 72.3313 68.4C72.8006 68.8907 73.4086 69.136 74.1553 69.136C74.5286 69.136 74.8699 69.0827 75.1793 68.976C75.4993 68.8587 75.8033 68.7093 76.0913 68.528L76.5553 69.392C76.2246 69.6053 75.8459 69.792 75.4193 69.952C75.0033 70.112 74.5286 70.192 73.9953 70.192ZM71.5473 65.488H75.7073C75.7073 64.6987 75.5366 64.1013 75.1953 63.696C74.8646 63.28 74.3953 63.072 73.7873 63.072C73.2433 63.072 72.7526 63.2853 72.3153 63.712C71.8886 64.128 71.6326 64.72 71.5473 65.488ZM80.354 70.192C79.7033 70.192 79.1593 70 78.722 69.616C78.2953 69.2213 78.082 68.6773 78.082 67.984C78.082 67.1307 78.4607 66.48 79.218 66.032C79.986 65.5733 81.1967 65.2533 82.85 65.072C82.85 64.7413 82.802 64.4267 82.706 64.128C82.6207 63.8293 82.4607 63.5893 82.226 63.408C82.002 63.216 81.6767 63.12 81.25 63.12C80.802 63.12 80.3807 63.2053 79.986 63.376C79.5913 63.5467 79.2393 63.7387 78.93 63.952L78.418 63.04C78.7807 62.8053 79.2233 62.5813 79.746 62.368C80.2793 62.144 80.8553 62.032 81.474 62.032C82.4233 62.032 83.1113 62.3253 83.538 62.912C83.9647 63.488 84.178 64.2613 84.178 65.232V70H83.09L82.978 69.072H82.93C82.5673 69.3707 82.1673 69.632 81.73 69.856C81.3033 70.08 80.8447 70.192 80.354 70.192ZM80.738 69.136C81.1113 69.136 81.4633 69.0453 81.794 68.864C82.1247 68.6827 82.4767 68.4267 82.85 68.096V65.936C81.5593 66.096 80.6527 66.336 80.13 66.656C79.618 66.976 79.362 67.3867 79.362 67.888C79.362 68.3253 79.4953 68.6453 79.762 68.848C80.0287 69.04 80.354 69.136 80.738 69.136ZM88.8538 70.192C88.0218 70.192 87.4404 69.952 87.1098 69.472C86.7898 68.992 86.6298 68.368 86.6298 67.6V63.296H85.4778V62.304L86.6938 62.224L86.8538 60.048H87.9578V62.224H90.0538V63.296H87.9578V67.616C87.9578 68.096 88.0431 68.4693 88.2138 68.736C88.3951 68.992 88.7098 69.12 89.1578 69.12C89.2964 69.12 89.4458 69.0987 89.6058 69.056C89.7658 69.0027 89.9098 68.9547 90.0378 68.912L90.2938 69.904C90.0804 69.9787 89.8458 70.0427 89.5898 70.096C89.3444 70.16 89.0991 70.192 88.8538 70.192ZM94.6173 70.192C93.9879 70.192 93.3959 70.032 92.8413 69.712C92.2973 69.392 91.8546 68.928 91.5133 68.32C91.1826 67.712 91.0173 66.9813 91.0173 66.128C91.0173 65.2533 91.1826 64.512 91.5133 63.904C91.8546 63.296 92.2973 62.832 92.8413 62.512C93.3959 62.192 93.9879 62.032 94.6173 62.032C95.2573 62.032 95.8493 62.192 96.3933 62.512C96.9373 62.832 97.3746 63.296 97.7053 63.904C98.0466 64.512 98.2173 65.2533 98.2173 66.128C98.2173 66.9813 98.0466 67.712 97.7053 68.32C97.3746 68.928 96.9373 69.392 96.3933 69.712C95.8493 70.032 95.2573 70.192 94.6173 70.192ZM94.6173 69.104C95.2893 69.104 95.8279 68.832 96.2333 68.288C96.6493 67.7333 96.8573 67.0133 96.8573 66.128C96.8573 65.232 96.6493 64.5067 96.2333 63.952C95.8279 63.3973 95.2893 63.12 94.6173 63.12C93.9559 63.12 93.4173 63.3973 93.0013 63.952C92.5853 64.5067 92.3773 65.232 92.3773 66.128C92.3773 67.0133 92.5853 67.7333 93.0013 68.288C93.4173 68.832 93.9559 69.104 94.6173 69.104ZM100.265 70V62.224H101.353L101.465 63.632H101.513C101.78 63.1413 102.105 62.752 102.489 62.464C102.873 62.176 103.284 62.032 103.721 62.032C104.03 62.032 104.308 62.0853 104.553 62.192L104.297 63.344C104.169 63.3013 104.052 63.2693 103.945 63.248C103.838 63.2267 103.705 63.216 103.545 63.216C103.214 63.216 102.868 63.3493 102.505 63.616C102.153 63.8827 101.844 64.3467 101.577 65.008V70H100.265Z" fill="#1B1B1B"/>
<rect x="8.5" y="83.5" width="209" height="39" stroke="#DFE1E2"/>
<path d="M39.7083 106.792C41.5717 106.792 43.7708 107.658 44.0417 108.178V108.958H35.375V108.178C35.6458 107.658 37.845 106.792 39.7083 106.792ZM39.7083 105.167C37.7258 105.167 33.75 106.163 33.75 108.146V110.583H45.6667V108.146C45.6667 106.163 41.6908 105.167 39.7083 105.167ZM31.5833 104.083C29.0592 104.083 24 105.351 24 107.875V110.583H31.5833V108.958H25.625V107.875C25.625 107.192 28.6475 105.535 32.4717 105.708C32.9374 105.151 33.5079 104.691 34.1508 104.354C33.3058 104.181 32.4459 104.09 31.5833 104.083ZM31.5833 97.0415C31.9047 97.0415 32.2189 97.1368 32.4861 97.3154C32.7534 97.4939 32.9616 97.7477 33.0846 98.0446C33.2076 98.3416 33.2398 98.6683 33.1771 98.9835C33.1144 99.2987 32.9596 99.5883 32.7324 99.8156C32.5051 100.043 32.2156 100.198 31.9004 100.26C31.5851 100.323 31.2584 100.291 30.9615 100.168C30.6645 100.045 30.4108 99.8365 30.2322 99.5693C30.0536 99.3021 29.9583 98.9879 29.9583 98.6665C29.9583 98.2355 30.1295 97.8222 30.4343 97.5175C30.739 97.2127 31.1524 97.0415 31.5833 97.0415ZM31.5833 95.4165C30.9405 95.4165 30.3122 95.6071 29.7777 95.9642C29.2433 96.3213 28.8267 96.8289 28.5807 97.4228C28.3347 98.0166 28.2704 98.6701 28.3958 99.3005C28.5212 99.931 28.8307 100.51 29.2852 100.965C29.7398 101.419 30.3189 101.729 30.9493 101.854C31.5797 101.979 32.2332 101.915 32.8271 101.669C33.4209 101.423 33.9285 101.007 34.2856 100.472C34.6427 99.9376 34.8333 99.3093 34.8333 98.6665C34.8333 97.8046 34.4909 96.9779 33.8814 96.3684C33.2719 95.7589 32.4453 95.4165 31.5833 95.4165ZM39.7083 99.2082C39.9226 99.2082 40.132 99.2717 40.3102 99.3907C40.4884 99.5098 40.6272 99.679 40.7092 99.8769C40.7912 100.075 40.8127 100.293 40.7708 100.503C40.729 100.713 40.6259 100.906 40.4744 101.058C40.3229 101.209 40.1298 101.312 39.9197 101.354C39.7095 101.396 39.4917 101.374 39.2938 101.292C39.0958 101.21 38.9266 101.072 38.8076 100.893C38.6885 100.715 38.625 100.506 38.625 100.292C38.625 100.004 38.7391 99.7286 38.9423 99.5255C39.1455 99.3223 39.421 99.2082 39.7083 99.2082ZM39.7083 97.5832C39.1727 97.5832 38.649 97.742 38.2037 98.0396C37.7583 98.3372 37.4111 98.7602 37.2062 99.2551C37.0012 99.75 36.9475 100.295 37.052 100.82C37.1565 101.345 37.4145 101.828 37.7933 102.207C38.172 102.585 38.6546 102.843 39.18 102.948C39.7053 103.052 40.2499 102.999 40.7448 102.794C41.2396 102.589 41.6626 102.242 41.9602 101.796C42.2578 101.351 42.4167 100.827 42.4167 100.292C42.4167 99.5732 42.1313 98.8843 41.6234 98.3764C41.1155 97.8685 40.4266 97.5832 39.7083 97.5832Z" fill="#383838"/>
<path d="M59.0161 109.192C58.2801 109.192 57.5974 109.053 56.9681 108.776C56.3387 108.488 55.7947 108.109 55.3361 107.64L56.1361 106.712C56.5094 107.107 56.9467 107.427 57.4481 107.672C57.9601 107.907 58.4881 108.024 59.0321 108.024C59.7254 108.024 60.2641 107.869 60.6481 107.56C61.0321 107.24 61.2241 106.824 61.2241 106.312C61.2241 105.949 61.1441 105.661 60.9841 105.448C60.8347 105.235 60.6267 105.053 60.3601 104.904C60.1041 104.755 59.8107 104.605 59.4801 104.456L57.9761 103.8C57.6454 103.661 57.3147 103.48 56.9841 103.256C56.6641 103.032 56.3921 102.744 56.1681 102.392C55.9547 102.04 55.8481 101.608 55.8481 101.096C55.8481 100.563 55.9867 100.088 56.2641 99.672C56.5521 99.2453 56.9467 98.9147 57.4481 98.68C57.9494 98.4347 58.5147 98.312 59.1441 98.312C59.7734 98.312 60.3547 98.4347 60.8881 98.68C61.4214 98.9147 61.8747 99.224 62.2481 99.608L61.5281 100.472C61.2081 100.163 60.8507 99.9227 60.4561 99.752C60.0721 99.5707 59.6347 99.48 59.1441 99.48C58.5574 99.48 58.0827 99.6187 57.7201 99.896C57.3681 100.173 57.1921 100.547 57.1921 101.016C57.1921 101.347 57.2774 101.624 57.4481 101.848C57.6294 102.061 57.8534 102.237 58.1201 102.376C58.3867 102.515 58.6587 102.643 58.9361 102.76L60.4241 103.4C60.8294 103.571 61.1921 103.779 61.5121 104.024C61.8427 104.259 62.1041 104.552 62.2961 104.904C62.4881 105.245 62.5841 105.677 62.5841 106.2C62.5841 106.755 62.4401 107.261 62.1521 107.72C61.8641 108.168 61.4534 108.525 60.9201 108.792C60.3867 109.059 59.7521 109.192 59.0161 109.192ZM66.7949 109.192C65.9736 109.192 65.3709 108.936 64.9869 108.424C64.6029 107.901 64.4109 107.144 64.4109 106.152V101.224H65.7389V105.976C65.7389 106.701 65.8509 107.229 66.0749 107.56C66.3096 107.891 66.6829 108.056 67.1949 108.056C67.6003 108.056 67.9576 107.955 68.2669 107.752C68.5869 107.539 68.9283 107.203 69.2909 106.744V101.224H70.6029V109H69.5149L69.4029 107.784H69.3549C68.9923 108.211 68.6083 108.552 68.2029 108.808C67.7976 109.064 67.3283 109.192 66.7949 109.192ZM73.2261 112.28V101.224H74.3141L74.4261 102.12H74.4741C74.8261 101.821 75.2101 101.565 75.6261 101.352C76.0527 101.139 76.4954 101.032 76.9541 101.032C77.9567 101.032 78.7194 101.395 79.2421 102.12C79.7647 102.835 80.0261 103.795 80.0261 105C80.0261 105.875 79.8661 106.627 79.5461 107.256C79.2367 107.885 78.8261 108.365 78.3141 108.696C77.8127 109.027 77.2634 109.192 76.6661 109.192C76.3034 109.192 75.9407 109.112 75.5781 108.952C75.2261 108.792 74.8687 108.573 74.5061 108.296L74.5381 109.656V112.28H73.2261ZM76.4421 108.088C77.0821 108.088 77.6101 107.816 78.0261 107.272C78.4527 106.717 78.6661 105.96 78.6661 105C78.6661 104.147 78.5061 103.459 78.1861 102.936C77.8767 102.403 77.3541 102.136 76.6181 102.136C76.2874 102.136 75.9514 102.227 75.6101 102.408C75.2794 102.589 74.9221 102.851 74.5381 103.192V107.272C74.8901 107.571 75.2314 107.784 75.5621 107.912C75.8927 108.029 76.1861 108.088 76.4421 108.088ZM85.2531 109.192C84.5597 109.192 83.9304 109.032 83.3651 108.712C82.7997 108.381 82.3517 107.912 82.0211 107.304C81.6904 106.696 81.5251 105.971 81.5251 105.128C81.5251 104.275 81.6904 103.544 82.0211 102.936C82.3624 102.328 82.7997 101.859 83.3331 101.528C83.8664 101.197 84.4264 101.032 85.0131 101.032C86.0051 101.032 86.7677 101.363 87.3011 102.024C87.8451 102.685 88.1171 103.571 88.1171 104.68C88.1171 104.819 88.1117 104.957 88.1011 105.096C88.1011 105.224 88.0904 105.336 88.0691 105.432H82.8211C82.8744 106.253 83.1304 106.909 83.5891 107.4C84.0584 107.891 84.6664 108.136 85.4131 108.136C85.7864 108.136 86.1277 108.083 86.4371 107.976C86.7571 107.859 87.0611 107.709 87.3491 107.528L87.8131 108.392C87.4824 108.605 87.1037 108.792 86.6771 108.952C86.2611 109.112 85.7864 109.192 85.2531 109.192ZM82.8051 104.488H86.9651C86.9651 103.699 86.7944 103.101 86.4531 102.696C86.1224 102.28 85.6531 102.072 85.0451 102.072C84.5011 102.072 84.0104 102.285 83.5731 102.712C83.1464 103.128 82.8904 103.72 82.8051 104.488ZM90.0386 109V101.224H91.1266L91.2386 102.632H91.2866C91.5532 102.141 91.8786 101.752 92.2626 101.464C92.6466 101.176 93.0572 101.032 93.4946 101.032C93.8039 101.032 94.0812 101.085 94.3266 101.192L94.0706 102.344C93.9426 102.301 93.8252 102.269 93.7186 102.248C93.6119 102.227 93.4786 102.216 93.3186 102.216C92.9879 102.216 92.6412 102.349 92.2786 102.616C91.9266 102.883 91.6172 103.347 91.3506 104.008V109H90.0386ZM97.6717 109L94.8717 101.224H96.2317L97.7037 105.64C97.821 106.024 97.9384 106.408 98.0557 106.792C98.1837 107.176 98.3064 107.555 98.4237 107.928H98.4877C98.605 107.555 98.7224 107.176 98.8397 106.792C98.9677 106.408 99.085 106.024 99.1917 105.64L100.664 101.224H101.96L99.2077 109H97.6717ZM103.46 109V101.224H104.772V109H103.46ZM104.132 99.624C103.876 99.624 103.663 99.5493 103.492 99.4C103.332 99.24 103.252 99.0267 103.252 98.76C103.252 98.504 103.332 98.296 103.492 98.136C103.663 97.976 103.876 97.896 104.132 97.896C104.388 97.896 104.596 97.976 104.756 98.136C104.927 98.296 105.012 98.504 105.012 98.76C105.012 99.0267 104.927 99.24 104.756 99.4C104.596 99.5493 104.388 99.624 104.132 99.624ZM109.43 109.192C108.875 109.192 108.347 109.091 107.846 108.888C107.345 108.675 106.907 108.419 106.534 108.12L107.19 107.24C107.531 107.507 107.883 107.731 108.246 107.912C108.609 108.083 109.019 108.168 109.478 108.168C109.99 108.168 110.374 108.051 110.63 107.816C110.886 107.571 111.014 107.283 111.014 106.952C111.014 106.685 110.923 106.461 110.742 106.28C110.571 106.099 110.347 105.949 110.07 105.832C109.803 105.704 109.526 105.587 109.238 105.48C108.875 105.341 108.518 105.187 108.166 105.016C107.814 104.835 107.526 104.605 107.302 104.328C107.078 104.04 106.966 103.677 106.966 103.24C106.966 102.611 107.201 102.088 107.67 101.672C108.15 101.245 108.811 101.032 109.654 101.032C110.134 101.032 110.582 101.117 110.998 101.288C111.414 101.459 111.771 101.667 112.07 101.912L111.43 102.744C111.163 102.541 110.886 102.376 110.598 102.248C110.31 102.12 109.995 102.056 109.654 102.056C109.163 102.056 108.801 102.168 108.566 102.392C108.342 102.616 108.23 102.877 108.23 103.176C108.23 103.421 108.31 103.624 108.47 103.784C108.63 103.933 108.838 104.067 109.094 104.184C109.35 104.291 109.622 104.403 109.91 104.52C110.283 104.659 110.651 104.819 111.014 105C111.377 105.171 111.675 105.405 111.91 105.704C112.155 105.992 112.278 106.381 112.278 106.872C112.278 107.288 112.166 107.672 111.942 108.024C111.729 108.376 111.409 108.659 110.982 108.872C110.566 109.085 110.049 109.192 109.43 109.192ZM117.125 109.192C116.496 109.192 115.904 109.032 115.349 108.712C114.805 108.392 114.362 107.928 114.021 107.32C113.69 106.712 113.525 105.981 113.525 105.128C113.525 104.253 113.69 103.512 114.021 102.904C114.362 102.296 114.805 101.832 115.349 101.512C115.904 101.192 116.496 101.032 117.125 101.032C117.765 101.032 118.357 101.192 118.901 101.512C119.445 101.832 119.882 102.296 120.213 102.904C120.554 103.512 120.725 104.253 120.725 105.128C120.725 105.981 120.554 106.712 120.213 107.32C119.882 107.928 119.445 108.392 118.901 108.712C118.357 109.032 117.765 109.192 117.125 109.192ZM117.125 108.104C117.797 108.104 118.336 107.832 118.741 107.288C119.157 106.733 119.365 106.013 119.365 105.128C119.365 104.232 119.157 103.507 118.741 102.952C118.336 102.397 117.797 102.12 117.125 102.12C116.464 102.12 115.925 102.397 115.509 102.952C115.093 103.507 114.885 104.232 114.885 105.128C114.885 106.013 115.093 106.733 115.509 107.288C115.925 107.832 116.464 108.104 117.125 108.104ZM122.773 109V101.224H123.861L123.973 102.632H124.021C124.288 102.141 124.613 101.752 124.997 101.464C125.381 101.176 125.792 101.032 126.229 101.032C126.538 101.032 126.816 101.085 127.061 101.192L126.805 102.344C126.677 102.301 126.56 102.269 126.453 102.248C126.346 102.227 126.213 102.216 126.053 102.216C125.722 102.216 125.376 102.349 125.013 102.616C124.661 102.883 124.352 103.347 124.085 104.008V109H122.773Z" fill="#1B1B1B"/>
<rect x="8.5" y="122.5" width="209" height="39" stroke="#DFE1E2"/>
<path d="M28.8 134.31V139.761V139.738V148.786V134.31ZM30.6 143.357H33.75C33.885 143.01 34.05 142.686 34.245 142.385C34.44 142.083 34.665 141.804 34.92 141.548H30.6V143.357ZM30.6 146.976H33.4575C33.3825 146.675 33.3338 146.373 33.3113 146.071C33.2888 145.77 33.2925 145.468 33.3225 145.167H30.6V146.976ZM28.8 150.595C28.305 150.595 27.8813 150.418 27.5288 150.064C27.1762 149.709 27 149.283 27 148.786V134.31C27 133.812 27.1762 133.386 27.5288 133.032C27.8813 132.677 28.305 132.5 28.8 132.5H36L41.4 137.929V140.19C41.115 140.07 40.8225 139.976 40.5225 139.908C40.2225 139.84 39.915 139.791 39.6 139.761V138.833H35.1V134.31H28.8V148.786H34.2225C34.4625 149.148 34.7325 149.483 35.0325 149.792C35.3325 150.101 35.6625 150.369 36.0225 150.595H28.8ZM39.15 147.881C39.78 147.881 40.3125 147.662 40.7475 147.225C41.1825 146.788 41.4 146.252 41.4 145.619C41.4 144.986 41.1825 144.45 40.7475 144.013C40.3125 143.576 39.78 143.357 39.15 143.357C38.52 143.357 37.9875 143.576 37.5525 144.013C37.1175 144.45 36.9 144.986 36.9 145.619C36.9 146.252 37.1175 146.788 37.5525 147.225C37.9875 147.662 38.52 147.881 39.15 147.881ZM43.74 151.5L41.31 149.057C40.995 149.268 40.6538 149.427 40.2863 149.532C39.9188 149.638 39.54 149.69 39.15 149.69C38.025 149.69 37.0688 149.295 36.2813 148.503C35.4938 147.711 35.1 146.75 35.1 145.619C35.1 144.488 35.4938 143.527 36.2813 142.735C37.0688 141.943 38.025 141.548 39.15 141.548C40.275 141.548 41.2313 141.943 42.0188 142.735C42.8063 143.527 43.2 144.488 43.2 145.619C43.2 146.011 43.1475 146.392 43.0425 146.761C42.9375 147.131 42.78 147.474 42.57 147.79L45 150.233L43.74 151.5Z" fill="#383838"/>
<path d="M56.44 148V137.504H59.72C60.4347 137.504 61.0693 137.6 61.624 137.792C62.1787 137.973 62.6107 138.283 62.92 138.72C63.24 139.147 63.4 139.723 63.4 140.448C63.4 141.259 63.1867 141.915 62.76 142.416C62.3333 142.907 61.7573 143.243 61.032 143.424L63.704 148H62.2L59.672 143.568H57.768V148H56.44ZM57.768 142.48H59.528C60.3493 142.48 60.9787 142.315 61.416 141.984C61.8533 141.643 62.072 141.131 62.072 140.448C62.072 139.755 61.8533 139.269 61.416 138.992C60.9787 138.715 60.3493 138.576 59.528 138.576H57.768V142.48ZM68.4171 148.192C67.7238 148.192 67.0945 148.032 66.5291 147.712C65.9638 147.381 65.5158 146.912 65.1851 146.304C64.8545 145.696 64.6891 144.971 64.6891 144.128C64.6891 143.275 64.8545 142.544 65.1851 141.936C65.5265 141.328 65.9638 140.859 66.4971 140.528C67.0305 140.197 67.5905 140.032 68.1771 140.032C69.1691 140.032 69.9318 140.363 70.4651 141.024C71.0091 141.685 71.2811 142.571 71.2811 143.68C71.2811 143.819 71.2758 143.957 71.2651 144.096C71.2651 144.224 71.2545 144.336 71.2331 144.432H65.9851C66.0385 145.253 66.2945 145.909 66.7531 146.4C67.2225 146.891 67.8305 147.136 68.5771 147.136C68.9505 147.136 69.2918 147.083 69.6011 146.976C69.9211 146.859 70.2251 146.709 70.5131 146.528L70.9771 147.392C70.6465 147.605 70.2678 147.792 69.8411 147.952C69.4251 148.112 68.9505 148.192 68.4171 148.192ZM65.9691 143.488H70.1291C70.1291 142.699 69.9585 142.101 69.6171 141.696C69.2865 141.28 68.8171 141.072 68.2091 141.072C67.6651 141.072 67.1745 141.285 66.7371 141.712C66.3105 142.128 66.0545 142.72 65.9691 143.488ZM74.9608 148L72.1608 140.224H73.5208L74.9928 144.64C75.1101 145.024 75.2274 145.408 75.3448 145.792C75.4728 146.176 75.5954 146.555 75.7128 146.928H75.7768C75.8941 146.555 76.0114 146.176 76.1288 145.792C76.2568 145.408 76.3741 145.024 76.4808 144.64L77.9528 140.224H79.2488L76.4968 148H74.9608ZM80.7495 148V140.224H82.0615V148H80.7495ZM81.4215 138.624C81.1655 138.624 80.9522 138.549 80.7815 138.4C80.6215 138.24 80.5415 138.027 80.5415 137.76C80.5415 137.504 80.6215 137.296 80.7815 137.136C80.9522 136.976 81.1655 136.896 81.4215 136.896C81.6775 136.896 81.8855 136.976 82.0455 137.136C82.2162 137.296 82.3015 137.504 82.3015 137.76C82.3015 138.027 82.2162 138.24 82.0455 138.4C81.8855 138.549 81.6775 138.624 81.4215 138.624ZM87.839 148.192C87.1457 148.192 86.5163 148.032 85.951 147.712C85.3857 147.381 84.9377 146.912 84.607 146.304C84.2763 145.696 84.111 144.971 84.111 144.128C84.111 143.275 84.2763 142.544 84.607 141.936C84.9483 141.328 85.3857 140.859 85.919 140.528C86.4523 140.197 87.0123 140.032 87.599 140.032C88.591 140.032 89.3537 140.363 89.887 141.024C90.431 141.685 90.703 142.571 90.703 143.68C90.703 143.819 90.6977 143.957 90.687 144.096C90.687 144.224 90.6763 144.336 90.655 144.432H85.407C85.4603 145.253 85.7163 145.909 86.175 146.4C86.6443 146.891 87.2523 147.136 87.999 147.136C88.3723 147.136 88.7137 147.083 89.023 146.976C89.343 146.859 89.647 146.709 89.935 146.528L90.399 147.392C90.0683 147.605 89.6897 147.792 89.263 147.952C88.847 148.112 88.3723 148.192 87.839 148.192ZM85.391 143.488H89.551C89.551 142.699 89.3803 142.101 89.039 141.696C88.7083 141.28 88.239 141.072 87.631 141.072C87.087 141.072 86.5963 141.285 86.159 141.712C85.7323 142.128 85.4763 142.72 85.391 143.488ZM93.9346 148L91.7746 140.224H93.1186L94.2706 144.72C94.356 145.083 94.436 145.445 94.5106 145.808C94.5853 146.16 94.66 146.517 94.7346 146.88H94.7986C94.884 146.517 94.9693 146.16 95.0546 145.808C95.14 145.445 95.2306 145.083 95.3266 144.72L96.5266 140.224H97.8066L99.0226 144.72C99.1186 145.083 99.2093 145.445 99.2946 145.808C99.3906 146.16 99.4813 146.517 99.5666 146.88H99.6306C99.716 146.517 99.796 146.16 99.8706 145.808C99.956 145.445 100.036 145.083 100.111 144.72L101.247 140.224H102.495L100.415 148H98.8146L97.6946 143.824C97.5986 143.451 97.508 143.083 97.4226 142.72C97.348 142.357 97.2626 141.979 97.1666 141.584H97.1026C97.0173 141.979 96.932 142.363 96.8466 142.736C96.7613 143.099 96.6653 143.467 96.5586 143.84L95.4706 148H93.9346ZM107.277 148.192C106.583 148.192 105.954 148.032 105.389 147.712C104.823 147.381 104.375 146.912 104.045 146.304C103.714 145.696 103.549 144.971 103.549 144.128C103.549 143.275 103.714 142.544 104.045 141.936C104.386 141.328 104.823 140.859 105.357 140.528C105.89 140.197 106.45 140.032 107.036 140.032C108.029 140.032 108.791 140.363 109.325 141.024C109.869 141.685 110.141 142.571 110.141 143.68C110.141 143.819 110.135 143.957 110.125 144.096C110.125 144.224 110.114 144.336 110.093 144.432H104.845C104.898 145.253 105.154 145.909 105.613 146.4C106.082 146.891 106.69 147.136 107.437 147.136C107.81 147.136 108.151 147.083 108.461 146.976C108.781 146.859 109.085 146.709 109.373 146.528L109.837 147.392C109.506 147.605 109.127 147.792 108.701 147.952C108.285 148.112 107.81 148.192 107.277 148.192ZM104.829 143.488H108.989C108.989 142.699 108.818 142.101 108.477 141.696C108.146 141.28 107.677 141.072 107.069 141.072C106.525 141.072 106.034 141.285 105.597 141.712C105.17 142.128 104.914 142.72 104.829 143.488ZM112.062 148V140.224H113.15L113.262 141.632H113.31C113.577 141.141 113.902 140.752 114.286 140.464C114.67 140.176 115.081 140.032 115.518 140.032C115.827 140.032 116.105 140.085 116.35 140.192L116.094 141.344C115.966 141.301 115.849 141.269 115.742 141.248C115.635 141.227 115.502 141.216 115.342 141.216C115.011 141.216 114.665 141.349 114.302 141.616C113.95 141.883 113.641 142.347 113.374 143.008V148H112.062Z" fill="#1B1B1B"/>
</g>
<defs>
<filter id="filter0_d_194_15598" x="0" y="0" width="240" height="174" filterUnits="userSpaceOnUse" color-interpolation-filters="sRGB">
<feFlood flood-opacity="0" result="BackgroundImageFix"/>
<feColorMatrix in="SourceAlpha" type="matrix" values="0 0 0 0 0 0 0 0 0 0 0 0 0 0 0 0 0 0 127 0" result="hardAlpha"/>
<feOffset dy="4"/>
<feGaussianBlur stdDeviation="4"/>
<feComposite in2="hardAlpha" operator="out"/>
<feColorMatrix type="matrix" values="0 0 0 0 0 0 0 0 0 0 0 0 0 0 0 0 0 0 0.45 0"/>
<feBlend mode="normal" in2="BackgroundImageFix" result="effect1_dropShadow_194_15598"/>
<feBlend mode="normal" in="SourceGraphic" in2="effect1_dropShadow_194_15598" result="shape"/>
</filter>
</defs>
</svg>
