<svg width="216" height="47" viewBox="0 0 216 47" fill="none" xmlns="http://www.w3.org/2000/svg">
<rect x="1.5" y="1.5" width="213" height="44" fill="white"/>
<rect x="1.5" y="1.5" width="213" height="44" stroke="#2491FF" stroke-width="3"/>
<rect x="3.5" y="3.5" width="209" height="40" stroke="#565C65"/>
<path d="M173.58 11.5V35.5" stroke="#DFE1E2" stroke-linecap="square"/>
<path fill-rule="evenodd" clip-rule="evenodd" d="M189.117 17.38L195.224 23.5L189.117 29.62L190.997 31.5L198.997 23.5L190.997 15.5L189.117 17.38Z" fill="#565C65"/>
<path d="M53.352 29.2706C52.616 29.2706 51.9333 29.1319 51.304 28.8546C50.6747 28.5666 50.1307 28.1879 49.672 27.7186L50.472 26.7906C50.8453 27.1853 51.2827 27.5053 51.784 27.7506C52.296 27.9853 52.824 28.1026 53.368 28.1026C54.0613 28.1026 54.6 27.9479 54.984 27.6386C55.368 27.3186 55.56 26.9026 55.56 26.3906C55.56 26.0279 55.48 25.7399 55.32 25.5266C55.1707 25.3133 54.9627 25.1319 54.696 24.9826C54.44 24.8333 54.1467 24.6839 53.816 24.5346L52.312 23.8786C51.9813 23.7399 51.6507 23.5586 51.32 23.3346C51 23.1106 50.728 22.8226 50.504 22.4706C50.2907 22.1186 50.184 21.6866 50.184 21.1746C50.184 20.6413 50.3227 20.1666 50.6 19.7506C50.888 19.3239 51.2827 18.9933 51.784 18.7586C52.2853 18.5133 52.8507 18.3906 53.48 18.3906C54.1093 18.3906 54.6907 18.5133 55.224 18.7586C55.7573 18.9933 56.2107 19.3026 56.584 19.6866L55.864 20.5506C55.544 20.2413 55.1867 20.0013 54.792 19.8306C54.408 19.6493 53.9707 19.5586 53.48 19.5586C52.8933 19.5586 52.4187 19.6973 52.056 19.9746C51.704 20.2519 51.528 20.6253 51.528 21.0946C51.528 21.4253 51.6133 21.7026 51.784 21.9266C51.9653 22.1399 52.1893 22.3159 52.456 22.4546C52.7227 22.5933 52.9947 22.7213 53.272 22.8386L54.76 23.4786C55.1653 23.6493 55.528 23.8573 55.848 24.1026C56.1787 24.3373 56.44 24.6306 56.632 24.9826C56.824 25.3239 56.92 25.7559 56.92 26.2786C56.92 26.8333 56.776 27.3399 56.488 27.7986C56.2 28.2466 55.7893 28.6039 55.256 28.8706C54.7227 29.1373 54.088 29.2706 53.352 29.2706ZM61.1309 29.2706C60.3095 29.2706 59.7069 29.0146 59.3229 28.5026C58.9389 27.9799 58.7469 27.2226 58.7469 26.2306V21.3026H60.0749V26.0546C60.0749 26.7799 60.1869 27.3079 60.4109 27.6386C60.6455 27.9693 61.0189 28.1346 61.5309 28.1346C61.9362 28.1346 62.2935 28.0333 62.6029 27.8306C62.9229 27.6173 63.2642 27.2813 63.6269 26.8226V21.3026H64.9389V29.0786H63.8509L63.7389 27.8626H63.6909C63.3282 28.2893 62.9442 28.6306 62.5389 28.8866C62.1335 29.1426 61.6642 29.2706 61.1309 29.2706ZM67.562 32.3586V21.3026H68.65L68.762 22.1986H68.81C69.162 21.8999 69.546 21.6439 69.962 21.4306C70.3887 21.2173 70.8313 21.1106 71.29 21.1106C72.2927 21.1106 73.0553 21.4733 73.578 22.1986C74.1007 22.9133 74.362 23.8733 74.362 25.0786C74.362 25.9533 74.202 26.7053 73.882 27.3346C73.5727 27.9639 73.162 28.4439 72.65 28.7746C72.1487 29.1053 71.5993 29.2706 71.002 29.2706C70.6393 29.2706 70.2767 29.1906 69.914 29.0306C69.562 28.8706 69.2047 28.6519 68.842 28.3746L68.874 29.7346V32.3586H67.562ZM70.778 28.1666C71.418 28.1666 71.946 27.8946 72.362 27.3506C72.7887 26.7959 73.002 26.0386 73.002 25.0786C73.002 24.2253 72.842 23.5373 72.522 23.0146C72.2127 22.4813 71.69 22.2146 70.954 22.2146C70.6233 22.2146 70.2873 22.3053 69.946 22.4866C69.6153 22.6679 69.258 22.9293 68.874 23.2706V27.3506C69.226 27.6493 69.5673 27.8626 69.898 27.9906C70.2287 28.1079 70.522 28.1666 70.778 28.1666ZM79.589 29.2706C78.8957 29.2706 78.2663 29.1106 77.701 28.7906C77.1357 28.4599 76.6877 27.9906 76.357 27.3826C76.0263 26.7746 75.861 26.0493 75.861 25.2066C75.861 24.3533 76.0263 23.6226 76.357 23.0146C76.6983 22.4066 77.1357 21.9373 77.669 21.6066C78.2023 21.2759 78.7623 21.1106 79.349 21.1106C80.341 21.1106 81.1037 21.4413 81.637 22.1026C82.181 22.7639 82.453 23.6493 82.453 24.7586C82.453 24.8973 82.4477 25.0359 82.437 25.1746C82.437 25.3026 82.4263 25.4146 82.405 25.5106H77.157C77.2103 26.3319 77.4663 26.9879 77.925 27.4786C78.3943 27.9693 79.0023 28.2146 79.749 28.2146C80.1223 28.2146 80.4637 28.1613 80.773 28.0546C81.093 27.9373 81.397 27.7879 81.685 27.6066L82.149 28.4706C81.8183 28.6839 81.4397 28.8706 81.013 29.0306C80.597 29.1906 80.1223 29.2706 79.589 29.2706ZM77.141 24.5666H81.301C81.301 23.7773 81.1303 23.1799 80.789 22.7746C80.4583 22.3586 79.989 22.1506 79.381 22.1506C78.837 22.1506 78.3463 22.3639 77.909 22.7906C77.4823 23.2066 77.2263 23.7986 77.141 24.5666ZM84.3745 29.0786V21.3026H85.4625L85.5745 22.7106H85.6225C85.8892 22.2199 86.2145 21.8306 86.5985 21.5426C86.9825 21.2546 87.3932 21.1106 87.8305 21.1106C88.1398 21.1106 88.4172 21.1639 88.6625 21.2706L88.4065 22.4226C88.2785 22.3799 88.1612 22.3479 88.0545 22.3266C87.9478 22.3053 87.8145 22.2946 87.6545 22.2946C87.3238 22.2946 86.9772 22.4279 86.6145 22.6946C86.2625 22.9613 85.9532 23.4253 85.6865 24.0866V29.0786H84.3745ZM92.0076 29.0786L89.2076 21.3026H90.5676L92.0396 25.7186C92.157 26.1026 92.2743 26.4866 92.3916 26.8706C92.5196 27.2546 92.6423 27.6333 92.7596 28.0066H92.8236C92.941 27.6333 93.0583 27.2546 93.1756 26.8706C93.3036 26.4866 93.421 26.1026 93.5276 25.7186L94.9996 21.3026H96.2956L93.5436 29.0786H92.0076ZM97.7964 29.0786V21.3026H99.1084V29.0786H97.7964ZM98.4684 19.7026C98.2124 19.7026 97.999 19.6279 97.8284 19.4786C97.6684 19.3186 97.5884 19.1053 97.5884 18.8386C97.5884 18.5826 97.6684 18.3746 97.8284 18.2146C97.999 18.0546 98.2124 17.9746 98.4684 17.9746C98.7244 17.9746 98.9324 18.0546 99.0924 18.2146C99.263 18.3746 99.3484 18.5826 99.3484 18.8386C99.3484 19.1053 99.263 19.3186 99.0924 19.4786C98.9324 19.6279 98.7244 19.7026 98.4684 19.7026ZM103.766 29.2706C103.211 29.2706 102.683 29.1693 102.182 28.9666C101.681 28.7533 101.243 28.4973 100.87 28.1986L101.526 27.3186C101.867 27.5853 102.219 27.8093 102.582 27.9906C102.945 28.1613 103.355 28.2466 103.814 28.2466C104.326 28.2466 104.71 28.1293 104.966 27.8946C105.222 27.6493 105.35 27.3613 105.35 27.0306C105.35 26.7639 105.259 26.5399 105.078 26.3586C104.907 26.1773 104.683 26.0279 104.406 25.9106C104.139 25.7826 103.862 25.6653 103.574 25.5586C103.211 25.4199 102.854 25.2653 102.502 25.0946C102.15 24.9133 101.862 24.6839 101.638 24.4066C101.414 24.1186 101.302 23.7559 101.302 23.3186C101.302 22.6893 101.537 22.1666 102.006 21.7506C102.486 21.3239 103.147 21.1106 103.99 21.1106C104.47 21.1106 104.918 21.1959 105.334 21.3666C105.75 21.5373 106.107 21.7453 106.406 21.9906L105.766 22.8226C105.499 22.6199 105.222 22.4546 104.934 22.3266C104.646 22.1986 104.331 22.1346 103.99 22.1346C103.499 22.1346 103.137 22.2466 102.902 22.4706C102.678 22.6946 102.566 22.9559 102.566 23.2546C102.566 23.4999 102.646 23.7026 102.806 23.8626C102.966 24.0119 103.174 24.1453 103.43 24.2626C103.686 24.3693 103.958 24.4813 104.246 24.5986C104.619 24.7373 104.987 24.8973 105.35 25.0786C105.713 25.2493 106.011 25.4839 106.246 25.7826C106.491 26.0706 106.614 26.4599 106.614 26.9506C106.614 27.3666 106.502 27.7506 106.278 28.1026C106.065 28.4546 105.745 28.7373 105.318 28.9506C104.902 29.1639 104.385 29.2706 103.766 29.2706ZM111.461 29.2706C110.832 29.2706 110.24 29.1106 109.685 28.7906C109.141 28.4706 108.698 28.0066 108.357 27.3986C108.026 26.7906 107.861 26.0599 107.861 25.2066C107.861 24.3319 108.026 23.5906 108.357 22.9826C108.698 22.3746 109.141 21.9106 109.685 21.5906C110.24 21.2706 110.832 21.1106 111.461 21.1106C112.101 21.1106 112.693 21.2706 113.237 21.5906C113.781 21.9106 114.218 22.3746 114.549 22.9826C114.89 23.5906 115.061 24.3319 115.061 25.2066C115.061 26.0599 114.89 26.7906 114.549 27.3986C114.218 28.0066 113.781 28.4706 113.237 28.7906C112.693 29.1106 112.101 29.2706 111.461 29.2706ZM111.461 28.1826C112.133 28.1826 112.672 27.9106 113.077 27.3666C113.493 26.8119 113.701 26.0919 113.701 25.2066C113.701 24.3106 113.493 23.5853 113.077 23.0306C112.672 22.4759 112.133 22.1986 111.461 22.1986C110.8 22.1986 110.261 22.4759 109.845 23.0306C109.429 23.5853 109.221 24.3106 109.221 25.2066C109.221 26.0919 109.429 26.8119 109.845 27.3666C110.261 27.9106 110.8 28.1826 111.461 28.1826ZM117.109 29.0786V21.3026H118.197L118.309 22.7106H118.357C118.624 22.2199 118.949 21.8306 119.333 21.5426C119.717 21.2546 120.128 21.1106 120.565 21.1106C120.874 21.1106 121.152 21.1639 121.397 21.2706L121.141 22.4226C121.013 22.3799 120.896 22.3479 120.789 22.3266C120.682 22.3053 120.549 22.2946 120.389 22.2946C120.058 22.2946 119.712 22.4279 119.349 22.6946C118.997 22.9613 118.688 23.4253 118.421 24.0866V29.0786H117.109Z" fill="#1B1B1B"/>
<path d="M34.7083 26.7915C36.5717 26.7915 38.7708 27.6582 39.0417 28.1782V28.9582H30.375V28.1782C30.6458 27.6582 32.845 26.7915 34.7083 26.7915ZM34.7083 25.1665C32.7258 25.1665 28.75 26.1632 28.75 28.1457V30.5832H40.6667V28.1457C40.6667 26.1632 36.6908 25.1665 34.7083 25.1665ZM26.5833 24.0832C24.0592 24.0832 19 25.3507 19 27.8748V30.5832H26.5833V28.9582H20.625V27.8748C20.625 27.1923 23.6475 25.5348 27.4717 25.7082C27.9374 25.1512 28.5079 24.6912 29.1508 24.354C28.3058 24.1807 27.4459 24.09 26.5833 24.0832ZM26.5833 17.0415C26.9047 17.0415 27.2189 17.1368 27.4861 17.3154C27.7534 17.4939 27.9616 17.7477 28.0846 18.0446C28.2076 18.3416 28.2398 18.6683 28.1771 18.9835C28.1144 19.2987 27.9596 19.5883 27.7324 19.8156C27.5051 20.0428 27.2156 20.1976 26.9004 20.2603C26.5851 20.323 26.2584 20.2908 25.9615 20.1678C25.6645 20.0448 25.4108 19.8365 25.2322 19.5693C25.0536 19.3021 24.9583 18.9879 24.9583 18.6665C24.9583 18.2355 25.1295 17.8222 25.4343 17.5175C25.739 17.2127 26.1524 17.0415 26.5833 17.0415ZM26.5833 15.4165C25.9405 15.4165 25.3122 15.6071 24.7777 15.9642C24.2433 16.3213 23.8267 16.8289 23.5807 17.4228C23.3347 18.0166 23.2704 18.6701 23.3958 19.3005C23.5212 19.931 23.8307 20.5101 24.2852 20.9646C24.7398 21.4191 25.3189 21.7287 25.9493 21.8541C26.5797 21.9795 27.2332 21.9151 27.8271 21.6691C28.4209 21.4231 28.9285 21.0066 29.2856 20.4721C29.6427 19.9376 29.8333 19.3093 29.8333 18.6665C29.8333 17.8046 29.4909 16.9779 28.8814 16.3684C28.2719 15.7589 27.4453 15.4165 26.5833 15.4165ZM34.7083 19.2082C34.9226 19.2082 35.132 19.2717 35.3102 19.3907C35.4884 19.5098 35.6272 19.679 35.7092 19.8769C35.7912 20.0749 35.8127 20.2927 35.7708 20.5029C35.729 20.713 35.6259 20.906 35.4744 21.0575C35.3229 21.209 35.1298 21.3122 34.9197 21.354C34.7095 21.3958 34.4917 21.3744 34.2938 21.2924C34.0958 21.2104 33.9266 21.0715 33.8076 20.8934C33.6885 20.7152 33.625 20.5058 33.625 20.2915C33.625 20.0042 33.7391 19.7286 33.9423 19.5255C34.1455 19.3223 34.421 19.2082 34.7083 19.2082ZM34.7083 17.5832C34.1727 17.5832 33.649 17.742 33.2037 18.0396C32.7583 18.3372 32.4111 18.7602 32.2062 19.2551C32.0012 19.75 31.9475 20.2945 32.052 20.8199C32.1565 21.3452 32.4145 21.8278 32.7933 22.2066C33.172 22.5854 33.6546 22.8433 34.18 22.9478C34.7053 23.0523 35.2499 22.9987 35.7448 22.7937C36.2396 22.5887 36.6626 22.2416 36.9602 21.7962C37.2578 21.3508 37.4167 20.8272 37.4167 20.2915C37.4167 19.5732 37.1313 18.8843 36.6234 18.3764C36.1155 17.8685 35.4266 17.5832 34.7083 17.5832Z" fill="#383838"/>
</svg>
