<svg width="165" height="20" viewBox="0 0 165 20" fill="none" xmlns="http://www.w3.org/2000/svg">
<path d="M33.44 16V7.104H30.416V5.536H38.32V7.104H35.296V16H33.44ZM42.1218 16.192C41.3964 16.192 40.7404 16.032 40.1538 15.712C39.5671 15.3813 39.1031 14.912 38.7618 14.304C38.4204 13.6853 38.2498 12.944 38.2498 12.08C38.2498 11.2267 38.4204 10.4907 38.7618 9.872C39.1138 9.25333 39.5671 8.77867 40.1218 8.448C40.6764 8.11733 41.2578 7.952 41.8658 7.952C42.5804 7.952 43.1778 8.112 43.6578 8.432C44.1378 8.74133 44.5004 9.17867 44.7458 9.744C44.9911 10.2987 45.1138 10.944 45.1138 11.68C45.1138 12.064 45.0871 12.3627 45.0338 12.576H40.0418C40.1271 13.2693 40.3778 13.808 40.7938 14.192C41.2098 14.576 41.7324 14.768 42.3618 14.768C42.7031 14.768 43.0178 14.72 43.3058 14.624C43.6044 14.5173 43.8978 14.3733 44.1858 14.192L44.8098 15.344C44.4364 15.5893 44.0204 15.792 43.5618 15.952C43.1031 16.112 42.6231 16.192 42.1218 16.192ZM40.0258 11.328H43.5138C43.5138 10.72 43.3804 10.2453 43.1138 9.904C42.8471 9.552 42.4471 9.376 41.9138 9.376C41.4551 9.376 41.0444 9.54667 40.6818 9.888C40.3298 10.2187 40.1111 10.6987 40.0258 11.328ZM48.5876 16.192C47.905 16.192 47.345 15.9787 46.9076 15.552C46.481 15.1253 46.2676 14.5707 46.2676 13.888C46.2676 13.0453 46.6356 12.3947 47.3716 11.936C48.1076 11.4667 49.281 11.1467 50.8916 10.976C50.881 10.56 50.769 10.2027 50.5556 9.904C50.353 9.59467 49.985 9.44 49.4516 9.44C49.0676 9.44 48.689 9.51467 48.3156 9.664C47.953 9.81333 47.5956 9.99467 47.2436 10.208L46.5716 8.976C47.009 8.69867 47.4996 8.45867 48.0436 8.256C48.5983 8.05333 49.185 7.952 49.8036 7.952C50.785 7.952 51.5156 8.24533 51.9956 8.832C52.4863 9.408 52.7316 10.2453 52.7316 11.344V16H51.2116L51.0836 15.136H51.0196C50.6676 15.4347 50.289 15.6853 49.8836 15.888C49.489 16.0907 49.057 16.192 48.5876 16.192ZM49.1796 14.752C49.4996 14.752 49.7876 14.6773 50.0436 14.528C50.3103 14.368 50.593 14.1547 50.8916 13.888V12.128C49.825 12.2667 49.0836 12.4747 48.6676 12.752C48.2516 13.0187 48.0436 13.3493 48.0436 13.744C48.0436 14.096 48.1503 14.352 48.3636 14.512C48.577 14.672 48.849 14.752 49.1796 14.752ZM54.9336 16V8.144H56.4536L56.5816 9.216H56.6456C56.9763 8.864 57.3336 8.56533 57.7176 8.32C58.1123 8.07467 58.555 7.952 59.0456 7.952C59.6216 7.952 60.0803 8.08 60.4216 8.336C60.7736 8.58133 61.0403 8.92267 61.2216 9.36C61.595 8.95467 61.9843 8.61867 62.3896 8.352C62.8056 8.08533 63.259 7.952 63.7496 7.952C64.5816 7.952 65.195 8.224 65.5896 8.768C65.9843 9.312 66.1816 10.08 66.1816 11.072V16H64.3256V11.312C64.3256 10.6613 64.2243 10.2027 64.0216 9.936C63.8296 9.66933 63.531 9.536 63.1256 9.536C62.635 9.536 62.0856 9.86133 61.4776 10.512V16H59.6376V11.312C59.6376 10.6613 59.5363 10.2027 59.3336 9.936C59.1416 9.66933 58.8376 9.536 58.4216 9.536C57.931 9.536 57.3816 9.86133 56.7736 10.512V16H54.9336ZM71.7811 16V5.536H74.5811C76.1811 5.536 77.4291 5.968 78.3251 6.832C79.2211 7.696 79.6691 8.992 79.6691 10.72C79.6691 12.4587 79.2265 13.776 78.3411 14.672C77.4558 15.5573 76.2345 16 74.6771 16H71.7811ZM73.6371 14.496H74.4531C75.5091 14.496 76.3251 14.192 76.9011 13.584C77.4771 12.9653 77.7651 12.0107 77.7651 10.72C77.7651 9.44 77.4771 8.50667 76.9011 7.92C76.3251 7.33333 75.5091 7.04 74.4531 7.04H73.6371V14.496ZM81.6211 16V8.144H83.4611V16H81.6211ZM82.5491 6.768C82.2185 6.768 81.9518 6.672 81.7491 6.48C81.5465 6.288 81.4451 6.032 81.4451 5.712C81.4451 5.40267 81.5465 5.152 81.7491 4.96C81.9518 4.768 82.2185 4.672 82.5491 4.672C82.8798 4.672 83.1465 4.768 83.3491 4.96C83.5518 5.152 83.6531 5.40267 83.6531 5.712C83.6531 6.032 83.5518 6.288 83.3491 6.48C83.1465 6.672 82.8798 6.768 82.5491 6.768ZM85.8086 16V8.144H87.3286L87.4566 9.536H87.5206C87.798 9.024 88.134 8.63467 88.5286 8.368C88.9233 8.09067 89.3286 7.952 89.7446 7.952C90.118 7.952 90.4166 8.00533 90.6406 8.112L90.3206 9.712C90.182 9.66933 90.054 9.63733 89.9366 9.616C89.8193 9.59467 89.6753 9.584 89.5046 9.584C89.1953 9.584 88.87 9.70667 88.5286 9.952C88.1873 10.1867 87.894 10.6027 87.6486 11.2V16H85.8086ZM94.9811 16.192C94.2558 16.192 93.5998 16.032 93.0131 15.712C92.4265 15.3813 91.9625 14.912 91.6211 14.304C91.2798 13.6853 91.1091 12.944 91.1091 12.08C91.1091 11.2267 91.2798 10.4907 91.6211 9.872C91.9731 9.25333 92.4265 8.77867 92.9811 8.448C93.5358 8.11733 94.1171 7.952 94.7251 7.952C95.4398 7.952 96.0371 8.112 96.5171 8.432C96.9971 8.74133 97.3598 9.17867 97.6051 9.744C97.8505 10.2987 97.9731 10.944 97.9731 11.68C97.9731 12.064 97.9465 12.3627 97.8931 12.576H92.9011C92.9865 13.2693 93.2371 13.808 93.6531 14.192C94.0691 14.576 94.5918 14.768 95.2211 14.768C95.5625 14.768 95.8771 14.72 96.1651 14.624C96.4638 14.5173 96.7571 14.3733 97.0451 14.192L97.6691 15.344C97.2958 15.5893 96.8798 15.792 96.4211 15.952C95.9625 16.112 95.4825 16.192 94.9811 16.192ZM92.8851 11.328H96.3731C96.3731 10.72 96.2398 10.2453 95.9731 9.904C95.7065 9.552 95.3065 9.376 94.7731 9.376C94.3145 9.376 93.9038 9.54667 93.5411 9.888C93.1891 10.2187 92.9705 10.6987 92.8851 11.328ZM103.011 16.192C102.296 16.192 101.651 16.032 101.075 15.712C100.509 15.3813 100.056 14.912 99.7145 14.304C99.3838 13.6853 99.2185 12.944 99.2185 12.08C99.2185 11.2053 99.3998 10.464 99.7625 9.856C100.125 9.23733 100.605 8.768 101.203 8.448C101.811 8.11733 102.461 7.952 103.155 7.952C103.656 7.952 104.093 8.03733 104.467 8.208C104.84 8.37867 105.171 8.58667 105.459 8.832L104.563 10.032C104.36 9.85067 104.152 9.712 103.939 9.616C103.725 9.50933 103.496 9.456 103.251 9.456C102.621 9.456 102.104 9.696 101.699 10.176C101.304 10.656 101.107 11.2907 101.107 12.08C101.107 12.8587 101.299 13.488 101.683 13.968C102.077 14.448 102.584 14.688 103.203 14.688C103.512 14.688 103.8 14.624 104.067 14.496C104.344 14.3573 104.595 14.1973 104.819 14.016L105.571 15.232C105.208 15.552 104.803 15.792 104.355 15.952C103.907 16.112 103.459 16.192 103.011 16.192ZM109.733 16.192C108.826 16.192 108.181 15.9307 107.797 15.408C107.424 14.8747 107.237 14.1867 107.237 13.344V9.6H106.117V8.224L107.333 8.144L107.557 6H109.093V8.144H111.093V9.6H109.093V13.344C109.093 14.2613 109.461 14.72 110.197 14.72C110.336 14.72 110.48 14.704 110.629 14.672C110.778 14.6293 110.906 14.5867 111.013 14.544L111.333 15.904C111.12 15.9787 110.874 16.0427 110.597 16.096C110.33 16.16 110.042 16.192 109.733 16.192ZM115.712 16.192C115.061 16.192 114.453 16.032 113.888 15.712C113.323 15.3813 112.864 14.912 112.512 14.304C112.16 13.6853 111.984 12.944 111.984 12.08C111.984 11.2053 112.16 10.464 112.512 9.856C112.864 9.23733 113.323 8.768 113.888 8.448C114.453 8.11733 115.061 7.952 115.712 7.952C116.373 7.952 116.987 8.11733 117.552 8.448C118.117 8.768 118.576 9.23733 118.928 9.856C119.28 10.464 119.456 11.2053 119.456 12.08C119.456 12.944 119.28 13.6853 118.928 14.304C118.576 14.912 118.117 15.3813 117.552 15.712C116.987 16.032 116.373 16.192 115.712 16.192ZM115.712 14.688C116.288 14.688 116.741 14.448 117.072 13.968C117.403 13.488 117.568 12.8587 117.568 12.08C117.568 11.2907 117.403 10.656 117.072 10.176C116.741 9.696 116.288 9.456 115.712 9.456C115.136 9.456 114.683 9.696 114.352 10.176C114.032 10.656 113.872 11.2907 113.872 12.08C113.872 12.8587 114.032 13.488 114.352 13.968C114.683 14.448 115.136 14.688 115.712 14.688ZM121.277 16V8.144H122.797L122.925 9.536H122.989C123.267 9.024 123.603 8.63467 123.997 8.368C124.392 8.09067 124.797 7.952 125.213 7.952C125.587 7.952 125.885 8.00533 126.109 8.112L125.789 9.712C125.651 9.66933 125.523 9.63733 125.405 9.616C125.288 9.59467 125.144 9.584 124.973 9.584C124.664 9.584 124.339 9.70667 123.997 9.952C123.656 10.1867 123.363 10.6027 123.117 11.2V16H121.277ZM128.024 19.232C127.811 19.232 127.624 19.216 127.464 19.184C127.304 19.152 127.149 19.1147 127 19.072L127.336 17.632C127.411 17.6533 127.496 17.6747 127.592 17.696C127.699 17.728 127.8 17.744 127.896 17.744C128.312 17.744 128.643 17.616 128.888 17.36C129.144 17.1147 129.336 16.7947 129.464 16.4L129.608 15.904L126.52 8.144H128.392L129.752 12C129.869 12.3413 129.981 12.704 130.088 13.088C130.205 13.4613 130.323 13.8347 130.44 14.208H130.504C130.6 13.8453 130.696 13.4773 130.792 13.104C130.899 12.72 131 12.352 131.096 12L132.28 8.144H134.056L131.208 16.352C130.877 17.2373 130.477 17.936 130.008 18.448C129.539 18.9707 128.877 19.232 128.024 19.232Z" fill="#5C5C5C"/>
<path fill-rule="evenodd" clip-rule="evenodd" d="M11 10.1875C12.4942 10.1875 13.8142 10.545 14.8867 11.0125C15.8767 11.4525 16.5 12.4425 16.5 13.515V15H5.5V13.5242C5.5 12.4425 6.12333 11.4525 7.11333 11.0217C8.18583 10.545 9.50583 10.1875 11 10.1875ZM3.66667 10.4167C4.675 10.4167 5.5 9.59167 5.5 8.58333C5.5 7.575 4.675 6.75 3.66667 6.75C2.65833 6.75 1.83333 7.575 1.83333 8.58333C1.83333 9.59167 2.65833 10.4167 3.66667 10.4167ZM4.7025 11.425C4.36333 11.37 4.02417 11.3333 3.66667 11.3333C2.75917 11.3333 1.8975 11.5258 1.11833 11.865C0.44 12.1583 0 12.8183 0 13.5608V15H4.125V13.5242C4.125 12.7633 4.33583 12.0483 4.7025 11.425ZM18.3333 10.4167C19.3417 10.4167 20.1667 9.59167 20.1667 8.58333C20.1667 7.575 19.3417 6.75 18.3333 6.75C17.325 6.75 16.5 7.575 16.5 8.58333C16.5 9.59167 17.325 10.4167 18.3333 10.4167ZM22 13.5608C22 12.8183 21.56 12.1583 20.8817 11.865C20.1025 11.5258 19.2408 11.3333 18.3333 11.3333C17.9758 11.3333 17.6367 11.37 17.2975 11.425C17.6642 12.0483 17.875 12.7633 17.875 13.5242V15H22V13.5608ZM11 4C12.5217 4 13.75 5.22833 13.75 6.75C13.75 8.27167 12.5217 9.5 11 9.5C9.47833 9.5 8.25 8.27167 8.25 6.75C8.25 5.22833 9.47833 4 11 4Z" fill="#5C5C5C"/>
<path fill-rule="evenodd" clip-rule="evenodd" d="M143 9L148 14L153 9L143 9Z" fill="black"/>
</svg>
