<svg width="161" height="20" viewBox="0 0 161 20" fill="none" xmlns="http://www.w3.org/2000/svg">
<path d="M29.072 16V12.112L25.936 5.536H27.92L29.056 8.208C29.2053 8.60267 29.3547 8.98667 29.504 9.36C29.6533 9.72267 29.8133 10.1067 29.984 10.512H30.048C30.2187 10.1067 30.384 9.72267 30.544 9.36C30.704 8.98667 30.8587 8.60267 31.008 8.208L32.144 5.536H34.08L30.928 12.112V16H29.072ZM37.634 16.192C36.9833 16.192 36.3753 16.032 35.81 15.712C35.2447 15.3813 34.786 14.912 34.434 14.304C34.082 13.6853 33.906 12.944 33.906 12.08C33.906 11.2053 34.082 10.464 34.434 9.856C34.786 9.23733 35.2447 8.768 35.81 8.448C36.3753 8.11733 36.9833 7.952 37.634 7.952C38.2953 7.952 38.9087 8.11733 39.474 8.448C40.0393 8.768 40.498 9.23733 40.85 9.856C41.202 10.464 41.378 11.2053 41.378 12.08C41.378 12.944 41.202 13.6853 40.85 14.304C40.498 14.912 40.0393 15.3813 39.474 15.712C38.9087 16.032 38.2953 16.192 37.634 16.192ZM37.634 14.688C38.21 14.688 38.6633 14.448 38.994 13.968C39.3247 13.488 39.49 12.8587 39.49 12.08C39.49 11.2907 39.3247 10.656 38.994 10.176C38.6633 9.696 38.21 9.456 37.634 9.456C37.058 9.456 36.6047 9.696 36.274 10.176C35.954 10.656 35.794 11.2907 35.794 12.08C35.794 12.8587 35.954 13.488 36.274 13.968C36.6047 14.448 37.058 14.688 37.634 14.688ZM45.5353 16.192C44.6926 16.192 44.0793 15.92 43.6953 15.376C43.3113 14.832 43.1193 14.064 43.1193 13.072V8.144H44.9593V12.832C44.9593 13.4827 45.0553 13.9413 45.2473 14.208C45.4393 14.4747 45.7486 14.608 46.1753 14.608C46.5166 14.608 46.8153 14.5227 47.0713 14.352C47.3379 14.1813 47.6206 13.904 47.9193 13.52V8.144H49.7593V16H48.2553L48.1113 14.848H48.0633C47.7219 15.2533 47.3486 15.5787 46.9433 15.824C46.5379 16.0693 46.0686 16.192 45.5353 16.192ZM52.0899 16V8.144H53.6099L53.7379 9.536H53.8019C54.0792 9.024 54.4152 8.63467 54.8099 8.368C55.2045 8.09067 55.6099 7.952 56.0259 7.952C56.3992 7.952 56.6979 8.00533 56.9219 8.112L56.6019 9.712C56.4632 9.66933 56.3352 9.63733 56.2179 9.616C56.1005 9.59467 55.9565 9.584 55.7859 9.584C55.4765 9.584 55.1512 9.70667 54.8099 9.952C54.4685 10.1867 54.1752 10.6027 53.9299 11.2V16H52.0899ZM65.5978 16.192C64.7231 16.192 63.9284 15.984 63.2138 15.568C62.4991 15.152 61.9284 14.544 61.5018 13.744C61.0858 12.9333 60.8778 11.952 60.8778 10.8C60.8778 9.65867 61.0911 8.68267 61.5178 7.872C61.9551 7.05067 62.5364 6.42667 63.2618 6C63.9871 5.56267 64.7871 5.344 65.6618 5.344C66.3231 5.344 66.9098 5.47733 67.4218 5.744C67.9338 6.01067 68.3551 6.32 68.6858 6.672L67.6938 7.872C67.4271 7.59467 67.1284 7.376 66.7978 7.216C66.4778 7.04533 66.1151 6.96 65.7098 6.96C65.1444 6.96 64.6378 7.11467 64.1898 7.424C63.7524 7.72267 63.4058 8.15467 63.1498 8.72C62.9044 9.28533 62.7818 9.96267 62.7818 10.752C62.7818 11.9467 63.0431 12.8853 63.5658 13.568C64.0884 14.24 64.7871 14.576 65.6618 14.576C66.1311 14.576 66.5471 14.48 66.9098 14.288C67.2724 14.0853 67.6031 13.824 67.9018 13.504L68.8938 14.672C68.4671 15.1627 67.9764 15.5413 67.4218 15.808C66.8778 16.064 66.2698 16.192 65.5978 16.192ZM73.6965 16.192C73.0458 16.192 72.4378 16.032 71.8725 15.712C71.3072 15.3813 70.8485 14.912 70.4965 14.304C70.1445 13.6853 69.9685 12.944 69.9685 12.08C69.9685 11.2053 70.1445 10.464 70.4965 9.856C70.8485 9.23733 71.3072 8.768 71.8725 8.448C72.4378 8.11733 73.0458 7.952 73.6965 7.952C74.3578 7.952 74.9712 8.11733 75.5365 8.448C76.1018 8.768 76.5605 9.23733 76.9125 9.856C77.2645 10.464 77.4405 11.2053 77.4405 12.08C77.4405 12.944 77.2645 13.6853 76.9125 14.304C76.5605 14.912 76.1018 15.3813 75.5365 15.712C74.9712 16.032 74.3578 16.192 73.6965 16.192ZM73.6965 14.688C74.2725 14.688 74.7258 14.448 75.0565 13.968C75.3872 13.488 75.5525 12.8587 75.5525 12.08C75.5525 11.2907 75.3872 10.656 75.0565 10.176C74.7258 9.696 74.2725 9.456 73.6965 9.456C73.1205 9.456 72.6672 9.696 72.3365 10.176C72.0165 10.656 71.8565 11.2907 71.8565 12.08C71.8565 12.8587 72.0165 13.488 72.3365 13.968C72.6672 14.448 73.1205 14.688 73.6965 14.688ZM79.2618 16V8.144H80.7818L80.9098 9.2H80.9738C81.3258 8.85867 81.7098 8.56533 82.1258 8.32C82.5418 8.07467 83.0164 7.952 83.5498 7.952C84.3924 7.952 85.0058 8.224 85.3898 8.768C85.7738 9.312 85.9658 10.08 85.9658 11.072V16H84.1258V11.312C84.1258 10.6613 84.0298 10.2027 83.8378 9.936C83.6458 9.66933 83.3311 9.536 82.8938 9.536C82.5524 9.536 82.2484 9.62133 81.9818 9.792C81.7258 9.952 81.4324 10.192 81.1018 10.512V16H79.2618ZM90.9829 16.192C90.0762 16.192 89.4309 15.9307 89.0469 15.408C88.6735 14.8747 88.4869 14.1867 88.4869 13.344V9.6H87.3669V8.224L88.5829 8.144L88.8069 6H90.3429V8.144H92.3429V9.6H90.3429V13.344C90.3429 14.2613 90.7109 14.72 91.4469 14.72C91.5855 14.72 91.7295 14.704 91.8789 14.672C92.0282 14.6293 92.1562 14.5867 92.2629 14.544L92.5829 15.904C92.3695 15.9787 92.1242 16.0427 91.8469 16.096C91.5802 16.16 91.2922 16.192 90.9829 16.192ZM97.1061 16.192C96.3808 16.192 95.7248 16.032 95.1381 15.712C94.5515 15.3813 94.0875 14.912 93.7461 14.304C93.4048 13.6853 93.2341 12.944 93.2341 12.08C93.2341 11.2267 93.4048 10.4907 93.7461 9.872C94.0981 9.25333 94.5515 8.77867 95.1061 8.448C95.6608 8.11733 96.2421 7.952 96.8501 7.952C97.5648 7.952 98.1621 8.112 98.6421 8.432C99.1221 8.74133 99.4848 9.17867 99.7301 9.744C99.9755 10.2987 100.098 10.944 100.098 11.68C100.098 12.064 100.071 12.3627 100.018 12.576H95.0261C95.1115 13.2693 95.3621 13.808 95.7781 14.192C96.1941 14.576 96.7168 14.768 97.3461 14.768C97.6875 14.768 98.0021 14.72 98.2901 14.624C98.5888 14.5173 98.8821 14.3733 99.1701 14.192L99.7941 15.344C99.4208 15.5893 99.0048 15.792 98.5461 15.952C98.0875 16.112 97.6075 16.192 97.1061 16.192ZM95.0101 11.328H98.4981C98.4981 10.72 98.3648 10.2453 98.0981 9.904C97.8315 9.552 97.4315 9.376 96.8981 9.376C96.4395 9.376 96.0288 9.54667 95.6661 9.888C95.3141 10.2187 95.0955 10.6987 95.0101 11.328ZM101.856 16V8.144H103.376L103.504 9.2H103.568C103.92 8.85867 104.304 8.56533 104.72 8.32C105.136 8.07467 105.61 7.952 106.144 7.952C106.986 7.952 107.6 8.224 107.984 8.768C108.368 9.312 108.56 10.08 108.56 11.072V16H106.72V11.312C106.72 10.6613 106.624 10.2027 106.432 9.936C106.24 9.66933 105.925 9.536 105.488 9.536C105.146 9.536 104.842 9.62133 104.576 9.792C104.32 9.952 104.026 10.192 103.696 10.512V16H101.856ZM113.577 16.192C112.67 16.192 112.025 15.9307 111.641 15.408C111.267 14.8747 111.081 14.1867 111.081 13.344V9.6H109.961V8.224L111.177 8.144L111.401 6H112.937V8.144H114.937V9.6H112.937V13.344C112.937 14.2613 113.305 14.72 114.041 14.72C114.179 14.72 114.323 14.704 114.473 14.672C114.622 14.6293 114.75 14.5867 114.857 14.544L115.177 15.904C114.963 15.9787 114.718 16.0427 114.441 16.096C114.174 16.16 113.886 16.192 113.577 16.192ZM119.953 16V5.536H121.809V9.744H126.049V5.536H127.905V16H126.049V11.36H121.809V16H119.953ZM132.738 16.192C131.896 16.192 131.282 15.92 130.898 15.376C130.514 14.832 130.322 14.064 130.322 13.072V8.144H132.162V12.832C132.162 13.4827 132.258 13.9413 132.45 14.208C132.642 14.4747 132.952 14.608 133.378 14.608C133.72 14.608 134.018 14.5227 134.274 14.352C134.541 14.1813 134.824 13.904 135.122 13.52V8.144H136.962V16H135.458L135.314 14.848H135.266C134.925 15.2533 134.552 15.5787 134.146 15.824C133.741 16.0693 133.272 16.192 132.738 16.192ZM143.101 16.192C142.354 16.192 141.64 15.8507 140.957 15.168H140.909L140.749 16H139.293V4.704H141.133V7.616L141.085 8.928C141.416 8.64 141.778 8.40533 142.173 8.224C142.568 8.04267 142.962 7.952 143.357 7.952C144.338 7.952 145.101 8.31467 145.645 9.04C146.189 9.76533 146.461 10.7307 146.461 11.936C146.461 12.832 146.301 13.6 145.981 14.24C145.661 14.8693 145.245 15.3547 144.733 15.696C144.232 16.0267 143.688 16.192 143.101 16.192ZM142.717 14.672C143.24 14.672 143.677 14.4427 144.029 13.984C144.381 13.5253 144.557 12.8533 144.557 11.968C144.557 11.1787 144.424 10.5653 144.157 10.128C143.89 9.69067 143.458 9.472 142.861 9.472C142.306 9.472 141.73 9.76533 141.133 10.352V14.016C141.41 14.2507 141.682 14.4213 141.949 14.528C142.226 14.624 142.482 14.672 142.717 14.672Z" fill="#5C5C5C"/>
<path d="M12.5263 15.9091H4.42105C4.01579 15.9091 3.66886 15.7578 3.38026 15.4551C3.09167 15.1525 2.94737 14.7886 2.94737 14.3636V3.54545C2.94737 3.12045 3.09167 2.75663 3.38026 2.45398C3.66886 2.15133 4.01579 2 4.42105 2H9.57895L14 6.63636V14.3636C14 14.7886 13.8557 15.1525 13.5671 15.4551C13.2785 15.7578 12.9316 15.9091 12.5263 15.9091ZM8.8421 7.40909V3.54545H4.42105V14.3636H12.5263V7.40909H8.8421ZM1.47368 19C1.06842 19 0.721491 18.8487 0.432895 18.546C0.144298 18.2434 0 17.8795 0 17.4545V6.63636H1.47368V17.4545H9.57895V19H1.47368Z" fill="#5C5C5C"/>
</svg>
