<svg width="187" height="289" viewBox="0 0 187 289" fill="none" xmlns="http://www.w3.org/2000/svg">
<path d="M2.26 14V4.816H3.422V13.006H7.44V14H2.26ZM12.4286 14V4.816H13.5906V14H12.4286ZM19.4663 14V4.816H22.1963C22.8217 4.816 23.3677 4.89067 23.8343 5.04C24.3103 5.18933 24.679 5.42733 24.9403 5.754C25.211 6.08067 25.3463 6.51467 25.3463 7.056C25.3463 7.51333 25.2297 7.92867 24.9963 8.302C24.7723 8.666 24.441 8.918 24.0023 9.058V9.114C24.553 9.21667 25.001 9.45 25.3463 9.814C25.701 10.178 25.8783 10.6773 25.8783 11.312C25.8783 11.9093 25.729 12.4087 25.4303 12.81C25.141 13.2113 24.735 13.51 24.2123 13.706C23.6897 13.902 23.083 14 22.3923 14H19.4663ZM20.6283 8.722H21.9863C22.7703 8.722 23.335 8.58667 23.6803 8.316C24.0257 8.04533 24.1983 7.67667 24.1983 7.21C24.1983 6.678 24.0163 6.3 23.6523 6.076C23.2977 5.852 22.761 5.74 22.0423 5.74H20.6283V8.722ZM20.6283 13.076H22.2243C23.0177 13.076 23.6337 12.9313 24.0723 12.642C24.511 12.3433 24.7303 11.886 24.7303 11.27C24.7303 10.7007 24.511 10.2853 24.0723 10.024C23.643 9.75333 23.027 9.618 22.2243 9.618H20.6283V13.076ZM31.0568 14V4.816H33.9268C34.5521 4.816 35.1075 4.9 35.5928 5.068C36.0781 5.22667 36.4561 5.49733 36.7268 5.88C37.0068 6.25333 37.1468 6.75733 37.1468 7.392C37.1468 8.10133 36.9601 8.67533 36.5868 9.114C36.2135 9.54333 35.7095 9.83733 35.0748 9.996L37.4128 14H36.0968L33.8848 10.122H32.2188V14H31.0568ZM32.2188 9.17H33.7588C34.4775 9.17 35.0281 9.02533 35.4108 8.736C35.7935 8.43733 35.9848 7.98933 35.9848 7.392C35.9848 6.78533 35.7935 6.36067 35.4108 6.118C35.0281 5.87533 34.4775 5.754 33.7588 5.754H32.2188V9.17ZM43.9148 8.862L43.4808 10.262H46.2388L45.8048 8.862C45.6368 8.34867 45.4781 7.84 45.3288 7.336C45.1795 6.82267 45.0301 6.3 44.8808 5.768H44.8248C44.6848 6.3 44.5401 6.82267 44.3908 7.336C44.2415 7.84 44.0828 8.34867 43.9148 8.862ZM41.1148 14L44.2228 4.816H45.5388L48.6468 14H47.4008L46.5328 11.2H43.1868L42.3048 14H41.1148ZM53.308 14V4.816H56.178C56.8034 4.816 57.3587 4.9 57.844 5.068C58.3294 5.22667 58.7074 5.49733 58.978 5.88C59.258 6.25333 59.398 6.75733 59.398 7.392C59.398 8.10133 59.2114 8.67533 58.838 9.114C58.4647 9.54333 57.9607 9.83733 57.326 9.996L59.664 14H58.348L56.136 10.122H54.47V14H53.308ZM54.47 9.17H56.01C56.7287 9.17 57.2794 9.02533 57.662 8.736C58.0447 8.43733 58.236 7.98933 58.236 7.392C58.236 6.78533 58.0447 6.36067 57.662 6.118C57.2794 5.87533 56.7287 5.754 56.01 5.754H54.47V9.17ZM66.1227 14V10.444L63.3647 4.816H64.6107L65.8007 7.406C65.9501 7.742 66.0947 8.07333 66.2348 8.4C66.3841 8.72667 66.5334 9.06267 66.6828 9.408H66.7387C66.8974 9.06267 67.0561 8.72667 67.2148 8.4C67.3734 8.07333 67.5228 7.742 67.6628 7.406L68.8388 4.816H70.0568L67.2987 10.444V14H66.1227Z" fill="#9D9D9D"/>
<path d="M2.26 220V210.816H5.13C5.75533 210.816 6.31067 210.9 6.796 211.068C7.28133 211.227 7.65933 211.497 7.93 211.88C8.21 212.253 8.35 212.757 8.35 213.392C8.35 214.101 8.16333 214.675 7.79 215.114C7.41667 215.543 6.91267 215.837 6.278 215.996L8.616 220H7.3L5.088 216.122H3.422V220H2.26ZM3.422 215.17H4.962C5.68067 215.17 6.23133 215.025 6.614 214.736C6.99667 214.437 7.188 213.989 7.188 213.392C7.188 212.785 6.99667 212.361 6.614 212.118C6.23133 211.875 5.68067 211.754 4.962 211.754H3.422V215.17ZM13.5907 220V210.816H18.8827V211.796H14.7527V214.68H18.2387V215.674H14.7527V219.006H19.0227V220H13.5907ZM26.8815 220.168C26.2375 220.168 25.6402 220.047 25.0895 219.804C24.5388 219.552 24.0628 219.221 23.6615 218.81L24.3615 217.998C24.6882 218.343 25.0708 218.623 25.5095 218.838C25.9575 219.043 26.4195 219.146 26.8955 219.146C27.5022 219.146 27.9735 219.011 28.3095 218.74C28.6455 218.46 28.8135 218.096 28.8135 217.648C28.8135 217.331 28.7435 217.079 28.6035 216.892C28.4728 216.705 28.2908 216.547 28.0575 216.416C27.8335 216.285 27.5768 216.155 27.2875 216.024L25.9715 215.45C25.6822 215.329 25.3928 215.17 25.1035 214.974C24.8235 214.778 24.5855 214.526 24.3895 214.218C24.2028 213.91 24.1095 213.532 24.1095 213.084C24.1095 212.617 24.2308 212.202 24.4735 211.838C24.7255 211.465 25.0708 211.175 25.5095 210.97C25.9482 210.755 26.4428 210.648 26.9935 210.648C27.5442 210.648 28.0528 210.755 28.5195 210.97C28.9862 211.175 29.3828 211.446 29.7095 211.782L29.0795 212.538C28.7995 212.267 28.4868 212.057 28.1415 211.908C27.8055 211.749 27.4228 211.67 26.9935 211.67C26.4802 211.67 26.0648 211.791 25.7475 212.034C25.4395 212.277 25.2855 212.603 25.2855 213.014C25.2855 213.303 25.3602 213.546 25.5095 213.742C25.6682 213.929 25.8642 214.083 26.0975 214.204C26.3308 214.325 26.5688 214.437 26.8115 214.54L28.1135 215.1C28.4682 215.249 28.7855 215.431 29.0655 215.646C29.3548 215.851 29.5835 216.108 29.7515 216.416C29.9195 216.715 30.0035 217.093 30.0035 217.55C30.0035 218.035 29.8775 218.479 29.6255 218.88C29.3735 219.272 29.0142 219.585 28.5475 219.818C28.0808 220.051 27.5255 220.168 26.8815 220.168ZM38.56 220.168C37.7947 220.168 37.1134 219.972 36.516 219.58C35.928 219.188 35.466 218.633 35.13 217.914C34.8034 217.195 34.64 216.346 34.64 215.366C34.64 214.386 34.8034 213.546 35.13 212.846C35.466 212.137 35.928 211.595 36.516 211.222C37.1134 210.839 37.7947 210.648 38.56 210.648C39.3347 210.648 40.016 210.839 40.604 211.222C41.192 211.595 41.654 212.137 41.99 212.846C42.326 213.546 42.494 214.386 42.494 215.366C42.494 216.346 42.326 217.195 41.99 217.914C41.654 218.633 41.192 219.188 40.604 219.58C40.016 219.972 39.3347 220.168 38.56 220.168ZM38.56 219.146C39.1107 219.146 39.5867 218.992 39.988 218.684C40.3987 218.367 40.716 217.928 40.94 217.368C41.164 216.799 41.276 216.131 41.276 215.366C41.276 214.227 41.0287 213.327 40.534 212.664C40.0394 212.001 39.3814 211.67 38.56 211.67C37.7387 211.67 37.0807 212.001 36.586 212.664C36.0914 213.327 35.844 214.227 35.844 215.366C35.844 216.131 35.956 216.799 36.18 217.368C36.404 217.928 36.7214 218.367 37.132 218.684C37.5427 218.992 38.0187 219.146 38.56 219.146ZM51.0909 220.168C50.4656 220.168 49.9009 220.042 49.3969 219.79C48.9022 219.538 48.5102 219.123 48.2209 218.544C47.9316 217.965 47.7869 217.186 47.7869 216.206V210.816H48.9489V216.234C48.9489 216.971 49.0422 217.555 49.2289 217.984C49.4249 218.404 49.6816 218.703 49.9989 218.88C50.3256 219.057 50.6896 219.146 51.0909 219.146C51.5016 219.146 51.8702 219.057 52.1969 218.88C52.5236 218.703 52.7802 218.404 52.9669 217.984C53.1629 217.555 53.2609 216.971 53.2609 216.234V210.816H54.3809V216.206C54.3809 217.186 54.2362 217.965 53.9469 218.544C53.6576 219.123 53.2656 219.538 52.7709 219.79C52.2762 220.042 51.7162 220.168 51.0909 220.168ZM60.2123 220V210.816H63.0823C63.7077 210.816 64.263 210.9 64.7483 211.068C65.2337 211.227 65.6117 211.497 65.8823 211.88C66.1623 212.253 66.3023 212.757 66.3023 213.392C66.3023 214.101 66.1157 214.675 65.7423 215.114C65.369 215.543 64.865 215.837 64.2303 215.996L66.5683 220H65.2523L63.0403 216.122H61.3743V220H60.2123ZM61.3743 215.17H62.9143C63.633 215.17 64.1837 215.025 64.5663 214.736C64.949 214.437 65.1403 213.989 65.1403 213.392C65.1403 212.785 64.949 212.361 64.5663 212.118C64.1837 211.875 63.633 211.754 62.9143 211.754H61.3743V215.17ZM75.015 220.168C74.2497 220.168 73.5637 219.981 72.957 219.608C72.3597 219.225 71.8837 218.679 71.529 217.97C71.1837 217.261 71.011 216.407 71.011 215.408C71.011 214.419 71.1884 213.569 71.543 212.86C71.8977 212.151 72.383 211.605 72.999 211.222C73.615 210.839 74.3104 210.648 75.085 210.648C75.645 210.648 76.1397 210.765 76.569 210.998C76.9984 211.222 77.3437 211.483 77.605 211.782L76.975 212.538C76.7324 212.277 76.457 212.067 76.149 211.908C75.841 211.749 75.491 211.67 75.099 211.67C74.5204 211.67 74.0117 211.824 73.573 212.132C73.1437 212.431 72.8077 212.855 72.565 213.406C72.3317 213.957 72.215 214.615 72.215 215.38C72.215 216.145 72.3317 216.813 72.565 217.382C72.7984 217.942 73.125 218.376 73.545 218.684C73.9744 218.992 74.4784 219.146 75.057 219.146C75.4957 219.146 75.8877 219.053 76.233 218.866C76.5784 218.679 76.8957 218.427 77.185 218.11L77.829 218.838C77.465 219.258 77.0544 219.585 76.597 219.818C76.1397 220.051 75.6124 220.168 75.015 220.168ZM82.9011 220V210.816H88.1931V211.796H84.0631V214.68H87.5491V215.674H84.0631V219.006H88.3331V220H82.9011ZM96.1919 220.168C95.5479 220.168 94.9506 220.047 94.3999 219.804C93.8492 219.552 93.3732 219.221 92.9719 218.81L93.6719 217.998C93.9986 218.343 94.3812 218.623 94.8199 218.838C95.2679 219.043 95.7299 219.146 96.2059 219.146C96.8126 219.146 97.2839 219.011 97.6199 218.74C97.9559 218.46 98.1239 218.096 98.1239 217.648C98.1239 217.331 98.0539 217.079 97.9139 216.892C97.7832 216.705 97.6012 216.547 97.3679 216.416C97.1439 216.285 96.8872 216.155 96.5979 216.024L95.2819 215.45C94.9926 215.329 94.7032 215.17 94.4139 214.974C94.1339 214.778 93.8959 214.526 93.6999 214.218C93.5132 213.91 93.4199 213.532 93.4199 213.084C93.4199 212.617 93.5412 212.202 93.7839 211.838C94.0359 211.465 94.3812 211.175 94.8199 210.97C95.2586 210.755 95.7532 210.648 96.3039 210.648C96.8546 210.648 97.3632 210.755 97.8299 210.97C98.2966 211.175 98.6932 211.446 99.0199 211.782L98.3899 212.538C98.1099 212.267 97.7972 212.057 97.4519 211.908C97.1159 211.749 96.7332 211.67 96.3039 211.67C95.7906 211.67 95.3752 211.791 95.0579 212.034C94.7499 212.277 94.5959 212.603 94.5959 213.014C94.5959 213.303 94.6706 213.546 94.8199 213.742C94.9786 213.929 95.1746 214.083 95.4079 214.204C95.6412 214.325 95.8792 214.437 96.1219 214.54L97.4239 215.1C97.7786 215.249 98.0959 215.431 98.3759 215.646C98.6652 215.851 98.8939 216.108 99.0619 216.416C99.2299 216.715 99.3139 217.093 99.3139 217.55C99.3139 218.035 99.1879 218.479 98.9359 218.88C98.6839 219.272 98.3246 219.585 97.8579 219.818C97.3912 220.051 96.8359 220.168 96.1919 220.168Z" fill="#9D9D9D"/>
<path fill-rule="evenodd" clip-rule="evenodd" d="M7.5026 78.0228L6.71719 77.3078C3.9276 74.7783 2.08594 73.1099 2.08594 71.0624C2.08594 69.3941 3.39677 68.0833 5.0651 68.0833C6.0076 68.0833 6.91219 68.522 7.5026 69.2153C8.09302 68.522 8.9976 68.0833 9.9401 68.0833C11.6084 68.0833 12.9193 69.3941 12.9193 71.0624C12.9193 73.1099 11.0776 74.7783 8.28802 77.3133L7.5026 78.0228Z" fill="#5C5C5C"/>
<path d="M28.328 79V68.536H34.648V70.104H30.184V73.064H33.992V74.632H30.184V79H28.328ZM37.6501 79.192C36.9675 79.192 36.4075 78.9787 35.9701 78.552C35.5435 78.1253 35.3301 77.5707 35.3301 76.888C35.3301 76.0453 35.6981 75.3947 36.4341 74.936C37.1701 74.4667 38.3435 74.1467 39.9541 73.976C39.9435 73.56 39.8315 73.2027 39.6181 72.904C39.4155 72.5947 39.0475 72.44 38.5141 72.44C38.1301 72.44 37.7515 72.5147 37.3781 72.664C37.0155 72.8133 36.6581 72.9947 36.3061 73.208L35.6341 71.976C36.0715 71.6987 36.5621 71.4587 37.1061 71.256C37.6608 71.0533 38.2475 70.952 38.8661 70.952C39.8475 70.952 40.5781 71.2453 41.0581 71.832C41.5488 72.408 41.7941 73.2453 41.7941 74.344V79H40.2741L40.1461 78.136H40.0821C39.7301 78.4347 39.3515 78.6853 38.9461 78.888C38.5515 79.0907 38.1195 79.192 37.6501 79.192ZM38.2421 77.752C38.5621 77.752 38.8501 77.6773 39.1061 77.528C39.3728 77.368 39.6555 77.1547 39.9541 76.888V75.128C38.8875 75.2667 38.1461 75.4747 37.7301 75.752C37.3141 76.0187 37.1061 76.3493 37.1061 76.744C37.1061 77.096 37.2128 77.352 37.4261 77.512C37.6395 77.672 37.9115 77.752 38.2421 77.752ZM45.7561 79L43.0201 71.144H44.8921L46.1401 75.224C46.2468 75.608 46.3535 75.9973 46.4601 76.392C46.5775 76.7867 46.6895 77.1867 46.7961 77.592H46.8601C46.9775 77.1867 47.0895 76.7867 47.1961 76.392C47.3135 75.9973 47.4255 75.608 47.5321 75.224L48.7801 71.144H50.5561L47.8841 79H45.7561ZM55.0403 79.192C54.3896 79.192 53.7816 79.032 53.2163 78.712C52.6509 78.3813 52.1923 77.912 51.8403 77.304C51.4883 76.6853 51.3123 75.944 51.3123 75.08C51.3123 74.2053 51.4883 73.464 51.8403 72.856C52.1923 72.2373 52.6509 71.768 53.2163 71.448C53.7816 71.1173 54.3896 70.952 55.0403 70.952C55.7016 70.952 56.3149 71.1173 56.8803 71.448C57.4456 71.768 57.9043 72.2373 58.2563 72.856C58.6083 73.464 58.7843 74.2053 58.7843 75.08C58.7843 75.944 58.6083 76.6853 58.2563 77.304C57.9043 77.912 57.4456 78.3813 56.8803 78.712C56.3149 79.032 55.7016 79.192 55.0403 79.192ZM55.0403 77.688C55.6163 77.688 56.0696 77.448 56.4003 76.968C56.7309 76.488 56.8963 75.8587 56.8963 75.08C56.8963 74.2907 56.7309 73.656 56.4003 73.176C56.0696 72.696 55.6163 72.456 55.0403 72.456C54.4643 72.456 54.0109 72.696 53.6803 73.176C53.3603 73.656 53.2003 74.2907 53.2003 75.08C53.2003 75.8587 53.3603 76.488 53.6803 76.968C54.0109 77.448 54.4643 77.688 55.0403 77.688ZM60.6055 79V71.144H62.1255L62.2535 72.536H62.3175C62.5948 72.024 62.9308 71.6347 63.3255 71.368C63.7202 71.0907 64.1255 70.952 64.5415 70.952C64.9148 70.952 65.2135 71.0053 65.4375 71.112L65.1175 72.712C64.9788 72.6693 64.8508 72.6373 64.7335 72.616C64.6162 72.5947 64.4722 72.584 64.3015 72.584C63.9922 72.584 63.6668 72.7067 63.3255 72.952C62.9842 73.1867 62.6908 73.6027 62.4455 74.2V79H60.6055ZM66.5743 79V71.144H68.4143V79H66.5743ZM67.5023 69.768C67.1716 69.768 66.9049 69.672 66.7023 69.48C66.4996 69.288 66.3983 69.032 66.3983 68.712C66.3983 68.4027 66.4996 68.152 66.7023 67.96C66.9049 67.768 67.1716 67.672 67.5023 67.672C67.8329 67.672 68.0996 67.768 68.3023 67.96C68.5049 68.152 68.6063 68.4027 68.6063 68.712C68.6063 69.032 68.5049 69.288 68.3023 69.48C68.0996 69.672 67.8329 69.768 67.5023 69.768ZM73.5298 79.192C72.6231 79.192 71.9778 78.9307 71.5938 78.408C71.2204 77.8747 71.0338 77.1867 71.0338 76.344V72.6H69.9138V71.224L71.1298 71.144L71.3538 69H72.8898V71.144H74.8898V72.6H72.8898V76.344C72.8898 77.2613 73.2578 77.72 73.9938 77.72C74.1324 77.72 74.2764 77.704 74.4258 77.672C74.5751 77.6293 74.7031 77.5867 74.8098 77.544L75.1298 78.904C74.9164 78.9787 74.6711 79.0427 74.3938 79.096C74.1271 79.16 73.8391 79.192 73.5298 79.192ZM79.653 79.192C78.9277 79.192 78.2717 79.032 77.685 78.712C77.0983 78.3813 76.6343 77.912 76.293 77.304C75.9517 76.6853 75.781 75.944 75.781 75.08C75.781 74.2267 75.9517 73.4907 76.293 72.872C76.645 72.2533 77.0983 71.7787 77.653 71.448C78.2077 71.1173 78.789 70.952 79.397 70.952C80.1117 70.952 80.709 71.112 81.189 71.432C81.669 71.7413 82.0317 72.1787 82.277 72.744C82.5223 73.2987 82.645 73.944 82.645 74.68C82.645 75.064 82.6183 75.3627 82.565 75.576H77.573C77.6583 76.2693 77.909 76.808 78.325 77.192C78.741 77.576 79.2637 77.768 79.893 77.768C80.2343 77.768 80.549 77.72 80.837 77.624C81.1357 77.5173 81.429 77.3733 81.717 77.192L82.341 78.344C81.9677 78.5893 81.5517 78.792 81.093 78.952C80.6343 79.112 80.1543 79.192 79.653 79.192ZM77.557 74.328H81.045C81.045 73.72 80.9117 73.2453 80.645 72.904C80.3783 72.552 79.9783 72.376 79.445 72.376C78.9863 72.376 78.5757 72.5467 78.213 72.888C77.861 73.2187 77.6423 73.6987 77.557 74.328ZM86.5944 79.192C86.061 79.192 85.5277 79.0907 84.9944 78.888C84.461 78.6747 84.0024 78.4133 83.6184 78.104L84.4824 76.92C84.8344 77.1867 85.1864 77.4 85.5384 77.56C85.8904 77.72 86.2637 77.8 86.6584 77.8C87.085 77.8 87.3997 77.7093 87.6024 77.528C87.805 77.3467 87.9064 77.1227 87.9064 76.856C87.9064 76.632 87.821 76.4507 87.6504 76.312C87.4904 76.1627 87.2824 76.0347 87.0264 75.928C86.7704 75.8107 86.5037 75.6987 86.2264 75.592C85.885 75.464 85.5437 75.3093 85.2024 75.128C84.8717 74.936 84.5997 74.696 84.3864 74.408C84.173 74.1093 84.0664 73.7413 84.0664 73.304C84.0664 72.6107 84.3224 72.0453 84.8344 71.608C85.3464 71.1707 86.0397 70.952 86.9144 70.952C87.469 70.952 87.965 71.048 88.4024 71.24C88.8397 71.432 89.2184 71.6507 89.5384 71.896L88.6904 73.016C88.413 72.8133 88.1304 72.6533 87.8424 72.536C87.565 72.408 87.2717 72.344 86.9624 72.344C86.5677 72.344 86.2744 72.4293 86.0824 72.6C85.8904 72.76 85.7944 72.9627 85.7944 73.208C85.7944 73.5173 85.9544 73.752 86.2744 73.912C86.5944 74.072 86.9677 74.2267 87.3944 74.376C87.757 74.504 88.109 74.664 88.4504 74.856C88.7917 75.0373 89.0744 75.2773 89.2984 75.576C89.533 75.8747 89.6504 76.2693 89.6504 76.76C89.6504 77.432 89.389 78.008 88.8664 78.488C88.3437 78.9573 87.5864 79.192 86.5944 79.192Z" fill="#5C5C5C"/>
<path d="M2.33333 117C1.96667 117 1.65278 116.873 1.39167 116.618C1.13056 116.364 1 116.058 1 115.7V106.6C1 106.242 1.13056 105.936 1.39167 105.682C1.65278 105.427 1.96667 105.3 2.33333 105.3H5.13333C5.28889 104.91 5.53333 104.596 5.86667 104.357C6.2 104.119 6.57778 104 7 104C7.42222 104 7.8 104.119 8.13333 104.357C8.46667 104.596 8.71111 104.91 8.86667 105.3H11.6667C12.0333 105.3 12.3472 105.427 12.6083 105.682C12.8694 105.936 13 106.242 13 106.6V115.7C13 116.058 12.8694 116.364 12.6083 116.618C12.3472 116.873 12.0333 117 11.6667 117H2.33333ZM7 106.112C7.14444 106.112 7.26389 106.066 7.35833 105.974C7.45278 105.882 7.5 105.766 7.5 105.625C7.5 105.484 7.45278 105.368 7.35833 105.276C7.26389 105.184 7.14444 105.137 7 105.137C6.85556 105.137 6.73611 105.184 6.64167 105.276C6.54722 105.368 6.5 105.484 6.5 105.625C6.5 105.766 6.54722 105.882 6.64167 105.974C6.73611 106.066 6.85556 106.112 7 106.112ZM2.33333 114.953C2.93333 114.378 3.63056 113.926 4.425 113.596C5.21944 113.265 6.07778 113.1 7 113.1C7.92222 113.1 8.78056 113.265 9.575 113.596C10.3694 113.926 11.0667 114.378 11.6667 114.953V106.6H2.33333V114.953ZM7 111.8C7.64444 111.8 8.19444 111.578 8.65 111.134C9.10556 110.69 9.33333 110.153 9.33333 109.525C9.33333 108.897 9.10556 108.36 8.65 107.916C8.19444 107.472 7.64444 107.25 7 107.25C6.35556 107.25 5.80556 107.472 5.35 107.916C4.89444 108.36 4.66667 108.897 4.66667 109.525C4.66667 110.153 4.89444 110.69 5.35 111.134C5.80556 111.578 6.35556 111.8 7 111.8Z" fill="#5C5C5C"/>
<path d="M30.472 110.432L30.104 111.712H32.776L32.408 110.432C32.2373 109.877 32.072 109.307 31.912 108.72C31.7627 108.133 31.6133 107.552 31.464 106.976H31.4C31.2613 107.563 31.112 108.149 30.952 108.736C30.8027 109.312 30.6427 109.877 30.472 110.432ZM26.968 116L30.376 105.536H32.552L35.96 116H34.008L33.192 113.168H29.672L28.856 116H26.968ZM39.5631 116.192C39.0298 116.192 38.4965 116.091 37.9631 115.888C37.4298 115.675 36.9711 115.413 36.5871 115.104L37.4511 113.92C37.8031 114.187 38.1551 114.4 38.5071 114.56C38.8591 114.72 39.2325 114.8 39.6271 114.8C40.0538 114.8 40.3685 114.709 40.5711 114.528C40.7738 114.347 40.8751 114.123 40.8751 113.856C40.8751 113.632 40.7898 113.451 40.6191 113.312C40.4591 113.163 40.2511 113.035 39.9951 112.928C39.7391 112.811 39.4725 112.699 39.1951 112.592C38.8538 112.464 38.5125 112.309 38.1711 112.128C37.8405 111.936 37.5685 111.696 37.3551 111.408C37.1418 111.109 37.0351 110.741 37.0351 110.304C37.0351 109.611 37.2911 109.045 37.8031 108.608C38.3151 108.171 39.0085 107.952 39.8831 107.952C40.4378 107.952 40.9338 108.048 41.3711 108.24C41.8085 108.432 42.1871 108.651 42.5071 108.896L41.6591 110.016C41.3818 109.813 41.0991 109.653 40.8111 109.536C40.5338 109.408 40.2405 109.344 39.9311 109.344C39.5365 109.344 39.2431 109.429 39.0511 109.6C38.8591 109.76 38.7631 109.963 38.7631 110.208C38.7631 110.517 38.9231 110.752 39.2431 110.912C39.5631 111.072 39.9365 111.227 40.3631 111.376C40.7258 111.504 41.0778 111.664 41.4191 111.856C41.7605 112.037 42.0431 112.277 42.2671 112.576C42.5018 112.875 42.6191 113.269 42.6191 113.76C42.6191 114.432 42.3578 115.008 41.8351 115.488C41.3125 115.957 40.5551 116.192 39.5631 116.192ZM46.4538 116.192C45.9204 116.192 45.3871 116.091 44.8538 115.888C44.3204 115.675 43.8618 115.413 43.4778 115.104L44.3418 113.92C44.6938 114.187 45.0458 114.4 45.3978 114.56C45.7498 114.72 46.1231 114.8 46.5178 114.8C46.9444 114.8 47.2591 114.709 47.4618 114.528C47.6644 114.347 47.7658 114.123 47.7658 113.856C47.7658 113.632 47.6804 113.451 47.5098 113.312C47.3498 113.163 47.1418 113.035 46.8858 112.928C46.6298 112.811 46.3631 112.699 46.0858 112.592C45.7444 112.464 45.4031 112.309 45.0618 112.128C44.7311 111.936 44.4591 111.696 44.2458 111.408C44.0324 111.109 43.9258 110.741 43.9258 110.304C43.9258 109.611 44.1818 109.045 44.6938 108.608C45.2058 108.171 45.8991 107.952 46.7738 107.952C47.3284 107.952 47.8244 108.048 48.2618 108.24C48.6991 108.432 49.0778 108.651 49.3978 108.896L48.5498 110.016C48.2724 109.813 47.9898 109.653 47.7018 109.536C47.4244 109.408 47.1311 109.344 46.8218 109.344C46.4271 109.344 46.1338 109.429 45.9418 109.6C45.7498 109.76 45.6538 109.963 45.6538 110.208C45.6538 110.517 45.8138 110.752 46.1338 110.912C46.4538 111.072 46.8271 111.227 47.2538 111.376C47.6164 111.504 47.9684 111.664 48.3098 111.856C48.6511 112.037 48.9338 112.277 49.1578 112.576C49.3924 112.875 49.5098 113.269 49.5098 113.76C49.5098 114.432 49.2484 115.008 48.7258 115.488C48.2031 115.957 47.4458 116.192 46.4538 116.192ZM51.1524 116V108.144H52.9924V116H51.1524ZM52.0804 106.768C51.7497 106.768 51.483 106.672 51.2804 106.48C51.0777 106.288 50.9764 106.032 50.9764 105.712C50.9764 105.403 51.0777 105.152 51.2804 104.96C51.483 104.768 51.7497 104.672 52.0804 104.672C52.411 104.672 52.6777 104.768 52.8804 104.96C53.083 105.152 53.1844 105.403 53.1844 105.712C53.1844 106.032 53.083 106.288 52.8804 106.48C52.6777 106.672 52.411 106.768 52.0804 106.768ZM58.0759 119.472C57.4572 119.472 56.8972 119.397 56.3959 119.248C55.9052 119.099 55.5159 118.869 55.2279 118.56C54.9505 118.261 54.8119 117.883 54.8119 117.424C54.8119 116.773 55.1852 116.213 55.9319 115.744V115.68C55.7292 115.552 55.5585 115.381 55.4199 115.168C55.2919 114.955 55.2279 114.688 55.2279 114.368C55.2279 114.059 55.3132 113.781 55.4839 113.536C55.6652 113.28 55.8679 113.072 56.0919 112.912V112.848C55.8252 112.645 55.5852 112.363 55.3719 112C55.1692 111.637 55.0679 111.227 55.0679 110.768C55.0679 110.16 55.2119 109.648 55.4999 109.232C55.7879 108.816 56.1665 108.501 56.6359 108.288C57.1159 108.064 57.6279 107.952 58.1719 107.952C58.3852 107.952 58.5879 107.973 58.7799 108.016C58.9825 108.048 59.1639 108.091 59.3239 108.144H62.1399V109.504H60.6999C60.8279 109.653 60.9345 109.845 61.0199 110.08C61.1052 110.304 61.1479 110.555 61.1479 110.832C61.1479 111.408 61.0145 111.899 60.7479 112.304C60.4812 112.699 60.1239 112.997 59.6759 113.2C59.2279 113.403 58.7265 113.504 58.1719 113.504C58.0012 113.504 57.8252 113.488 57.6439 113.456C57.4625 113.424 57.2812 113.371 57.0999 113.296C56.9825 113.403 56.8865 113.509 56.8119 113.616C56.7479 113.723 56.7159 113.867 56.7159 114.048C56.7159 114.272 56.8065 114.448 56.9879 114.576C57.1799 114.704 57.5159 114.768 57.9959 114.768H59.3879C60.3372 114.768 61.0519 114.923 61.5319 115.232C62.0225 115.531 62.2679 116.021 62.2679 116.704C62.2679 117.216 62.0972 117.68 61.7559 118.096C61.4145 118.523 60.9292 118.859 60.2999 119.104C59.6705 119.349 58.9292 119.472 58.0759 119.472ZM58.1719 112.352C58.5452 112.352 58.8652 112.213 59.1319 111.936C59.3985 111.659 59.5319 111.269 59.5319 110.768C59.5319 110.277 59.3985 109.899 59.1319 109.632C58.8759 109.355 58.5559 109.216 58.1719 109.216C57.7879 109.216 57.4625 109.349 57.1959 109.616C56.9292 109.883 56.7959 110.267 56.7959 110.768C56.7959 111.269 56.9292 111.659 57.1959 111.936C57.4625 112.213 57.7879 112.352 58.1719 112.352ZM58.3639 118.272C58.9932 118.272 59.5052 118.144 59.8999 117.888C60.2945 117.632 60.4919 117.339 60.4919 117.008C60.4919 116.699 60.3692 116.491 60.1239 116.384C59.8892 116.277 59.5479 116.224 59.0999 116.224H58.0279C57.6012 116.224 57.2439 116.187 56.9559 116.112C56.5505 116.421 56.3479 116.768 56.3479 117.152C56.3479 117.504 56.5292 117.776 56.8919 117.968C57.2545 118.171 57.7452 118.272 58.3639 118.272ZM63.6524 116V108.144H65.1724L65.3004 109.2H65.3644C65.7164 108.859 66.1004 108.565 66.5164 108.32C66.9324 108.075 67.407 107.952 67.9404 107.952C68.783 107.952 69.3964 108.224 69.7804 108.768C70.1644 109.312 70.3564 110.08 70.3564 111.072V116H68.5164V111.312C68.5164 110.661 68.4204 110.203 68.2284 109.936C68.0364 109.669 67.7217 109.536 67.2844 109.536C66.943 109.536 66.639 109.621 66.3724 109.792C66.1164 109.952 65.823 110.192 65.4924 110.512V116H63.6524ZM75.9655 116.192C75.2402 116.192 74.5842 116.032 73.9975 115.712C73.4108 115.381 72.9468 114.912 72.6055 114.304C72.2642 113.685 72.0935 112.944 72.0935 112.08C72.0935 111.227 72.2642 110.491 72.6055 109.872C72.9575 109.253 73.4108 108.779 73.9655 108.448C74.5202 108.117 75.1015 107.952 75.7095 107.952C76.4242 107.952 77.0215 108.112 77.5015 108.432C77.9815 108.741 78.3442 109.179 78.5895 109.744C78.8348 110.299 78.9575 110.944 78.9575 111.68C78.9575 112.064 78.9308 112.363 78.8775 112.576H73.8855C73.9708 113.269 74.2215 113.808 74.6375 114.192C75.0535 114.576 75.5762 114.768 76.2055 114.768C76.5468 114.768 76.8615 114.72 77.1495 114.624C77.4482 114.517 77.7415 114.373 78.0295 114.192L78.6535 115.344C78.2802 115.589 77.8642 115.792 77.4055 115.952C76.9468 116.112 76.4668 116.192 75.9655 116.192ZM73.8695 111.328H77.3575C77.3575 110.72 77.2242 110.245 76.9575 109.904C76.6908 109.552 76.2908 109.376 75.7575 109.376C75.2988 109.376 74.8882 109.547 74.5255 109.888C74.1735 110.219 73.9548 110.699 73.8695 111.328ZM83.4669 116.192C82.4855 116.192 81.7015 115.829 81.1149 115.104C80.5282 114.379 80.2349 113.371 80.2349 112.08C80.2349 111.227 80.3895 110.491 80.6989 109.872C81.0189 109.253 81.4349 108.779 81.9469 108.448C82.4589 108.117 82.9975 107.952 83.5629 107.952C84.0109 107.952 84.3895 108.032 84.6989 108.192C85.0189 108.341 85.3282 108.549 85.6269 108.816L85.5629 107.552V104.704H87.4029V116H85.8829L85.7549 115.152H85.6909C85.4029 115.44 85.0669 115.685 84.6829 115.888C84.2989 116.091 83.8935 116.192 83.4669 116.192ZM83.9149 114.672C84.5015 114.672 85.0509 114.379 85.5629 113.792V110.128C85.2962 109.883 85.0295 109.712 84.7629 109.616C84.4962 109.52 84.2295 109.472 83.9629 109.472C83.4615 109.472 83.0295 109.701 82.6669 110.16C82.3149 110.608 82.1389 111.243 82.1389 112.064C82.1389 112.907 82.2935 113.552 82.6029 114C82.9122 114.448 83.3495 114.672 83.9149 114.672ZM95.7173 116.192C94.8106 116.192 94.1653 115.931 93.7812 115.408C93.4079 114.875 93.2213 114.187 93.2213 113.344V109.6H92.1013V108.224L93.3173 108.144L93.5413 106H95.0773V108.144H97.0773V109.6H95.0773V113.344C95.0773 114.261 95.4453 114.72 96.1813 114.72C96.3199 114.72 96.4639 114.704 96.6133 114.672C96.7626 114.629 96.8906 114.587 96.9973 114.544L97.3173 115.904C97.1039 115.979 96.8586 116.043 96.5813 116.096C96.3146 116.16 96.0266 116.192 95.7173 116.192ZM101.697 116.192C101.046 116.192 100.438 116.032 99.8725 115.712C99.3072 115.381 98.8485 114.912 98.4965 114.304C98.1445 113.685 97.9685 112.944 97.9685 112.08C97.9685 111.205 98.1445 110.464 98.4965 109.856C98.8485 109.237 99.3072 108.768 99.8725 108.448C100.438 108.117 101.046 107.952 101.697 107.952C102.358 107.952 102.971 108.117 103.537 108.448C104.102 108.768 104.561 109.237 104.913 109.856C105.265 110.464 105.441 111.205 105.441 112.08C105.441 112.944 105.265 113.685 104.913 114.304C104.561 114.912 104.102 115.381 103.537 115.712C102.971 116.032 102.358 116.192 101.697 116.192ZM101.697 114.688C102.273 114.688 102.726 114.448 103.057 113.968C103.387 113.488 103.553 112.859 103.553 112.08C103.553 111.291 103.387 110.656 103.057 110.176C102.726 109.696 102.273 109.456 101.697 109.456C101.121 109.456 100.667 109.696 100.337 110.176C100.017 110.656 99.8565 111.291 99.8565 112.08C99.8565 112.859 100.017 113.488 100.337 113.968C100.667 114.448 101.121 114.688 101.697 114.688ZM112.369 116V112.112L109.233 105.536H111.217L112.353 108.208C112.502 108.603 112.652 108.987 112.801 109.36C112.95 109.723 113.11 110.107 113.281 110.512H113.345C113.516 110.107 113.681 109.723 113.841 109.36C114.001 108.987 114.156 108.603 114.305 108.208L115.441 105.536H117.377L114.225 112.112V116H112.369ZM120.931 116.192C120.28 116.192 119.672 116.032 119.107 115.712C118.542 115.381 118.083 114.912 117.731 114.304C117.379 113.685 117.203 112.944 117.203 112.08C117.203 111.205 117.379 110.464 117.731 109.856C118.083 109.237 118.542 108.768 119.107 108.448C119.672 108.117 120.28 107.952 120.931 107.952C121.592 107.952 122.206 108.117 122.771 108.448C123.336 108.768 123.795 109.237 124.147 109.856C124.499 110.464 124.675 111.205 124.675 112.08C124.675 112.944 124.499 113.685 124.147 114.304C123.795 114.912 123.336 115.381 122.771 115.712C122.206 116.032 121.592 116.192 120.931 116.192ZM120.931 114.688C121.507 114.688 121.96 114.448 122.291 113.968C122.622 113.488 122.787 112.859 122.787 112.08C122.787 111.291 122.622 110.656 122.291 110.176C121.96 109.696 121.507 109.456 120.931 109.456C120.355 109.456 119.902 109.696 119.571 110.176C119.251 110.656 119.091 111.291 119.091 112.08C119.091 112.859 119.251 113.488 119.571 113.968C119.902 114.448 120.355 114.688 120.931 114.688ZM128.832 116.192C127.989 116.192 127.376 115.92 126.992 115.376C126.608 114.832 126.416 114.064 126.416 113.072V108.144H128.256V112.832C128.256 113.483 128.352 113.941 128.544 114.208C128.736 114.475 129.045 114.608 129.472 114.608C129.813 114.608 130.112 114.523 130.368 114.352C130.635 114.181 130.917 113.904 131.216 113.52V108.144H133.056V116H131.552L131.408 114.848H131.36C131.019 115.253 130.645 115.579 130.24 115.824C129.835 116.069 129.365 116.192 128.832 116.192Z" fill="#5C5C5C"/>
<path d="M5.8 39.2H8.2V38H5.8V39.2ZM5.8 37.4H10.6V36.2H5.8V37.4ZM5.8 35.6H10.6V34.4H5.8V35.6ZM4.6 41.6C4.27 41.6 3.9875 41.4825 3.7525 41.2475C3.5175 41.0125 3.4 40.73 3.4 40.4V33.2C3.4 32.87 3.5175 32.5875 3.7525 32.3525C3.9875 32.1175 4.27 32 4.6 32H11.8C12.13 32 12.4125 32.1175 12.6475 32.3525C12.8825 32.5875 13 32.87 13 33.2V40.4C13 40.73 12.8825 41.0125 12.6475 41.2475C12.4125 41.4825 12.13 41.6 11.8 41.6H4.6ZM4.6 40.4H11.8V33.2H4.6V40.4ZM2.2 44C1.87 44 1.5875 43.8825 1.3525 43.6475C1.1175 43.4125 1 43.13 1 42.8V34.4H2.2V42.8H10.6V44H2.2Z" fill="#5C5C5C"/>
<path d="M28.328 42V31.536H34.648V33.104H30.184V36.064H33.992V37.632H30.184V42H28.328ZM38.379 42.192C37.5363 42.192 36.923 41.92 36.539 41.376C36.155 40.832 35.963 40.064 35.963 39.072V34.144H37.803V38.832C37.803 39.4827 37.899 39.9413 38.091 40.208C38.283 40.4747 38.5923 40.608 39.019 40.608C39.3603 40.608 39.659 40.5227 39.915 40.352C40.1817 40.1813 40.4643 39.904 40.763 39.52V34.144H42.603V42H41.099L40.955 40.848H40.907C40.5657 41.2533 40.1923 41.5787 39.787 41.824C39.3817 42.0693 38.9123 42.192 38.379 42.192ZM46.7256 42.192C46.075 42.192 45.611 41.9947 45.3336 41.6C45.067 41.2053 44.9336 40.6667 44.9336 39.984V30.704H46.7736V40.08C46.7736 40.304 46.8163 40.464 46.9016 40.56C46.987 40.6453 47.0776 40.688 47.1736 40.688C47.2163 40.688 47.2536 40.688 47.2856 40.688C47.3283 40.6773 47.387 40.6667 47.4616 40.656L47.7016 42.032C47.595 42.0747 47.4563 42.112 47.2856 42.144C47.1256 42.176 46.939 42.192 46.7256 42.192ZM51.0694 42.192C50.4187 42.192 49.9547 41.9947 49.6774 41.6C49.4107 41.2053 49.2774 40.6667 49.2774 39.984V30.704H51.1174V40.08C51.1174 40.304 51.16 40.464 51.2454 40.56C51.3307 40.6453 51.4214 40.688 51.5174 40.688C51.56 40.688 51.5974 40.688 51.6294 40.688C51.672 40.6773 51.7307 40.6667 51.8054 40.656L52.0454 42.032C51.9387 42.0747 51.8 42.112 51.6294 42.144C51.4694 42.176 51.2827 42.192 51.0694 42.192ZM61.1603 42.192C60.2856 42.192 59.4909 41.984 58.7763 41.568C58.0616 41.152 57.4909 40.544 57.0643 39.744C56.6483 38.9333 56.4403 37.952 56.4403 36.8C56.4403 35.6587 56.6536 34.6827 57.0803 33.872C57.5176 33.0507 58.0989 32.4267 58.8243 32C59.5496 31.5627 60.3496 31.344 61.2243 31.344C61.8856 31.344 62.4723 31.4773 62.9843 31.744C63.4963 32.0107 63.9176 32.32 64.2483 32.672L63.2563 33.872C62.9896 33.5947 62.6909 33.376 62.3603 33.216C62.0403 33.0453 61.6776 32.96 61.2723 32.96C60.7069 32.96 60.2003 33.1147 59.7523 33.424C59.3149 33.7227 58.9683 34.1547 58.7123 34.72C58.4669 35.2853 58.3443 35.9627 58.3443 36.752C58.3443 37.9467 58.6056 38.8853 59.1283 39.568C59.6509 40.24 60.3496 40.576 61.2243 40.576C61.6936 40.576 62.1096 40.48 62.4723 40.288C62.8349 40.0853 63.1656 39.824 63.4643 39.504L64.4563 40.672C64.0296 41.1627 63.5389 41.5413 62.9843 41.808C62.4403 42.064 61.8323 42.192 61.1603 42.192ZM69.259 42.192C68.6083 42.192 68.0003 42.032 67.435 41.712C66.8697 41.3813 66.411 40.912 66.059 40.304C65.707 39.6853 65.531 38.944 65.531 38.08C65.531 37.2053 65.707 36.464 66.059 35.856C66.411 35.2373 66.8697 34.768 67.435 34.448C68.0003 34.1173 68.6083 33.952 69.259 33.952C69.9203 33.952 70.5337 34.1173 71.099 34.448C71.6643 34.768 72.123 35.2373 72.475 35.856C72.827 36.464 73.003 37.2053 73.003 38.08C73.003 38.944 72.827 39.6853 72.475 40.304C72.123 40.912 71.6643 41.3813 71.099 41.712C70.5337 42.032 69.9203 42.192 69.259 42.192ZM69.259 40.688C69.835 40.688 70.2883 40.448 70.619 39.968C70.9497 39.488 71.115 38.8587 71.115 38.08C71.115 37.2907 70.9497 36.656 70.619 36.176C70.2883 35.696 69.835 35.456 69.259 35.456C68.683 35.456 68.2297 35.696 67.899 36.176C67.579 36.656 67.419 37.2907 67.419 38.08C67.419 38.8587 67.579 39.488 67.899 39.968C68.2297 40.448 68.683 40.688 69.259 40.688ZM74.8243 42V34.144H76.3443L76.4723 35.2H76.5363C76.8883 34.8587 77.2723 34.5653 77.6883 34.32C78.1043 34.0747 78.5789 33.952 79.1123 33.952C79.9549 33.952 80.5683 34.224 80.9523 34.768C81.3363 35.312 81.5283 36.08 81.5283 37.072V42H79.6883V37.312C79.6883 36.6613 79.5923 36.2027 79.4003 35.936C79.2083 35.6693 78.8936 35.536 78.4563 35.536C78.1149 35.536 77.8109 35.6213 77.5443 35.792C77.2883 35.952 76.9949 36.192 76.6643 36.512V42H74.8243ZM86.5454 42.192C85.6387 42.192 84.9934 41.9307 84.6094 41.408C84.236 40.8747 84.0494 40.1867 84.0494 39.344V35.6H82.9294V34.224L84.1454 34.144L84.3694 32H85.9054V34.144H87.9054V35.6H85.9054V39.344C85.9054 40.2613 86.2734 40.72 87.0094 40.72C87.148 40.72 87.292 40.704 87.4414 40.672C87.5907 40.6293 87.7187 40.5867 87.8254 40.544L88.1454 41.904C87.932 41.9787 87.6867 42.0427 87.4094 42.096C87.1427 42.16 86.8547 42.192 86.5454 42.192ZM92.6686 42.192C91.9433 42.192 91.2873 42.032 90.7006 41.712C90.114 41.3813 89.65 40.912 89.3086 40.304C88.9673 39.6853 88.7966 38.944 88.7966 38.08C88.7966 37.2267 88.9673 36.4907 89.3086 35.872C89.6606 35.2533 90.114 34.7787 90.6686 34.448C91.2233 34.1173 91.8046 33.952 92.4126 33.952C93.1273 33.952 93.7246 34.112 94.2046 34.432C94.6846 34.7413 95.0473 35.1787 95.2926 35.744C95.538 36.2987 95.6606 36.944 95.6606 37.68C95.6606 38.064 95.634 38.3627 95.5806 38.576H90.5886C90.674 39.2693 90.9246 39.808 91.3406 40.192C91.7566 40.576 92.2793 40.768 92.9086 40.768C93.25 40.768 93.5646 40.72 93.8526 40.624C94.1513 40.5173 94.4446 40.3733 94.7326 40.192L95.3566 41.344C94.9833 41.5893 94.5673 41.792 94.1086 41.952C93.65 42.112 93.17 42.192 92.6686 42.192ZM90.5726 37.328H94.0606C94.0606 36.72 93.9273 36.2453 93.6606 35.904C93.394 35.552 92.994 35.376 92.4606 35.376C92.002 35.376 91.5913 35.5467 91.2286 35.888C90.8766 36.2187 90.658 36.6987 90.5726 37.328ZM97.418 42V34.144H98.938L99.066 35.2H99.13C99.482 34.8587 99.866 34.5653 100.282 34.32C100.698 34.0747 101.173 33.952 101.706 33.952C102.549 33.952 103.162 34.224 103.546 34.768C103.93 35.312 104.122 36.08 104.122 37.072V42H102.282V37.312C102.282 36.6613 102.186 36.2027 101.994 35.936C101.802 35.6693 101.487 35.536 101.05 35.536C100.709 35.536 100.405 35.6213 100.138 35.792C99.882 35.952 99.5887 36.192 99.258 36.512V42H97.418ZM109.139 42.192C108.232 42.192 107.587 41.9307 107.203 41.408C106.83 40.8747 106.643 40.1867 106.643 39.344V35.6H105.523V34.224L106.739 34.144L106.963 32H108.499V34.144H110.499V35.6H108.499V39.344C108.499 40.2613 108.867 40.72 109.603 40.72C109.742 40.72 109.886 40.704 110.035 40.672C110.184 40.6293 110.312 40.5867 110.419 40.544L110.739 41.904C110.526 41.9787 110.28 42.0427 110.003 42.096C109.736 42.16 109.448 42.192 109.139 42.192ZM115.516 42V31.536H117.372V40.432H121.724V42H115.516ZM123.387 42V34.144H125.227V42H123.387ZM124.315 32.768C123.984 32.768 123.717 32.672 123.515 32.48C123.312 32.288 123.211 32.032 123.211 31.712C123.211 31.4027 123.312 31.152 123.515 30.96C123.717 30.768 123.984 30.672 124.315 30.672C124.645 30.672 124.912 30.768 125.115 30.96C125.317 31.152 125.419 31.4027 125.419 31.712C125.419 32.032 125.317 32.288 125.115 32.48C124.912 32.672 124.645 32.768 124.315 32.768ZM131.382 42.192C130.636 42.192 129.921 41.8507 129.238 41.168H129.19L129.03 42H127.574V30.704H129.414V33.616L129.366 34.928C129.697 34.64 130.06 34.4053 130.454 34.224C130.849 34.0427 131.244 33.952 131.638 33.952C132.62 33.952 133.382 34.3147 133.926 35.04C134.47 35.7653 134.742 36.7307 134.742 37.936C134.742 38.832 134.582 39.6 134.262 40.24C133.942 40.8693 133.526 41.3547 133.014 41.696C132.513 42.0267 131.969 42.192 131.382 42.192ZM130.998 40.672C131.521 40.672 131.958 40.4427 132.31 39.984C132.662 39.5253 132.838 38.8533 132.838 37.968C132.838 37.1787 132.705 36.5653 132.438 36.128C132.172 35.6907 131.74 35.472 131.142 35.472C130.588 35.472 130.012 35.7653 129.414 36.352V40.016C129.692 40.2507 129.964 40.4213 130.23 40.528C130.508 40.624 130.764 40.672 130.998 40.672ZM136.59 42V34.144H138.11L138.238 35.536H138.302C138.579 35.024 138.915 34.6347 139.31 34.368C139.705 34.0907 140.11 33.952 140.526 33.952C140.899 33.952 141.198 34.0053 141.422 34.112L141.102 35.712C140.963 35.6693 140.835 35.6373 140.718 35.616C140.601 35.5947 140.457 35.584 140.286 35.584C139.977 35.584 139.651 35.7067 139.31 35.952C138.969 36.1867 138.675 36.6027 138.43 37.2V42H136.59ZM144.041 42.192C143.358 42.192 142.798 41.9787 142.361 41.552C141.934 41.1253 141.721 40.5707 141.721 39.888C141.721 39.0453 142.089 38.3947 142.825 37.936C143.561 37.4667 144.734 37.1467 146.345 36.976C146.334 36.56 146.222 36.2027 146.009 35.904C145.806 35.5947 145.438 35.44 144.905 35.44C144.521 35.44 144.142 35.5147 143.769 35.664C143.406 35.8133 143.049 35.9947 142.697 36.208L142.025 34.976C142.462 34.6987 142.953 34.4587 143.497 34.256C144.051 34.0533 144.638 33.952 145.257 33.952C146.238 33.952 146.969 34.2453 147.449 34.832C147.939 35.408 148.185 36.2453 148.185 37.344V42H146.665L146.537 41.136H146.473C146.121 41.4347 145.742 41.6853 145.337 41.888C144.942 42.0907 144.51 42.192 144.041 42.192ZM144.633 40.752C144.953 40.752 145.241 40.6773 145.497 40.528C145.763 40.368 146.046 40.1547 146.345 39.888V38.128C145.278 38.2667 144.537 38.4747 144.121 38.752C143.705 39.0187 143.497 39.3493 143.497 39.744C143.497 40.096 143.603 40.352 143.817 40.512C144.03 40.672 144.302 40.752 144.633 40.752ZM150.387 42V34.144H151.907L152.035 35.536H152.099C152.376 35.024 152.712 34.6347 153.107 34.368C153.501 34.0907 153.907 33.952 154.323 33.952C154.696 33.952 154.995 34.0053 155.219 34.112L154.899 35.712C154.76 35.6693 154.632 35.6373 154.515 35.616C154.397 35.5947 154.253 35.584 154.083 35.584C153.773 35.584 153.448 35.7067 153.107 35.952C152.765 36.1867 152.472 36.6027 152.227 37.2V42H150.387ZM157.134 45.232C156.92 45.232 156.734 45.216 156.574 45.184C156.414 45.152 156.259 45.1147 156.11 45.072L156.446 43.632C156.52 43.6533 156.606 43.6747 156.702 43.696C156.808 43.728 156.91 43.744 157.006 43.744C157.422 43.744 157.752 43.616 157.998 43.36C158.254 43.1147 158.446 42.7947 158.574 42.4L158.718 41.904L155.63 34.144H157.502L158.862 38C158.979 38.3413 159.091 38.704 159.198 39.088C159.315 39.4613 159.432 39.8347 159.549 40.208H159.614C159.71 39.8453 159.806 39.4773 159.902 39.104C160.008 38.72 160.11 38.352 160.206 38L161.39 34.144H163.166L160.318 42.352C159.987 43.2373 159.587 43.936 159.118 44.448C158.648 44.9707 157.987 45.232 157.134 45.232Z" fill="#5C5C5C"/>
<path d="M6.75 150.75H12.75V150.338C12.75 149.775 12.475 149.328 11.925 148.997C11.375 148.666 10.65 148.5 9.75 148.5C8.85 148.5 8.125 148.666 7.575 148.997C7.025 149.328 6.75 149.775 6.75 150.338V150.75ZM9.75 147.75C10.1625 147.75 10.5156 147.603 10.8094 147.309C11.1031 147.016 11.25 146.663 11.25 146.25C11.25 145.838 11.1031 145.484 10.8094 145.191C10.5156 144.897 10.1625 144.75 9.75 144.75C9.3375 144.75 8.98438 144.897 8.69063 145.191C8.39688 145.484 8.25 145.838 8.25 146.25C8.25 146.663 8.39688 147.016 8.69063 147.309C8.98438 147.603 9.3375 147.75 9.75 147.75ZM1.5 153C1.0875 153 0.734375 152.853 0.440625 152.559C0.146875 152.266 0 151.913 0 151.5V142.5C0 142.088 0.146875 141.734 0.440625 141.441C0.734375 141.147 1.0875 141 1.5 141H6L7.5 142.5H13.5C13.9125 142.5 14.2656 142.647 14.5594 142.941C14.8531 143.234 15 143.588 15 144V151.5C15 151.913 14.8531 152.266 14.5594 152.559C14.2656 152.853 13.9125 153 13.5 153H1.5ZM1.5 151.5H13.5V144H6.88125L5.38125 142.5H1.5V151.5Z" fill="#5C5C5C"/>
<path d="M31.384 153.192C30.68 153.192 29.9973 153.059 29.336 152.792C28.6853 152.525 28.1093 152.147 27.608 151.656L28.696 150.392C29.0693 150.744 29.496 151.032 29.976 151.256C30.456 151.469 30.936 151.576 31.416 151.576C32.0133 151.576 32.4667 151.453 32.776 151.208C33.0853 150.963 33.24 150.637 33.24 150.232C33.24 149.795 33.0853 149.48 32.776 149.288C32.4773 149.096 32.0933 148.899 31.624 148.696L30.184 148.072C29.8427 147.923 29.5067 147.731 29.176 147.496C28.856 147.261 28.5893 146.963 28.376 146.6C28.1733 146.237 28.072 145.8 28.072 145.288C28.072 144.733 28.2213 144.237 28.52 143.8C28.8293 143.352 29.2453 143 29.768 142.744C30.3013 142.477 30.9093 142.344 31.592 142.344C32.2 142.344 32.7867 142.467 33.352 142.712C33.9173 142.947 34.4027 143.267 34.808 143.672L33.864 144.856C33.5333 144.579 33.1813 144.36 32.808 144.2C32.4453 144.04 32.04 143.96 31.592 143.96C31.1013 143.96 30.7013 144.072 30.392 144.296C30.0933 144.509 29.944 144.808 29.944 145.192C29.944 145.459 30.0187 145.683 30.168 145.864C30.328 146.035 30.536 146.184 30.792 146.312C31.048 146.429 31.32 146.547 31.608 146.664L33.032 147.256C33.6507 147.523 34.1573 147.875 34.552 148.312C34.9467 148.739 35.144 149.331 35.144 150.088C35.144 150.653 34.9947 151.171 34.696 151.64C34.3973 152.109 33.9653 152.488 33.4 152.776C32.8453 153.053 32.1733 153.192 31.384 153.192ZM36.8868 153V141.704H38.7268V144.616L38.6628 146.136C38.9934 145.827 39.3614 145.555 39.7668 145.32C40.1721 145.075 40.6414 144.952 41.1748 144.952C42.0174 144.952 42.6308 145.224 43.0148 145.768C43.3988 146.312 43.5908 147.08 43.5908 148.072V153H41.7508V148.312C41.7508 147.661 41.6548 147.203 41.4628 146.936C41.2708 146.669 40.9561 146.536 40.5188 146.536C40.1774 146.536 39.8734 146.621 39.6068 146.792C39.3508 146.952 39.0574 147.192 38.7268 147.512V153H36.8868ZM47.7126 153.192C47.03 153.192 46.47 152.979 46.0326 152.552C45.606 152.125 45.3926 151.571 45.3926 150.888C45.3926 150.045 45.7606 149.395 46.4966 148.936C47.2326 148.467 48.406 148.147 50.0166 147.976C50.006 147.56 49.894 147.203 49.6806 146.904C49.478 146.595 49.11 146.44 48.5766 146.44C48.1926 146.44 47.814 146.515 47.4406 146.664C47.078 146.813 46.7206 146.995 46.3686 147.208L45.6966 145.976C46.134 145.699 46.6246 145.459 47.1686 145.256C47.7233 145.053 48.31 144.952 48.9286 144.952C49.91 144.952 50.6406 145.245 51.1206 145.832C51.6113 146.408 51.8566 147.245 51.8566 148.344V153H50.3366L50.2086 152.136H50.1446C49.7926 152.435 49.414 152.685 49.0086 152.888C48.614 153.091 48.182 153.192 47.7126 153.192ZM48.3046 151.752C48.6246 151.752 48.9126 151.677 49.1686 151.528C49.4353 151.368 49.718 151.155 50.0166 150.888V149.128C48.95 149.267 48.2086 149.475 47.7926 149.752C47.3766 150.019 47.1686 150.349 47.1686 150.744C47.1686 151.096 47.2753 151.352 47.4886 151.512C47.702 151.672 47.974 151.752 48.3046 151.752ZM54.0586 153V145.144H55.5786L55.7066 146.536H55.7706C56.048 146.024 56.384 145.635 56.7786 145.368C57.1733 145.091 57.5786 144.952 57.9946 144.952C58.368 144.952 58.6666 145.005 58.8906 145.112L58.5706 146.712C58.432 146.669 58.304 146.637 58.1866 146.616C58.0693 146.595 57.9253 146.584 57.7546 146.584C57.4453 146.584 57.12 146.707 56.7786 146.952C56.4373 147.187 56.144 147.603 55.8986 148.2V153H54.0586ZM63.2311 153.192C62.5058 153.192 61.8498 153.032 61.2631 152.712C60.6765 152.381 60.2125 151.912 59.8711 151.304C59.5298 150.685 59.3591 149.944 59.3591 149.08C59.3591 148.227 59.5298 147.491 59.8711 146.872C60.2231 146.253 60.6765 145.779 61.2311 145.448C61.7858 145.117 62.3671 144.952 62.9751 144.952C63.6898 144.952 64.2871 145.112 64.7671 145.432C65.2471 145.741 65.6098 146.179 65.8551 146.744C66.1005 147.299 66.2231 147.944 66.2231 148.68C66.2231 149.064 66.1965 149.363 66.1431 149.576H61.1511C61.2365 150.269 61.4871 150.808 61.9031 151.192C62.3191 151.576 62.8418 151.768 63.4711 151.768C63.8125 151.768 64.1271 151.72 64.4151 151.624C64.7138 151.517 65.0071 151.373 65.2951 151.192L65.9191 152.344C65.5458 152.589 65.1298 152.792 64.6711 152.952C64.2125 153.112 63.7325 153.192 63.2311 153.192ZM61.1351 148.328H64.6231C64.6231 147.72 64.4898 147.245 64.2231 146.904C63.9565 146.552 63.5565 146.376 63.0231 146.376C62.5645 146.376 62.1538 146.547 61.7911 146.888C61.4391 147.219 61.2205 147.699 61.1351 148.328ZM70.7325 153.192C69.7512 153.192 68.9672 152.829 68.3805 152.104C67.7938 151.379 67.5005 150.371 67.5005 149.08C67.5005 148.227 67.6552 147.491 67.9645 146.872C68.2845 146.253 68.7005 145.779 69.2125 145.448C69.7245 145.117 70.2632 144.952 70.8285 144.952C71.2765 144.952 71.6552 145.032 71.9645 145.192C72.2845 145.341 72.5938 145.549 72.8925 145.816L72.8285 144.552V141.704H74.6685V153H73.1485L73.0205 152.152H72.9565C72.6685 152.44 72.3325 152.685 71.9485 152.888C71.5645 153.091 71.1592 153.192 70.7325 153.192ZM71.1805 151.672C71.7672 151.672 72.3165 151.379 72.8285 150.792V147.128C72.5618 146.883 72.2952 146.712 72.0285 146.616C71.7618 146.52 71.4952 146.472 71.2285 146.472C70.7272 146.472 70.2952 146.701 69.9325 147.16C69.5805 147.608 69.4045 148.243 69.4045 149.064C69.4045 149.907 69.5592 150.552 69.8685 151C70.1778 151.448 70.6152 151.672 71.1805 151.672ZM81.5109 153L79.4309 145.144H81.2869L82.2309 149.224C82.3162 149.597 82.3855 149.971 82.4389 150.344C82.5029 150.717 82.5722 151.096 82.6469 151.48H82.7109C82.7855 151.096 82.8602 150.717 82.9349 150.344C83.0202 149.96 83.1109 149.587 83.2069 149.224L84.2309 145.144H85.9109L86.9509 149.224C87.0469 149.597 87.1375 149.971 87.2229 150.344C87.3082 150.717 87.3935 151.096 87.4789 151.48H87.5429C87.6175 151.096 87.6869 150.717 87.7509 150.344C87.8149 149.971 87.8842 149.597 87.9589 149.224L88.9029 145.144H90.6309L88.6309 153H86.4389L85.5269 149.336C85.4415 148.963 85.3615 148.595 85.2869 148.232C85.2122 147.859 85.1322 147.464 85.0469 147.048H84.9829C84.9082 147.464 84.8335 147.859 84.7589 148.232C84.6842 148.605 84.6042 148.979 84.5189 149.352L83.6229 153H81.5109ZM92.1836 153V145.144H94.0236V153H92.1836ZM93.1116 143.768C92.781 143.768 92.5143 143.672 92.3116 143.48C92.109 143.288 92.0076 143.032 92.0076 142.712C92.0076 142.403 92.109 142.152 92.3116 141.96C92.5143 141.768 92.781 141.672 93.1116 141.672C93.4423 141.672 93.709 141.768 93.9116 141.96C94.1143 142.152 94.2156 142.403 94.2156 142.712C94.2156 143.032 94.1143 143.288 93.9116 143.48C93.709 143.672 93.4423 143.768 93.1116 143.768ZM99.1391 153.192C98.2325 153.192 97.5871 152.931 97.2031 152.408C96.8298 151.875 96.6431 151.187 96.6431 150.344V146.6H95.5231V145.224L96.7391 145.144L96.9631 143H98.4991V145.144H100.499V146.6H98.4991V150.344C98.4991 151.261 98.8671 151.72 99.6031 151.72C99.7418 151.72 99.8858 151.704 100.035 151.672C100.184 151.629 100.312 151.587 100.419 151.544L100.739 152.904C100.526 152.979 100.28 153.043 100.003 153.096C99.7365 153.16 99.4485 153.192 99.1391 153.192ZM102.152 153V141.704H103.992V144.616L103.928 146.136C104.259 145.827 104.627 145.555 105.032 145.32C105.438 145.075 105.907 144.952 106.44 144.952C107.283 144.952 107.896 145.224 108.28 145.768C108.664 146.312 108.856 147.08 108.856 148.072V153H107.016V148.312C107.016 147.661 106.92 147.203 106.728 146.936C106.536 146.669 106.222 146.536 105.784 146.536C105.443 146.536 105.139 146.621 104.872 146.792C104.616 146.952 104.323 147.192 103.992 147.512V153H102.152ZM116.181 153V149.112L113.045 142.536H115.029L116.165 145.208C116.315 145.603 116.464 145.987 116.613 146.36C116.763 146.723 116.923 147.107 117.093 147.512H117.157C117.328 147.107 117.493 146.723 117.653 146.36C117.813 145.987 117.968 145.603 118.117 145.208L119.253 142.536H121.189L118.037 149.112V153H116.181ZM124.743 153.192C124.093 153.192 123.485 153.032 122.919 152.712C122.354 152.381 121.895 151.912 121.543 151.304C121.191 150.685 121.015 149.944 121.015 149.08C121.015 148.205 121.191 147.464 121.543 146.856C121.895 146.237 122.354 145.768 122.919 145.448C123.485 145.117 124.093 144.952 124.743 144.952C125.405 144.952 126.018 145.117 126.583 145.448C127.149 145.768 127.607 146.237 127.959 146.856C128.311 147.464 128.487 148.205 128.487 149.08C128.487 149.944 128.311 150.685 127.959 151.304C127.607 151.912 127.149 152.381 126.583 152.712C126.018 153.032 125.405 153.192 124.743 153.192ZM124.743 151.688C125.319 151.688 125.773 151.448 126.103 150.968C126.434 150.488 126.599 149.859 126.599 149.08C126.599 148.291 126.434 147.656 126.103 147.176C125.773 146.696 125.319 146.456 124.743 146.456C124.167 146.456 123.714 146.696 123.383 147.176C123.063 147.656 122.903 148.291 122.903 149.08C122.903 149.859 123.063 150.488 123.383 150.968C123.714 151.448 124.167 151.688 124.743 151.688ZM132.645 153.192C131.802 153.192 131.189 152.92 130.805 152.376C130.421 151.832 130.229 151.064 130.229 150.072V145.144H132.069V149.832C132.069 150.483 132.165 150.941 132.357 151.208C132.549 151.475 132.858 151.608 133.285 151.608C133.626 151.608 133.925 151.523 134.181 151.352C134.447 151.181 134.73 150.904 135.029 150.52V145.144H136.869V153H135.365L135.221 151.848H135.173C134.831 152.253 134.458 152.579 134.053 152.824C133.647 153.069 133.178 153.192 132.645 153.192Z" fill="#5C5C5C"/>
<path d="M28.328 248V237.536H30.184V241.744H34.424V237.536H36.28V248H34.424V243.36H30.184V248H28.328ZM38.7774 248V240.144H40.6174V248H38.7774ZM39.7054 238.768C39.3747 238.768 39.108 238.672 38.9054 238.48C38.7027 238.288 38.6014 238.032 38.6014 237.712C38.6014 237.403 38.7027 237.152 38.9054 236.96C39.108 236.768 39.3747 236.672 39.7054 236.672C40.036 236.672 40.3027 236.768 40.5054 236.96C40.708 237.152 40.8094 237.403 40.8094 237.712C40.8094 238.032 40.708 238.288 40.5054 238.48C40.3027 238.672 40.036 238.768 39.7054 238.768ZM45.1569 248.192C44.6235 248.192 44.0902 248.091 43.5569 247.888C43.0235 247.675 42.5649 247.413 42.1809 247.104L43.0449 245.92C43.3969 246.187 43.7489 246.4 44.1009 246.56C44.4529 246.72 44.8262 246.8 45.2209 246.8C45.6475 246.8 45.9622 246.709 46.1649 246.528C46.3675 246.347 46.4689 246.123 46.4689 245.856C46.4689 245.632 46.3835 245.451 46.2129 245.312C46.0529 245.163 45.8449 245.035 45.5889 244.928C45.3329 244.811 45.0662 244.699 44.7889 244.592C44.4475 244.464 44.1062 244.309 43.7649 244.128C43.4342 243.936 43.1622 243.696 42.9489 243.408C42.7355 243.109 42.6289 242.741 42.6289 242.304C42.6289 241.611 42.8849 241.045 43.3969 240.608C43.9089 240.171 44.6022 239.952 45.4769 239.952C46.0315 239.952 46.5275 240.048 46.9649 240.24C47.4022 240.432 47.7809 240.651 48.1009 240.896L47.2529 242.016C46.9755 241.813 46.6929 241.653 46.4049 241.536C46.1275 241.408 45.8342 241.344 45.5249 241.344C45.1302 241.344 44.8369 241.429 44.6449 241.6C44.4529 241.76 44.3569 241.963 44.3569 242.208C44.3569 242.517 44.5169 242.752 44.8369 242.912C45.1569 243.072 45.5302 243.227 45.9569 243.376C46.3195 243.504 46.6715 243.664 47.0129 243.856C47.3542 244.037 47.6369 244.277 47.8609 244.576C48.0955 244.875 48.2129 245.269 48.2129 245.76C48.2129 246.432 47.9515 247.008 47.4289 247.488C46.9062 247.957 46.1489 248.192 45.1569 248.192ZM52.311 248.192C51.4043 248.192 50.759 247.931 50.375 247.408C50.0017 246.875 49.815 246.187 49.815 245.344V241.6H48.695V240.224L49.911 240.144L50.135 238H51.671V240.144H53.671V241.6H51.671V245.344C51.671 246.261 52.039 246.72 52.775 246.72C52.9137 246.72 53.0577 246.704 53.207 246.672C53.3563 246.629 53.4843 246.587 53.591 246.544L53.911 247.904C53.6977 247.979 53.4523 248.043 53.175 248.096C52.9083 248.16 52.6203 248.192 52.311 248.192ZM58.2903 248.192C57.6396 248.192 57.0316 248.032 56.4663 247.712C55.9009 247.381 55.4423 246.912 55.0903 246.304C54.7383 245.685 54.5623 244.944 54.5623 244.08C54.5623 243.205 54.7383 242.464 55.0903 241.856C55.4423 241.237 55.9009 240.768 56.4663 240.448C57.0316 240.117 57.6396 239.952 58.2903 239.952C58.9516 239.952 59.5649 240.117 60.1303 240.448C60.6956 240.768 61.1543 241.237 61.5063 241.856C61.8583 242.464 62.0343 243.205 62.0343 244.08C62.0343 244.944 61.8583 245.685 61.5063 246.304C61.1543 246.912 60.6956 247.381 60.1303 247.712C59.5649 248.032 58.9516 248.192 58.2903 248.192ZM58.2903 246.688C58.8663 246.688 59.3196 246.448 59.6503 245.968C59.9809 245.488 60.1463 244.859 60.1463 244.08C60.1463 243.291 59.9809 242.656 59.6503 242.176C59.3196 241.696 58.8663 241.456 58.2903 241.456C57.7143 241.456 57.2609 241.696 56.9303 242.176C56.6103 242.656 56.4503 243.291 56.4503 244.08C56.4503 244.859 56.6103 245.488 56.9303 245.968C57.2609 246.448 57.7143 246.688 58.2903 246.688ZM63.8555 248V240.144H65.3755L65.5035 241.536H65.5675C65.8448 241.024 66.1808 240.635 66.5755 240.368C66.9702 240.091 67.3755 239.952 67.7915 239.952C68.1648 239.952 68.4635 240.005 68.6875 240.112L68.3675 241.712C68.2288 241.669 68.1008 241.637 67.9835 241.616C67.8662 241.595 67.7222 241.584 67.5515 241.584C67.2422 241.584 66.9168 241.707 66.5755 241.952C66.2342 242.187 65.9408 242.603 65.6955 243.2V248H63.8555ZM70.6023 251.232C70.3889 251.232 70.2023 251.216 70.0423 251.184C69.8823 251.152 69.7276 251.115 69.5783 251.072L69.9143 249.632C69.9889 249.653 70.0743 249.675 70.1703 249.696C70.2769 249.728 70.3783 249.744 70.4743 249.744C70.8903 249.744 71.2209 249.616 71.4663 249.36C71.7223 249.115 71.9143 248.795 72.0423 248.4L72.1863 247.904L69.0983 240.144H70.9703L72.3303 244C72.4476 244.341 72.5596 244.704 72.6663 245.088C72.7836 245.461 72.9009 245.835 73.0182 246.208H73.0823C73.1783 245.845 73.2743 245.477 73.3703 245.104C73.4769 244.72 73.5783 244.352 73.6743 244L74.8583 240.144H76.6343L73.7863 248.352C73.4556 249.237 73.0556 249.936 72.5863 250.448C72.1169 250.971 71.4556 251.232 70.6023 251.232Z" fill="#5C5C5C"/>
<path fill-rule="evenodd" clip-rule="evenodd" d="M9 236.75C5.68667 236.75 3 239.437 3 242.75H1L3.59333 245.343L3.64 245.437L6.33333 242.75H4.33333C4.33333 240.17 6.42 238.083 9 238.083C11.58 238.083 13.6667 240.17 13.6667 242.75C13.6667 245.33 11.58 247.417 9 247.417C7.71333 247.417 6.54667 246.89 5.70667 246.043L4.76 246.99C5.84667 248.077 7.34 248.75 9 248.75C12.3133 248.75 15 246.063 15 242.75C15 239.437 12.3133 236.75 9 236.75ZM8.33333 240.083V243.417L11.1867 245.11L11.6667 244.303L9.33333 242.917V240.083H8.33333Z" fill="#5C5C5C"/>
<path d="M28.328 285V274.536H30.184V278.744H34.424V274.536H36.28V285H34.424V280.36H30.184V285H28.328ZM42.1374 285.192C41.412 285.192 40.756 285.032 40.1694 284.712C39.5827 284.381 39.1187 283.912 38.7774 283.304C38.436 282.685 38.2654 281.944 38.2654 281.08C38.2654 280.227 38.436 279.491 38.7774 278.872C39.1294 278.253 39.5827 277.779 40.1374 277.448C40.692 277.117 41.2734 276.952 41.8814 276.952C42.596 276.952 43.1934 277.112 43.6734 277.432C44.1534 277.741 44.516 278.179 44.7614 278.744C45.0067 279.299 45.1294 279.944 45.1294 280.68C45.1294 281.064 45.1027 281.363 45.0494 281.576H40.0574C40.1427 282.269 40.3934 282.808 40.8094 283.192C41.2254 283.576 41.748 283.768 42.3774 283.768C42.7187 283.768 43.0334 283.72 43.3214 283.624C43.62 283.517 43.9134 283.373 44.2014 283.192L44.8254 284.344C44.452 284.589 44.036 284.792 43.5774 284.952C43.1187 285.112 42.6387 285.192 42.1374 285.192ZM40.0414 280.328H43.5294C43.5294 279.72 43.396 279.245 43.1294 278.904C42.8627 278.552 42.4627 278.376 41.9294 278.376C41.4707 278.376 41.06 278.547 40.6974 278.888C40.3454 279.219 40.1267 279.699 40.0414 280.328ZM48.6788 285.192C48.0281 285.192 47.5641 284.995 47.2868 284.6C47.0201 284.205 46.8868 283.667 46.8868 282.984V273.704H48.7268V283.08C48.7268 283.304 48.7694 283.464 48.8548 283.56C48.9401 283.645 49.0308 283.688 49.1268 283.688C49.1694 283.688 49.2068 283.688 49.2388 283.688C49.2814 283.677 49.3401 283.667 49.4148 283.656L49.6548 285.032C49.5481 285.075 49.4094 285.112 49.2388 285.144C49.0788 285.176 48.8921 285.192 48.6788 285.192ZM51.2305 288.104V277.144H52.7505L52.8785 277.976H52.9425C53.2732 277.699 53.6412 277.459 54.0465 277.256C54.4625 277.053 54.8838 276.952 55.3105 276.952C56.2918 276.952 57.0492 277.315 57.5825 278.04C58.1265 278.765 58.3985 279.736 58.3985 280.952C58.3985 281.848 58.2385 282.616 57.9185 283.256C57.5985 283.885 57.1825 284.365 56.6705 284.696C56.1692 285.027 55.6252 285.192 55.0385 285.192C54.6972 285.192 54.3558 285.117 54.0145 284.968C53.6732 284.808 53.3425 284.595 53.0225 284.328L53.0705 285.64V288.104H51.2305ZM54.6545 283.672C55.1772 283.672 55.6145 283.443 55.9665 282.984C56.3185 282.525 56.4945 281.853 56.4945 280.968C56.4945 280.179 56.3612 279.565 56.0945 279.128C55.8278 278.691 55.3958 278.472 54.7985 278.472C54.2438 278.472 53.6678 278.765 53.0705 279.352V283.016C53.3585 283.251 53.6358 283.421 53.9025 283.528C54.1692 283.624 54.4198 283.672 54.6545 283.672Z" fill="#5C5C5C"/>
<path fill-rule="evenodd" clip-rule="evenodd" d="M6.4 283.266H7.6V282.066H6.4V283.266ZM7 273.666C3.688 273.666 1 276.354 1 279.666C1 282.978 3.688 285.666 7 285.666C10.312 285.666 13 282.978 13 279.666C13 276.354 10.312 273.666 7 273.666ZM7 284.466C4.354 284.466 2.2 282.312 2.2 279.666C2.2 277.02 4.354 274.866 7 274.866C9.646 274.866 11.8 277.02 11.8 279.666C11.8 282.312 9.646 284.466 7 284.466ZM7 276.066C5.674 276.066 4.6 277.14 4.6 278.466H5.8C5.8 277.806 6.34 277.266 7 277.266C7.66 277.266 8.2 277.806 8.2 278.466C8.2 279.666 6.4 279.516 6.4 281.466H7.6C7.6 280.116 9.4 279.966 9.4 278.466C9.4 277.14 8.326 276.066 7 276.066Z" fill="#5C5C5C"/>
</svg>
