<svg width="1924" height="169" viewBox="0 0 1924 169" fill="none" xmlns="http://www.w3.org/2000/svg">
<rect width="1924" height="169" fill="#162E51"/>
<path d="M1566.98 92.24C1565.89 92.24 1564.88 91.9867 1563.96 91.48C1563.04 90.9733 1562.3 90.2267 1561.74 89.24C1561.19 88.24 1560.92 87.0133 1560.92 85.56C1560.92 84.12 1561.2 82.8933 1561.76 81.88C1562.33 80.8533 1563.09 80.0733 1564.02 79.54C1564.97 78.9933 1565.99 78.72 1567.08 78.72C1567.92 78.72 1568.67 78.8933 1569.34 79.24C1570.01 79.5733 1570.56 79.9667 1571 80.42L1569.44 82.3C1569.11 81.9933 1568.75 81.7467 1568.38 81.56C1568.02 81.36 1567.61 81.26 1567.14 81.26C1566.55 81.26 1566.01 81.4267 1565.52 81.76C1565.04 82.0933 1564.65 82.5733 1564.36 83.2C1564.08 83.8267 1563.94 84.58 1563.94 85.46C1563.94 86.7933 1564.23 87.8333 1564.8 88.58C1565.37 89.3267 1566.14 89.7 1567.1 89.7C1567.63 89.7 1568.11 89.58 1568.52 89.34C1568.95 89.1 1569.32 88.8133 1569.64 88.48L1571.2 90.32C1570.11 91.6 1568.7 92.24 1566.98 92.24ZM1577.2 92.24C1576.36 92.24 1575.57 92.04 1574.82 91.64C1574.09 91.2267 1573.49 90.6333 1573.04 89.86C1572.59 89.0733 1572.36 88.1333 1572.36 87.04C1572.36 85.9333 1572.59 84.9933 1573.04 84.22C1573.49 83.4467 1574.09 82.86 1574.82 82.46C1575.57 82.0467 1576.36 81.84 1577.2 81.84C1578.04 81.84 1578.83 82.0467 1579.56 82.46C1580.29 82.86 1580.89 83.4467 1581.34 84.22C1581.79 84.9933 1582.02 85.9333 1582.02 87.04C1582.02 88.1333 1581.79 89.0733 1581.34 89.86C1580.89 90.6333 1580.29 91.2267 1579.56 91.64C1578.83 92.04 1578.04 92.24 1577.2 92.24ZM1577.2 89.86C1577.8 89.86 1578.25 89.6067 1578.56 89.1C1578.87 88.58 1579.02 87.8933 1579.02 87.04C1579.02 86.1733 1578.87 85.4867 1578.56 84.98C1578.25 84.4733 1577.8 84.22 1577.2 84.22C1576.59 84.22 1576.13 84.4733 1575.82 84.98C1575.53 85.4867 1575.38 86.1733 1575.38 87.04C1575.38 87.8933 1575.53 88.58 1575.82 89.1C1576.13 89.6067 1576.59 89.86 1577.2 89.86ZM1584.03 92V82.08H1586.43L1586.63 83.34H1586.71C1587.14 82.94 1587.61 82.5933 1588.11 82.3C1588.63 81.9933 1589.23 81.84 1589.89 81.84C1590.97 81.84 1591.75 82.2 1592.23 82.92C1592.73 83.6267 1592.97 84.6 1592.97 85.84V92H1590.03V86.22C1590.03 85.5 1589.93 85.0067 1589.73 84.74C1589.55 84.4733 1589.24 84.34 1588.81 84.34C1588.44 84.34 1588.12 84.4267 1587.85 84.6C1587.59 84.76 1587.29 84.9933 1586.97 85.3V92H1584.03ZM1599.3 92.24C1598.07 92.24 1597.19 91.8867 1596.66 91.18C1596.14 90.4733 1595.88 89.5467 1595.88 88.4V84.38H1594.52V82.2L1596.04 82.08L1596.38 79.44H1598.82V82.08H1601.2V84.38H1598.82V88.36C1598.82 88.92 1598.93 89.3267 1599.16 89.58C1599.4 89.82 1599.71 89.94 1600.1 89.94C1600.26 89.94 1600.42 89.92 1600.58 89.88C1600.75 89.84 1600.91 89.7933 1601.04 89.74L1601.5 91.88C1601.25 91.96 1600.93 92.04 1600.56 92.12C1600.2 92.2 1599.78 92.24 1599.3 92.24ZM1605.25 92.24C1604.34 92.24 1603.62 91.9533 1603.09 91.38C1602.55 90.7933 1602.29 90.08 1602.29 89.24C1602.29 88.2 1602.73 87.3867 1603.61 86.8C1604.49 86.2133 1605.91 85.82 1607.87 85.62C1607.84 85.18 1607.71 84.8333 1607.47 84.58C1607.24 84.3133 1606.85 84.18 1606.31 84.18C1605.89 84.18 1605.47 84.26 1605.05 84.42C1604.62 84.58 1604.17 84.8 1603.69 85.08L1602.63 83.14C1603.25 82.7533 1603.92 82.44 1604.63 82.2C1605.35 81.96 1606.09 81.84 1606.87 81.84C1608.13 81.84 1609.11 82.2067 1609.79 82.94C1610.47 83.6733 1610.81 84.8 1610.81 86.32V92H1608.41L1608.21 90.98H1608.13C1607.71 91.3533 1607.27 91.66 1606.79 91.9C1606.32 92.1267 1605.81 92.24 1605.25 92.24ZM1606.25 89.96C1606.58 89.96 1606.87 89.8867 1607.11 89.74C1607.36 89.58 1607.61 89.3733 1607.87 89.12V87.38C1606.83 87.5133 1606.11 87.7267 1605.71 88.02C1605.31 88.3 1605.11 88.6333 1605.11 89.02C1605.11 89.34 1605.21 89.58 1605.41 89.74C1605.62 89.8867 1605.9 89.96 1606.25 89.96ZM1617.61 92.24C1616.69 92.24 1615.86 92.04 1615.11 91.64C1614.38 91.2267 1613.79 90.6333 1613.35 89.86C1612.93 89.0733 1612.71 88.1333 1612.71 87.04C1612.71 85.9333 1612.95 84.9933 1613.43 84.22C1613.91 83.4467 1614.55 82.86 1615.33 82.46C1616.12 82.0467 1616.97 81.84 1617.87 81.84C1618.49 81.84 1619.03 81.94 1619.49 82.14C1619.97 82.34 1620.4 82.5933 1620.77 82.9L1619.39 84.8C1618.93 84.4133 1618.48 84.22 1618.05 84.22C1617.35 84.22 1616.78 84.4733 1616.35 84.98C1615.94 85.4867 1615.73 86.1733 1615.73 87.04C1615.73 87.8933 1615.94 88.58 1616.35 89.1C1616.78 89.6067 1617.31 89.86 1617.95 89.86C1618.27 89.86 1618.59 89.7933 1618.89 89.66C1619.2 89.5133 1619.48 89.34 1619.73 89.14L1620.89 91.06C1620.4 91.4867 1619.87 91.7933 1619.29 91.98C1618.72 92.1533 1618.16 92.24 1617.61 92.24ZM1626.25 92.24C1625.03 92.24 1624.15 91.8867 1623.61 91.18C1623.09 90.4733 1622.83 89.5467 1622.83 88.4V84.38H1621.47V82.2L1622.99 82.08L1623.33 79.44H1625.77V82.08H1628.15V84.38H1625.77V88.36C1625.77 88.92 1625.89 89.3267 1626.11 89.58C1626.35 89.82 1626.67 89.94 1627.05 89.94C1627.21 89.94 1627.37 89.92 1627.53 89.88C1627.71 89.84 1627.86 89.7933 1627.99 89.74L1628.45 91.88C1628.2 91.96 1627.89 92.04 1627.51 92.12C1627.15 92.2 1626.73 92.24 1626.25 92.24ZM1637.07 92.24C1635.99 92.24 1635.21 91.8867 1634.71 91.18C1634.23 90.46 1633.99 89.48 1633.99 88.24V82.08H1636.93V87.86C1636.93 88.5667 1637.03 89.06 1637.23 89.34C1637.43 89.6067 1637.75 89.74 1638.17 89.74C1638.55 89.74 1638.86 89.6533 1639.11 89.48C1639.37 89.3067 1639.64 89.0267 1639.93 88.64V82.08H1642.87V92H1640.47L1640.25 90.62H1640.19C1639.78 91.1133 1639.33 91.5067 1638.83 91.8C1638.34 92.0933 1637.75 92.24 1637.07 92.24ZM1648.38 92.24C1647.73 92.24 1647.05 92.1133 1646.36 91.86C1645.68 91.6067 1645.09 91.2733 1644.58 90.86L1645.9 89.02C1646.35 89.3533 1646.79 89.6133 1647.2 89.8C1647.63 89.9733 1648.05 90.06 1648.46 90.06C1648.9 90.06 1649.22 89.9867 1649.42 89.84C1649.62 89.68 1649.72 89.4733 1649.72 89.22C1649.72 88.9933 1649.62 88.8067 1649.42 88.66C1649.23 88.5133 1648.99 88.38 1648.68 88.26C1648.37 88.1267 1648.05 87.9933 1647.7 87.86C1647.3 87.7 1646.9 87.5 1646.5 87.26C1646.11 87.02 1645.79 86.7133 1645.52 86.34C1645.25 85.9533 1645.12 85.4867 1645.12 84.94C1645.12 84.02 1645.47 83.2733 1646.16 82.7C1646.87 82.1267 1647.79 81.84 1648.92 81.84C1649.68 81.84 1650.35 81.9733 1650.92 82.24C1651.51 82.4933 1652.01 82.78 1652.42 83.1L1651.1 84.86C1650.75 84.5933 1650.41 84.3867 1650.06 84.24C1649.71 84.0933 1649.37 84.02 1649.02 84.02C1648.26 84.02 1647.88 84.28 1647.88 84.8C1647.88 85.12 1648.07 85.3667 1648.44 85.54C1648.83 85.7 1649.27 85.8733 1649.78 86.06C1650.21 86.2067 1650.62 86.4 1651.02 86.64C1651.43 86.8667 1651.77 87.1733 1652.04 87.56C1652.32 87.9333 1652.46 88.4267 1652.46 89.04C1652.46 89.9333 1652.11 90.6933 1651.42 91.32C1650.73 91.9333 1649.71 92.24 1648.38 92.24ZM1656.03 85.76C1655.52 85.76 1655.09 85.5867 1654.75 85.24C1654.41 84.88 1654.25 84.44 1654.25 83.92C1654.25 83.3867 1654.41 82.9467 1654.75 82.6C1655.09 82.24 1655.52 82.06 1656.03 82.06C1656.53 82.06 1656.95 82.24 1657.29 82.6C1657.63 82.9467 1657.81 83.3867 1657.81 83.92C1657.81 84.44 1657.63 84.88 1657.29 85.24C1656.95 85.5867 1656.53 85.76 1656.03 85.76ZM1656.03 92.24C1655.52 92.24 1655.09 92.0667 1654.75 91.72C1654.41 91.36 1654.25 90.92 1654.25 90.4C1654.25 89.8667 1654.41 89.4267 1654.75 89.08C1655.09 88.72 1655.52 88.54 1656.03 88.54C1656.53 88.54 1656.95 88.72 1657.29 89.08C1657.63 89.4267 1657.81 89.8667 1657.81 90.4C1657.81 90.92 1657.63 91.36 1657.29 91.72C1656.95 92.0667 1656.53 92.24 1656.03 92.24ZM1664.67 92V82.28H1666.31V92H1664.67ZM1665.51 80.28C1665.19 80.28 1664.92 80.1867 1664.71 80C1664.51 79.8 1664.41 79.5333 1664.41 79.2C1664.41 78.88 1664.51 78.62 1664.71 78.42C1664.92 78.22 1665.19 78.12 1665.51 78.12C1665.83 78.12 1666.09 78.22 1666.29 78.42C1666.5 78.62 1666.61 78.88 1666.61 79.2C1666.61 79.5333 1666.5 79.8 1666.29 80C1666.09 80.1867 1665.83 80.28 1665.51 80.28ZM1669.59 92V82.28H1670.95L1671.09 83.68H1671.15C1671.62 83.2133 1672.11 82.8267 1672.63 82.52C1673.15 82.2 1673.74 82.04 1674.41 82.04C1675.44 82.04 1676.18 82.3667 1676.65 83.02C1677.13 83.66 1677.37 84.6 1677.37 85.84V92H1675.73V86.06C1675.73 85.1533 1675.58 84.4933 1675.29 84.08C1675 83.6667 1674.53 83.46 1673.89 83.46C1673.4 83.46 1672.95 83.5867 1672.55 83.84C1672.16 84.0933 1671.72 84.4667 1671.23 84.96V92H1669.59ZM1680.81 92V83.62H1679.49V82.38L1680.81 82.28V80.74C1680.81 79.7533 1681.03 78.9733 1681.49 78.4C1681.95 77.8133 1682.67 77.52 1683.65 77.52C1683.95 77.52 1684.25 77.5533 1684.53 77.62C1684.81 77.6733 1685.05 77.7467 1685.27 77.84L1684.91 79.1C1684.55 78.94 1684.18 78.86 1683.81 78.86C1682.9 78.86 1682.45 79.4867 1682.45 80.74V82.28H1684.51V83.62H1682.45V92H1680.81ZM1689.95 92.24C1689.16 92.24 1688.42 92.04 1687.73 91.64C1687.05 91.24 1686.5 90.66 1686.07 89.9C1685.66 89.14 1685.45 88.2267 1685.45 87.16C1685.45 86.0667 1685.66 85.14 1686.07 84.38C1686.5 83.62 1687.05 83.04 1687.73 82.64C1688.42 82.24 1689.16 82.04 1689.95 82.04C1690.75 82.04 1691.49 82.24 1692.17 82.64C1692.85 83.04 1693.4 83.62 1693.81 84.38C1694.24 85.14 1694.45 86.0667 1694.45 87.16C1694.45 88.2267 1694.24 89.14 1693.81 89.9C1693.4 90.66 1692.85 91.24 1692.17 91.64C1691.49 92.04 1690.75 92.24 1689.95 92.24ZM1689.95 90.88C1690.79 90.88 1691.46 90.54 1691.97 89.86C1692.49 89.1667 1692.75 88.2667 1692.75 87.16C1692.75 86.04 1692.49 85.1333 1691.97 84.44C1691.46 83.7467 1690.79 83.4 1689.95 83.4C1689.12 83.4 1688.45 83.7467 1687.93 84.44C1687.41 85.1333 1687.15 86.04 1687.15 87.16C1687.15 88.2667 1687.41 89.1667 1687.93 89.86C1688.45 90.54 1689.12 90.88 1689.95 90.88ZM1703.43 95.1C1702.12 95.1 1700.94 94.8267 1699.87 94.28C1698.8 93.7333 1697.96 92.9267 1697.33 91.86C1696.7 90.7933 1696.39 89.4867 1696.39 87.94C1696.39 86.5933 1696.61 85.38 1697.05 84.3C1697.49 83.2067 1698.1 82.2733 1698.87 81.5C1699.66 80.7267 1700.55 80.1333 1701.55 79.72C1702.55 79.2933 1703.61 79.08 1704.73 79.08C1706.08 79.08 1707.24 79.36 1708.21 79.92C1709.2 80.4667 1709.96 81.24 1710.49 82.24C1711.02 83.2267 1711.29 84.38 1711.29 85.7C1711.29 86.86 1711.08 87.84 1710.67 88.64C1710.26 89.4267 1709.74 90.02 1709.13 90.42C1708.52 90.82 1707.9 91.02 1707.29 91.02C1706.76 91.02 1706.3 90.8933 1705.91 90.64C1705.52 90.3733 1705.3 89.9933 1705.23 89.5H1705.19C1704.86 89.8867 1704.48 90.2133 1704.05 90.48C1703.62 90.7333 1703.19 90.86 1702.75 90.86C1702.07 90.86 1701.5 90.62 1701.03 90.14C1700.58 89.6467 1700.35 88.9467 1700.35 88.04C1700.35 87.5067 1700.44 86.9667 1700.61 86.42C1700.8 85.8733 1701.06 85.3733 1701.39 84.92C1701.72 84.4667 1702.12 84.1 1702.59 83.82C1703.07 83.54 1703.6 83.4 1704.19 83.4C1704.54 83.4 1704.84 83.48 1705.11 83.64C1705.39 83.7867 1705.62 84.0267 1705.79 84.36H1705.83L1706.05 83.56H1707.15L1706.37 87.56C1705.97 89.12 1706.33 89.9 1707.45 89.9C1707.88 89.9 1708.29 89.74 1708.69 89.42C1709.1 89.0867 1709.44 88.6133 1709.71 88C1709.99 87.3733 1710.13 86.6267 1710.13 85.76C1710.13 84.68 1709.92 83.72 1709.49 82.88C1709.08 82.04 1708.46 81.38 1707.63 80.9C1706.82 80.42 1705.8 80.18 1704.59 80.18C1703.7 80.18 1702.83 80.36 1701.99 80.72C1701.16 81.08 1700.42 81.6 1699.75 82.28C1699.08 82.9467 1698.56 83.7533 1698.17 84.7C1697.78 85.6467 1697.59 86.7067 1697.59 87.88C1697.59 89.1733 1697.85 90.28 1698.37 91.2C1698.89 92.1067 1699.6 92.8 1700.49 93.28C1701.4 93.76 1702.42 94 1703.55 94C1704.16 94 1704.74 93.9133 1705.29 93.74C1705.84 93.5667 1706.34 93.3533 1706.79 93.1L1707.23 94.08C1706.66 94.4267 1706.05 94.68 1705.41 94.84C1704.78 95.0133 1704.12 95.1 1703.43 95.1ZM1703.07 89.74C1703.35 89.74 1703.64 89.6467 1703.95 89.46C1704.26 89.2733 1704.58 88.9733 1704.91 88.56L1705.49 85.38C1705.3 85.0733 1705.11 84.86 1704.91 84.74C1704.71 84.6067 1704.48 84.54 1704.21 84.54C1703.69 84.54 1703.24 84.72 1702.85 85.08C1702.48 85.44 1702.18 85.88 1701.97 86.4C1701.77 86.92 1701.67 87.4333 1701.67 87.94C1701.67 88.58 1701.8 89.04 1702.07 89.32C1702.34 89.6 1702.67 89.74 1703.07 89.74ZM1716.18 92.24C1715.37 92.24 1714.69 92 1714.14 91.52C1713.61 91.0267 1713.34 90.3467 1713.34 89.48C1713.34 88.4133 1713.82 87.6 1714.76 87.04C1715.72 86.4667 1717.24 86.0667 1719.3 85.84C1719.3 85.4267 1719.24 85.0333 1719.12 84.66C1719.02 84.2867 1718.82 83.9867 1718.52 83.76C1718.24 83.52 1717.84 83.4 1717.3 83.4C1716.74 83.4 1716.22 83.5067 1715.72 83.72C1715.23 83.9333 1714.79 84.1733 1714.4 84.44L1713.76 83.3C1714.22 83.0067 1714.77 82.7267 1715.42 82.46C1716.09 82.18 1716.81 82.04 1717.58 82.04C1718.77 82.04 1719.63 82.4067 1720.16 83.14C1720.7 83.86 1720.96 84.8267 1720.96 86.04V92H1719.6L1719.46 90.84H1719.4C1718.95 91.2133 1718.45 91.54 1717.9 91.82C1717.37 92.1 1716.8 92.24 1716.18 92.24ZM1716.66 90.92C1717.13 90.92 1717.57 90.8067 1717.98 90.58C1718.4 90.3533 1718.84 90.0333 1719.3 89.62V86.92C1717.69 87.12 1716.56 87.42 1715.9 87.82C1715.26 88.22 1714.94 88.7333 1714.94 89.36C1714.94 89.9067 1715.11 90.3067 1715.44 90.56C1715.78 90.8 1716.18 90.92 1716.66 90.92ZM1727.3 96.48C1726.12 96.48 1725.15 96.2533 1724.4 95.8C1723.66 95.3467 1723.28 94.7 1723.28 93.86C1723.28 93.4467 1723.41 93.0467 1723.66 92.66C1723.92 92.2867 1724.26 91.9533 1724.7 91.66V91.58C1724.46 91.4333 1724.26 91.2267 1724.08 90.96C1723.92 90.6933 1723.84 90.3733 1723.84 90C1723.84 89.5867 1723.96 89.2267 1724.18 88.92C1724.41 88.6133 1724.65 88.3733 1724.9 88.2V88.12C1724.58 87.8533 1724.29 87.4933 1724.02 87.04C1723.77 86.5867 1723.64 86.0733 1723.64 85.5C1723.64 84.7933 1723.81 84.18 1724.14 83.66C1724.48 83.14 1724.92 82.74 1725.48 82.46C1726.04 82.18 1726.65 82.04 1727.3 82.04C1727.57 82.04 1727.82 82.0667 1728.06 82.12C1728.3 82.16 1728.51 82.2133 1728.68 82.28H1732.06V83.54H1730.06C1730.29 83.7533 1730.48 84.04 1730.62 84.4C1730.78 84.7467 1730.86 85.1267 1730.86 85.54C1730.86 86.2333 1730.7 86.8333 1730.38 87.34C1730.06 87.8467 1729.64 88.24 1729.1 88.52C1728.57 88.7867 1727.97 88.92 1727.3 88.92C1726.78 88.92 1726.3 88.8067 1725.84 88.58C1725.67 88.7267 1725.52 88.8933 1725.4 89.08C1725.28 89.2533 1725.22 89.4733 1725.22 89.74C1725.22 90.0467 1725.34 90.3 1725.58 90.5C1725.84 90.7 1726.29 90.8 1726.94 90.8H1728.82C1729.96 90.8 1730.8 90.9867 1731.36 91.36C1731.94 91.72 1732.22 92.3067 1732.22 93.12C1732.22 93.72 1732.02 94.2733 1731.62 94.78C1731.22 95.2867 1730.66 95.6933 1729.92 96C1729.19 96.32 1728.32 96.48 1727.3 96.48ZM1727.3 87.82C1727.86 87.82 1728.34 87.6133 1728.74 87.2C1729.16 86.7733 1729.36 86.2067 1729.36 85.5C1729.36 84.7933 1729.16 84.24 1728.76 83.84C1728.36 83.44 1727.88 83.24 1727.3 83.24C1726.73 83.24 1726.24 83.44 1725.84 83.84C1725.44 84.24 1725.24 84.7933 1725.24 85.5C1725.24 86.2067 1725.44 86.7733 1725.84 87.2C1726.26 87.6133 1726.74 87.82 1727.3 87.82ZM1727.54 95.34C1728.48 95.34 1729.22 95.1333 1729.78 94.72C1730.34 94.32 1730.62 93.8667 1730.62 93.36C1730.62 92.9067 1730.45 92.5933 1730.1 92.42C1729.77 92.2467 1729.29 92.16 1728.66 92.16H1726.98C1726.8 92.16 1726.59 92.1467 1726.36 92.12C1726.15 92.0933 1725.94 92.0533 1725.72 92C1725.38 92.2533 1725.12 92.52 1724.96 92.8C1724.8 93.08 1724.72 93.36 1724.72 93.64C1724.72 94.16 1724.97 94.5733 1725.46 94.88C1725.97 95.1867 1726.66 95.34 1727.54 95.34ZM1737.77 92.24C1736.9 92.24 1736.11 92.04 1735.41 91.64C1734.7 91.2267 1734.14 90.64 1733.73 89.88C1733.31 89.12 1733.11 88.2133 1733.11 87.16C1733.11 86.0933 1733.31 85.18 1733.73 84.42C1734.15 83.66 1734.7 83.0733 1735.37 82.66C1736.03 82.2467 1736.73 82.04 1737.47 82.04C1738.71 82.04 1739.66 82.4533 1740.33 83.28C1741.01 84.1067 1741.35 85.2133 1741.35 86.6C1741.35 86.7733 1741.34 86.9467 1741.33 87.12C1741.33 87.28 1741.31 87.42 1741.29 87.54H1734.73C1734.79 88.5667 1735.11 89.3867 1735.69 90C1736.27 90.6133 1737.03 90.92 1737.97 90.92C1738.43 90.92 1738.86 90.8533 1739.25 90.72C1739.65 90.5733 1740.03 90.3867 1740.39 90.16L1740.97 91.24C1740.55 91.5067 1740.08 91.74 1739.55 91.94C1739.03 92.14 1738.43 92.24 1737.77 92.24ZM1734.71 86.36H1739.91C1739.91 85.3733 1739.69 84.6267 1739.27 84.12C1738.85 83.6 1738.27 83.34 1737.51 83.34C1736.83 83.34 1736.21 83.6067 1735.67 84.14C1735.13 84.66 1734.81 85.4 1734.71 86.36ZM1743.75 92V82.28H1745.11L1745.25 83.68H1745.31C1745.78 83.2133 1746.27 82.8267 1746.79 82.52C1747.31 82.2 1747.9 82.04 1748.57 82.04C1749.6 82.04 1750.34 82.3667 1750.81 83.02C1751.29 83.66 1751.53 84.6 1751.53 85.84V92H1749.89V86.06C1749.89 85.1533 1749.74 84.4933 1749.45 84.08C1749.16 83.6667 1748.69 83.46 1748.05 83.46C1747.56 83.46 1747.11 83.5867 1746.71 83.84C1746.32 84.0933 1745.88 84.4667 1745.39 84.96V92H1743.75ZM1758.53 92.24C1757.67 92.24 1756.9 92.04 1756.21 91.64C1755.51 91.24 1754.97 90.66 1754.57 89.9C1754.17 89.14 1753.97 88.2267 1753.97 87.16C1753.97 86.0667 1754.18 85.14 1754.61 84.38C1755.05 83.62 1755.62 83.04 1756.33 82.64C1757.05 82.24 1757.82 82.04 1758.65 82.04C1759.29 82.04 1759.83 82.1533 1760.29 82.38C1760.75 82.6067 1761.15 82.8733 1761.49 83.18L1760.65 84.26C1760.37 84.0067 1760.07 83.8 1759.75 83.64C1759.44 83.48 1759.09 83.4 1758.71 83.4C1758.12 83.4 1757.59 83.56 1757.13 83.88C1756.67 84.1867 1756.31 84.6267 1756.05 85.2C1755.79 85.76 1755.67 86.4133 1755.67 87.16C1755.67 88.2667 1755.94 89.1667 1756.49 89.86C1757.05 90.54 1757.77 90.88 1758.67 90.88C1759.12 90.88 1759.54 90.7867 1759.93 90.6C1760.31 90.4 1760.65 90.1667 1760.95 89.9L1761.67 91C1761.23 91.3867 1760.74 91.6933 1760.21 91.92C1759.67 92.1333 1759.11 92.24 1758.53 92.24ZM1764.09 96.18C1763.87 96.18 1763.67 96.16 1763.47 96.12C1763.28 96.08 1763.11 96.0333 1762.95 95.98L1763.27 94.68C1763.37 94.7067 1763.49 94.7333 1763.63 94.76C1763.76 94.8 1763.89 94.82 1764.01 94.82C1764.55 94.82 1765.01 94.62 1765.37 94.22C1765.73 93.8333 1766.01 93.34 1766.21 92.74L1766.43 92.02L1762.53 82.28H1764.23L1766.21 87.66C1766.35 88.0733 1766.51 88.52 1766.67 89C1766.84 89.48 1767 89.9467 1767.15 90.4H1767.23C1767.37 89.96 1767.51 89.5 1767.65 89.02C1767.78 88.54 1767.91 88.0867 1768.05 87.66L1769.79 82.28H1771.39L1767.73 92.8C1767.5 93.44 1767.23 94.0133 1766.91 94.52C1766.6 95.0267 1766.21 95.4267 1765.75 95.72C1765.29 96.0267 1764.74 96.18 1764.09 96.18ZM1773.42 92.24C1773.08 92.24 1772.8 92.1267 1772.56 91.9C1772.33 91.66 1772.22 91.36 1772.22 91C1772.22 90.6133 1772.33 90.3067 1772.56 90.08C1772.8 89.84 1773.08 89.72 1773.42 89.72C1773.74 89.72 1774.01 89.84 1774.24 90.08C1774.48 90.3067 1774.6 90.6133 1774.6 91C1774.6 91.36 1774.48 91.66 1774.24 91.9C1774.01 92.1267 1773.74 92.24 1773.42 92.24ZM1780.82 96.48C1779.63 96.48 1778.67 96.2533 1777.92 95.8C1777.17 95.3467 1776.8 94.7 1776.8 93.86C1776.8 93.4467 1776.93 93.0467 1777.18 92.66C1777.43 92.2867 1777.78 91.9533 1778.22 91.66V91.58C1777.98 91.4333 1777.77 91.2267 1777.6 90.96C1777.44 90.6933 1777.36 90.3733 1777.36 90C1777.36 89.5867 1777.47 89.2267 1777.7 88.92C1777.93 88.6133 1778.17 88.3733 1778.42 88.2V88.12C1778.1 87.8533 1777.81 87.4933 1777.54 87.04C1777.29 86.5867 1777.16 86.0733 1777.16 85.5C1777.16 84.7933 1777.33 84.18 1777.66 83.66C1777.99 83.14 1778.44 82.74 1779 82.46C1779.56 82.18 1780.17 82.04 1780.82 82.04C1781.09 82.04 1781.34 82.0667 1781.58 82.12C1781.82 82.16 1782.03 82.2133 1782.2 82.28H1785.58V83.54H1783.58C1783.81 83.7533 1783.99 84.04 1784.14 84.4C1784.3 84.7467 1784.38 85.1267 1784.38 85.54C1784.38 86.2333 1784.22 86.8333 1783.9 87.34C1783.58 87.8467 1783.15 88.24 1782.62 88.52C1782.09 88.7867 1781.49 88.92 1780.82 88.92C1780.3 88.92 1779.81 88.8067 1779.36 88.58C1779.19 88.7267 1779.04 88.8933 1778.92 89.08C1778.8 89.2533 1778.74 89.4733 1778.74 89.74C1778.74 90.0467 1778.86 90.3 1779.1 90.5C1779.35 90.7 1779.81 90.8 1780.46 90.8H1782.34C1783.47 90.8 1784.32 90.9867 1784.88 91.36C1785.45 91.72 1785.74 92.3067 1785.74 93.12C1785.74 93.72 1785.54 94.2733 1785.14 94.78C1784.74 95.2867 1784.17 95.6933 1783.44 96C1782.71 96.32 1781.83 96.48 1780.82 96.48ZM1780.82 87.82C1781.38 87.82 1781.86 87.6133 1782.26 87.2C1782.67 86.7733 1782.88 86.2067 1782.88 85.5C1782.88 84.7933 1782.68 84.24 1782.28 83.84C1781.88 83.44 1781.39 83.24 1780.82 83.24C1780.25 83.24 1779.76 83.44 1779.36 83.84C1778.96 84.24 1778.76 84.7933 1778.76 85.5C1778.76 86.2067 1778.96 86.7733 1779.36 87.2C1779.77 87.6133 1780.26 87.82 1780.82 87.82ZM1781.06 95.34C1781.99 95.34 1782.74 95.1333 1783.3 94.72C1783.86 94.32 1784.14 93.8667 1784.14 93.36C1784.14 92.9067 1783.97 92.5933 1783.62 92.42C1783.29 92.2467 1782.81 92.16 1782.18 92.16H1780.5C1780.31 92.16 1780.11 92.1467 1779.88 92.12C1779.67 92.0933 1779.45 92.0533 1779.24 92C1778.89 92.2533 1778.64 92.52 1778.48 92.8C1778.32 93.08 1778.24 93.36 1778.24 93.64C1778.24 94.16 1778.49 94.5733 1778.98 94.88C1779.49 95.1867 1780.18 95.34 1781.06 95.34ZM1791.12 92.24C1790.34 92.24 1789.6 92.04 1788.9 91.64C1788.22 91.24 1787.67 90.66 1787.24 89.9C1786.83 89.14 1786.62 88.2267 1786.62 87.16C1786.62 86.0667 1786.83 85.14 1787.24 84.38C1787.67 83.62 1788.22 83.04 1788.9 82.64C1789.6 82.24 1790.34 82.04 1791.12 82.04C1791.92 82.04 1792.66 82.24 1793.34 82.64C1794.02 83.04 1794.57 83.62 1794.98 84.38C1795.41 85.14 1795.62 86.0667 1795.62 87.16C1795.62 88.2267 1795.41 89.14 1794.98 89.9C1794.57 90.66 1794.02 91.24 1793.34 91.64C1792.66 92.04 1791.92 92.24 1791.12 92.24ZM1791.12 90.88C1791.96 90.88 1792.64 90.54 1793.14 89.86C1793.66 89.1667 1793.92 88.2667 1793.92 87.16C1793.92 86.04 1793.66 85.1333 1793.14 84.44C1792.64 83.7467 1791.96 83.4 1791.12 83.4C1790.3 83.4 1789.62 83.7467 1789.1 84.44C1788.58 85.1333 1788.32 86.04 1788.32 87.16C1788.32 88.2667 1788.58 89.1667 1789.1 89.86C1789.62 90.54 1790.3 90.88 1791.12 90.88ZM1800.2 92L1796.7 82.28H1798.4L1800.24 87.8C1800.39 88.28 1800.54 88.76 1800.68 89.24C1800.84 89.72 1801 90.1933 1801.14 90.66H1801.22C1801.37 90.1933 1801.52 89.72 1801.66 89.24C1801.82 88.76 1801.97 88.28 1802.1 87.8L1803.94 82.28H1805.56L1802.12 92H1800.2Z" fill="white"/>
<path d="M1560 93.5H1659.02V94.5H1560V93.5Z" fill="white"/>
<path d="M1663.03 93.5H1805.8V94.5H1663.03V93.5Z" fill="white"/>
<path d="M1472.54 92V78.96H1475.48V83.98H1479.98V78.96H1482.94V92H1479.98V86.56H1475.48V92H1472.54ZM1490.22 92.24C1489.27 92.24 1488.42 92.0333 1487.66 91.62C1486.9 91.2067 1486.3 90.6133 1485.86 89.84C1485.42 89.0667 1485.2 88.1333 1485.2 87.04C1485.2 85.96 1485.42 85.0333 1485.86 84.26C1486.31 83.4867 1486.9 82.8933 1487.62 82.48C1488.34 82.0533 1489.09 81.84 1489.88 81.84C1490.82 81.84 1491.6 82.0533 1492.22 82.48C1492.84 82.8933 1493.31 83.46 1493.62 84.18C1493.94 84.8867 1494.1 85.6933 1494.1 86.6C1494.1 86.8533 1494.08 87.1067 1494.06 87.36C1494.03 87.6 1494 87.78 1493.98 87.9H1488.04C1488.17 88.62 1488.47 89.1533 1488.94 89.5C1489.4 89.8333 1489.96 90 1490.62 90C1491.32 90 1492.04 89.78 1492.76 89.34L1493.74 91.12C1493.23 91.4667 1492.66 91.74 1492.04 91.94C1491.41 92.14 1490.8 92.24 1490.22 92.24ZM1488.02 85.96H1491.6C1491.6 85.4133 1491.46 84.9667 1491.2 84.62C1490.94 84.26 1490.52 84.08 1489.94 84.08C1489.48 84.08 1489.08 84.24 1488.72 84.56C1488.36 84.8667 1488.12 85.3333 1488.02 85.96ZM1498.83 92.24C1497.81 92.24 1497.11 91.94 1496.71 91.34C1496.32 90.7267 1496.13 89.92 1496.13 88.92V77.98H1499.07V89.04C1499.07 89.3467 1499.12 89.56 1499.23 89.68C1499.35 89.8 1499.47 89.86 1499.59 89.86C1499.65 89.86 1499.71 89.86 1499.75 89.86C1499.8 89.8467 1499.87 89.8333 1499.95 89.82L1500.31 92C1500.15 92.0667 1499.94 92.12 1499.69 92.16C1499.45 92.2133 1499.16 92.24 1498.83 92.24ZM1501.85 95.68V82.08H1504.25L1504.45 83.06H1504.53C1504.92 82.7133 1505.35 82.4267 1505.83 82.2C1506.32 81.96 1506.83 81.84 1507.35 81.84C1508.55 81.84 1509.5 82.3 1510.19 83.22C1510.88 84.1267 1511.23 85.3467 1511.23 86.88C1511.23 88.0133 1511.03 88.98 1510.63 89.78C1510.23 90.58 1509.71 91.1933 1509.07 91.62C1508.44 92.0333 1507.77 92.24 1507.05 92.24C1506.62 92.24 1506.21 92.1533 1505.81 91.98C1505.41 91.7933 1505.04 91.5333 1504.69 91.2L1504.79 92.78V95.68H1501.85ZM1506.37 89.84C1506.88 89.84 1507.31 89.6067 1507.67 89.14C1508.03 88.6733 1508.21 87.9333 1508.21 86.92C1508.21 85.1333 1507.64 84.24 1506.49 84.24C1505.92 84.24 1505.35 84.54 1504.79 85.14V89.2C1505.06 89.44 1505.32 89.6067 1505.59 89.7C1505.86 89.7933 1506.12 89.84 1506.37 89.84Z" fill="white"/>
<path d="M1471 93.5H1512.01V94.5H1471V93.5Z" fill="white"/>
<g clip-path="url(#clip0_43_10657)">
<path d="M105.923 96.5377L105.953 75.5356H122.491V80.5993H112.275C112.275 82.6372 112.245 83.0252 112.245 83.7139H120.843V88.507H112.275V91.4438H122.79V96.5377H105.923Z" fill="white"/>
<path d="M192.457 96.5377L186.076 89.1087H185.567V96.5377H179.306L179.275 75.5356H190.39C195.214 75.5356 197.73 78.1413 197.73 82.1263C197.73 85.152 195.573 87.489 192.727 88.4767L199.169 95.637L198.779 96.5358H192.457V96.5377ZM189.282 80.4195H185.567V83.835H189.132C190.57 83.8048 191.32 82.9059 191.32 82.1566C191.32 81.4073 190.78 80.4195 189.282 80.4195Z" fill="white"/>
<path d="M219.869 96.5373L218.791 93.9316H210.342L209.084 96.5373H203.002L212.588 75.4766H217.831L226.999 96.5373H219.869ZM214.567 83.5054L212.501 88.5387H216.666L214.569 83.5054H214.567Z" fill="white"/>
<path d="M87.1422 89.5986H81V96.0417H87.1422V89.5986Z" fill="white"/>
<path d="M94.1322 75.7871V86.0317C90.5445 81.7571 86.0731 78.247 81 75.7871V82.198C86.55 85.4773 91.0857 90.2874 94.0357 96.0436H94.1322H100.274V75.7871H94.1322Z" fill="white"/>
<path d="M162.819 74.3115C156.404 74.3115 151.202 79.5114 151.202 85.928C151.202 92.3446 156.402 97.5445 162.819 97.5445C169.235 97.5445 174.435 92.3446 174.435 85.928C174.435 79.5114 169.235 74.3115 162.819 74.3115ZM162.819 92.2406C159.331 92.2406 156.504 89.4135 156.504 85.9261C156.504 82.4387 159.331 79.6117 162.819 79.6117C166.306 79.6117 169.133 82.4387 169.133 85.9261C169.133 89.4135 166.306 92.2406 162.819 92.2406Z" fill="white"/>
<path d="M113.865 111.551L132.29 83.7005L154.474 58L113.865 111.551Z" fill="white"/>
<path d="M135.997 78.2188L134.025 75.5356H127.493L127.252 76.4042C128.658 78.3362 130.395 80.7601 131.851 82.8284L135.995 78.2188H135.997Z" fill="white"/>
<path d="M141.785 85.8408L148.704 76.3739L148.256 75.5356H142.084L127.014 95.7278L127.224 96.5377H133.576L137.89 90.6944L142.023 96.5377H148.824L149.034 95.6975L141.785 85.8408Z" fill="white"/>
</g>
<defs>
<clipPath id="clip0_43_10657">
<rect width="146" height="53.5505" fill="white" transform="translate(81 58)"/>
</clipPath>
</defs>
</svg>
