<svg id="Layer_1" xmlns="http://www.w3.org/2000/svg" width="242" height="65" viewBox="0 0 484 130">
	<g id="Nexora" style="fill: #FFF;">
		<g>
			<path d="M16.02,109.89L36.06,15.33h24.98c6.59,21.96,18.25,60.11,20.04,72.19h.27c1.37-10.84,5.08-27.58,8.37-43.09l6.18-29.1h18.11l-20.17,94.56h-23.61c-5.76-19.9-18.66-65.05-20.31-75.75h-.27c-1.78,11.94-5.49,28.96-9.06,45.84l-6.31,29.92h-18.25Z" />
			<path d="M138.03,78.6c-.27,1.51-.55,2.75-.55,4.26,0,7.55,2.88,14,11.25,14,7.69,0,10.98-3.98,13.31-8.65h19.49c-3.98,10.57-13.04,23.06-34.31,23.06-19.07,0-28.41-11.94-28.41-29.1,0-18.8,10.16-44.74,38.43-44.74,20.86,0,28.27,12.76,28.27,27.31,0,5.77-.82,9.88-1.92,13.86h-45.56ZM167.4,66.11c.28-1.24.28-2.33.28-3.16,0-6.17-2.74-11.53-10.98-11.53s-13.72,5.49-16.19,14.68h26.9Z"/>
			<path d="M219.55,38.8c3.71,8.78,7.41,19.07,8.78,22.09h.14c3.57-4.67,7.96-10.7,16.47-22.09h21.27l-29.23,34.72,15.37,36.37h-20.17c-3.84-9.19-7.41-19.21-8.78-22.1h-.14c-2.33,3.16-9.47,12.9-16.61,22.1h-20.86l29.23-35.95-15.23-35.13h19.76Z" />
			<path d="M333.33,68.03c0,16.61-9.75,43.23-39.94,43.23-19.76,0-28.82-12.08-28.82-29.37,0-19.08,12.08-44.46,39.25-44.46,17.02,0,29.51,9.61,29.51,30.6ZM283.92,82.03c0,9.88,4.12,14.68,11.39,14.68,13.45,0,18.66-18.53,18.66-30.6,0-9.19-3.84-14.14-11.66-14.14-12.9,0-18.39,18.39-18.39,30.05Z" />
			<path d="M392.75,56.23c-13.04.14-22.09,7.28-25.39,22.78l-6.59,30.88h-18.66l10.7-49.95c1.51-7,2.88-14.55,4.12-21.13h17.98c-.14,1.78-.82,7.14-2.06,12.9,4.8-8.51,11.26-14.27,23.6-14.27l-3.71,18.8Z" />
			<path d="M456.98,92.46c-1.65,7.41-3.16,15.37-3.29,17.43h-18.12c.14-2.06.69-5.76.96-7.96-3.57,4.39-8.24,9.33-21.41,9.33-14,0-19.9-9.88-19.9-18.25,0-19.76,17.29-24.98,32.93-26.76,6.04-.55,11.53-.55,15.92-.69l.69-3.29c.96-5.22.96-11.8-9.06-11.8-8.92,0-10.57,4.8-12.07,8.24h-19.08c2.61-11.39,10.57-21.27,32.66-21.27,17.29,0,30.05,7.27,26.07,25.8l-6.31,29.23ZM441.47,78.05c-4.66,0-8.65.27-12.35.69-10.43,1.65-14.55,5.08-14.55,11.12,0,4.12,2.61,7.27,8.65,7.27,12.9,0,16.19-10.43,17.98-17.98l.27-1.1Z"/>
		</g>
	</g>
</svg>