<?xml version="1.0" encoding="UTF-8"?><svg id="Layer_2" xmlns="http://www.w3.org/2000/svg" width="771.57" height="283" viewBox="0 0 771.57 283"><defs><style>.cls-1{fill:#fff;}</style></defs><g id="Layer_1-2"><path class="cls-1" d="M131.71,203.66l.16-110.99h87.4v26.76h-53.99c0,10.77-.16,12.82-.16,16.46h45.44v25.33h-45.28v15.52h55.57v26.92h-89.14Z"/><path class="cls-1" d="M589.02,203.66l-33.72-39.26h-2.69v39.26h-33.09l-.16-110.99h58.74c25.49,0,38.79,13.77,38.79,34.83,0,15.99-11.4,28.34-26.44,33.56l34.04,37.84-2.06,4.75h-33.41ZM572.24,118.48h-19.63v18.05h18.84c7.6-.16,11.56-4.91,11.56-8.87s-2.85-9.18-10.77-9.18Z"/><path class="cls-1" d="M733.89,203.66l-5.7-13.77h-44.65l-6.65,13.77h-32.14l50.66-111.3h27.71l48.45,111.3h-37.68ZM705.87,134.79l-10.92,26.6h22.01l-11.08-26.6Z"/><rect class="cls-1" y="166.99" width="32.46" height="34.05"/><path class="cls-1" d="M69.4,94v54.14C50.44,125.55,26.81,107,0,94v33.88c29.33,17.33,53.3,42.75,68.89,73.17h.51s32.46,0,32.46,0v-107.05h-32.46Z"/><path class="cls-1" d="M432.39,86.2c-33.9,0-61.39,27.48-61.39,61.39s27.48,61.39,61.39,61.39,61.39-27.48,61.39-61.39-27.48-61.39-61.39-61.39ZM432.39,180.95c-18.43,0-33.37-14.94-33.37-33.37s14.94-33.37,33.37-33.37,33.37,14.94,33.37,33.37-14.94,33.37-33.37,33.37Z"/><polygon class="cls-1" points="173.68 283 271.05 135.82 388.29 0 173.68 283"/><path class="cls-1" d="M290.64,106.85l-10.42-14.18h-34.52l-1.27,4.59c7.43,10.21,16.61,23.02,24.3,33.95l21.9-24.36Z"/><polygon class="cls-1" points="321.23 147.13 357.8 97.1 355.43 92.67 322.81 92.67 243.17 199.38 244.28 203.66 277.85 203.66 300.65 172.78 322.49 203.66 358.43 203.66 359.54 199.22 321.23 147.13"/></g></svg>