<svg width="111" height="111" viewBox="0 0 111 111" fill="none" xmlns="http://www.w3.org/2000/svg">
<path d="M88.2003 35.2013L69.5134 54.9861H83.5286C83.5286 71.3579 70.9616 84.6632 55.4983 84.6632C50.7798 84.6632 46.295 83.4266 42.4174 81.2008L35.5967 88.4223C41.343 92.2803 48.1637 94.5555 55.4983 94.5555C76.1472 94.5555 92.872 76.8482 92.872 54.9861H106.887L88.2003 35.2013ZM27.468 54.9861C27.468 38.6142 40.0349 25.309 55.4983 25.309C60.2167 25.309 64.7015 26.5455 68.5791 28.7713L75.3998 21.5499C69.6536 17.6919 62.8329 15.4166 55.4983 15.4166C34.8493 15.4166 18.1245 33.124 18.1245 54.9861H4.10938L22.7962 74.7708L41.4831 54.9861H27.468Z" fill="#3D3D3D"/>
</svg>
